<?xml version="1.0" standalone="no"?>
<!DOCTYPE svg PUBLIC "-//W3C//DTD SVG 1.1//EN" "http://www.w3.org/Graphics/SVG/1.1/DTD/svg11.dtd" >
<svg xmlns="http://www.w3.org/2000/svg">
<metadata>Generated by IcoMoon</metadata>
<defs>
<font id="ts_icons3" horiz-adv-x="1024">
<font-face units-per-em="1024" ascent="960" descent="-64" />
<missing-glyph horiz-adv-x="1024" />
<glyph unicode="&#x20;" horiz-adv-x="512" d="" />
<glyph unicode="&#x21;" glyph-name="Turizem" d="M37.581 702.252c-25.056-25.163-37.581-55.282-37.581-90.356v-475.798c0-35.087 12.525-65.205 37.581-90.362 25.063-25.163 55.053-37.735 89.977-37.735h36.442v732h-36.442c-34.931 0-64.921-12.585-89.977-37.748zM986.419 702.252c-25.056 25.163-55.046 37.748-89.977 37.748h-36.442v-732h36.442c34.931 0 64.921 12.565 89.977 37.735 25.050 25.163 37.581 55.282 37.581 90.362v475.798c0 35.074-12.531 65.192-37.581 90.356zM488.419 172.413c-2.308 2.321-5.387 3.587-8.65 3.587-3.27 0-6.349-1.266-8.664-3.587l-11.518-11.505c-2.308-2.314-3.587-5.393-3.587-8.67 0-3.257 1.279-6.336 3.58-8.651 2.321-2.301 5.4-3.587 8.664-3.587 3.27 0 6.349 1.273 8.664 3.587l11.518 11.525c4.767 4.774 4.767 12.541-0.007 17.301zM420.42 236.414c-2.314 2.32-5.387 3.586-8.651 3.586-3.284 0-6.349-1.265-8.664-3.586l-11.512-11.528c-2.314-2.3-3.593-5.372-3.593-8.641s1.279-6.347 3.58-8.661c2.321-2.32 5.387-3.586 8.664-3.586 3.27 0 6.336 1.265 8.651 3.586l11.525 11.534c4.774 4.759 4.774 12.523 0 17.295zM452.413 204.415c-2.315 2.313-5.388 3.585-8.652 3.585-3.271 0-6.35-1.272-8.665-3.585l-11.514-11.512c-4.774-4.778-4.774-12.527-0.013-17.318 2.321-2.3 5.388-3.585 8.665-3.585 3.271 0 6.35 1.285 8.658 3.585l11.52 11.532c2.315 2.313 3.587 5.371 3.587 8.652 0 3.275-1.273 6.333-3.587 8.646zM332.81 342.73c-4.281-4.274-11.224-4.274-15.498 0-4.281 4.281-4.281 11.218 0 15.499 4.274 4.274 11.218 4.274 15.498 0 4.281-4.281 4.281-11.218 0-15.499zM379.064 464l-103.064-103.062 44.929-44.938 103.071 103.069-44.936 44.931zM501.648 357.446l-38.022-37.923c-4.834-4.835-4.834-12.689 0-17.518 2.344-2.332 5.463-3.613 8.774-3.613s6.436 1.288 8.774 3.613l0.298 0.291 21.296 19.744 31.785 8.118 33.652-20.418 66.185-65.74 45.611 59.676-88.554 88.324-89.798-34.554zM596 419.071l103.080-103.071 44.92 44.936-103.073 103.064zM777.379 360.527l-76.586-76.601-7.95 7.937-46.020-60.354c6.986-12.983 5.007-29.519-5.924-40.457-6.16-6.154-14.189-9.673-22.826-10.014-0.341-8.612-3.867-16.686-9.994-22.82-6.154-6.141-14.208-9.654-22.82-9.995-0.341-8.631-3.873-16.699-10.014-22.827-6.134-6.134-14.208-9.667-22.852-10.008-0.328-8.31-3.663-16.509-9.981-22.827-6.475-6.475-15.086-10.040-24.235-10.040-5.512 0-10.807 1.298-15.571 3.723-0.891-0.059-1.796-0.125-2.7-0.125-9.149 0-17.76 3.565-24.242 10.040-6.141 6.161-9.66 14.222-10.001 22.84-8.631 0.36-16.692 3.873-22.839 10.014-6.134 6.134-9.66 14.202-10.001 22.834-8.638 0.341-16.692 3.86-22.839 10.014-6.324 6.311-9.653 14.51-9.981 22.84-8.644 0.321-16.712 3.854-22.859 9.988-6.475 6.469-10.047 15.087-10.047 24.249 0 5.315 1.226 10.466 3.513 15.12l-37.336 59.155-10.060-10.067-76.599 76.608 135.247 135.258 76.599-76.608-10.538-10.532 55.142-22.218 69.265 26.727-6.783 6.79 76.579 76.608 135.254-135.252zM412.971 563.211c-5.099-5.053-13.324-5.053-18.376 0-5.053 5.099-5.053 13.324 0 18.377 64.743 64.7 170.060 64.7 234.803 0 5.046-5.105 5.046-13.324 0-18.377-2.53-2.53-5.852-3.814-9.169-3.814s-6.632 1.285-9.162 3.814c-54.638 54.639-143.505 54.639-198.096 0zM448.59 527.539c-5.105-5.053-13.324-5.053-18.376 0-5.053 5.105-5.053 13.331 0 18.384 45.076 45.13 118.483 45.13 163.565 0 5.053-5.105 5.053-13.331 0-18.384-2.523-2.523-5.846-3.814-9.162-3.814-3.323 0-6.639 1.291-9.169 3.814-34.97 34.978-91.888 34.978-126.859 0zM529.285 464.183c0-9.549-7.74-17.289-17.288-17.289s-17.288 7.74-17.288 17.289c0 9.549 7.74 17.289 17.288 17.289s17.288-7.74 17.288-17.289zM483.659 492.469c-5.099-5.053-13.324-5.053-18.376 0-5.053 5.105-5.053 13.331 0 18.384 25.762 25.757 67.666 25.757 93.376-0.052 5.053-5.053 5.053-13.278 0-18.331-2.53-2.523-5.846-3.814-9.162-3.814s-6.639 1.291-9.169 3.814c-15.604 15.657-41.065 15.657-56.669 0zM366.002 742.007v72.997h291.997v-72.997h-291.997zM730.986 833.249c0 15.211-5.322 28.136-15.971 38.786-10.637 10.643-23.567 15.965-38.771 15.965h-328.494c-15.204 0-28.135-5.322-38.784-15.965-10.643-10.643-15.965-23.568-15.965-38.786v-91.243h-73.001v-730.007h584v730.007h-73.014v91.243zM511.761 144c-3.269 0-6.334-1.266-8.647-3.587l-11.521-11.519c-2.313-2.314-3.592-5.374-3.592-8.657 0-3.277 1.279-6.33 3.592-8.651 2.307-2.314 5.385-3.587 8.647-3.587 3.282 0 6.347 1.273 8.661 3.587l11.508 11.505c2.313 2.314 3.592 5.393 3.592 8.67 0 3.264-1.279 6.336-3.592 8.651-2.3 2.321-5.378 3.587-8.647 3.587zM622.121 224.219l-70.375 69.566-23.148 13.973-17.029-4.334-16.852-15.531c-6.493-6.367-15.073-9.867-24.198-9.867-9.204 0-17.85 3.558-24.356 10.017-13.438 13.328-13.438 35.024 0 48.365l32.338 32.104-48.718 19.487-81.785-81.18 36.402-57.255 2.961 2.946c6.493 6.426 15.106 9.965 24.283 9.965 9.165 0 17.791-3.539 24.27-9.965 6.348-6.302 9.67-14.449 10.011-22.719 8.652-0.332 16.734-3.845 22.892-9.932 6.151-6.12 9.677-14.143 10.025-22.713 8.639-0.352 16.721-3.852 22.865-9.959 6.348-6.289 9.67-14.455 10.011-22.706 8.652-0.339 16.747-3.832 22.898-9.952 4.72-4.692 7.897-10.506 9.263-16.854 1.845-1.075 3.959-1.675 6.178-1.675 3.269 0 6.315 1.258 8.62 3.545 4.622 4.588 4.74 12.142 0.243 16.847l-30.224 30.025c-4.326 4.282-4.326 11.242 0 15.531 4.313 4.295 11.324 4.295 15.651 0l30.231-29.999c2.271-2.125 5.245-3.311 8.37-3.311 3.243 0 6.296 1.251 8.6 3.545 4.628 4.588 4.733 12.142 0.263 16.847l-30.251 30.019c-4.313 4.288-4.313 11.249 0 15.531 4.326 4.301 11.331 4.301 15.664 0l30.231-29.993c2.265-2.125 5.232-3.304 8.364-3.304 3.25 0 6.315 1.258 8.606 3.526 4.766 4.738 4.766 12.409 0 17.121l-2.304 2.288z" />
<glyph unicode="&#x23;" glyph-name="Lokalna_Uprava" d="M195.169 418.687h-186.915c-4.541 0-8.254-3.707-8.254-8.235v-17.412c0-4.546 3.695-8.228 8.254-8.228h186.915c4.559 0 8.254 3.682 8.254 8.228v17.412c0 4.528-3.713 8.235-8.254 8.235zM343.598 763.999c-48.955 0-94.955-18.996-129.541-53.486-34.583-34.489-53.631-80.369-53.634-129.192 0.011-10.91 8.877-19.752 19.802-19.749 10.947-0.007 19.817 8.835 19.809 19.752 0.007 38.262 14.93 74.227 42.031 101.255s63.164 41.911 101.529 41.918c5.481 0 10.422 2.213 14.008 5.786 3.579 3.573 5.798 8.501 5.798 13.967 0.004 10.896-8.863 19.738-19.802 19.749zM260.255 664.439c-24.314-24.252-37.688-56.499-37.658-90.806 0.015-10.917 8.884-19.741 19.817-19.731 10.932 0 19.791 8.86 19.784 19.763-0.029 23.736 9.238 46.057 26.066 62.84 16.825 16.783 39.207 26.021 63.007 25.992 5.484-0.007 10.433 2.202 14.023 5.782 3.575 3.565 5.809 8.501 5.798 13.952 0.011 10.903-8.837 19.745-19.788 19.76-34.397 0.033-66.735-13.305-91.049-37.553zM307.899 616.924c-15.451-15.409-15.433-40.475 0-55.866 15.418-15.377 40.515-15.358 55.967 0.051 15.447 15.409 15.469 40.439 0.051 55.815-15.433 15.391-40.57 15.406-56.018 0zM950.605 614.166c0-33.283-26.857-60.264-59.975-60.264h-185.577c-33.121 0-59.968 26.981-59.968 60.264 0 30.059 21.898 54.961 50.544 59.515-0.361 2.112-0.565 4.281-0.565 6.516 0 21.090 17.014 38.182 38.008 38.182 9.362 0 17.94-3.402 24.561-9.060 11.796 26.716 26.926 51.098 69.362 51.098 51.466 0 75.86-39.883 75.86-81.971 0-1.759-0.073-3.503-0.193-5.23 27.356-5.6 47.942-29.91 47.942-59.050zM401.564 444.893l-176.281-61.001v-86.263l176.281 60.998zM401.564 334.097l-176.281-61.001v-85.213l176.281 61.001zM401.564 472.984c0 8.926-7.321 16.227-16.271 16.227h-143.739c-8.986 0-16.271-7.265-16.271-16.227v-64.567l176.281 61.005v3.562zM553.555 732.47c0 3.209-2.631 5.829-5.845 5.829h-23.297v12.884c0 7.047-5.78 12.814-12.849 12.814-7.066 0-12.849-5.768-12.849-12.814v-12.884h-23.293c-3.229 0-5.849-2.609-5.849-5.829v-113.223h83.983v113.223zM999.851 363.981c0-4.165-3.415-7.574-7.594-7.574h-138.276c-4.18 0-7.594 3.409-7.594 7.574v2.58c0 4.161 3.415 7.574 7.594 7.574h138.276c4.18 0 7.594-3.413 7.594-7.574v-2.58zM980.595 185.534c0-4.87-4.001-8.86-8.888-8.86s-8.888 3.99-8.888 8.86v133.753c0 4.874 4.001 8.864 8.888 8.864s8.888-3.99 8.888-8.864v-133.753zM931.268 185.534c0-4.87-4.001-8.86-8.892-8.86-4.887 0-8.884 3.99-8.884 8.86v133.753c0 4.874 3.998 8.864 8.884 8.864 4.89 0 8.892-3.99 8.892-8.864v-133.753zM881.938 185.534c0-4.87-4.001-8.86-8.888-8.86-4.89 0-8.888 3.99-8.888 8.86v133.753c0 4.874 3.998 8.864 8.888 8.864 4.887 0 8.888-3.99 8.888-8.864v-133.753zM579.118 574.751c0-3.027-2.485-5.51-5.524-5.51h-124.061c-3.036 0-5.521 2.482-5.521 5.51v12.157c0 3.031 2.485 5.51 5.521 5.51h124.061c3.039 0 5.524-2.479 5.524-5.51v-12.157zM110.6 185.534c0-4.87-4.001-8.86-8.888-8.86s-8.888 3.99-8.888 8.86v130.118c0 4.874 4.001 8.864 8.888 8.864s8.888-3.99 8.888-8.864v-130.118zM1023.129 407.16c0 8.337-6.84 15.162-15.2 15.162h-173.023c-8.392 0-15.203-6.789-15.203-15.162v-253.717h-21.857v323.175c0 8.926-7.321 16.227-16.267 16.227h-20.265c-1.469 4.492-5.674 7.788-10.655 7.788h-48.281c-4.982 0-9.183-3.296-10.655-7.788h-53.886c-8.986 0-16.271-7.265-16.271-16.227v-323.175h-21.861v452.534c0 7.298-5.987 13.269-13.305 13.269h-149.668c-7.347 0-13.305-5.938-13.305-13.269v-452.534h-21.861v70.912l-176.281-61.001v-9.911h-21.861v199.58c0 7.661-6.286 13.93-13.968 13.93h-175.487c-7.715 0-13.968-6.236-13.968-13.93v-204.716h1.982c-1.25-1.85-1.982-4.067-1.982-6.447 0-6.375 5.229-11.59 11.617-11.59h999.894c6.388 0 11.617 5.215 11.617 11.59 0 2.38-0.732 4.597-1.979 6.447h1.979v258.852z" />
<glyph unicode="&#x24;" glyph-name="mobile-landscape-smile" horiz-adv-x="1138" d="M307.181 201.572v492.794h661.178c51.15 0 62.983-11.815 62.983-62.983v-366.986c0-51.097-11.833-62.827-62.983-62.827h-661.178zM123.409 448.029c0 28.073 22.721 50.94 50.992 50.94 28.146 0 51.030-22.883 51.030-50.94 0-28.243-22.883-51.115-51.030-51.115-28.267 0-50.992 22.883-50.992 51.115zM1124.37 264.407v366.986c0 102.073-53.991 156.080-156.013 156.080h-798.799c-102.020 0-155.928-54.007-155.928-156.080v-366.986c0-101.968 53.91-155.88 155.928-155.88h798.799c102.020 0 156.013 53.91 156.013 155.88zM670.257 644.755c109.62 0 198.739-89.063 198.739-198.787s-89.129-198.787-198.739-198.787c-109.804 0-198.933 89.063-198.933 198.787s89.129 198.787 198.933 198.787zM672.571 319.707c52.589 0.602 95.496 34.523 109.804 86.415 1.928 7.312-2.518 14.911-9.662 16.872-7.349 1.99-15.088-2.305-17.011-9.651-13.142-48.139-51.811-65.707-83.323-66.083-31.505-0.485-73.080 16.724-87.773 66.157-2.31 7.312-9.869 11.431-17.21 9.265s-11.402-9.838-9.269-17.15c15.66-52.274 59.936-85.833 113.1-85.833h1.351zM741.597 531.759c-15.088 0-27.267-12.254-27.267-27.346s12.18-27.346 27.267-27.346c15.088 0 27.451 12.254 27.451 27.346s-12.367 27.346-27.451 27.346zM598.735 531.759c-15.088 0-27.451-12.254-27.451-27.346s12.367-27.346 27.451-27.346c15.088 0 27.267 12.254 27.267 27.346s-12.18 27.346-27.267 27.346z" />
<glyph unicode="&#x25;" glyph-name="Proizvodnja_Infrastruktura" d="M31.942 673.572h191.648c17.639 0 31.942 13.013 31.942 29.063v0.006c0 16.055-14.303 29.063-31.942 29.063h-191.648c-17.645 0-31.942-13.007-31.942-29.063v-0.006c0-16.050 14.297-29.063 31.942-29.063zM32.657 789.841h190.222c18.036 0 32.652 13.305 32.652 29.719v56.836c0 16.414-14.617 29.719-32.652 29.719h-190.222c-18.036 0-32.658-13.305-32.658-29.719v-56.836c0-16.414 14.622-29.719 32.658-29.719zM406.767 776.062c52.543 47.791 122.351 74.137 196.58 74.137 74.218 0 144.032-26.346 196.575-74.137 7.504-6.834 17.303-10.224 27.119-10.224 9.811 0 19.61 3.39 27.119 10.224 14.964 13.608 14.964 35.699 0 49.346-67.039 61.003-156.099 94.591-250.814 94.591-94.709 0-183.786-33.588-250.825-94.591-14.964-13.636-14.964-35.737 0-49.346 14.986-13.652 39.264-13.652 54.244 0zM752.447 678.777c9.789 0 19.627 3.384 27.092 10.208 14.991 13.608 15.008 35.688 0.044 49.346-47.060 42.903-109.645 66.531-176.238 66.531s-129.178-23.628-176.244-66.531c-14.964-13.658-14.947-35.737 0.044-49.346 14.969-13.625 39.264-13.592 54.228 0.039 32.553 29.697 75.886 46.039 121.966 46.039 46.086 0 89.418-16.342 121.966-46.039 7.504-6.84 17.314-10.246 27.142-10.246zM526.641 616.327c0-38.433 34.392-69.678 76.706-69.678 42.303 0 76.695 31.245 76.695 69.678 0 38.46-34.392 69.799-76.695 69.799-42.314 0-76.706-31.339-76.706-69.799zM189.66 202.543c-37.128 14.126-78.727-4.608-92.821-41.778-14.088-37.159 4.569-78.783 41.665-92.921 37.128-14.11 78.688 4.608 92.788 41.745 14.121 37.187-4.503 78.816-41.632 92.954zM830.481 266.624v58.137h127.763v-58.137h-127.763zM830.481 150.351v58.137h127.763v-58.137h-127.763zM574.948 266.624v58.137h127.763v-58.137h-127.763zM574.948 150.351v58.137h127.763v-58.137h-127.763zM319.411 266.624v58.137h127.769v-58.137h-127.769zM319.411 150.351v58.137h127.769v-58.137h-127.769zM295.105 91.751l-6.904-17.466c-1.998-5.17-7.421-8.146-12.872-6.956l-23.101 4.768-2.918-3.649c-5.318-6.862-11.589-13.057-18.388-18.392l-3.595-2.778 0.815-4.464 2.984-17.191c0.947-5.159-1.833-10.257-6.645-12.379l-17.243-7.545c-2.775-1.157-5.891-1.24-8.665-0.16-2.208 0.92-4.074 2.376-5.357 4.398l-9.524 14.6-2.571 3.963-4.674-0.54c-6.81-0.799-14.154-0.711-21.675-0.017l-4.784 0.491-2.466-4.101-10.51-17.439c-2.846-4.729-8.665-6.708-13.813-4.712l-17.491 6.923c-4.872 1.863-7.823 6.867-7.107 12.021l3.050 22.603 0.611 4.288-3.391 2.734c-5.247 4.134-10.229 8.78-14.529 13.906l-3.017 3.555-4.575-1.152-23.981-5.936c-2.274-0.551-4.608-0.457-6.849 0.446-2.802 1.119-5.043 3.274-6.265 6.068l-7.449 17.279c-2.098 4.762-0.705 10.389 3.485 13.548l24.29 18.442-0.501 4.338c-0.919 7.049-1.018 14.187-0.446 21.413l0.336 4.646-4.024 2.425-18.938 11.464c-4.779 2.861-6.739 8.675-4.702 13.862l6.838 17.604c1.998 4.834 6.909 7.782 12.156 7.077l27.576-3.803 2.643 3.5c4.168 5.341 8.671 10.219 13.351 14.424l3.386 3.031-1.018 4.415-6.028 24.18c-1.354 5.335 1.492 10.99 6.469 13.134l17.177 7.584c2.846 1.202 5.891 1.224 8.743 0.121 1.888-0.744 3.623-1.995 4.834-3.676l15.085-19.93 2.703-3.544 4.41 0.612c7.895 1.168 15.712 1.439 23.442 0.849l4.366-0.303 2.472 3.511 12.635 18.006c3.017 4.255 8.506 5.919 13.417 3.979l17.513-6.845c5.219-2.039 8.098-7.496 7.014-12.908l-4.035-19.247-1.013-4.646 3.793-2.91c6.849-5.197 13.042-11.183 18.432-17.797l2.775-3.406 4.338 0.717 17.303 3.020c2.103 0.336 4.173 0.132 6.1-0.645 2.819-1.069 4.982-3.197 6.205-5.942l7.553-17.307c2.158-5.032 0.435-10.957-4.239-13.989l-17.65-11.602 0.683-4.679c1.018-7.865 1.018-15.907 0.275-23.887l-0.446-4.36 3.556-2.541 16.566-11.635c4.267-3.048 5.896-8.571 4.024-13.465zM969.877 521.636l-203.281-138.744v114.973c0 24.488-30.72 38.466-52.252 23.777l-203.281-138.75v114.973c0 24.488-30.72 38.466-52.246 23.777l-203.286-138.75v202.828c0 16.414-14.622 29.719-32.652 29.719h-190.222c-18.041 0-32.658-13.305-32.658-29.719v-580.060c0-16.414 14.617-29.719 32.658-29.719h956.818c18.030 0 32.652 13.305 32.652 29.719v492.205c0 24.488-30.726 38.466-52.252 23.772z" />
<glyph unicode="&#x26;" glyph-name="Storitve_Logistika" d="M877.897 574.112l-69.464 98.512c-2.674 3.791-7.028 6.048-11.671 6.048h-108.353c-7.883 0-14.274-6.378-14.274-14.246v-98.512c0-7.871 6.391-14.246 14.274-14.246h177.82c11.561 0 18.323 13.006 11.668 22.445zM1022.691 305.805v-43.215c0-7.868-6.388-14.246-14.274-14.246h-115.555c-8.265 56.574-57.052 100.201-115.979 100.201-58.94 0-107.725-43.627-115.993-100.201h-232.689c-4.166 28.518-18.589 53.71-39.496 71.708h220.631v407.462c0 15.733 12.782 28.487 28.549 28.487h134.747c37.941 0 73.403-18.808 94.632-50.19l86.869-128.411c12.742-18.836 19.551-41.042 19.551-63.77v-193.578h34.732c7.886 0 14.274-6.376 14.274-14.246zM821.286 231.414c0 24.475-19.882 44.318-44.408 44.318-24.523 0-44.402-19.844-44.402-44.318s19.88-44.318 44.402-44.318c24.525 0 44.408 19.844 44.408 44.318zM865.688 231.414c0-48.952-39.762-88.634-88.81-88.634-49.045 0-88.807 39.682-88.807 88.634s39.762 88.637 88.807 88.637c49.048 0 88.81-39.684 88.81-88.637zM235.723 320.051h-199.007c-7.883 0-14.271-6.376-14.271-14.246v-43.215c0-7.868 6.388-14.246 14.271-14.246h159.514c4.163 28.518 18.586 53.71 39.493 71.708zM356.617 231.414c0 24.475-19.88 44.318-44.402 44.318-24.526 0-44.408-19.844-44.408-44.318s19.882-44.318 44.408-44.318c24.523 0 44.402 19.844 44.402 44.318zM401.025 231.414c0-48.952-39.762-88.634-88.81-88.634-49.045 0-88.81 39.682-88.81 88.634s39.765 88.637 88.81 88.637c49.048 0 88.81-39.684 88.81-88.637zM262.145 528.301l-4.475-43.764c-0.673-6.339 0.303-10.867 2.993-13.852 3.092-3.433 8.613-5.099 16.875-5.099 14.51 0 28.4 8.624 34.695 12.776-0.067 0.991-0.121 2.187 0.109 3.576l5.513 53.614c-5.883 5.001-16.516 13.728-31.966 13.728-17.812 0-22.377-8.386-23.746-20.98zM392.538 483.016c0-27.359-14.389-41.821-41.608-41.821-20.794 0-30.195 8.89-34.423 17.5-10.725-8.436-26.933-17.5-47.025-17.5-13.323 0-23.294 3.559-29.629 10.573-6.335 7.011-8.851 17.212-7.488 30.318l5.072 50.313c2.794 27.171 16.886 40.379 43.084 40.379 16.838 0 30.658-7.708 40.365-14.599l0.687 5.827c0.426 4.225 2.979 6.39 7.578 6.39h10.445c0.808 0 3.268 0 4.837-1.733 1.431-1.582 1.403-3.727 1.248-5.205l-7.754-77.118c-0.931-9.699 0.384-16.59 3.916-20.474 2.359-2.593 5.726-3.853 10.285-3.853 7.022 0 15.077 2.657 15.077 23.386v81.29c0 16.57-9.199 33.51-77.437 33.51-68.496 0-77.729-16.94-77.729-33.51v-115.83c0-15.602 8.834-33.51 77.729-33.51h54.6c4.444 0 6.997-2.436 6.997-6.684v-8.635c0-4.374-2.618-6.983-6.997-6.983h-54.6c-92.11 0-102.765 31.514-102.765 55.219v117.317c0 37.778 31.696 54.622 102.765 54.622 92.118 0 102.77-31.172 102.77-54.622v-84.566zM488.601 575.503c0.224 3.276 0.365 6.586 0.365 9.929 0 79.895-46.271 155.61-143.899 155.61-80.5 0-109.195-46.284-131.577-97.003-12.555 10.744-28.829 17.2-46.588 17.2-39.821 0-72.095-32.446-72.095-72.478 0-4.245 0.382-8.364 1.069-12.368-54.339-8.649-95.874-55.922-95.874-112.983 0-63.185 50.928-114.402 113.748-114.402h352.023c62.82 0 113.768 51.218 113.768 114.402 0 55.317-39.049 101.458-90.94 112.092z" />
<glyph unicode="&#x28;" glyph-name="mobile-sound" horiz-adv-x="636" d="M534.957 213.728h-450.033v603.804c0 46.707 10.785 57.515 57.515 57.515h335.139c46.662 0 57.379-10.808 57.379-57.515v-603.804zM309.884 45.899c-25.632 0-46.526 20.759-46.526 46.571 0 25.7 20.894 46.594 46.526 46.594 25.79 0 46.684-20.894 46.684-46.594 0-25.813-20.894-46.571-46.684-46.571zM477.578 959.999h-335.139c-93.211 0-142.535-49.302-142.535-142.467v-729.484c0-93.165 49.324-142.399 142.535-142.399h335.139c93.12 0 142.354 49.234 142.354 142.399v729.484c0 93.165-49.234 142.467-142.354 142.467zM335.456 682.916c0 6.849-4.126 13.023-10.453 15.644s-13.61 1.172-18.453-3.67c-32.197-32.197-79.778-79.778-79.778-79.778s-32.249 0-53.674 0c-4.942 0-9.682-1.963-13.176-5.458s-5.458-8.235-5.458-13.177c0-27.832 0-79.959 0-107.791 0-4.942 1.963-9.682 5.458-13.177s8.235-5.458 13.176-5.458c21.425 0 53.674 0 53.674 0s47.581-47.581 79.778-79.778c4.843-4.843 12.126-6.292 18.453-3.67s10.453 8.795 10.453 15.644c0 69.742 0 210.927 0 280.669zM430.035 649.711c-13.752 14.195-35.045-7.098-21.293-21.293 48.353-48.353 48.353-126.872 0-175.225-14.195-14.195 7.541-35.489 21.293-21.293 60.331 59.887 60.331 157.925 0 217.812zM393.216 612.891c-14.195 14.195-35.045-7.098-21.293-21.293 27.947-27.947 27.947-73.639 0-101.586-14.195-14.195 7.098-35.489 21.293-21.293 39.925 39.925 39.925 104.248 0 144.173z" />
<glyph unicode="&#x29;" glyph-name="mobile-smile" horiz-adv-x="636" d="M535.065 213.732h-450.033v603.804c0 46.707 10.785 57.515 57.515 57.515h335.139c46.662 0 57.379-10.808 57.379-57.515v-603.804zM309.992 45.904c-25.632 0-46.526 20.759-46.526 46.571 0 25.7 20.894 46.594 46.526 46.594 25.79 0 46.684-20.894 46.684-46.594 0-25.813-20.894-46.571-46.684-46.571zM477.685 960.004h-335.139c-93.211 0-142.535-49.302-142.535-142.467v-729.484c0-93.165 49.324-142.399 142.535-142.399h335.139c93.12 0 142.354 49.234 142.354 142.399v729.484c0 93.165-49.234 142.467-142.354 142.467zM311.911 726.838c100.105 0 181.495-81.337 181.495-181.53s-81.39-181.53-181.495-181.53c-100.281 0-181.671 81.337-181.671 181.53s81.39 181.53 181.671 181.53zM314.030 429.984c48.022 0.547 87.216 31.532 100.281 78.919 1.766 6.674-2.119 13.612-8.828 15.413-6.709 1.818-13.771-2.083-15.537-8.81-12.006-43.961-47.316-60.010-76.094-60.345-28.778-0.441-66.736 15.272-80.154 60.416-2.119 6.674-9.004 10.434-15.713 8.457s-10.417-8.986-8.474-15.66c14.301-47.74 54.731-78.389 103.283-78.389h1.236zM377.059 623.643c-13.771 0-24.894-11.193-24.894-24.982s11.123-24.982 24.894-24.982c13.771 0 25.070 11.193 25.070 24.982s-11.299 24.982-25.070 24.982zM246.587 623.643c-13.771 0-25.070-11.193-25.070-24.982s11.299-24.982 25.070-24.982c13.771 0 24.894 11.193 24.894 24.982s-11.123 24.982-24.894 24.982z" />
<glyph unicode="&#x2a;" glyph-name="battery" horiz-adv-x="512" d="M406.404 60.765c0-17.408-14.248-31.656-31.691-31.656h-252.857c-17.426 0-31.691 14.248-31.691 31.656v691.553c0 17.408 14.265 31.55 31.691 31.55h252.857c17.443 0 31.691-14.142 31.691-31.55v-691.553zM374.713 874.174h-17.302v85.839h-218.253v-85.839h-17.302c-67.249 0-121.891-54.749-121.891-121.856v-691.553c0-67.196 54.643-121.891 121.891-121.891h252.857c67.266 0 121.997 54.696 121.997 121.891v691.553c0 67.107-54.731 121.856-121.997 121.856zM139.158 255.002h218.236v-130.966h-218.236v130.966zM139.158 454.328h218.236v-130.913h-218.236v130.913zM139.494 653.265h218.236v-130.913h-218.236v130.913z" />
<glyph unicode="&#x2f;" glyph-name="mobile-star" horiz-adv-x="636" d="M534.985 213.737h-450.033v603.804c0 46.707 10.785 57.515 57.515 57.515h335.139c46.662 0 57.379-10.808 57.379-57.515v-603.804zM309.913 45.908c-25.632 0-46.526 20.759-46.526 46.571 0 25.7 20.894 46.594 46.526 46.594 25.79 0 46.684-20.894 46.684-46.594 0-25.813-20.894-46.571-46.684-46.571zM477.606 960.008h-335.139c-93.211 0-142.535-49.302-142.535-142.467v-729.484c0-93.165 49.324-142.399 142.535-142.399h335.139c93.12 0 142.354 49.234 142.354 142.399v729.484c0 93.165-49.234 142.467-142.354 142.467zM312.045 726.753c100.105 0 181.496-81.338 181.496-181.531s-81.39-181.531-181.496-181.531c-100.282 0-181.496 81.338-181.496 181.531s81.214 181.531 181.496 181.531zM418.329 587.683l-72.739 6.056-28.248 67.072c-3.178 8.033-9.887 8.033-13.595 0l-28.072-66.984-73.622-6.179c-8.474-0.512-10.593-6.991-4.237-12.906l55.967-48.216-16.596-70.868c-2.295-8.369 3.354-12.376 10.946-7.998l62.499 37.923 63.206-38.276c7.239-4.661 12.712-0.653 10.946 7.962l-16.949 72.192 54.908 47.316c6.532 5.473 4.414 11.935-4.414 12.906z" />
<glyph unicode="&#x31;" glyph-name="right" horiz-adv-x="512" d="M27.287-8.448l36.96-36.946c14.129-14.088 26.444-15.82 42.251 0l389.412 473.628c12.315 15.207 11.429 24.221-1.759 40.451l-387.666 471.814c-15.807 15.848-26.444 15.848-40.424 1.8l-36.946-36.987c-14.143-14.034-15.834-26.363 0-42.169l331.313-415.597-331.313-415.57c-15.834-15.807-15.834-26.39-1.828-40.424z" />
<glyph unicode="&#x32;" glyph-name="down" horiz-adv-x="2150" d="M101.159 938.398l-77.586-77.615c-29.585-29.671-33.223-55.533 0-88.727l994.618-817.764c31.934-25.862 50.865-24.001 84.947 3.695l990.809 814.098c33.28 33.194 33.28 55.533 3.781 84.89l-77.672 77.586c-29.471 29.7-55.362 33.251-88.556 0l-872.754-695.757-872.696 695.757c-33.194 33.251-55.419 33.251-84.89 3.838z" />
<glyph unicode="&#x33;" glyph-name="left" horiz-adv-x="512" d="M494.332 904.448l-36.96 36.946c-14.129 14.088-26.444 15.82-42.251 0l-389.412-473.628c-12.315-15.207-11.429-24.221 1.759-40.451l387.666-471.814c15.807-15.848 26.444-15.848 40.424-1.8l36.946 36.987c14.143 14.034 15.834 26.363 0 42.169l-331.313 415.597 331.313 415.57c15.834 15.807 15.834 26.39 1.828 40.424z" />
<glyph unicode="&#x34;" glyph-name="up" horiz-adv-x="2150" d="M2018.241-42.398l77.586 77.615c29.585 29.671 33.223 55.533 0 88.727l-994.618 817.764c-31.934 25.862-50.865 24.001-84.947-3.695l-990.809-814.098c-33.28-33.194-33.28-55.533-3.781-84.89l77.672-77.586c29.471-29.7 55.362-33.251 88.556 0l872.754 695.757 872.696-695.757c33.194-33.251 55.419-33.251 84.89-3.838z" />
<glyph unicode="&#x38;" glyph-name="menu-cookies" horiz-adv-x="819" d="M148.38 22.016c-16.212 0-29.355 13.143-29.355 29.355v0 792.576c0 16.384 13.653 29.355 29.355 29.355h344.747v-129.024c0-40.277 32.768-72.363 72.363-72.363h133.803v-621.227c0-16.384-12.971-29.355-29.355-29.355zM536.134 960h-387.755c-63.562-0.385-114.986-51.809-115.37-115.334v-793.296c0-63.488 51.883-115.371 115.371-115.371h521.557c0.001 0 0.001 0 0.002 0 63.854 0 115.664 51.57 116.051 115.334v659.493l-250.539 249.173zM591.43 550.4l-212.992-248.491-101.035 117.419-39.595-46.421 140.629-163.84 252.587 294.912z" />
<glyph unicode="&#x3d;" glyph-name="Smart_Infrastructure" horiz-adv-x="1334" d="M622.908 282.398l42.54-103.312c0 0 0-3.039 0-3.039s0 3.039 3.039 3.039l39.501 100.273c-15.193-3.039-27.347-6.077-42.54-6.077-12.154 3.039-27.347 6.077-42.54 9.116zM777.875 640.95v112.427c0 9.116-9.116 18.231-18.231 18.231h-191.43c-9.116 0-18.231-6.077-18.231-18.231v-115.466c33.424 21.27 69.887 33.424 112.427 33.424 45.579 3.039 85.080-9.116 115.466-30.386zM580.368 713.875v15.193c0 3.039 3.039 6.077 6.077 6.077h158.006c3.039 0 6.077-3.039 6.077-6.077v-15.193c0-3.039-3.039-6.077-6.077-6.077h-158.006c-3.039 0-6.077 3.039-6.077 6.077zM720.142 914.421c0 3.039-3.039 6.077-6.077 6.077h-30.386v18.231c0 9.116-6.077 15.193-15.193 15.193s-15.193-6.077-15.193-15.193v-15.193h-30.386c-3.039 0-6.077-3.039-6.077-6.077v-142.813h106.35v139.774zM525.674 710.837c0 12.154-9.116 21.27-21.27 21.27h-182.315c-12.154 0-21.27-9.116-21.27-21.27v-127.62l224.855 79.003v48.617zM525.674 616.641v9.116l-221.816-75.964v-109.389l167.122 57.733c3.039 45.579 24.309 88.119 54.694 118.504zM1315.703 574.101c0 9.116-9.116 18.231-18.231 18.231h-218.777c-12.154 0-18.231-9.116-18.231-18.231v-398.053h-27.347v534.789c0 12.154-9.116 21.27-21.27 21.27h-182.315c-12.154 0-21.27-9.116-21.27-21.27v-91.157c36.463-36.463 60.772-85.080 60.772-142.813 0-54.694-24.309-106.35-60.772-142.813v-21.27h42.54c45.579 0 69.887-18.231 79.003-60.772v0 0l21.27-103.312h349.436c9.116 0 15.193 6.077 15.193 15.193 0 3.039 0 6.077-3.039 9.116h3.039v401.092zM1136.427 218.588c0-6.077-6.077-12.154-12.154-12.154s-12.154 6.077-12.154 12.154v243.086c0 6.077 6.077 12.154 12.154 12.154s12.154-6.077 12.154-12.154v-243.086zM1200.237 218.588c0-6.077-6.077-12.154-12.154-12.154s-12.154 6.077-12.154 12.154v243.086c0 6.077 6.077 12.154 12.154 12.154s12.154-6.077 12.154-12.154v-243.086zM1261.009 218.588c0-6.077-6.077-12.154-12.154-12.154s-12.154 6.077-12.154 12.154v243.086c0 6.077 6.077 12.154 12.154 12.154s12.154-6.077 12.154-12.154v-243.086zM1288.356 519.407c0-6.077-3.039-9.116-9.116-9.116h-176.237c-6.077 0-9.116 3.039-9.116 9.116v3.039c0 6.077 3.039 9.116 9.116 9.116h173.199c6.077 0 9.116-3.039 9.116-9.116v-3.039zM404.131 252.012c9.116 42.54 33.424 60.772 79.003 60.772h42.54v21.27c-3.039 3.039-6.077 6.077-9.116 9.116l-212.7-72.926v-91.157h-27.347v334.243c0 9.116-9.116 18.231-18.231 18.231h-224.855c-9.116 0-18.231-9.116-18.231-18.231v-340.32h3.039c-3.039-3.039-3.039-6.077-3.039-9.116 0-9.116 6.077-15.193 15.193-15.193h349.436l24.309 103.312zM158.006 218.588c0-6.077-6.077-12.154-12.154-12.154s-12.154 6.077-12.154 12.154v243.086c0 6.077 6.077 12.154 12.154 12.154s12.154-6.077 12.154-12.154v-243.086zM467.941 467.751l-164.083-57.733v-109.389l194.469 66.849c-18.231 30.386-27.347 63.81-30.386 100.273zM27.347 552.831h237.009c6.077 0 9.116 6.077 9.116 9.116v21.27c0 6.077-6.077 9.116-9.116 9.116h-237.009c-6.077 0-9.116-6.077-9.116-9.116v-21.27c0-6.077 3.039-9.116 9.116-9.116zM838.647 476.866c0-95.655-77.544-173.199-173.199-173.199s-173.199 77.544-173.199 173.199c0 95.655 77.544 173.199 173.199 173.199s173.199-77.544 173.199-173.199zM850.801 285.436h-109.389l-48.617-115.466c-15.193-33.424-42.54-33.424-54.694 0l-45.579 115.466h-109.389c-36.463 0-48.617-12.154-54.694-39.501l-57.733-264.356c0-27.347 15.193-39.501 54.694-39.501h483.134c36.463 0 54.694 12.154 54.694 39.501l-57.733 264.356c-6.077 24.309-18.231 39.501-54.694 39.501z" />
<glyph unicode="&#x3f;" glyph-name="signal" horiz-adv-x="900" d="M116.524 231.918l-34.781 36.334c-99.575 139.582-108.226 324.696-25.777 474.942 5.65 10.081 15.713 16.896 27.189 18.326s22.952-2.684 30.897-11.070c107.52-112.922 448.971-473.017 545.898-575.064 6.356-6.727 9.181-16.049 7.768-25.194-1.589-9.145-7.239-17.073-15.36-21.433-124.646-64.565-273.479-66.119-399.183-4.555l46.257-154.765c1.766-6.215 0.706-12.924-3.178-18.114-3.884-5.208-10.063-8.263-16.419-8.263-14.654 0-32.309 0-44.491 0-9.181 0-17.126 6.020-19.597 14.76-12.359 42.125-46.786 159.868-46.786 159.868s-34.251-117.742-46.61-159.868c-2.472-8.739-10.417-14.76-19.597-14.76-12.359 0-29.837 0-44.491 0-6.532 0-12.535 3.054-16.419 8.245s-5.12 11.9-3.178 18.097l77.859 262.515zM518.356 890.333c-43.608 7.274-36.37 76.412 10.946 69.12 236.403-36.37 396.535-261.932 360.166-498.388-7.239-43.661-72.739-32.75-65.501 10.911 29.131 200.086-105.578 389.261-305.611 418.357zM496.463 763.004c-43.608 7.274-32.662 72.757 10.946 65.483 167.371-25.459 280.188-181.901 254.764-345.6-7.415-47.298-76.447-36.387-69.208 10.911 21.892 127.329-65.501 247.384-196.502 269.206zM467.509 642.948c-43.785 7.292-32.839 76.412 10.77 69.138 109.109-18.202 182.025-116.418 163.84-221.926-7.415-47.298-72.916-36.387-65.501 7.274 10.77 72.757-36.37 134.603-109.109 145.514zM467.509 584.757c72.739-10.929 58.086-123.692-14.654-112.781-76.447 14.548-58.262 123.692 14.654 112.781z" />
<glyph unicode="&#x42;" glyph-name="thumbs-up" horiz-adv-x="1071" d="M1060.057 462.428c-6.234 43.104-45.261 73.783-88.489 73.905 0 0-147.071 1.516-196.072 0.519-20.503-0.41-70.995-3.072-81.836 5.106-10.855 8.178-10.407 14.896-8.483 25.477 5 27.703 26.967 80.623 52.375 133.721 23.864 49.862 30.531 215.996-8.659 243.384-39.177 27.307-92.907 17.49-120.077-21.968l-31.154-113.487c-11.979-43.663-31.195-84.992-56.807-122.225l-58.677-85.32c-12.44-18.118-61.794-76.39-89.533-108.844-12.386-14.513-19.189-32.945-19.243-52.087l-1.071-404.425c-0.054-24.003 15.625-45.152 38.485-51.896l112.407-33.178 328.847-0.874c39.597-0.109 76.619 24.453 88.178 62.614 6.139 20.221 4.052 39.076-2.385 55.788 37.808 9.107 66.049 43.104 66.157 84.009 0.068 25.354-10.787 47.964-27.902 63.898 39.678 7.741 69.694 42.803 69.816 85.047 0.068 25.573-11.044 48.36-28.43 64.307 40.423 11.209 69.165 50.831 62.552 96.529zM31.737-50.811l250.86-0.669c17.576-0.055 31.859 14.268 31.9 31.962l1.301 496.148c0.041 17.695-14.161 32.085-31.737 32.14l-250.874 0.669c-17.562 0.041-31.845-14.268-31.9-31.976l-1.287-496.135c-0.054-17.708 14.161-32.099 31.737-32.14z" />
<glyph unicode="&#x44;" glyph-name="notification-black" horiz-adv-x="816" d="M797.621 95.174c-39.040-0.16-741.121-0.16-780.481-0.16-6.88 0-12.96 4-15.68 10.080-2.72 6.24-1.44 13.44 3.040 18.4 29.92 29.6 70.080 79.2 70.4 127.040 0.8 127.84 0 255.84 0 383.679 0.96 174.72 160.16 332.319 338.24 325.759 164-6.080 310.72-148 313.92-321.759 0.64-124.96-0.8-250.080 0-375.039 0.8-44.48 50.72-105.44 83.2-140.48 4.32-4.96 5.28-11.84 2.56-17.92-2.72-5.76-8.64-9.6-15.2-9.6zM552.721 96.33c0-80.519-65.273-145.792-145.792-145.792s-145.792 65.273-145.792 145.792c0 80.519 65.273 145.792 145.792 145.792s145.792-65.273 145.792-145.792z" />
<glyph unicode="&#x4a;" glyph-name="NEO-io1" horiz-adv-x="1280" d="M1132.305 289.716h-989.473v526.849h989.473v-526.849zM594.5 203.258c0 23.691 19.349 42.981 43.069 42.981 23.749 0 42.981-19.291 42.981-42.981 0-23.895-19.232-43.185-42.981-43.185-23.72 0-43.069 19.291-43.069 43.185zM1171.352 959.992h-1067.539c-57.376 0-104-46.391-104-103.796v-634.812c0-57.435 46.624-103.825 104-103.825h307.192v-70.985h-182.94v-107.672h818.918v107.672h-197.102v70.985h321.471c57.376 0 103.971 46.391 103.971 103.825v634.812c0 57.406-46.595 103.796-103.971 103.796zM281.104 441.781c10.47 0.168 18.666 9.277 18.666 19.865v143.617c0 10.473 13.52 14.477 19.109 5.657l92.693-146.173c26.045-41.052 88.975-22.407 88.975 26.36v144.192c0 10.588-8.489 19.171-18.968 19.171h-0.3c-10.47-0.164-18.666-9.274-18.666-19.862v-143.612c0-10.477-13.517-14.481-19.109-5.661l-92.696 146.171c-26.042 41.051-88.975 22.406-88.975-26.358v-144.192c0-10.691 8.656-19.336 19.27-19.175zM912.431 654.493c-22.929 0-47.078-7.837-69.569-25.769l-164.471-131.18c-51.723-41.242-112.124-1.084-112.124 50.838 0 37.554 30.158 67.988 67.318 67.988 22.748 0 42.86-11.406 55.046-28.869l-43.735-35.125c-8.277-6.653-9.592-18.88-2.863-27.176 6.643-8.192 18.797-9.007 26.999-2.42l55.016 44.001c7.133 5.687 9.48 15.523 5.848 23.942-20.755 48.119-75.769 77.672-133.899 57.169-28.475-10.043-51.009-32.847-60.927-61.637-4.444-12.887-6.512-25.621-6.512-37.873 0-84.777 96.577-141.844 173.636-80.405l164.471 131.181c51.19 41.759 112.12 2.229 112.12-50.842 0-37.551-30.158-67.989-67.314-67.989-28.031 0-52.058 17.315-62.186 41.944-4.685 11.396-18.692 15.293-28.281 7.65-7.13-5.69-9.478-15.523-5.848-23.942 20.756-48.12 75.776-77.673 133.899-57.169 28.474 10.042 51.012 32.847 60.93 61.633 4.441 12.886 6.506 25.621 6.506 37.873 0 60.033-48.425 106.174-104.060 106.177z" />
<glyph unicode="&#x4b;" glyph-name="TS_ikone_kartica" horiz-adv-x="1422" d="M745.244 366.933c0 18.489-15.644 34.133-34.133 34.133h-405.333c-18.489 0-34.133-15.644-34.133-34.133s15.644-34.133 34.133-34.133h405.333c18.489 0 34.133 15.644 34.133 34.133zM305.778 278.756c-18.489 0-34.133-15.644-34.133-34.133s15.644-34.133 34.133-34.133h162.133c18.489 0 34.133 15.644 34.133 34.133s-15.644 34.133-34.133 34.133h-162.133zM301.511 455.111h405.333c18.489 0 34.133 15.644 34.133 34.133s-15.644 34.133-34.133 34.133h-405.333c-18.489 0-34.133-15.644-34.133-34.133s15.644-34.133 34.133-34.133zM136.533 792.178v0c0 5.689 1.422 9.956 4.267 15.644-2.844-4.267-4.267-9.956-4.267-15.644zM1336.889 844.8c0 1.422 0 1.422 0 0-2.844 5.689-7.111 9.956-11.378 14.222-17.067 17.067-41.244 28.444-66.844 28.444h-1095.111c-25.6 0-49.778-9.956-66.844-28.444-4.267-4.267-8.533-8.533-11.378-14.222-9.956-15.644-15.644-32.711-15.644-52.622v-689.778c0-52.622 42.667-93.867 93.867-93.867h1095.111c52.622 0 93.867 42.667 93.867 93.867v689.778c0 19.911-5.689 38.4-15.644 52.622zM1285.689 103.822c0-14.222-11.378-27.022-27.022-27.022h-1095.111c-14.222 0-27.022 12.8-27.022 27.022v513.422h1149.156v-513.422zM1285.689 684.089h-1149.156v108.089c0 5.689 1.422 9.956 4.267 15.644 1.422 1.422 2.844 2.844 2.844 4.267 4.267 4.267 11.378 8.533 18.489 8.533h1095.111c7.111 0 14.222-2.844 19.911-8.533 1.422-1.422 2.844-2.844 2.844-4.267 2.844-4.267 4.267-9.956 4.267-15.644v-108.089z" />
<glyph unicode="&#x4c;" glyph-name="glasovno-iskanje" horiz-adv-x="629" d="M484.072 783.322c0 97.51-79.161 176.673-176.674 176.673-97.506 0-176.667-79.163-176.667-176.673v-327.116c0-97.51 79.161-176.673 176.667-176.673 97.513 0 176.674 79.163 176.674 176.673v327.116zM52.422 613.888c9.378 0 16.995-7.599 17.013-16.977-0.018-35.535 0.216-116.664 2.479-144.51 2.659-32.804 7.599-63.955 16.312-86.016 55.691-141.132 265.27-194.794 381.395-84.094 45.918 43.78 72.596 106.137 73.009 170.451 0 0 0 99.903 0 142.39 0 10.366 8.408 18.755 18.773 18.755 10.581 0 23.768 0 34.349 0 10.366 0 18.755-8.39 18.773-18.737 0.036-37.223 0.108-119.215-0.054-146.486-2.785-147.222-125.090-280.702-271.414-300.643v-136.102c0 0 73.423 0 108.616 0 4.868 0 9.557-1.94 13.007-5.389s5.389-8.12 5.389-13.007c0-10.761 0-24.307 0-35.068 0-10.15-8.246-18.396-18.396-18.396-57.434 0-233.041 0-290.475 0-10.168 0-18.396 8.246-18.396 18.396 0 10.761 0 24.307 0 35.068 0 4.886 1.94 9.557 5.389 13.007s8.12 5.389 13.007 5.389c35.499 0 109.999 0 109.999 0v135.671c-146.145 18.234-270.192 151.067-271.162 304.918 0 0 0 102.885 0 144.366 0 4.509 1.796 8.839 4.994 12.036s7.527 4.976 12.036 4.976c10.761 0 24.594 0 35.355 0z" />
<glyph unicode="&#x4e;" glyph-name="NEO-io" horiz-adv-x="3614" d="M90.95-47.253c49.578 0.796 88.385 43.929 88.385 94.064v680.052c0 49.591 64.020 68.55 90.482 26.788l438.918-692.158c123.328-194.389 421.311-106.1 421.311 124.821v682.776c0 50.135-40.196 90.778-89.817 90.778h-1.419c-49.578-0.779-88.385-43.912-88.385-94.051v-680.030c0-49.612-64.007-68.572-90.482-26.806l-438.931 692.145c-123.315 194.385-421.311 106.096-421.311-124.808v-682.776c0-50.622 40.988-91.557 91.248-90.796zM3080.351 959.996c-108.572 0-222.923-37.11-329.423-122.023l-778.798-621.162c-244.92-195.29-530.927-5.135-530.927 240.729 0 177.823 142.801 321.934 318.762 321.934 107.715 0 202.949-54.012 260.651-136.701l-207.092-166.322c-39.195-31.505-45.422-89.399-13.555-128.685 31.458-38.79 89.007-42.65 127.845-11.458l260.512 208.354c33.777 26.928 44.891 73.503 27.689 113.367-98.28 227.853-358.779 367.791-634.034 270.707-134.834-47.554-241.539-155.534-288.501-291.86-21.044-61.022-30.835-121.322-30.835-179.337 0-401.433 457.312-671.658 822.196-380.733l778.802 621.166c242.392 197.736 530.91 10.553 530.91-240.747 0-177.81-142.806-321.939-318.744-321.939-132.732 0-246.504 81.988-294.463 198.61-22.184 53.964-88.511 72.415-133.916 36.223-33.764-26.945-44.878-73.503-27.693-113.367 98.285-227.857 358.814-367.795 634.038-270.707 134.829 47.55 241.552 155.534 288.514 291.843 21.027 61.018 30.805 121.322 30.805 179.337 0 284.267-229.302 502.751-492.742 502.768z" />
<glyph unicode="&#x50;" glyph-name="prize-game" horiz-adv-x="928" d="M62.095 527.067h776.919v-134.654h-776.919v134.654zM178.414 736.615c-2.681 1.47-5.448 3.113-8.908 5.405-5.492 3.503-10.205 7.308-14.443 11.589-32.734 32.907-32.734 86.353 0 119.26 15.783 15.956 36.928 24.734 59.327 24.734s43.501-8.778 59.327-24.734c4.281-4.281 8.259-9.297 12.713-16.345 1.643-2.292 3.113-4.8 4.238-6.875l113.941-227.493-226.196 114.46zM610.396 849.605c1.211 2.292 2.638 4.67 5.189 8.346 3.632 5.794 7.481 10.637 11.762 14.962 15.87 15.956 36.971 24.691 59.327 24.691 22.486 0 43.501-8.778 59.414-24.734 15.783-15.956 24.518-37.101 24.518-59.63s-8.735-43.674-24.518-59.673c-4.281-4.281-8.951-8.043-15.178-11.978-2.724-1.859-5.535-3.546-8-4.886l-226.628-114.547 114.071 227.493 0.043-0.043zM782.497-1.559h-663.713v309.782h663.756v-309.782h-0.043zM844.548-63.957v372.222h56.56v281.242h-331.272l181.225 91.715c4.886 2.551 9.902 5.535 14.053 8.302 9.21 5.881 17.599 12.67 24.821 20.021 27.675 27.761 42.809 64.603 42.809 103.736s-15.134 76.018-42.809 103.736c-27.588 27.761-64.214 42.982-103.261 42.982-38.961 0-75.716-15.264-103.174-42.895-7.567-7.524-14.27-16.043-19.372-24.345-3.459-4.8-6.573-9.946-9.167-15.005l-104.428-208.207-104.558 208.467c-2.551 5.016-5.492 9.989-7.956 13.362-6.054 9.513-12.843 18.161-20.367 25.642-27.545 27.718-64.214 42.982-103.261 42.982s-75.672-15.264-103.261-42.982c-56.949-57.165-56.949-150.264 0-207.516 7.394-7.394 15.74-14.14 24.085-19.459 4.843-3.33 9.902-6.4 15.091-9.081l181.052-91.542h-331.359v-281.199h56.56v-372.222l787.988 0.043z" />
<glyph unicode="&#x55;" glyph-name="star" horiz-adv-x="1084" d="M542.118 960l-152.335-357.322-389.783-32.876 295.996-254.922-88.907-378.88 335.029 201.027 335.029-201.027-88.365 378.88 295.454 254.922-389.783 33.469-152.335 356.729zM391.539 351.049l-180.716 157.285 238.432 20.698 92.563 220.144 93.108-220.69 238.486-20.753-180.77-157.285 54.449-233.743-205.272 124.517-204.728-123.971 54.449 233.797z" />
<glyph unicode="&#x56;" glyph-name="NEO-Dom_black" d="M146.579 441.464c-6.554-6.84-10.65-16.097-10.65-25.764 0-65.413 0-325.755 0-426.803 0-22.282 18.022-40.387 40.55-40.387 77.824 0 240.845 0 240.845 0s0 189.727 0 257.556c0 13.148 10.65 23.798 23.757 23.798 30.31 0 82.739 0 113.459 0 13.107 0 23.757-10.65 23.757-23.798 0-67.83 0-257.556 0-257.556s163.021 0 240.845 0c22.118 0 40.141 18.104 40.141 40.387 0 101.048 0 361.39 0 426.803 0 9.667-3.686 18.924-10.65 25.764-59.802 59.802-351.027 351.027-351.027 351.027s-291.226-291.226-351.027-351.027zM47.047 422.54c-2.458-2.58-6.144-4.014-9.83-3.973-3.277 0-6.963 1.475-9.421 4.096-6.963 7.332-16.794 17.244-23.757 24.494-5.325 5.325-5.325 13.844 0 19.087 31.539 31.703 131.891 132.055 131.891 132.055s0 160.604 0 219.668c0 5.693 2.458 11.182 6.554 15.196 3.686 4.014 9.421 6.308 15.155 6.308 30.72 0 86.835 0 117.555 0 5.734 0 11.469-2.294 15.565-6.308 3.686-4.014 6.144-9.503 6.144-15.196 0-23.798 0-58.86 0-58.86l200.704 200.868c0 0 424.346-423.977 493.568-493.568 2.867-2.58 4.096-6.021 4.096-9.626s-1.229-7.086-4.096-9.626c-6.144-6.144-13.926-14.049-20.070-20.152-5.325-5.284-13.926-5.284-19.251-0.082-65.946 65.29-453.837 446.751-453.837 446.751s-384.614-384.655-450.97-451.133z" />
<glyph unicode="&#x58;" glyph-name="aplikacije" horiz-adv-x="1275" d="M1159.647 244.911h-1055.373v592.938h1055.373v-592.938zM1160.782 960.015h-1057.746c-56.873 0-103.036-46.122-103.036-102.954v-628.948c0-56.832 46.163-102.995 103.036-102.995h304.362v-70.225h-181.123v-106.586h811.289v106.586h-195.28v70.225h318.498c56.77 0 103.057 46.163 103.057 102.995v628.948c0 56.832-46.287 102.954-103.057 102.954zM434.928 741.739c16.757 0 25.073-6.273 25.073-22.906v-43.831c0-16.715-8.316-25.032-25.073-25.032h-125.282c-18.696 0-24.97 8.316-24.97 25.032v43.831c0 16.633 6.273 22.906 24.97 22.906h125.282zM434.928 590.112c16.757 0 25.073-6.273 25.073-22.968v-43.831c0-16.695-8.316-25.011-25.073-25.011h-125.282c-18.696 0-24.97 8.316-24.97 25.011v43.831c0 16.695 6.273 22.968 24.97 22.968h125.282zM434.928 438.414c16.757 0 25.073-6.211 25.073-22.906v-43.831c0-16.695-8.316-25.032-25.073-25.032h-125.282c-18.696 0-24.97 8.337-24.97 25.032v43.831c0 16.695 6.273 22.906 24.97 22.906h125.282zM695.359 741.181c16.757 0 25.073-6.273 25.073-22.906v-43.831c0-16.715-8.316-25.032-25.073-25.032h-125.282c-18.696 0-24.97 8.316-24.97 25.032v43.831c0 16.633 6.273 22.906 24.97 22.906h125.282zM955.204 741.509c16.757 0 25.073-6.273 25.073-22.906v-43.831c0-16.715-8.316-25.032-25.073-25.032h-125.282c-18.696 0-24.97 8.316-24.97 25.032v43.831c0 16.633 6.273 22.906 24.97 22.906h125.282zM695.359 589.547c16.757 0 25.073-6.273 25.073-22.968v-43.831c0-16.695-8.316-25.011-25.073-25.011h-125.282c-18.696 0-24.97 8.316-24.97 25.011v43.831c0 16.695 6.273 22.968 24.97 22.968h125.282zM955.204 589.882c16.757 0 25.073-6.273 25.073-22.968v-43.831c0-16.695-8.316-25.011-25.073-25.011h-125.282c-18.696 0-24.97 8.316-24.97 25.011v43.831c0 16.695 6.273 22.968 24.97 22.968h125.282zM695.359 437.85c16.757 0 25.073-6.211 25.073-22.906v-43.831c0-16.695-8.316-25.032-25.073-25.032h-125.282c-18.696 0-24.97 8.337-24.97 25.032v43.831c0 16.695 6.273 22.906 24.97 22.906h125.282zM955.204 438.184c16.757 0 25.073-6.211 25.073-22.906v-43.831c0-16.695-8.316-25.032-25.073-25.032h-125.282c-18.696 0-24.97 8.337-24.97 25.032v43.831c0 16.695 6.273 22.906 24.97 22.906h125.282z" />
<glyph unicode="&#x5c;" glyph-name="javna_uprava_ikona" horiz-adv-x="889" d="M842.285-55.503h-801.99c-22.115 0-40.295 18.189-40.295 40.295 0 22.115 18.18 40.295 40.295 40.295h801.99c22.106 0 39.801-17.695 40.295-40.295 0-22.106-18.189-40.295-40.295-40.295zM792.154 49.17h-701.736c-22.115 0-40.295 18.18-40.295 40.295s18.18 40.295 40.295 40.295h9.827v360.7h-9.827c-11.3 0-20.148 8.839-20.148 20.148 0 11.3 8.848 20.148 20.148 20.148h701.736c11.309 0 20.148-8.848 20.148-20.148 0-11.309-8.839-20.148-20.148-20.148h-9.827v-360.7h9.827c22.115 0 40.295-18.18 40.295-40.295s-18.18-40.295-40.295-40.295zM301.236 129.761v360.7h-120.392v-360.7h120.392zM501.733 129.761v360.7h-120.401v-360.7h120.401zM702.23 129.761v360.7h-120.401v-360.7h120.401zM842.77 566.622h-802.475c-18.675 0-34.888 13.267-38.822 31.457-3.934 18.666 5.407 37.34 22.609 45.209l401.48 313.030c10.321 4.913 22.609 4.913 32.93 0l397.546-311.556c15.728-5.407 27.028-20.148 27.028-37.843 0-22.115-18.18-40.295-40.295-40.295zM441.533 644.904c-67.099 0-75.704 17.471-75.704 32.696v113.035c0 16.168 8.991 32.696 75.704 32.696 66.461 0 75.417-16.528 75.417-32.696v-79.324c0-20.228-7.842-22.824-14.686-22.824-4.437 0-7.716 1.231-10.015 3.755-3.44 3.8-4.725 10.518-3.809 19.986l7.554 75.246c0.144 1.446 0.171 3.539-1.222 5.084-1.527 1.689-3.916 1.689-4.707 1.689h-10.177c-4.482 0-6.961-2.111-7.375-6.234l-0.674-5.677c-9.45 6.719-22.914 14.246-39.307 14.246-25.519 0-39.244-12.89-41.966-39.415l-4.94-49.089c-1.329-12.791 1.123-22.744 7.294-29.588s15.881-10.321 28.861-10.321c19.564 0 35.346 8.848 45.793 17.076 4.123-8.399 13.276-17.076 33.532-17.076 26.498 0 40.52 14.12 40.52 40.816v82.513c0 22.887-10.375 53.311-100.092 53.311-69.219 0-100.083-16.438-100.083-53.311v-114.472c0-23.13 10.375-53.886 100.083-53.886h53.176c4.267 0 6.818 2.542 6.818 6.809v8.426c0 4.15-2.488 6.53-6.818 6.53h-53.176zM463.567 704.386c-6.126-4.051-19.654-12.477-33.783-12.477-8.048 0-13.429 1.626-16.438 4.985-2.623 2.91-3.575 7.33-2.919 13.519l4.365 42.703c1.329 12.288 5.776 20.471 23.121 20.471 15.046 0 25.402-8.515 31.133-13.393l-5.372-52.323c-0.225-1.356-0.171-2.524-0.108-3.485z" />
<glyph unicode="&#x61;" glyph-name="feature_processor" d="M342.4 617.6v-339.2h342.4v339.2h-342.4zM569.6 390.4h-115.2v115.2h115.2v-115.2zM908.8 620.8v112c0 64-51.2 115.2-115.2 115.2h-115.2v112h-115.2v-115.2h-115.2v115.2h-115.2v-115.2h-105.6c-64 0-115.2-51.2-115.2-115.2v-115.2h-112v-115.2h115.2v-115.2h-115.2v-115.2h115.2v-115.2c0-64 51.2-115.2 115.2-115.2h115.2v-102.4h115.2v115.2h115.2v-115.2h115.2v115.2h115.2c64 0 115.2 51.2 115.2 115.2v115.2h102.4v115.2h-115.2v115.2h115.2v108.8h-115.2zM796.8 163.2h-569.6v569.6h569.6v-569.6z" />
<glyph unicode="&#x62;" glyph-name="mClanstvo_Ikona_izbrana" d="M270.618 312.090h-90.67c-1.374 0-2.531 0.044-3.502 0.108l26.026 119.59c0.148 0.678 0.287 1.235 0.409 1.689 1.014 0.128 2.516 0.244 4.66 0.244h38.382l16.804-41.835c4.271-11.148 11.482-19.119 20.277-22.883l4.742 21.794c-2.084 1.991-3.953 4.898-5.414 8.761l-22.178 55.214h-52.613c-17.946 0-22.88-5.926-25.633-18.474l-27.593-126.796c0-12.927 7.687-18.466 25.633-18.466h86.089l4.582 21.053zM356.074 540.675c-2.705-31.2-28.948-55.769-60.84-55.769-33.68 0-61.084 27.403-61.084 61.086s27.403 61.084 61.084 61.084c21.574 0 40.556-11.25 51.427-28.181-0.702 6.033-1.076 12.167-1.076 18.385 0 4.428 0.193 8.812 0.551 13.149-13.996 11.071-31.67 17.699-50.902 17.699-45.361 0-82.134-36.774-82.134-82.136s36.773-82.137 82.134-82.137c33.457 0 62.22 20.014 75.026 48.712-5.619 8.816-10.383 18.225-14.186 28.108zM753.382 312.090h90.67c1.372 0 2.532 0.044 3.5 0.108l-26.023 119.59c-0.15 0.678-0.288 1.235-0.41 1.689-1.012 0.128-2.515 0.244-4.66 0.244h-38.381l-16.806-41.835c-4.27-11.148-11.481-19.119-20.276-22.883l-4.744 21.794c2.085 1.991 3.955 4.898 5.414 8.761l22.18 55.214h52.611c17.945 0 22.88-5.926 25.634-18.474l27.593-126.795c0-12.927-7.689-18.466-25.633-18.466h-86.089l-4.581 21.052zM667.927 540.675c2.705-31.2 28.948-55.769 60.838-55.769 33.683 0 61.086 27.403 61.086 61.086s-27.403 61.084-61.086 61.084c-21.572 0-40.556-11.25-51.427-28.181 0.702 6.033 1.075 12.167 1.075 18.385 0 4.428-0.19 8.812-0.551 13.149 13.997 11.071 31.671 17.699 50.902 17.699 45.361 0 82.137-36.774 82.137-82.136s-36.775-82.137-82.137-82.137c-33.455 0-62.217 20.014-75.026 48.712 5.622 8.816 10.384 18.225 14.188 28.108zM651.515 595.394c0 77.178-62.412 139.77-139.515 140.091v0.089c-0.001 0-0.003 0-0.003 0-0.099 0-0.195-0.008-0.294-0.008s-0.195 0.008-0.294 0.008h-0.262v-0.089c-76.8-0.321-139.515-62.913-139.515-140.091 0-77.181 62.715-139.772 139.515-140.093v0.379h0.262c0.098 0 0.195 0.008 0.294 0.008s0.195-0.008 0.294-0.008c0.001 0 0.003 0 0.003 0v-0.379c77.103 0.321 139.515 62.91 139.515 140.093zM704.718 408.119c-4.695 21.403-13.11 31.348-43.725 31.348h-89.744l-37.83-94.019c-5.192-13.734-13.375-20.413-21.716-20.267-8.34-0.147-16.524 6.492-21.716 20.226l-37.831 94.060h-89.745c-30.613 0-39.028-9.945-43.725-31.348l-47.069-216.24c0-22.050 13.111-31.451 43.725-31.451h392.721c30.614 0 43.722 9.402 43.722 31.451l-47.068 216.24z" />
<glyph unicode="&#x63;" glyph-name="cyber_security" horiz-adv-x="1144" d="M705.39 568.511v68.187c0 41.979-23.269 65.428-65.428 65.428h-154.666c-41.979 0-65.368-23.209-65.368-65.428v-68.187c-33.3-1.098-59.888-28.316-59.971-61.762v-230.956c0.034-34.221 27.784-61.95 62.010-61.95 0.021 0 0.042 0 0.063 0h281.201c34.193 0 61.916 27.702 61.95 61.887v231.011c-0.079 33.394-26.568 60.575-59.682 61.767l-0.109 0.003zM485.297 652.831h154.666c14.873 0 16.132-1.2 16.132-16.072v-68.127h-186.871v68.067c0 14.873 1.2 16.132 16.072 16.132zM719.183 275.793c-0.034-8.884-7.243-16.072-16.132-16.072 0 0 0 0 0 0h-281.025c-8.876 0-16.072 7.195-16.072 16.072v0 230.948c0 8.876 7.195 16.072 16.072 16.072v0h281.205c0 0 0 0 0 0 8.889 0 16.098-7.188 16.132-16.069v-0.003zM622.33 432.438c0 0.035 0 0.077 0 0.119 0 32.955-26.716 59.671-59.671 59.671s-59.671-26.716-59.671-59.671c0-21.982 11.886-41.189 29.583-51.54l0.282-0.153-22.969-92.655h105.729l-23.149 92.655c17.962 10.468 29.847 29.631 29.865 51.572v0.003zM303.525 587.103h-117.063c-1.16 0-2.099 0.94-2.099 2.099v52.295s0 0 0 0.42v24.588c29.306 7.875 50.525 34.205 50.525 65.491 0 37.393-30.314 67.707-67.707 67.707s-67.707-30.314-67.707-67.707c0-31.286 21.219-57.616 50.052-65.382l0.474-0.109v-88.278c0-14.11 11.438-25.548 25.548-25.548v0h127.978c2.815 0 5.098 2.282 5.098 5.098v0 24.288c-0.034 2.789-2.303 5.038-5.097 5.038 0 0 0 0 0 0v0zM166.791 699.369c-0.018 0-0.039 0-0.060 0-18.283 0-33.104 14.822-33.104 33.104s14.822 33.104 33.104 33.104c18.283 0 33.104-14.822 33.104-33.104 0-0.021 0-0.042 0-0.063v0.003c0-18.25-14.795-33.044-33.044-33.044v0zM835.468 582.065v-23.989c0-2.815 2.282-5.098 5.098-5.098v0h127.978c14.11 0 25.548 11.438 25.548 25.548v0 87.978c29.306 7.875 50.525 34.205 50.525 65.491 0 37.393-30.314 67.707-67.707 67.707s-67.707-30.314-67.707-67.707c0-31.286 21.219-57.616 50.052-65.382l0.474-0.109v-24.468s0 0 0-0.42v-52.355c0-1.16-0.94-2.099-2.099-2.099h-117.063c-2.815 0-5.098-2.282-5.098-5.098v0zM944.255 732.533c0 18.25 14.795 33.044 33.044 33.044s33.044-14.795 33.044-33.044c0-18.25-14.795-33.044-33.044-33.044v0c-18.194 0.034-32.942 14.74-33.044 32.914v0.010zM308.682 338.103v23.989c0 2.815-2.282 5.098-5.098 5.098h-127.978c0 0 0 0-0.001 0-14.047 0-25.445-11.335-25.547-25.358v-88.288c-29.306-7.875-50.525-34.205-50.525-65.491 0-37.393 30.314-67.707 67.707-67.707s67.707 30.314 67.707 67.707c0 31.286-21.219 57.616-50.052 65.382l-0.474 0.109v24.588s0 0 0 0.42v52.355c0 1.16 0.94 2.099 2.099 2.099v0h117.003c0.018 0 0.039 0 0.060 0 2.815 0 5.098 2.282 5.098 5.098 0 0 0 0 0 0v0zM199.834 187.636c0-18.25-14.795-33.044-33.044-33.044s-33.044 14.795-33.044 33.044c0 18.25 14.795 33.044 33.044 33.044v0c18.236-0.034 33.010-14.808 33.044-33.040v-0.003zM840.565 333.005h117.123c1.16 0 2.099-0.94 2.099-2.099v0-52.355s0 0 0-0.42v-24.588c-29.306-7.875-50.525-34.205-50.525-65.491 0-37.393 30.314-67.707 67.707-67.707s67.707 30.314 67.707 67.707c0 31.286-21.219 57.616-50.052 65.382l-0.474 0.109v88.278c0 14.11-11.438 25.548-25.548 25.548v0h-128.038c-2.815 0-5.098-2.282-5.098-5.098v0-23.989c-0.002-0.054-0.003-0.117-0.003-0.18 0-2.815 2.282-5.098 5.098-5.098 0.001 0 0.002 0 0.003 0v0zM977.299 220.74c0.018 0 0.039 0 0.060 0 18.283 0 33.104-14.822 33.104-33.104s-14.822-33.104-33.104-33.104c-18.283 0-33.104 14.822-33.104 33.104 0 0.021 0 0.042 0 0.063v-0.003c0 0 0 0 0 0 0 18.25 14.795 33.044 33.044 33.044 0.021 0 0.042 0 0.063 0h-0.003zM240.495 469.56h-107.228c-7.875 29.306-34.205 50.525-65.491 50.525-37.393 0-67.707-30.314-67.707-67.707s30.314-67.707 67.707-67.707c31.286 0 57.616 21.219 65.382 50.052l0.109 0.474h107.228c2.815 0 5.098 2.282 5.098 5.098v0 23.989c0.002 0.054 0.003 0.117 0.003 0.18 0 2.815-2.282 5.098-5.098 5.098-0.001 0-0.002 0-0.003 0v0zM66.099 420.143c-0.018 0-0.039 0-0.060 0-18.283 0-33.104 14.822-33.104 33.104s14.822 33.104 33.104 33.104c18.283 0 33.104-14.822 33.104-33.104v0c0 0 0 0 0 0 0-18.262-14.787-33.069-33.040-33.104h-0.003zM276.838 469.020h29.326c1.425 0 2.578-1.155 2.578-2.578v-29.206c0-1.425-1.155-2.578-2.578-2.578h-29.326c-1.425 0-2.578 1.155-2.578 2.578v29.206c0 1.425 1.155 2.578 2.578 2.578zM898.557 464.462v-23.989c0-2.815 2.282-5.098 5.098-5.098h107.228c7.875-29.306 34.205-50.525 65.491-50.525 37.393 0 67.707 30.314 67.707 67.707s-30.314 67.707-67.707 67.707c-31.286 0-57.616-21.219-65.382-50.052l-0.109-0.474h-107.228c-0.001 0-0.002 0-0.003 0-2.815 0-5.098-2.282-5.098-5.098 0-0.063 0.001-0.126 0.003-0.189v0.009zM1044.827 453.068c0 0.036 0 0.078 0 0.12 0 18.25 14.795 33.044 33.044 33.044s33.044-14.795 33.044-33.044c0-18.229-14.76-33.009-32.98-33.044h-0.003c0 0 0 0 0 0-18.208 0-32.975 14.726-33.043 32.917v0.007zM867.372 434.596h-29.326c-1.425 0-2.578 1.155-2.578 2.578v29.206c0 1.425 1.155 2.578 2.578 2.578h29.326c1.425 0 2.578-1.155 2.578-2.578v-29.206c0-1.425-1.155-2.578-2.578-2.578zM446.856-63.883h23.989c2.815 0 5.098 2.282 5.098 5.098v0 89.117c29.306 7.875 50.525 34.205 50.525 65.491 0 37.393-30.314 67.707-67.707 67.707s-67.707-30.314-67.707-67.707c0-31.286 21.219-57.616 50.052-65.382l0.474-0.109v-89.237c0.065-2.764 2.321-4.981 5.096-4.981 0.064 0 0.127 0.001 0.19 0.003h-0.009zM458.25 64.395c-18.224 0.034-32.984 14.816-32.984 33.044 0 18.25 14.795 33.044 33.044 33.044s33.044-14.795 33.044-33.044v0c0-18.25-14.795-33.044-33.044-33.044v0zM673.126-63.883h23.989c2.815 0 5.098 2.282 5.098 5.098v0 89.117c29.306 7.875 50.525 34.205 50.525 65.491 0 37.393-30.314 67.707-67.707 67.707s-67.707-30.314-67.707-67.707c0-31.286 21.219-57.616 50.052-65.382l0.474-0.109v-89.237c0.065-2.764 2.321-4.981 5.096-4.981 0.064 0 0.127 0.001 0.19 0.003h-0.009zM684.52 64.395c-18.224 0.034-32.984 14.816-32.984 33.044 0 18.25 14.795 33.044 33.044 33.044s33.044-14.795 33.044-33.044v0c0 0 0 0 0 0 0-18.25-14.795-33.044-33.044-33.044-0.021 0-0.042 0-0.063 0h0.003zM441.758 954.785v-89.237c-29.306-7.875-50.525-34.205-50.525-65.491 0-37.393 30.314-67.707 67.707-67.707s67.707 30.314 67.707 67.707c0 31.286-21.219 57.616-50.052 65.382l-0.474 0.109v89.237c0 2.815-2.282 5.098-5.098 5.098v0h-23.989c-0.054 0.002-0.117 0.003-0.18 0.003-2.815 0-5.098-2.282-5.098-5.098 0-0.001 0-0.002 0-0.003v0zM491.353 798.561c0-0.018 0-0.039 0-0.060 0-18.283-14.822-33.104-33.104-33.104s-33.104 14.822-33.104 33.104c0 18.283 14.822 33.104 33.104 33.104v0c0 0 0 0 0 0 18.262 0 33.069-14.787 33.104-33.040v-0.003zM668.028 954.785v-89.237c-29.306-7.875-50.525-34.205-50.525-65.491 0-37.393 30.314-67.707 67.707-67.707s67.707 30.314 67.707 67.707c0 31.286-21.219 57.616-50.052 65.382l-0.474 0.109v89.237c0 2.815-2.282 5.098-5.098 5.098v0h-23.989c-0.054 0.002-0.117 0.003-0.18 0.003-2.815 0-5.098-2.282-5.098-5.098 0-0.001 0-0.002 0-0.003v0zM717.625 798.561c0-0.018 0-0.039 0-0.060 0-18.283-14.822-33.104-33.104-33.104s-33.104 14.822-33.104 33.104c0 18.283 14.822 33.104 33.104 33.104v0c0 0 0 0 0 0 18.262 0 33.069-14.787 33.104-33.040v-0.003z" />
<glyph unicode="&#x65;" glyph-name="notification" d="M531.2 294.4h-38.4c-16 0-19.2-6.4-19.2-22.4v-64c0-16 6.4-22.4 19.2-22.4h38.4c16 0 22.4 6.4 22.4 22.4v64c0 16-9.6 22.4-22.4 22.4zM531.2 707.2v0h-38.4c-16 0-19.2-6.4-19.2-22.4v-326.4c0-16 6.4-22.4 19.2-22.4h38.4c16 0 22.4 6.4 22.4 22.4v326.4c0 16-9.6 22.4-22.4 22.4zM512 960c-281.6 0-512-230.4-512-512s230.4-512 512-512c281.6 0 512 230.4 512 512s-230.4 512-512 512zM512 51.2c-220.8 0-396.8 176-396.8 396.8-3.2 220.8 176 396.8 396.8 396.8v0c220.8 0 396.8-179.2 396.8-400 0-217.6-176-393.6-396.8-393.6z" />
<glyph unicode="&#x67;" glyph-name="icon_euro_regular" d="M246.4 393.6v112h-67.2c-16 0-22.4 6.4-22.4 22.4v25.6c0 16 6.4 19.2 22.4 19.2h67.2v172.8c0 118.4 67.2 214.4 310.4 214.4s310.4-96 310.4-214.4v-73.6c0-16-6.4-22.4-19.2-22.4h-57.6c-16 0-22.4 6.4-22.4 22.4v57.6c0 86.4-51.2 140.8-208 140.8s-208-57.6-208-140.8v-156.8h230.4c16 0 19.2-6.4 19.2-19.2v-25.6c0-16-6.4-22.4-19.2-22.4h-230.4v-112h230.4c16 0 19.2-6.4 19.2-22.4v-25.6c0-16-6.4-22.4-19.2-22.4h-230.4v-156.8c0-86.4 51.2-140.8 208-140.8s208 54.4 208 140.8v76.8c0 16 6.4 22.4 22.4 22.4h57.6c16 0 19.2-6.4 19.2-22.4v-92.8c0-118.4-67.2-214.4-310.4-214.4s-310.4 96-310.4 214.4v172.8h-67.2c-16 0-22.4 6.4-22.4 22.4v25.6c0 16 6.4 22.4 22.4 22.4h67.2z" />
<glyph unicode="&#x68;" glyph-name="menu_tablet" d="M985.6 850.286h-947.2c-19.2 0-38.4 19.2-38.4 41.6s19.2 38.4 38.4 38.4h944c22.4 0 41.6-16 41.6-38.4s-19.2-41.6-38.4-41.6zM985.6 408.686h-947.2c-22.4 0-38.4 19.2-38.4 38.4 0 22.4 19.2 38.4 38.4 38.4h944c22.4 0 38.4-19.2 38.4-38.4 3.2-22.4-16-38.4-35.2-38.4zM985.6-36.114h-947.2c-22.4 0-38.4 19.2-38.4 38.4 0 22.4 19.2 38.4 38.4 38.4h944c22.4 0 38.4-19.2 38.4-38.4 3.2-19.2-16-38.4-35.2-38.4z" />
<glyph unicode="&#x6a;" glyph-name="feature_screen_size" d="M745.6 960h-467.2c-51.2 0-92.8-41.6-92.8-92.8v-838.4c0-51.2 41.6-92.8 92.8-92.8h464c51.2 0 92.8 41.6 92.8 92.8v838.4c3.2 51.2-38.4 92.8-89.6 92.8zM742.4 121.6h-464v652.8h464v-652.8z" />
<glyph unicode="&#x6b;" glyph-name="icon_euro_semibold" d="M208 406.4v80h-44.8c-25.6 0-35.2 9.6-35.2 35.2v51.2c0 25.6 12.8 35.2 35.2 35.2h44.8v112c0 124.8 80 240 345.6 240s345.6-115.2 345.6-240v-70.4c0-25.6-9.6-35.2-35.2-35.2h-121.6c-25.6 0-35.2 9.6-35.2 35.2v35.2c0 73.6-51.2 108.8-150.4 108.8s-147.2-35.2-147.2-108.8v-76.8h144c25.6 0 35.2-9.6 35.2-35.2v-51.2c0-25.6-9.6-35.2-35.2-35.2h-144v-80h144c25.6 0 35.2-9.6 35.2-35.2v-51.2c0-25.6-9.6-35.2-35.2-35.2h-144v-73.6c0-73.6 51.2-108.8 147.2-108.8 99.2 0 150.4 35.2 150.4 108.8v54.4c0 25.6 9.6 35.2 35.2 35.2h121.6c25.6 0 35.2-9.6 35.2-35.2v-92.8c0-124.8-80-240-345.6-240-265.6 3.2-345.6 118.4-345.6 243.2v108.8h-44.8c-25.6 0-35.2 9.6-35.2 35.2v51.2c0 25.6 12.8 35.2 35.2 35.2h44.8z" />
<glyph unicode="&#x6e;" glyph-name="360" d="M867.2 579.2c-3.2 0-6.4 0-6.4-3.2s0-3.2 3.2-6.4c73.6-28.8 118.4-67.2 118.4-112 0-80-156.8-147.2-364.8-163.2-6.4 0-9.6-6.4-9.6-9.6v-57.6c0-6.4 3.2-9.6 9.6-9.6 230.4 19.2 406.4 105.6 406.4 208 0 60.8-60.8 115.2-156.8 153.6zM454.4 364.8c-3.2 3.2-6.4 0-6.4-3.2v-67.2c-230.4 12.8-406.4 80-406.4 166.4 0 41.6 44.8 83.2 118.4 112 3.2 0 3.2 3.2 3.2 6.4-3.2-3.2-6.4-3.2-6.4-3.2-96-38.4-156.8-92.8-156.8-153.6 0-108.8 195.2-198.4 448-211.2v-73.6c0-3.2 3.2-6.4 6.4-3.2l121.6 105.6c3.2 3.2 3.2 9.6 0 12.8l-121.6 112zM291.2 441.6c64 0 80 25.6 80 57.6v38.4c0 19.2-6.4 35.2-35.2 44.8 25.6 6.4 32 19.2 32 41.6v25.6c0 32-16 57.6-80 57.6s-80-28.8-80-57.6v-9.6c0-6.4 0-6.4 6.4-6.4h22.4c6.4 0 6.4 3.2 6.4 6.4v3.2c0 19.2 9.6 32 41.6 32s41.6-12.8 41.6-32v-16c0-22.4-9.6-32-44.8-32h-22.4c-6.4 0-6.4-3.2-6.4-6.4v-16c0-6.4 3.2-6.4 6.4-6.4h32c35.2 0 44.8-9.6 44.8-32v-28.8c0-19.2-12.8-32-44.8-32s-44.8 12.8-44.8 32v6.4c0 6.4-3.2 6.4-6.4 6.4h-25.6c-6.4 0-6.4-3.2-6.4-6.4v-9.6c0-35.2 19.2-60.8 83.2-60.8zM508.8 601.6c-25.6 0-38.4-6.4-48-16v60.8c0 19.2 9.6 32 41.6 32s41.6-12.8 41.6-32v-3.2c0-6.4 0-6.4 6.4-6.4h25.6c6.4 0 6.4 3.2 6.4 6.4v6.4c0 28.8-16 57.6-80 57.6s-80-28.8-80-57.6v-150.4c0-32 16-57.6 80-57.6s80 28.8 80 57.6v41.6c3.2 32-16 60.8-73.6 60.8zM547.2 505.6c0-19.2-9.6-32-44.8-32s-44.8 12.8-44.8 32v35.2c0 19.2 12.8 28.8 44.8 28.8 35.2 0 44.8-12.8 44.8-32v-32zM707.2 441.6c64 0 83.2 28.8 83.2 57.6v150.4c0 32-19.2 57.6-83.2 57.6s-83.2-28.8-83.2-57.6v-150.4c0-32 19.2-57.6 83.2-57.6zM662.4 643.2c0 19.2 12.8 32 44.8 32 35.2 0 44.8-12.8 44.8-32v-137.6c0-19.2-12.8-32-44.8-32-35.2 0-44.8 12.8-44.8 32v137.6zM851.2 678.4c32 0 41.6 9.6 41.6 28.8v25.6c0 16-9.6 28.8-41.6 28.8s-41.6-9.6-41.6-28.8v-25.6c0-16 9.6-28.8 41.6-28.8zM838.4 729.6c0 6.4 6.4 6.4 12.8 6.4 6.4 3.2 12.8 0 12.8-6.4v-22.4c0-6.4-6.4-6.4-12.8-6.4s-12.8 3.2-12.8 6.4v22.4z" />
<glyph unicode="&#x6f;" glyph-name="icon_oskrba" d="M1023.631 544.419c-2.584 37.411-16.121 78.144-46.764 102.634l-350.85 265.691c-35.688 26.951-72.73 47.256-114.079 47.256-41.226 0-78.268-20.305-113.956-47.256l-350.727-265.691c-30.766-24.489-44.179-65.223-46.764-102.634-0.492-7.507-0.492-15.137 0-22.643v-383.831c0-111.371 90.328-201.699 201.699-201.699h301.871c2.707-0.123 5.292-0.246 7.999-0.246s5.292 0.123 7.999 0.246h301.871c111.371 0 201.699 90.328 201.699 201.699v383.831c0.492 7.507 0.492 15.014 0 22.643zM986.712 524.237l-0.123-1.231v-385.061c0-44.056-17.106-85.405-48.24-116.54-15.629-15.629-33.719-27.689-53.532-35.811 0.492 3.692 0.738 7.63 0.738 12.060l-26.581 178.686c-6.153-0.984-12.552-1.6-19.075-1.6h-214.99l25.228-168.964 0.615-4.061v-4.061c0-8.614-0.738-16.86-2.092-24.489h-57.347c2.707 6.522 3.938 14.644 3.938 24.489l-34.704 232.587h279.351c3.692 0 7.384 0.369 10.829 0.984v0c0 0 0 0 0 0 0.861 0.123 1.723 0.369 2.584 0.492 0 0 0 0 0 0 6.153 1.354 11.814 3.692 17.106 6.768 0 0 0 0 0.123 0 0.738 0.369 1.354 0.861 2.092 1.231 0.123 0 0.123 0.123 0.246 0.123 0.615 0.369 1.354 0.861 1.969 1.354 0.123 0 0.123 0.123 0.246 0.123 0.615 0.492 1.231 0.861 1.846 1.354 0 0 0.123 0.123 0.123 0.123 3.323 2.584 6.276 5.415 8.984 8.491 0.123 0.123 0.246 0.246 0.369 0.369 0.369 0.492 0.861 0.984 1.231 1.477 0.123 0.246 0.369 0.492 0.492 0.615 0.369 0.492 0.738 0.984 1.108 1.477 0.246 0.246 0.369 0.492 0.615 0.738 0.369 0.492 0.615 0.984 0.984 1.477 0.246 0.246 0.369 0.615 0.615 0.861 0.246 0.492 0.615 0.984 0.861 1.354s0.369 0.615 0.615 0.984c0.246 0.492 0.492 0.984 0.738 1.354s0.369 0.738 0.492 1.108c0.246 0.492 0.492 0.984 0.738 1.354s0.369 0.861 0.492 1.231c0.369 0.738 0.738 1.6 0.984 2.338 0.246 0.492 0.369 0.984 0.615 1.477 0.123 0.369 0.246 0.861 0.492 1.231 0.123 0.492 0.369 0.984 0.492 1.477 0.123 0.369 0.246 0.861 0.369 1.231 0.123 0.492 0.246 0.984 0.369 1.477 0.123 0.369 0.246 0.861 0.369 1.354s0.246 0.984 0.369 1.477c0.123 0.492 0.123 0.861 0.246 1.354s0.246 0.984 0.246 1.6c0.123 0.492 0.123 0.861 0.246 1.354s0.123 1.108 0.246 1.6c0 0.369 0.123 0.861 0.123 1.231 0 0.615 0.123 1.231 0.123 1.846 0 0.369 0 0.738 0.123 1.108 0 0.861 0 1.723 0.123 2.584 0 0.123 0 0.246 0 0.369v0.369c0 33.596-27.197 60.793-60.793 60.793h-332.883c-0.369 0-0.738 0-1.108 0h-293.749c-30.027 0-38.395-14.521-42.949-45.164l-46.271-309.132c0 0 0 0 0 0v0c0-1.6 0-3.077 0.123-4.553-13.66 7.507-26.335 16.983-37.78 28.304-31.135 31.135-48.24 72.484-48.24 116.54v385.061l-0.123 1.231c-0.369 5.784-0.369 11.691 0 17.475 2.338 33.473 14.275 61.285 32.735 76.052l350.358 265.568c36.426 27.443 64.608 39.749 91.681 39.749s55.378-12.306 91.681-39.749l350.481-265.445c18.459-14.891 30.273-42.579 32.735-76.052 0.369-5.784 0.369-11.691-0.123-17.598zM359.095 621.702c-64.977 0-117.647-52.671-117.647-117.647s52.671-117.647 117.647-117.647c64.854 0 117.647 52.671 117.647 117.647s-52.794 117.647-117.647 117.647zM649.645 620.718c-64.361 0-116.663-52.301-116.663-116.663s52.178-116.663 116.663-116.663c64.361 0 116.663 52.301 116.663 116.663s-52.301 116.663-116.663 116.663zM624.91 174.741v0 0z" />
<glyph unicode="&#x70;" glyph-name="location" d="M512 960c-198.4 0-358.4-160-358.4-358.4 0-268.8 358.4-665.6 358.4-665.6s358.4 396.8 358.4 665.6c0 198.4-160 358.4-358.4 358.4zM512 473.6c-70.4 0-128 57.6-128 128s57.6 128 128 128 128-57.6 128-128-57.6-128-128-128z" />
<glyph unicode="&#x71;" glyph-name="unlimited" horiz-adv-x="2219" d="M1701.751-64c26.526 0 52.507 1.95 77.863 5.929 245.526 37.605 434.098 250.207 434.098 506.032 0 255.902-188.572 468.504-434.098 506.11-25.356 3.979-51.337 5.929-77.863 5.929-189.82 0-346.639-102.361-490.974-234.681-3.979-3.667-4.135-9.752-0.312-13.575l158.691-158.613c3.823-3.823 10.142-3.979 14.121-0.312 105.56 95.495 210.105 163.372 318.474 163.372 147.924 0 268.229-120.305 268.229-268.229 0-147.846-120.305-268.151-268.229-268.151-144.881 0-283.209 121.554-426.062 268.151l-168.833 176.089c-173.514 177.337-358.732 335.95-594.895 335.95-26.448 0-52.507-1.95-77.863-5.929-245.526-37.605-434.098-250.207-434.098-506.11 0-255.824 188.572-468.426 434.098-506.032 25.356-3.979 51.415-5.929 77.863-5.929 189.82 0 346.639 102.361 490.974 234.681 3.979 3.667 4.135 9.752 0.312 13.575l-158.691 158.613c-3.823 3.823-10.142 3.979-14.199 0.312-105.482-95.495-210.027-163.372-318.396-163.372-147.846 0-268.151 120.305-268.151 268.151 0 147.924 120.305 268.229 268.151 268.229 144.959 0 283.209-121.554 426.062-268.229l168.833-176.011c173.592-177.337 358.732-335.95 594.895-335.95z" />
<glyph unicode="&#x72;" glyph-name="zabava-za-vso-druzino" horiz-adv-x="727" d="M532.76 65.347h-354.62c-27.618 0-39.595 8.479-39.595 28.418l42.526 195.026c4.314 19.339 11.96 28.434 39.561 28.434h80.772l34.164-84.953c9.278-24.487 29.15-24.487 39.761 0l34.131 84.953h80.972c27.585 0 34.947-9.428 39.361-28.434l42.526-195.026c0-19.939-11.977-28.418-39.561-28.418zM355.442 583.961c69.661 0 126.43-56.602 126.43-126.347s-56.768-126.447-126.43-126.447c-69.845 0-126.346 56.702-126.346 126.447s56.502 126.347 126.346 126.347zM707.396 580.296c-2.565 6.63-6.896 13.426-12.16 19.556l-300.316 342.911c-18.973 22.971-59.45 22.971-81.172 0l-300.333-342.911c-9.661-11.094-14.342-24.003-13.243-35.014v-548.548c0-49.090 20.955-70.078 69.928-70.078h570.766c49.039 0 70.011 20.988 70.011 70.078v547.981c0 6.263-1.266 11.577-3.481 16.025z" />
<glyph unicode="&#x73;" glyph-name="info" d="M492.8 601.6h38.4c16 0 19.2 6.4 19.2 22.4v64c0 16-6.4 22.4-19.2 22.4h-38.4c-16 0-22.4-6.4-22.4-22.4v-64c0-16 9.6-22.4 22.4-22.4zM492.8 188.8v0h38.4c16 0 19.2 6.4 19.2 22.4v326.4c0 16-6.4 22.4-19.2 22.4h-38.4c-16 0-22.4-6.4-22.4-22.4v-326.4c0-16 9.6-22.4 22.4-22.4zM512-64c281.6 0 512 230.4 512 512s-230.4 512-512 512c-281.6 0-512-230.4-512-512s230.4-512 512-512zM512 844.8c220.8 0 396.8-179.2 396.8-396.8 0-220.8-179.2-396.8-396.8-396.8v0c-220.8-3.2-396.8 176-396.8 396.8s176 396.8 396.8 396.8z" />
<glyph unicode="&#x74;" glyph-name="icon_euro_medium" d="M230.4 396.8v99.2h-57.6c-19.2 0-28.8 6.4-28.8 28.8v35.2c0 19.2 9.6 25.6 28.8 25.6h57.6v147.2c0 121.6 70.4 227.2 326.4 227.2s326.4-105.6 326.4-227.2v-73.6c0-19.2-6.4-28.8-25.6-28.8h-89.6c-19.2 0-28.8 9.6-28.8 28.8v51.2c0 80-51.2 128-182.4 128s-182.4-48-182.4-128v-121.6h195.2c19.2 0 28.8-6.4 28.8-25.6v-35.2c0-19.2-9.6-28.8-28.8-28.8h-195.2v-99.2h195.2c19.2 0 28.8-6.4 28.8-25.6v-35.2c0-19.2-9.6-28.8-28.8-28.8h-195.2v-121.6c0-80 51.2-128 182.4-128s182.4 48 182.4 128v67.2c0 19.2 6.4 28.8 28.8 28.8h86.4c19.2 0 25.6-9.6 25.6-28.8v-92.8c0-121.6-73.6-227.2-326.4-227.2s-323.2 105.6-323.2 227.2v144h-57.6c-19.2 0-28.8 6.4-28.8 28.8v35.2c0 19.2 9.6 25.6 28.8 25.6h57.6z" />
<glyph unicode="&#x75;" glyph-name="search" d="M360 857.6c144 0 259.2-115.2 259.2-259.2s-115.2-259.2-259.2-259.2c-144 0-259.2 115.2-259.2 259.2s115.2 259.2 259.2 259.2zM360 240c80 0 153.6 25.6 211.2 70.4l361.6-361.6c12.8-12.8 28.8-12.8 41.6 0l38.4 38.4c12.8 12.8 12.8 25.6-3.2 41.6l-358.4 358.4c44.8 60.8 70.4 134.4 70.4 211.2 0 198.4-160 361.6-358.4 361.6s-358.4-160-358.4-361.6c-3.2-198.4 156.8-358.4 355.2-358.4z" />
<glyph unicode="&#x76;" glyph-name="vklopi-razum-zahtevaj-racun-icon" horiz-adv-x="992" d="M692.054 794.089c6.887 13.774 19.372 23.866 34.252 27.733 14.916 3.867 30.716 1.105 43.422-7.587 15.542-10.938 30.421-22.65 44.601-35.246 46.369-41.175 84.671-91.3 112.073-146.95 22.208-45.006 37.198-93.473 44.306-143.12 6.445-44.858 6.482-90.638 0.221-135.496-6.85-48.799-21.288-96.457-42.686-140.836-25.081-52.003-59.627-99.366-101.429-139.216-43.275-41.286-94.247-74.396-149.602-97.009-59.296-24.271-123.342-36.277-187.389-35.43-63.826 0.81-127.283 14.364-185.769 39.96-54.729 23.976-104.854 58.264-147.098 100.508-40.844 40.881-74.285 89.091-98.114 141.757-20.367 45.006-33.662 93.179-39.26 142.273-5.193 45.448-3.941 91.669 3.83 136.748 9.207 53.513 27.622 105.406 54.25 152.732 29.611 52.703 69.24 99.661 116.124 137.779 8.287 6.74 16.794 13.185 25.523 19.299 12.669 8.913 28.543 11.822 43.533 8.066 14.99-3.793 27.585-13.922 34.473-27.733 2.689-5.046 5.267-10.239 7.771-15.284 11.749-23.424 4.604-51.93-16.757-67.103-7.992-5.524-15.726-11.528-23.203-17.899-36.461-31.047-66.588-69.387-88.060-112.183-17.457-34.841-29.095-72.517-34.325-111.152-4.604-33.957-4.346-68.613 0.847-102.533 5.524-36.13 16.684-71.376 32.963-104.117 19.115-38.45 45.227-73.328 76.642-102.57 32.557-30.311 70.75-54.508 112.146-70.823 44.38-17.494 92.185-25.818 139.879-24.639 47.326 1.215 94.284 11.896 137.448 31.416 41.765 18.894 79.736 45.926 111.373 79.073 29.685 31.121 53.698 67.619 70.455 107.211 13.774 32.557 22.613 67.14 26.186 102.276 3.572 34.951 1.989 70.455-4.714 104.927-7.44 38.082-21.14 74.838-40.439 108.5-23.313 40.623-54.618 76.495-91.632 105.148-4.088 3.167-8.287 6.261-12.485 9.244-21.435 15.137-28.58 43.643-16.868 67.103 2.431 5.009 5.009 10.128 7.513 15.174zM432.294 893.455c0.295 6.445 1.068 12.743 3.020 18.93 5.34 16.794 18.378 30.9 34.509 37.824 6.556 2.799 13.406 4.125 20.477 4.861 1.805 0.074 3.646 0.11 5.451 0.074 7.219-0.221 14.474-1.657 21.214-4.272 15.358-5.966 27.954-18.488 34.325-33.625 3.204-7.624 4.456-15.616 4.825-23.792v-457.386c-0.147-3.315-0.295-6.666-0.847-9.981-1.068-6.629-3.278-13.111-6.482-19.041-3.609-6.813-8.508-12.89-14.364-17.899-5.451-4.677-11.712-8.323-18.452-10.828-15.468-5.782-33.184-5.193-48.136 1.878-5.856 2.799-11.233 6.445-15.984 10.865-4.641 4.309-8.581 9.392-11.675 14.916-3.462 6.224-5.856 13.038-7.034 20.072-0.552 3.351-0.737 6.666-0.847 10.054v457.349z" />
<glyph unicode="&#x77;" glyph-name="feature_camera" d="M512 576c99.2 0 179.2-80 179.2-179.2s-80-179.2-179.2-179.2c-99.2 0-179.2 80-179.2 179.2s80 179.2 179.2 179.2zM512 140.8c-140.8 0-256 115.2-256 256s115.2 256 256 256 256-115.2 256-256-115.2-256-256-256v0zM358.4 908.8l-92.8-102.4h-163.2c-57.6 0-102.4-44.8-102.4-102.4v-614.4c0-57.6 44.8-102.4 102.4-102.4h819.2c57.6 0 102.4 44.8 102.4 102.4v614.4c0 57.6-44.8 102.4-102.4 102.4h-163.2l-92.8 102.4h-307.2z" />
<glyph unicode="&#x79;" glyph-name="TS-Elektrika-3" horiz-adv-x="783" d="M164.338 60.533c0 0-32.828-0.241-49.212 0-14.818 0.381-29.616 2.269-43.731 6.907-9.096 2.972-17.85 7.088-25.841 12.408-11.123 7.429-20.701 17.247-27.688 28.652-4.578 7.469-8.192 15.44-10.842 23.773-4.176 13.071-5.923 26.724-6.204 40.418-0.843 125.269-1.305 250.539 0 375.808 0.161 5 0.582 9.959 1.446 14.878 1.907 10.943 5.742 21.504 11.244 31.162 3.534 6.204 7.75 11.927 12.388 17.348l287.744 315.894c2.128 2.088 4.257 4.136 6.525 6.084 4.257 3.654 8.774 6.987 13.553 9.939 10.923 6.766 23.070 11.405 35.679 13.874 7.309 1.446 14.677 2.088 22.106 2.309 2.811 0.020 2.791 0.020 5.602-0.020 7.208-0.281 14.336-1.104 21.363-2.831 11.666-2.871 22.749-7.951 32.527-14.938 4.779-3.413 9.156-7.288 13.292-11.465 1.606-1.707 1.586-1.707 3.172-3.433 94.931-104.307 189.862-208.595 284.792-312.882 1.104-1.205 2.249-2.349 3.333-3.574 3.875-4.457 7.268-9.256 10.12-14.436 2.45-4.437 4.417-9.055 6.385-13.714 0.522-1.245 1.124-2.45 1.646-3.694l0.863-2.168c1.325-3.775 2.49-7.57 3.313-11.485 1.144-5.481 1.687-11.003 1.907-16.565 1.566-125.811 0.141-386.189 0.1-388.538-0.502-12.408-2.389-24.696-6.465-36.462-2.61-7.529-6.064-14.758-10.381-21.464-3.293-5.080-7.088-9.859-11.304-14.216-3.413-3.494-7.108-6.706-11.023-9.618-13.151-9.778-28.672-15.842-44.654-19.014-10.099-1.988-20.36-2.831-30.64-2.972 0 0-22.488 0.020-50.256 0.040v-68.327c0-28.11-14.055-44.173-44.173-44.173h-130.51v60.235h-42.165c-14.055 0-24.094 8.031-24.094 22.086v42.165c0 14.055 8.031 22.086 24.094 22.086h42.165v40.157h-42.165c-14.055 0-24.094 8.031-24.094 22.086v42.165c0 14.055 8.031 22.086 24.094 22.086h42.165v62.223h130.51c28.833-0.622 44.173-14.717 44.173-44.152v-78.045c33.772-0.080 61.821-0.241 64.251-0.241v383.98c-0.904 1.305-287.423 316.737-287.423 316.737-1.084 1.185-2.249 1.165-3.313 0l-283.507-311.356c0-124.486-0.643-260.859 0-385.345 3.333 0.020 31.684 0.161 59.131 0.161 0.241 25.56 0.622 51.1 1.144 76.659 0.181 5.582 0.803 11.184 2.49 16.525 1.024 3.333 2.45 6.525 4.317 9.457 1.245 1.948 2.691 3.795 4.317 5.461 1.365 1.385 2.851 2.65 4.417 3.795 9.015 6.525 20.38 8.192 31.242 8.393h133.883c0-28.11 0-56.22 0-84.329-31.142 0-94.369-0.1-94.369-0.1v-41.964l94.369-0.1v-84.329c-28.632 0-94.369-0.1-94.369-0.1v-42.064h94.369v-84.329c-45.016 0-90.052-0.863-135.068 0.040-10.2 0.341-20.6 2.269-29.094 8.252-1.586 1.124-3.072 2.349-4.437 3.694-1.667 1.626-3.172 3.413-4.477 5.341-1.988 2.891-3.554 6.084-4.698 9.397-1.887 5.421-2.65 11.123-2.891 16.846-0.582 24.195-1.144 72.925-1.144 72.925z" />
<glyph unicode="&#x7a;" glyph-name="feature_default" d="M921.6 892.8l-556.8-646.4-262.4 304-102.4-121.6 364.8-425.6 659.2 768z" />
<glyph unicode="&#x7c;" glyph-name="Finance" d="M541.715 209.539h-452.335v607.22c0 47.003 10.781 57.801 57.749 57.801h336.853c46.936 0 57.733-10.798 57.733-57.801v-61.769h-157.511c-26.383 0-47.667-21.434-47.667-47.692v-347.908c0-26.258 21.423-47.692 47.667-47.692h157.511v-102.159zM315.544 40.798c-25.862 0-46.833 20.95-46.833 46.831s20.971 46.863 46.833 46.863c25.889 0 46.833-20.982 46.833-46.863s-20.944-46.831-46.833-46.831zM950.118 707.297v-54.65h-579.673v54.65c0 7.523 6.24 13.626 13.759 13.626h552.296c7.519 0 13.619-6.103 13.619-13.626zM384.204 345.763c-7.519 0-13.619 6.109-13.619 13.626v259.193h579.534v-34.071c0-9.367 7.664-17.030 17.026-17.030s17.026 7.663 17.026 17.030v122.786c0 26.258-21.423 47.692-47.672 47.692h-309.411v61.769c0 93.727-49.499 143.241-143.107 143.241h-336.853c-93.656 0-143.129-49.515-143.129-143.241v-737.582c0-93.652 49.472-143.177 143.129-143.177h336.853c93.608 0 143.107 49.525 143.107 143.177v232.521h85.826c9.368 0 17.021 7.668 17.021 17.035s-7.653 17.030-17.161 17.030h-328.571zM677.37 491.836c0 9.862-7.673 17.93-17.053 17.93h-204.955c-9.385 0-17.058-8.068-17.058-17.93s7.673-17.93 17.058-17.93h204.955c9.525 0 17.053 8.068 17.053 17.93zM455.273 450c-9.334 0-16.969-8.066-16.969-17.927s7.635-17.933 16.969-17.933h81.61c9.339 0 16.969 8.072 16.969 17.933s-7.63 17.927-16.969 17.927h-81.61zM451.377 533.672h204.95c9.385 0 17.058 8.066 17.058 17.927 0 9.866-7.673 17.933-17.058 17.933h-204.95c-9.38 0-17.058-8.066-17.058-17.933 0-9.861 7.533-17.927 17.058-17.927zM799.128 273.036v113.525h194.774v-113.525h-194.774zM841.179 460.352c0 30.509 24.865 55.346 55.404 55.346 30.549 0 55.409-24.837 55.409-55.346v-39.734h-110.813v39.734zM1011.098 420.472h-25.011v39.739c0 49.239-40.199 89.398-89.505 89.398-49.295 0-89.499-40.159-89.499-89.398v-39.739h-25.005c-9.376 0-17.051-7.655-17.051-17.026v-147.587c0-9.365 7.675-17.031 17.051-17.031h228.875c9.381 0 17.045 7.666 17.045 17.031v147.587c0.145 9.505-7.524 17.026-16.9 17.026z" />
</font>
</defs>
</svg>
