<?xml version="1.0" standalone="no"?>
<!DOCTYPE svg PUBLIC "-//W3C//DTD SVG 1.1//EN" "http://www.w3.org/Graphics/SVG/1.1/DTD/svg11.dtd" >
<svg xmlns="http://www.w3.org/2000/svg">
<metadata>Generated by IcoMoon</metadata>
<defs>
<font id="mt-icons" horiz-adv-x="1024">
<font-face units-per-em="1024" ascent="960" descent="-64" />
<missing-glyph horiz-adv-x="1024" />
<glyph unicode="&#x20;" horiz-adv-x="512" d="" />
<glyph unicode="&#xe600;" glyph-name="ikone_minus" d="M846.418 353.75c30.76 0 44.462 11.98 44.462 42.802v101.212c0 30.802-13.702 41.042-44.462 41.042h-670.464c-29.152 0-42.834-10.27-42.834-41.042v-101.212c0-30.842 13.682-42.802 42.834-42.802h670.464z" />
<glyph unicode="&#xe601;" glyph-name="ikone_zamenjaj-circle" d="M512 826.88c-209.254 0-378.88-169.668-378.88-378.88s169.626-378.88 378.88-378.88c209.212 0 378.88 169.668 378.88 378.88s-169.668 378.88-378.88 378.88zM344.954 395.366c-3.788 0-7.036 17.582-7.444 23.438-1.71 23.828 4.086 47.044 12.38 68.382 1.73 4.444 3.758 8.704 5.858 12.914 7.966 16.036 18.574 30.484 32.032 43.152 17.010 15.964 38.462 28.662 64.462 38.010 22.988 8.294 49.92 12.79 80.352 13.906v41.38c0 9.86 8.674 10.598 15.216 4.914l90.572-72.818c5.948-4.966 5.948-14.858 0-19.804l-90.572-72.848c-6.514-4.904-15.154-5.622-15.154 4.26v40.908h-4.116c-23.758-1.116-45.22-4.136-64.072-9.288-23.010-6.276-42.436-14.858-58.358-25.642-5.878-3.964-16.844-13.794-16.844-13.794-7.864-7.516-14.684-15.656-20.532-24.27-19.046-28.17-23.776-52.808-23.776-52.808zM674.090 408.812c-1.74-4.444-3.788-8.704-5.856-12.914-7.936-16.068-18.566-30.484-32.030-43.15-17.020-15.996-38.482-28.712-64.462-38.072-23-8.294-49.91-12.79-80.384-13.906v-41.318c0-9.892-8.664-10.598-15.154-4.914l-90.594 72.818c-5.98 4.966-5.98 14.858 0 19.804l90.594 72.846c6.492 4.904 15.154 5.622 15.154-4.26v-40.878h4.096c23.756 1.066 45.198 4.106 64.020 9.256 23.030 6.34 42.414 14.828 58.368 25.64 5.856 3.962 16.814 13.794 16.814 13.794 7.876 7.516 14.684 15.658 20.542 24.238 19.118 28.18 23.798 52.776 23.798 52.776 3.788 0 7.044-17.582 7.456-23.408 1.73-23.828-4.126-47.042-12.36-68.352z" />
<glyph unicode="&#xe602;" glyph-name="ikone_zbrisi" d="M789.35 703.724l-133.754 1.976c0 0 22.558 121.068-84.234 121.068-106.824 0-142.428 0-142.428 0s-83.058-3.196-58.164-118.488h-125.952c-61.902 0-61.532-61.522-61.532-61.522v-45.884c0-31.468 25.486-56.956 56.954-56.956h549.11c31.468 0 56.946 25.486 56.946 56.956v45.884c0 31.468-25.476 56.964-56.946 56.964zM579.644 738.284h-130.54c-14.408 0-26.122 11.674-26.122 26.102 0 14.418 11.714 26.112 26.122 26.112h130.54c14.438 0 26.144-11.684 26.144-26.112s-11.694-26.102-26.144-26.102zM214.262 516.772v-392.458c0-36.178 29.338-65.496 65.536-65.496l465.254-0.042c36.138 0.042 65.454 29.358 65.454 65.536l0.042 392.458h-596.284zM367.882 143.318c0-13.998-11.306-25.324-25.302-25.324-14.020 0-25.354 11.346-25.354 25.324v303.79c0 14.020 11.356 25.344 25.354 25.344s25.302-11.324 25.302-25.344v-303.79zM547.534 143.318c0-13.998-11.336-25.324-25.312-25.324-13.998 0-25.334 11.346-25.334 25.324v303.79c0 14.020 11.324 25.344 25.334 25.344s25.312-11.324 25.312-25.344v-303.79zM719.226 146.862c0-14.008-11.356-25.312-25.376-25.312-13.956 0-25.302 11.304-25.302 25.312v303.822c0 13.998 11.336 25.324 25.302 25.324 14.008 0 25.376-11.324 25.376-25.324v-303.822z" />
<glyph unicode="&#xe603;" glyph-name="ikone_vrini-circle" d="M512.030 826.88c-209.264 0-378.912-169.668-378.912-378.88 0-209.274 169.646-378.88 378.912-378.88 209.244 0 378.848 169.606 378.848 378.88 0 209.212-169.606 378.88-378.848 378.88zM428.502 526.234l71.128 99.246c4.822 5.826 14.458 5.826 19.312 0l71.178-99.246c4.822-6.358 5.51-14.858-4.178-14.858h-152.606c-9.656-0.010-10.354 8.5-4.834 14.858zM590.080 369.736l-71.148-99.216c-4.822-5.796-14.46-5.796-19.312 0l-71.158 99.216c-4.822 6.39-5.52 14.858 4.168 14.858h152.586c9.668 0.010 10.374-8.468 4.864-14.858zM669.654 436.634c0-6.984-3.144-9.76-10.158-9.76h-295.372c-6.676 0-9.77 2.774-9.77 9.76v23.092c0 7.024 3.122 9.412 9.77 9.412l295.372-0.050c6.962 0 10.158-2.346 10.158-9.39v-23.060z" />
<glyph unicode="&#xe604;" glyph-name="ikone_ustvari-moj-telekom-racun" d="M686.52 546.642l58.634-6.38-6.4 58.47c-0.604 6.39 5.202 12.164 11.602 11.582l58.604-6.37-6.38 58.5c-0.614 6.348 5.192 12.144 11.592 11.55l58.674-6.38c24.35 25.026 24.054 50.042-1.034 75.068l-66.774 66.662c-25.476 25.394-47.76 22.23-73.196-3.164l-220.774-220.252c-98.806 42.854-218.050 24.054-298.812-56.556-105.534-105.308-105.534-276 0-381.276 105.524-105.288 276.582-105.288 382.096 0 80.784 80.61 99.644 199.568 56.678 298.168l30.29 30.208-6.41 58.614c-0.584 6.348 5.222 12.124 11.612 11.55zM516.25 306.934h-82.248v-81.48c0-9.81-4.076-14.448-14.46-14.448h-34.162c-9.902 0-13.362 4.64-13.362 14.448v81.48h-82.248c-9.83 0-14.46 4.024-14.46 14.458v34.078c0 10.394 4.628 13.844 14.46 13.844h82.248v82.084c0 10.394 3.462 15.022 13.362 15.022h34.162c10.382 0 14.46-4.65 14.46-15.022v-82.084h82.248c10.394 0 15.044-3.472 15.044-13.844v-34.078c-0.020-10.446-4.658-14.458-15.044-14.458z" />
<glyph unicode="&#xe605;" glyph-name="ikone_trgovina" d="M303.544 69.12h416.91c42.67 0 54.404 19.548 60.96 60.948l65.608 418.346c0 42.64-18.278 60.928-60.948 60.928h-41.102l-18.318 172.514c-4.158 31.58-13.506 45.024-45.036 45.024h-339.262c-31.508 0-41.176-12.574-45.014-45.014l-18.31-172.514h-41.094c-42.66 0-60.948-18.288-60.948-60.928l65.608-418.346c6.84-40.694 18.29-60.96 60.948-60.96zM361.902 749.988c0 13.066 5.6 18.688 18.656 18.688h262.84c13.076 0 18.678-5.622 18.678-18.688v-121.928c0-13.086-5.6-18.688-18.678-18.688h-262.81c-13.076 0-18.678 5.6-18.678 18.688l-0.010 121.928z" />
<glyph unicode="&#xe606;" glyph-name="ikone_televizija" d="M829.112 751.328h-634.266c-34.098 0-61.728-27.668-61.728-61.756v-377.088c0-34.13 27.638-61.756 61.728-61.756h182.508v-42.116h-108.596v-63.928h486.482v63.928h-117.106v42.116h190.996c34.13 0 61.736 27.628 61.736 61.756v377.088c-0.020 34.090-27.628 61.758-61.756 61.758zM828.396 322.55h-632.802v355.524h632.812v-355.524z" />
<glyph unicode="&#xe607;" glyph-name="ikone_telekom-priporoca" d="M864.4 550.972l-237.65 19.826-91.73 218.5c-10.322 26.174-32.452 26.174-44.278 0l-91.648-218.336-239.852-20.050c-28.068-1.73-34.93-22.804-13.692-42.118l182.24-157.122-54.272-231.024c-7.036-27.26 10.876-40.274 35.82-26.040l203.786 123.586 205.804-124.764c23.756-15.114 41.668-2.11 35.84 26.030l-55.326 235.316 178.668 154.072c21.678 17.92 14.868 38.994-13.712 42.128z" />
<glyph unicode="&#xe608;" glyph-name="ikone_telefonija" d="M810.312 114.658h-418.108l0.964 35.656c0.48 19.058 0.286 193.914 0.060 348.202-0.132 121.804-0.286 227.042-0.060 246.836l0.358 34.344h416.758c44.504 0 80.61-36.208 80.61-80.67v-503.654c0.020-44.514-36.086-80.712-80.578-80.712zM462.838 184.116h347.432c6.216 0 11.212 4.956 11.212 11.274v503.654c0 6.186-4.966 11.244-11.212 11.244h-347.75c-0.032-45.518 0.032-126.894 0.164-211.662 0.154-124.826 0.348-252.876 0.154-314.51zM779.264 672.634c9.226 0 13.804-3.4 13.804-12.564v-77.814c0-9.176-4.576-13.752-13.804-13.752h-275.446c-10.354 0-13.742 4.576-13.742 13.752v77.814c0 9.164 3.4 12.564 13.742 12.564h275.446zM537.17 506.788c19.836 0 35.912-16.086 35.912-35.88 0-19.834-16.086-35.922-35.912-35.922-19.804 0-35.88 16.086-35.88 35.922 0 19.794 16.076 35.88 35.88 35.88zM641.608 506.82c19.836 0 35.912-16.076 35.912-35.912 0-19.866-16.076-35.952-35.912-35.952-19.866 0-35.942 16.076-35.942 35.952-0.010 19.834 16.076 35.912 35.942 35.912zM746.014 506.788c19.836 0 35.88-16.086 35.88-35.88 0-19.834-16.046-35.922-35.88-35.922s-35.88 16.086-35.88 35.922c0 19.794 16.046 35.88 35.88 35.88zM537.17 407.092c19.836 0 35.912-16.076 35.912-35.88 0-19.836-16.086-35.912-35.912-35.912-19.804 0-35.88 16.076-35.88 35.912 0 19.804 16.076 35.88 35.88 35.88zM641.608 407.122c19.836 0 35.912-16.076 35.912-35.912 0-19.856-16.076-35.952-35.912-35.952-19.866 0-35.942 16.086-35.942 35.952-0.010 19.826 16.076 35.912 35.942 35.912zM781.906 371.2c0-19.822-16.068-35.89-35.89-35.89s-35.89 16.068-35.89 35.89c0 19.822 16.068 35.89 35.89 35.89s35.89-16.068 35.89-35.89zM537.17 307.332c19.836 0 35.912-16.076 35.912-35.88 0-19.836-16.086-35.922-35.912-35.922-19.804 0-35.88 16.086-35.88 35.922 0 19.794 16.076 35.88 35.88 35.88zM641.608 307.364c19.836 0 35.912-16.076 35.912-35.912 0-19.866-16.076-35.952-35.912-35.952-19.866 0-35.942 16.076-35.942 35.952-0.010 19.826 16.076 35.912 35.942 35.912zM781.916 271.432c0-19.828-16.074-35.9-35.9-35.9s-35.9 16.074-35.9 35.9c0 19.828 16.074 35.9 35.9 35.9s35.9-16.074 35.9-35.9zM133.12 641.476c0 81.848 8.132 139.868 183.572 139.868h7.854c10.476 0 15.698-3.43 15.698-13.682v-170.374c0-9.104-5.222-13.62-15.698-13.62l-7.854-0.062c-66.898 0-68.24-38.574-68.24-94.31v-79.258c0-55.684 3.974-94.35 68.24-94.35l7.854 0.030c10.476 0 15.698-4.548 15.698-13.682v-172.636c0-10.25-5.222-13.682-15.698-13.682l-7.854 0.030c-175.442 0-183.572 57.99-183.572 139.766v385.956z" />
<glyph unicode="&#xe609;" glyph-name="ikone_refresh-gumb" d="M512 826.88c-209.212 0-378.88-169.606-378.88-378.88 0-209.212 169.668-378.88 378.88-378.88s378.88 169.668 378.88 378.88c0 209.274-169.668 378.88-378.88 378.88zM511.968 198.236c-120.002 0-217.652 97.73-217.652 217.734 0 33.926 7.782 66.068 21.668 94.658l0.298 0.706c3.132 7.374 7.464 7.822 14.388 5.152l18.882-7.282c7.138-2.724 9.176-5.53 6.072-13.608l-0.532-1.25c-11.99-23.654-18.738-50.052-18.738-78.316 0-96.85 78.798-175.636 175.616-175.636s175.646 78.788 175.646 175.636c0 83.68-58.818 153.856-137.318 171.388v-63.498c0-10.496-9.206-11.244-16.096-5.242l-95.968 77.23c-6.338 5.242-6.338 15.718 0 20.992l95.968 77.22c6.952 5.242 16.096 6.010 16.096-4.516v-59.32c101.856-18.206 179.384-107.274 179.384-214.252 0-120.116-97.678-217.794-217.712-217.794z" />
<glyph unicode="&#xe60a;" glyph-name="ikone_puscica-naprej" d="M856.432 489.226l-2.028 2.016c0 0 0 0 0 0.010l-327.454 326.534c-11.93 11.878-19.866 11.898-30.454 1.34l-27.79-27.76c-10.598-10.538-11.908-19.804 0-31.672l272.486-271.748h-586.24c-16.384 0-21.842-5.448-21.842-19.968v-38.144c0-14.51 5.458-21.78 21.832-21.78h586.926l-273.162-272.426c-11.908-11.868-11.908-19.804-1.332-30.35l27.802-27.74c10.588-10.558 19.854-11.878 31.786 0l328.796 327.864c0 0.010 0 0.010 0 0.010l1.924 1.924 24.556 24.484c0.020 0.030 0.042 0.052 0.062 0.082l1.27 1.27c10.578 10.548 9.256 19.784-1.332 30.362l-25.804 25.692z" />
<glyph unicode="&#xe60b;" glyph-name="ikone_puscica-naprej-circle" d="M512 826.88c-209.212 0-378.88-169.646-378.88-378.88 0-209.212 169.668-378.88 378.88-378.88 209.274 0 378.88 169.668 378.88 378.88 0 209.234-169.606 378.88-378.88 378.88zM704.644 440.278l-0.626-0.634c-0.062-0.030-0.062-0.030-0.062-0.030l-184.228-184.248c-6.184-6.154-10.988-5.5-16.426 0l-14.45 14.48c-5.438 5.438-5.438 9.564 0.706 15.77l141.67 141.67h-304.354c-8.52 0-11.356 3.788-11.356 11.316v19.824c0 7.548 2.836 10.372 11.356 10.372h303.996l-141.312 141.312c-6.154 6.176-5.468 10.966 0 16.456l14.45 14.428c5.468 5.478 9.564 5.478 15.748-0.666l184.228-184.196c5.5-5.56 6.154-10.382 0.654-15.852z" />
<glyph unicode="&#xe60c;" glyph-name="ikone_puscica-gor-circle" d="M133.12 448c0-209.212 169.668-378.88 378.88-378.88s378.88 169.668 378.88 378.88c0 209.254-169.668 378.88-378.88 378.88s-378.88-169.626-378.88-378.88zM519.73 640.626l0.626-0.604c0.062-0.060 0.062-0.060 0.062-0.060l184.228-184.238c6.154-6.186 5.5-10.978 0-16.426l-14.48-14.448c-5.438-5.5-9.564-5.5-15.77 0.676l-141.682 141.692v-304.334c0-8.52-3.788-11.356-11.304-11.356h-19.834c-7.548 0-10.362 2.836-10.362 11.356v303.996l-141.312-141.312c-6.186-6.154-10.976-5.5-16.456 0l-14.438 14.448c-5.478 5.478-5.478 9.564 0.644 15.75l184.248 184.218c5.52 5.53 10.354 6.164 15.83 0.644z" />
<glyph unicode="&#xe60d;" glyph-name="ikone_program-zvestobe" d="M730.818 818.74c-84.438 25.048-172.422-9.514-218.818-79.258-46.396 69.746-134.348 104.326-218.86 79.258-103.712-30.72-162.866-139.808-132.086-243.57 4.188-14.060 9.882-27.27 16.764-39.588 3.532-6.83 7.434-13.466 11.652-19.578l297.656-428.606c6.86-10.208 13.916-16.014 20.244-17.696 0.226-0.114 0.37-0.154 0.48-0.154 0.634-0.184 1.26-0.216 1.834-0.328 0.544-0.062 1.096-0.102 1.618-0.102 0.512 0 1.066 0.042 1.568 0.114 0.572 0.114 1.208 0.154 1.832 0.328 0 0 0.298 0.042 0.48 0.196 6.328 1.658 13.352 7.466 20.192 17.654l290.99 418.98c16.282 19.68 28.856 42.844 36.568 68.822 30.792 103.722-28.406 212.808-132.116 243.528z" />
<glyph unicode="&#xe60e;" glyph-name="ikone_prijava" d="M733.532 619.53v105.81c0 65.476-36.054 101.54-101.5 101.54h-240.056c-65.454 0-101.49-36.054-101.49-101.54v-105.82c-51.466-1.72-92.806-44.042-92.806-95.918v-358.37c0-53.044 43.1-96.124 96.082-96.124h436.47c53.002 0 96.092 43.1 96.092 96.124v358.37c0.020 51.886-41.34 94.178-92.794 95.928zM594.084 184.636h-164.138l35.758 143.74c-27.606 16.004-46.192 45.814-46.192 80.014 0 51.098 41.442 92.518 92.528 92.518 51.128 0 92.538-41.42 92.538-92.518 0-34.244-18.596-64.042-46.222-80.046l35.726-143.708zM656.988 619.736h-289.956v105.606c0 23.112 1.844 24.986 24.944 24.986h240.056c23.092 0 24.946-1.874 24.946-24.976l0.010-105.614z" />
<glyph unicode="&#xe60f;" glyph-name="ikone_pozabljeno-geslo" d="M650.138 477.778v53.79c0.020 42.67-33.986 77.446-76.318 78.9v87.020c0 53.842-29.654 83.496-83.466 83.496h-197.428c-53.82 0-83.456-29.664-83.456-83.506v-87.030c-42.354-1.404-76.348-36.208-76.348-78.88v-294.748c0-43.602 35.442-79.022 79.012-79.022h336.004c-22.222 34.018-35.186 74.66-35.186 118.344 0.010 91.576 56.874 169.882 137.184 201.636zM459.142 252.794h-134.984l29.4 118.2c-22.702 13.158-38 37.704-38 65.802 0 42.046 34.088 76.104 76.082 76.104 42.056 0 76.124-34.058 76.124-76.104 0-28.14-15.298-52.664-38.042-65.822l29.42-118.18zM510.862 610.62h-238.46v86.866c0 18.996 1.516 20.552 20.512 20.552h197.438c18.986 0 20.512-1.546 20.512-20.53v-86.886zM729.518 354.836c-38.184 0-49.624-16.476-49.624-35.226v-13.27c-0.010-3.206 1.136-4.576 4.332-4.576h13.292c2.958 0 4.096 1.404 4.096 4.576v9.842c0 12.596 7.538 19.896 27.904 19.896 20.142 0 27.924-7.322 27.924-19.896v-11.644c0-9.616-6.636-13.956-10.312-16.004l-18.288-9.41c-5.938-2.958-14.644-7.976-14.644-21.238v-16.916c0-3.216 1.136-4.342 4.096-4.342h14.202c2.958 0 4.116 1.116 4.116 4.342v11.418c0 8.48 4.802 11.918 10.506 14.684l12.586 5.928c8.008 3.87 19.908 12.586 19.908 32.246v14.366c-0.236 18.75-11.89 35.226-50.094 35.226zM732.498 224.462h-14.202c-2.958 0-4.096-1.382-4.096-4.342v-18.298c0-3.206 1.136-4.322 4.096-4.322h14.202c2.958 0 4.116 1.116 4.116 4.322v18.298c0.010 2.958-1.158 4.342-4.116 4.342zM729.744 437.268c-88.986 0-161.126-72.15-161.126-161.126 0-88.986 72.14-161.116 161.126-161.116 88.996-0.010 161.138 72.12 161.138 161.116 0 88.976-72.14 161.126-161.136 161.126zM729.744 161.464c-63.324 0-114.698 51.364-114.698 114.678 0 63.376 51.374 114.678 114.698 114.678 63.356 0 114.698-51.302 114.698-114.678 0-63.324-51.342-114.678-114.698-114.678z" />
<glyph unicode="&#xe610;" glyph-name="ikone_odstrani-circle" d="M-20420.494 553.174v-37.406c0-15.584 7.802-23.368 23.378-23.368h40.97c15.564 0 21.442 7.782 21.442 23.368v37.406c0 17.592-5.878 23.44-21.442 23.44h-40.97c-15.576 0-23.378-5.856-23.378-23.44zM-20356.148 459.756h-40.97c-15.576 0-23.378-5.868-23.378-23.45v-168.908c0-15.576 7.802-23.378 23.378-23.378h40.97c15.564 0 21.442 7.802 21.442 23.378v168.908c0 17.582-5.878 23.45-21.442 23.45zM-20377.568 770.336c-29.020 0-56.3-15.534-73.196-41.994l-285.408-462.9c-22.222-33.69-26.594-74.014-11.11-102.942 12.524-23.438 36.004-36.844 64.472-36.844h613.326c26.614 0 48.886 12.104 61.030 33.29 18.924 32.942 7.466 75.868-10.086 105.902l-286.136 463.974c-16.588 25.98-43.786 41.514-72.888 41.514zM-20080.598 206.346l-594.576 0.020c0.84 4.034 2.734 9.278 6.472 14.908l286.32 464.21c3.698 5.826 6.266 5.244 9.298 0.462l285.296-462.572c3.676-6.256 5.908-12.236 7.188-17.028zM-19491.512 623.34l-27.73-27.75c-10.578-10.608-11.878-19.856 0-31.724l355.616-292.384c11.418-9.236 18.186-8.582 30.372 1.322l354.254 291.072c11.9 11.868 11.9 19.856 1.342 30.35l-27.76 27.74c-10.538 10.62-19.794 11.89-31.662 0l-312.044-248.76-312.024 248.76c-11.878 11.878-19.826 11.878-30.362 1.372zM-17934.55 258.56l-364.33 378.88h757.76zM-17003.57 274.012l312.044 248.822 312.032-248.822c11.878-11.89 21.114-10.568 31.662 0l27.762 27.76c10.568 10.558 10.538 18.482-1.342 30.35l-354.252 291.072c-12.166 9.924-18.986 10.578-30.392 1.332l-355.594-292.414c-11.888-11.9-10.568-21.134 0-31.682l27.73-27.76c10.558-10.538 18.484-10.538 30.35 1.342zM-15083.52 258.56h-757.76l364.328 378.88zM-14233.58 826.87c-209.234 0-378.9-169.646-378.9-378.87 0-209.202 169.666-378.87 378.9-378.87s378.86 169.668 378.86 378.87c0 209.224-169.626 378.87-378.86 378.87zM-14036.87 433.336c0-8.776-3.9-12.174-12.656-12.174h-368.6c-8.294 0-12.186 3.41-12.186 12.174v28.846c0 8.754 3.9 11.704 12.186 11.704h368.6c8.754 0 12.656-2.95 12.656-11.704v-28.846zM-13004.832 531.424c-46.090 0-83.384-37.344-83.384-83.414 0-24.484 10.71-46.386 27.576-61.604l52.932 56.484-14.766-76.308c5.714-1.25 11.57-1.924 17.674-1.924 46.060 0 83.436 37.274 83.436 83.354 0 46.070-37.436 83.416-83.466 83.416zM-13004.8 686.47c-131.45 0-238.46-106.998-238.46-238.49 0-68.966 29.656-131.072 76.728-174.612l50.37 53.73c-32.696 30.126-53.33 73.052-53.33 120.884 0 90.82 73.912 164.68 164.72 164.68 90.778 0 164.658-73.86 164.658-164.68 0-90.696-73.882-164.576-164.658-164.576-11.366 0-22.406 1.126-33.148 3.318l-13.998-72.398c15.268-3.082 30.986-4.74 47.146-4.74 131.482 0 238.428 106.976 238.428 238.396-0.032 131.492-106.978 238.49-238.46 238.49zM-13004.77 826.89c-208.948 0-378.912-170.014-378.912-379.004 0-109.312 46.858-207.698 121.242-276.962l50.38 53.78c-60.028 55.736-97.864 135.044-97.864 223.15 0 168.284 136.898 305.192 305.152 305.192 168.222 0 305.030-136.918 305.030-305.192 0-168.12-136.836-304.938-305.030-304.938-20.48 0-40.458 2.1-59.884 6l-13.968-72.458c23.91-4.7 48.568-7.374 73.852-7.374 208.886 0 378.85 169.964 378.85 378.788 0 209.010-169.964 379.014-378.85 379.014zM-20342.078-656.138v54.138h-144.804c-6.81 0-12.308-5.55-12.308-12.328v-332.77c0-6.83 5.54-12.37 12.308-12.37h218.92c6.81 0 12.37 5.56 12.37 12.37v0 260.588h-56.146c-16.762 0-30.342 13.618-30.342 30.372zM-20301.824-786.318c6.984 0 10.098-2.294 10.098-9.338v-22.938c0-6.952-3.114-9.676-10.098-9.676h-55.172v-54.826c0-6.542-2.724-9.646-9.708-9.646h-22.918c-6.626 0-8.94 3.072-8.94 9.646v54.826h-55.172c-6.626 0-9.708 2.724-9.708 9.676v22.938c0 7.014 3.082 9.338 9.708 9.338h55.172v55.204c0 6.942 2.304 10.086 8.94 10.086h22.918c6.984 0 9.708-3.124 9.708-10.086v-55.204h55.172zM-20377.568-401.92c-209.244 0-378.912-169.646-378.912-378.88 0-209.212 169.668-378.88 378.912-378.88s378.848 169.666 378.848 378.88c0 209.234-169.604 378.88-378.848 378.88zM-20219.894-950.588c-1.832-25.038-22.56-44.902-48.036-44.902h-218.952c-26.696 0-48.394 21.7-48.394 48.394v332.8c0 26.092 20.808 47.288 46.684 48.22h164.516l104.224-104.152v-280.352h-0.042zM-19148.8-401.93c-209.276 0-378.88-169.626-378.88-378.88 0-209.212 169.604-378.85 378.88-378.85 209.212 0 378.88 169.636 378.88 378.848 0 209.254-169.668 378.88-378.88 378.88zM-19182.132-598.948c48.956 0 88.648-39.68 88.648-88.626 0-48.926-39.69-88.636-88.648-88.636-48.926 0-88.616 39.7-88.616 88.636 0.050 48.978 39.722 88.626 88.616 88.626zM-19057.664-962.674h-248.822c-19.364 0-27.68 6-27.68 19.948l29.778 136.806c2.958 13.528 8.294 19.916 27.648 19.916h56.772l23.92-59.556c6.512-17.202 20.42-17.202 27.822 0l23.982 59.556h56.772c19.332 0 24.596-6.616 27.648-19.916l29.778-136.806c0.030-13.946-8.234-19.948-27.616-19.948zM-18963.446-695.286c0-4.638-2.038-6.42-6.688-6.42h-36.526v-36.22c0-4.394-1.832-6.42-6.452-6.42v0h-15.094c-4.444 0-5.95 2.028-5.95 6.42v36.25h-36.494c-4.444 0-6.452 1.792-6.452 6.4v15.154c0 4.648 2.016 6.184 6.452 6.184h36.494v36.526c0 4.576 1.506 6.676 5.95 6.676h15.094c4.618 0 6.452-2.068 6.452-6.676v-36.526h36.526c4.618 0 6.688-1.536 6.688-6.184v-15.164zM-17629.388-458.22l-407.348-473.394-194.714 171.222-67.43-94.424 288.102-248.566 469.658 569.896zM-16564.91-528.21h-252.59c-139.294 0-252.59-113.306-252.59-252.59 0-139.296 113.294-252.59 252.59-252.59h252.59c139.306 0 252.59 113.286 252.59 252.59 0 139.284-113.284 252.59-252.59 252.59zM-16817.49-591.278h31.692v-157.992h-218.368c15.114 89.538 92.938 157.992 186.674 157.992zM-17004.174-812.318h218.368v-158.012h-31.692c-93.726 0.010-171.55 68.494-186.674 158.012zM-16564.91-970.322h-157.87v379.054h157.87c104.53 0 189.532-85.012 189.532-189.522 0-104.54-85.002-189.532-189.532-189.532zM-15162.952-409.6c-32.174 15.626-56.054 7.414-71.68-24.832l-258.202-535.818-215.030 196.22c-26.666 23.88-51.916 22.548-75.858-4.076l-17.838-19.968c-23.942-26.644-22.578-51.936 4.056-75.796l295.014-269.148c14.97-13.434 29.48-18.596 43.612-16.014 1.28 0.092 2.498 0.46 3.728 0.636 0.398 0.132 0.728 0.132 1.116 0.256 14.162 2.856 25.806 13.128 34.662 31.364l305.428 633.742c15.666 32.204 7.362 56.096-24.812 71.712l-24.198 11.724zM-14574.56-588.984h681.912c25.282 0 37.93 12.636 37.93 37.92v66.376c0.010 25.262-12.604 34.756-37.908 34.756h-681.932c-28.426 0-37.918-9.482-37.918-34.776v-66.376c0-25.262 9.492-37.898 37.918-37.898zM-14574.56-850.318h681.912c25.282 0 37.93 12.626 37.93 37.908v66.386c0 25.262-12.646 34.766-37.93 34.766h-681.912c-28.426-0.020-37.918-9.522-37.918-34.786v-66.406c0-25.202 9.492-37.868 37.918-37.868zM-14574.56-1111.664h681.912c25.282 0 37.93 12.606 37.93 37.898v66.396c0 25.252-12.646 34.776-37.93 34.776h-681.912c-28.426-0.010-37.918-9.492-37.918-34.744v-66.396c0-25.252 9.492-37.93 37.918-37.93zM-13347.532-572.118l-27.772-27.944c-10.496-10.608-11.836-19.906 0-31.886l354.294-356.7c0.040 0 0.112-0.030 0.112-0.072l1.228-1.27c10.568-10.608 19.844-9.298 30.414 1.34l25.65 25.896 2.048 2.008 326.532 328.786c11.878 11.98 11.908 19.958 1.342 30.566l-27.802 27.924c-10.496 10.608-19.804 11.98-31.642 0l-312.022-314.132-312.054 314.132c-11.868 12-19.794 12-30.332 1.352zM-20252.376-1630.72h-250.388c-69.592 0-106.384-36.792-106.384-106.414v-544.972c0-69.582 36.792-106.382 106.384-106.382h250.388c69.56 0 106.322 36.792 106.322 106.382v544.972c0 69.622-36.762 106.414-106.322 106.414zM-20377.59-2313.594c-19.21 0-34.806 15.574-34.806 34.776 0 19.24 15.596 34.776 34.806 34.776 19.242 0 34.806-15.574 34.806-34.776s-15.596-34.776-34.806-34.776zM-20209.458-2188.268h-336.23v451.132c0 34.908 8.028 42.948 42.948 42.948h250.388c34.866 0 42.896-8.038 42.896-42.948v-451.132zM-19148.268-1864.93c-69.622 0-89.518-29.152-89.518-62.352v-40.068h-16.22c-5.262 0-7.69-2.028-7.69-7.28v-10.118c0-5.672 2.426-7.67 7.69-7.67h16.22v-27.126h-16.22c-5.262 0-7.69-2.028-7.69-7.28v-10.126c0-5.682 2.426-7.722 7.69-7.722h16.22v-39.67c0-33.24 19.834-62.362 89.456-62.362 69.672 0 89.476 29.124 89.476 62.362v25.518c0 5.274-1.988 7.69-7.25 7.69h-23.502c-5.684 0-7.67-2.428-7.67-7.69v-19.036c0-21.902-14.182-35.216-50.648-35.216-36.414 0-50.206 13.322-50.206 35.216v33.188h53.462c5.274 0 7.69 2.038 7.69 7.722v10.066c0 5.284-2.426 7.312-7.69 7.312h-53.462v27.126h53.462c5.274 0 7.69 2.028 7.69 7.67v10.126c0 5.254-2.426 7.28-7.69 7.28h-53.462v33.608c0 21.894 13.794 35.256 50.206 35.256 36.466 0 50.648-13.362 50.648-35.256v-13.332c0-5.672 2.038-8.1 7.67-8.1h23.502c5.274 0 7.25 2.428 7.25 8.1v19.824c0.042 33.188-19.794 62.34-89.416 62.34zM-19148.8-1630.72c-209.212 0-378.88-169.646-378.88-378.88 0-209.214 169.668-378.88 378.88-378.88s378.88 169.666 378.88 378.88c0 209.234-169.604 378.88-378.88 378.88zM-18989.61-2202.062c0-19.302-15.626-34.868-34.866-34.868h-251.362c-19.242 0-32.144 18.298-32.144 37.56v384.942c0 19.252 12.902 32.164 32.144 32.164h251.362c19.242 0 34.836-15.616 34.836-34.856v-384.932h0.030zM-17919.99-1630.72c-209.234 0-378.89-169.646-378.89-378.88 0-209.214 169.656-378.88 378.89-378.88s378.87 169.666 378.87 378.88c0 209.234-169.626 378.88-378.87 378.88zM-17723.27-2024.264c0-8.776-3.942-12.176-12.668-12.176h-158.444v-157.912c0-8.294-3.43-12.196-12.318-12.196h-28.774c-8.314 0-11.254 3.9-11.254 12.196v157.912h-157.818c-8.284 0-12.196 3.41-12.196 12.176v28.846c0 8.756 3.912 11.704 12.196 11.704h157.85v158.402c0 8.796 2.958 12.74 11.284 12.74h28.774c8.816 0 12.258-3.932 12.258-12.74v-158.432h158.506c8.672 0 12.668-2.95 12.668-11.704l-0.062-28.816zM-16691.18-1630.72c-209.244-0.042-378.88-169.678-378.9-378.92 0.020-209.234 169.656-378.86 378.9-378.838 209.284-0.020 378.86 169.606 378.86 378.838 0.032 209.244-169.584 378.88-378.86 378.92zM-16691.18-2304.41c-162.806-0.020-294.81 131.994-294.81 294.82 0 162.776 132.024 294.798 294.81 294.778 162.776-0.020 294.758-132.024 294.738-294.81 0.030-162.756-131.984-294.768-294.738-294.79zM-16839.65-1917.204h-57.058c-4.904 0-6.524-2.162-6.524-7.054v-170.68c0-4.894 1.618-7.076 6.524-7.076h23.624c4.904 0 6.524 2.19 6.524 7.076v58.43h26.912c49.204 0 65.792 21.464 65.792 44.308v30.71c0 22.844-16.58 44.288-65.792 44.288zM-16810.28-1985.956c0-13.332-11.14-20.102-29.358-20.102h-26.912v58.418h26.912c18.226 0 29.358-6.79 29.358-20.388v-17.93zM-16686.582-1917.204h-59.258c-4.874 0-6.492-2.162-6.492-7.054v-170.68c0-4.628 1.352-7.076 5.704-7.076h60.068c49.192 0 66.314 21.472 66.314 44.298v96.216c-0.010 22.856-17.132 44.298-66.334 44.298zM-16656.956-2051.196c0-13.578-11.14-20.398-29.634-20.398h-29.070v123.946h29.070c18.492 0 29.634-6.79 29.634-20.388v-83.16zM-16585.452-1917.204c-4.904 0-6.512-2.162-6.512-7.054v-170.68c0-4.894 1.608-7.076 6.512-7.076h23.644c4.904 0 6.532 2.19 6.532 7.076v72.582h64.676c4.904 0 6.81 1.894 6.81 6.79v17.376c0 4.906-1.916 6.512-6.81 6.512h-64.676v44.032h69.314c4.628 0 6.82 1.914 6.82 6.81v17.122c0 4.884-2.19 6.512-6.82 6.512h-99.492zM-15414.396-2388.48c30.792 0 42.886 13.702 42.886 42.864v241.778h243.516c30.762 0 44.462 11.982 44.462 42.802v101.212c0 30.802-13.7 41.042-44.462 41.042h-243.516v243.446c0 30.822-12.104 44.616-42.886 44.616h-101.078c-29.246 0-39.578-13.794-39.578-44.616v-243.446h-243.406c-29.154 0-42.834-10.272-42.834-41.042v-101.212c0-30.842 13.682-42.802 42.834-42.802h243.456v-241.778c0-29.152 10.272-42.864 39.548-42.864h101.058zM-2839.982 353.75c30.76 0 44.462 11.98 44.462 42.802v101.212c0 30.802-13.702 41.042-44.462 41.042h-670.474c-29.152 0-42.834-10.27-42.834-41.042v-101.212c0-30.842 13.682-42.802 42.834-42.802h670.474zM-14233.6-1630.72c-209.212 0-378.88-169.626-378.88-378.88 0-209.214 169.666-378.88 378.88-378.88s378.88 169.666 378.88 378.88c0 209.254-169.666 378.88-378.88 378.88zM-14212.7-2256.168c0-9.738-3.47-13.2-12.554-13.2h-43.222c-9.002 0-12.494 3.43-12.494 13.2v55.766c0 9.022 3.46 13.26 12.494 13.26h43.222c9.084 0 12.554-4.24 12.554-13.26v-55.766zM-14081.69-1941.32c0-59.924-36.228-86.406-60.62-98.182l-38.338-18.144c-17.398-8.316-32.050-18.77-32.050-44.554v-34.836c0-9.738-3.47-13.23-12.554-13.23h-43.222c-9.002 0-12.494 3.43-12.494 13.23v51.568c0 40.408 26.46 55.684 44.584 64.738l55.726 28.57c11.162 6.278 31.354 19.508 31.354 48.762v35.524c0 38.318-23.706 60.59-85.012 60.59-61.984 0-85.012-22.272-85.012-60.59v-29.942c0-9.768-3.492-13.906-12.554-13.906h-40.346c-9.738 0-13.23 4.168-13.23 13.906v40.408c0 57.128 34.806 107.274 151.142 107.274s151.85-50.144 152.618-107.274v-43.91zM-12699.556-1777.254h-1.844c-51.558 0-73.698-22.232-73.698-73.614v-71.454c-3.318-0.062-6.584-0.144-10.128-0.144h-4.73v104.744c0 51.476-22.138 73.646-73.646 73.646h-1.894c-51.568 0-73.708-22.14-73.708-73.646v-104.724h-14.858v137.462c0 51.508-22.2 73.708-73.636 73.708h-1.894c-51.63 0-73.77-22.14-73.77-73.708v-137.524h-14.98v170.374c0 51.384-22.076 73.678-73.584 73.678h-1.844c-51.62 0-73.76-22.262-73.76-73.646v-319.528h-6.87l-0.060-1.894v1.894h-8.284v247.070c-0.122 0.124-0.236 0.626-0.236 0.83 0 3.104-2.488 5.622-5.57 5.622-1.946 0-3.666-1.126-4.668-2.662v0l-78.212-106.588v-0.564c-7.566-9.678-12.246-21.668-12.246-34.93v-173.64h0.184c0.47-12.432 4.966-23.766 12.186-32.972l72.050-136.694c1.178-1.802 2.364-3.584 3.666-5.294l0.41-0.564c13.086-16.928 33.218-27.854 56.014-28.59v-0.154h466.79c67.308 0 100.936 27.884 108.626 91.198 25.988 9.236 37.826 30.986 37.826 68.312v330.394c0.010 51.342-22.066 73.606-73.626 73.606zM-20377.6-2859.52c-209.224 0-378.88-169.656-378.88-378.88s169.656-378.88 378.88-378.88 378.88 169.656 378.88 378.88c0 209.224-169.656 378.88-378.88 378.88zM-20204.186-3316.962c0-17.050-5.448-27.054-17.348-31.262-3.41-28.97-18.884-41.728-49.664-41.728l-213.7 0.060c-10.424 0.348-19.652 5.386-25.6 13.076v0l-0.206 0.236c-0.594 0.738-1.126 1.628-1.658 2.418l-33.004 62.494c-3.288 4.292-5.356 9.44-5.56 15.104h-0.092v79.472c0 6.052 2.13 11.552 5.592 15.974v0.306l35.79 48.794c0.472 0.696 1.248 1.22 2.13 1.22 1.422 0 2.55-1.158 2.55-2.55 0-0.092 0.062-0.306 0.092-0.368v-113.092h3.79v-0.738l0.030 0.738h3.164v146.268c0 23.51 10.128 33.7 33.71 33.7h0.86c23.594 0 33.68-10.18 33.68-33.7v-77.998h6.84v62.956c0 23.572 10.116 33.72 33.772 33.72h0.86c23.562 0 33.742-10.158 33.742-33.72v-62.936h6.862v47.912c0 23.552 10.128 33.71 33.69 33.71h0.798c23.562 0 33.742-10.158 33.742-33.71v-47.944h2.098c1.69 0 3.144 0.030 4.558 0.052v32.708c0 23.52 10.18 33.7 33.742 33.7h0.768c23.594 0 33.71-10.18 33.71-33.668v-151.214h0.266zM-19010.662-3208.622v53.792c0.020 42.67-33.988 77.446-76.318 78.898v87.020c0 53.842-29.654 83.496-83.466 83.496h-197.426c-53.82 0-83.456-29.664-83.456-83.508v-87.030c-42.342-1.402-76.338-36.208-76.338-78.88v-294.748c0-43.602 35.44-79.022 79.012-79.022h336.006c-22.222 34.016-35.186 74.66-35.186 118.344 0 91.576 56.864 169.882 137.174 201.636zM-19201.658-3433.596h-134.984l29.4 118.2c-22.702 13.158-38.002 37.704-38.002 65.802 0 42.046 34.088 76.104 76.082 76.104 42.056 0 76.124-34.058 76.124-76.104 0-28.14-15.298-52.664-38.042-65.824l29.42-118.18zM-19149.938-3075.778h-238.458v86.866c0 18.994 1.516 20.552 20.51 20.552h197.438c18.986 0 20.51-1.546 20.51-20.53v-86.886zM-18931.282-3331.564c-38.186 0-49.622-16.476-49.622-35.226v-13.27c-0.010-3.194 1.136-4.578 4.332-4.578h13.292c2.958 0 4.096 1.404 4.096 4.578v9.842c0 12.596 7.538 19.896 27.904 19.896 20.142 0 27.924-7.322 27.924-19.896v-11.644c0-9.614-6.636-13.958-10.312-16.006l-18.29-9.412c-5.938-2.958-14.644-7.976-14.644-21.238v-16.916c0-3.216 1.136-4.342 4.096-4.342h14.204c2.958 0 4.116 1.116 4.116 4.342v11.418c0 8.48 4.802 11.918 10.506 14.684l12.584 5.93c8.008 3.872 19.906 12.586 19.906 32.246v14.368c-0.236 18.748-11.888 35.226-50.094 35.226zM-18928.302-3461.94h-14.204c-2.958 0-4.096-1.382-4.096-4.342v-18.298c0-3.194 1.136-4.32 4.096-4.32h14.204c2.958 0 4.116 1.116 4.116 4.32v18.298c0.010 2.958-1.156 4.342-4.116 4.342zM-18931.058-3249.132c-88.986 0-161.126-72.15-161.126-161.126 0-88.986 72.14-161.116 161.126-161.116 88.996 0 161.136 72.132 161.136 161.116 0 88.976-72.14 161.126-161.136 161.126zM-18931.058-3524.936c-63.324 0-114.698 51.364-114.698 114.678 0 63.376 51.374 114.678 114.698 114.678 63.354 0 114.698-51.302 114.698-114.678 0-63.324-51.344-114.678-114.698-114.678zM-17698.468-3066.87v105.81c0 65.474-36.056 101.54-101.498 101.54h-240.056c-65.454 0-101.49-36.054-101.49-101.54v-105.82c-51.466-1.72-92.806-44.042-92.806-95.918v-358.368c0-53.042 43.1-96.122 96.082-96.122h436.47c53.002 0 96.092 43.1 96.092 96.122v358.368c0.020 51.886-41.338 94.178-92.794 95.928zM-17837.916-3501.762h-164.136l35.758 143.738c-27.606 15.994-46.192 45.814-46.192 80.016 0 51.098 41.44 92.518 92.528 92.518 51.128 0 92.54-41.422 92.54-92.518 0-34.244-18.596-64.042-46.224-80.046l35.726-143.708zM-17775.012-3066.664h-289.956v105.606c0 23.112 1.844 24.986 24.944 24.986h240.056c23.092 0 24.944-1.874 24.944-24.974l0.010-105.614zM-16472.382-2867.662c-84.438 25.048-172.42-9.512-218.818-79.258-46.398 69.744-134.348 104.324-218.86 79.258-103.71-30.72-162.866-139.806-132.086-243.568 4.188-14.060 9.882-27.268 16.762-39.588 3.532-6.83 7.434-13.466 11.652-19.578l297.656-428.606c6.862-10.208 13.916-16.016 20.244-17.694 0.224-0.114 0.368-0.154 0.48-0.154 0.634-0.184 1.26-0.216 1.832-0.328 0.532-0.072 1.084-0.114 1.608-0.114 0.512 0 1.064 0.042 1.566 0.114 0.574 0.114 1.208 0.154 1.832 0.328 0 0 0.296 0.042 0.48 0.194 6.328 1.658 13.352 7.466 20.192 17.654l290.99 418.99c16.282 19.68 28.856 42.844 36.566 68.822 30.802 103.722-28.396 212.808-132.106 243.528zM-15841.28-3238.4c0-209.212 169.666-378.88 378.88-378.88s378.88 169.668 378.88 378.88c0 209.254-169.666 378.88-378.88 378.88s-378.88-169.626-378.88-378.88zM-15454.668-3045.776l0.626-0.604c0.060-0.062 0.060-0.062 0.060-0.062l184.228-184.238c6.154-6.186 5.498-10.976 0-16.426l-14.478-14.448c-5.436-5.498-9.564-5.498-15.77 0.676l-141.67 141.682v-304.334c0-8.52-3.79-11.356-11.306-11.356h-19.834c-7.548 0-10.362 2.836-10.362 11.356v303.994l-141.312-141.312c-6.184-6.154-10.978-5.498-16.456 0l-14.438 14.448c-5.478 5.478-5.478 9.564 0.646 15.748l184.238 184.228c5.52 5.53 10.352 6.164 15.832 0.644zM-13889.166-3197.174l-2.028 2.016c0 0 0 0 0 0.010l-327.454 326.532c-11.93 11.878-19.866 11.898-30.454 1.34l-27.79-27.76c-10.598-10.536-11.908-19.804 0-31.672l272.486-271.748h-586.24c-16.384 0-21.842-5.448-21.842-19.968v-38.144c0-14.51 5.458-21.78 21.832-21.78h586.926l-273.172-272.426c-11.908-11.868-11.908-19.804-1.332-30.35l27.802-27.74c10.588-10.556 19.854-11.878 31.784 0l328.786 327.864c0 0.010 0 0.010 0 0.010l1.924 1.926 24.556 24.484c0.020 0.030 0.040 0.052 0.060 0.082l1.27 1.27c10.578 10.546 9.256 19.784-1.332 30.362l-25.784 25.692zM-13004.8-2859.52c-209.212 0-378.88-169.646-378.88-378.88 0-209.212 169.666-378.88 378.88-378.88 209.274 0 378.88 169.668 378.88 378.88 0 209.234-169.604 378.88-378.88 378.88zM-12812.166-3246.122l-0.626-0.636c-0.060-0.030-0.060-0.030-0.060-0.030l-184.228-184.248c-6.184-6.154-10.988-5.498-16.424 0l-14.45 14.48c-5.436 5.436-5.436 9.564 0.708 15.77l141.67 141.67h-304.352c-8.52 0-11.356 3.788-11.356 11.314v19.824c0 7.546 2.836 10.372 11.356 10.372h303.996l-141.312 141.312c-6.154 6.176-5.468 10.968 0 16.456l14.45 14.428c5.468 5.478 9.564 5.478 15.748-0.666l184.228-184.198c5.51-5.56 6.164-10.382 0.656-15.852zM-20377.6-4088.32c-209.212 0-378.88-169.604-378.88-378.88 0-209.212 169.668-378.88 378.88-378.88s378.88 169.668 378.88 378.88c0 209.274-169.668 378.88-378.88 378.88zM-20377.632-4716.964c-120.004 0-217.652 97.73-217.652 217.734 0 33.914 7.782 66.068 21.668 94.658l0.296 0.708c3.134 7.372 7.466 7.824 14.386 5.15l18.884-7.28c7.136-2.724 9.174-5.53 6.072-13.61l-0.532-1.248c-11.992-23.654-18.74-50.052-18.74-78.316 0-96.85 78.796-175.636 175.616-175.636s175.648 78.788 175.648 175.636c0 83.68-58.818 153.856-137.318 171.386v-63.498c0-10.496-9.206-11.244-16.098-5.244l-95.97 77.23c-6.338 5.244-6.338 15.718 0 20.992l95.97 77.22c6.954 5.244 16.098 6.012 16.098-4.516v-59.32c101.856-18.208 179.384-107.274 179.384-214.252 0-120.114-97.68-217.796-217.712-217.796zM-18850.488-4800.542h-418.11l0.962 35.656c0.48 19.056 0.288 193.914 0.062 348.202-0.134 121.806-0.288 227.042-0.062 246.836l0.358 34.346h416.758c44.504 0 80.61-36.208 80.61-80.672v-503.654c0.020-44.512-36.086-80.712-80.58-80.712zM-19197.962-4731.086h347.434c6.216 0 11.212 4.956 11.212 11.274v503.654c0 6.186-4.966 11.244-11.212 11.244h-347.75c-0.030-45.516 0.030-126.894 0.164-211.662 0.154-124.826 0.348-252.878 0.154-314.512zM-18881.536-4242.556c9.226 0 13.804-3.4 13.804-12.564v-77.814c0-9.176-4.578-13.752-13.804-13.752h-275.446c-10.352 0-13.742 4.578-13.742 13.752v77.814c0 9.164 3.4 12.564 13.742 12.564h275.446zM-19123.63-4408.412c19.834 0 35.912-16.088 35.912-35.882 0-19.836-16.086-35.922-35.912-35.922-19.804 0-35.882 16.088-35.882 35.922 0 19.794 16.078 35.882 35.882 35.882zM-19019.192-4408.382c19.834 0 35.912-16.078 35.912-35.912 0-19.866-16.078-35.954-35.912-35.954-19.866 0-35.942 16.078-35.942 35.954-0.010 19.836 16.078 35.912 35.942 35.912zM-18914.784-4408.412c19.834 0 35.882-16.088 35.882-35.882 0-19.836-16.046-35.922-35.882-35.922s-35.882 16.088-35.882 35.922c0 19.794 16.046 35.882 35.882 35.882zM-19123.63-4508.11c19.834 0 35.912-16.078 35.912-35.882 0-19.836-16.086-35.912-35.912-35.912-19.804 0-35.882 16.078-35.882 35.912 0 19.804 16.078 35.882 35.882 35.882zM-19019.192-4508.078c19.834 0 35.912-16.078 35.912-35.912 0-19.854-16.078-35.954-35.912-35.954-19.866 0-35.942 16.088-35.942 35.954-0.010 19.836 16.078 35.912 35.942 35.912zM-18878.894-4544c0-19.822-16.068-35.89-35.89-35.89s-35.89 16.070-35.89 35.89c0 19.822 16.068 35.89 35.89 35.89s35.89-16.070 35.89-35.89zM-19123.63-4607.868c19.834 0 35.912-16.078 35.912-35.882 0-19.836-16.086-35.922-35.912-35.922-19.804 0-35.882 16.088-35.882 35.922 0 19.794 16.078 35.882 35.882 35.882zM-19019.192-4607.836c19.834 0 35.912-16.078 35.912-35.912 0-19.866-16.078-35.954-35.912-35.954-19.866 0-35.942 16.078-35.942 35.954-0.010 19.824 16.078 35.912 35.942 35.912zM-18878.884-4643.768c0-19.828-16.074-35.9-35.902-35.9s-35.902 16.074-35.902 35.9c0 19.828 16.074 35.9 35.902 35.9s35.902-16.074 35.902-35.9zM-19527.68-4273.726c0 81.848 8.132 139.868 183.572 139.868h7.854c10.476 0 15.698-3.43 15.698-13.68v-170.372c0-9.104-5.222-13.618-15.698-13.618l-7.854-0.060c-66.898 0-68.24-38.574-68.24-94.31v-79.258c0-55.686 3.974-94.35 68.24-94.35l7.854 0.030c10.476 0 15.698-4.546 15.698-13.68v-172.636c0-10.25-5.222-13.68-15.698-13.68l-7.854 0.030c-175.432 0-183.572 57.988-183.572 139.766v385.956zM-17567.6-4364.226l-237.65 19.824-91.73 218.512c-10.322 26.172-32.452 26.172-44.278 0l-91.648-218.336-239.842-20.050c-28.068-1.73-34.93-22.804-13.69-42.118l182.242-157.122-54.272-231.024c-7.034-27.26 10.876-40.274 35.82-26.040l203.786 123.576 205.804-124.764c23.758-15.114 41.668-2.11 35.84 26.030l-55.328 235.314 178.668 154.070c21.668 17.92 14.858 38.994-13.722 42.128zM-16374.088-4163.872h-634.266c-34.098 0-61.726-27.668-61.726-61.756v-377.088c0-34.13 27.638-61.756 61.726-61.756h182.508v-42.118h-108.596v-63.928h486.482v63.928h-117.104v42.118h190.996c34.13 0 61.736 27.628 61.736 61.756v377.088c-0.020 34.088-27.628 61.756-61.756 61.756zM-16374.804-4592.65h-632.812v355.524h632.812v-355.524zM-15670.856-4846.080h416.912c42.67 0 54.406 19.548 60.96 60.948l65.608 418.346c0 42.64-18.278 60.928-60.948 60.928h-41.102l-18.318 172.512c-4.156 31.57-13.506 45.016-45.024 45.016h-339.272c-31.508 0-41.174-12.574-45.014-45.016l-18.308-172.512h-41.094c-42.66 0-60.948-18.288-60.948-60.928l65.608-418.346c6.84-40.684 18.29-60.948 60.948-60.948zM-15612.498-4165.212c0 13.066 5.602 18.688 18.656 18.688h262.84c13.076 0 18.678-5.622 18.678-18.688v-121.928c0-13.088-5.602-18.688-18.678-18.688h-262.81c-13.076 0-18.678 5.6-18.678 18.688l-0.010 121.928zM-14059.080-4368.558l58.634-6.38-6.4 58.47c-0.604 6.39 5.202 12.164 11.602 11.582l58.614-6.368-6.38 58.502c-0.614 6.35 5.192 12.146 11.592 11.552l58.674-6.38c24.352 25.028 24.054 50.042-1.034 75.070l-66.774 66.662c-25.478 25.396-47.76 22.23-73.196-3.164l-220.774-220.252c-98.806 42.854-218.050 24.054-298.814-56.556-105.532-105.308-105.532-275.998 0-381.276 105.522-105.288 276.582-105.288 382.094 0 80.782 80.61 99.646 199.568 56.678 298.168l30.29 30.208-6.41 58.614c-0.594 6.35 5.212 12.124 11.602 11.552zM-14229.35-4608.266h-82.248v-81.48c0-9.81-4.076-14.448-14.46-14.448h-34.162c-9.902 0-13.362 4.64-13.362 14.448v81.48h-82.248c-9.83 0-14.46 4.024-14.46 14.458v34.078c0 10.394 4.628 13.844 14.46 13.844h82.248v82.084c0 10.394 3.46 15.022 13.362 15.022h34.162c10.382 0 14.46-4.65 14.46-15.022v-82.084h82.248c10.394 0 15.042-3.47 15.042-13.844v-34.078c-0.020-10.444-4.658-14.458-15.042-14.458zM-13168.682-4335.146h317.952c20.164 0 18.738 17.644 8.674 30.936l-148.274 206.776c-10.19 12.146-30.198 12.146-40.264 0l-148.204-206.776c-11.46-13.292-10.014-30.936 10.118-30.936zM-12697.478-4511.232c14.54 0 21.136 5.806 21.136 20.368v48.078c0 14.622-6.604 19.57-21.136 19.57l-615.454 0.030c-13.886 0-20.336-4.946-20.336-19.538v-48.138c0-14.53 6.45-20.368 20.336-20.368h615.454zM-12852.214-4599.266h-317.952c-20.164 0-18.698-17.644-8.704-30.956l148.264-206.694c10.118-12.196 30.188-12.196 40.264 0l148.224 206.694c11.488 13.312 10.066 30.956-10.096 30.956zM-20377.568-5317.12c-209.264 0-378.912-169.668-378.912-378.88 0-209.274 169.646-378.88 378.912-378.88 209.244 0 378.848 169.604 378.848 378.88 0 209.212-169.604 378.88-378.848 378.88zM-20461.098-5617.766l71.128 99.246c4.824 5.828 14.458 5.828 19.312 0l71.178-99.246c4.824-6.36 5.508-14.858-4.178-14.858h-152.596c-9.668-0.010-10.364 8.498-4.844 14.858zM-20299.52-5774.264l-71.148-99.216c-4.824-5.796-14.458-5.796-19.312 0l-71.158 99.216c-4.824 6.39-5.52 14.858 4.168 14.858h152.586c9.668 0.010 10.372-8.468 4.864-14.858zM-20219.944-5707.366c0-6.984-3.144-9.76-10.158-9.76h-295.372c-6.676 0-9.77 2.774-9.77 9.76v23.092c0 7.024 3.122 9.412 9.77 9.412l295.372-0.052c6.962 0 10.158-2.346 10.158-9.39v-23.060zM-18905.692-5464.002l-174.204 140.042c-12.504 10.876-29.204 9.544-29.204-9.502v-79.442c-58.582-2.202-110.398-10.844-154.574-26.808-50.012-17.98-91.29-42.414-123.986-73.104-25.876-24.372-46.284-52.132-61.604-82.984-4.044-8.172-7.968-16.282-11.264-24.872-15.922-41.020-27.084-85.658-23.828-131.452 0.778-11.314 7.044-45.118 14.336-45.118 0 0 9.062 47.32 45.782 101.52 11.264 16.568 24.37 32.216 39.486 46.674 0 0 21.044 18.904 32.38 26.542 30.566 20.716 67.974 37.162 112.21 49.316 36.228 9.902 77.516 15.668 123.198 17.828h7.884v-78.622c0-19.036 16.702-17.654 29.204-8.222l174.234 140.074c11.398 9.596 11.398 28.64-0.050 38.134zM-19391.878-5928.018l174.212-140.042c12.524-10.876 29.174-9.512 29.174 9.534v79.35c58.574 2.212 110.378 10.824 154.542 26.82 50.022 17.962 91.33 42.404 123.996 73.176 25.886 24.32 46.316 52.1 61.574 82.984 4.044 8.14 7.956 16.23 11.264 24.812 15.914 41.020 27.096 85.658 23.848 131.482-0.738 11.296-7.044 45.088-14.336 45.088 0 0-9.032-47.32-45.71-101.52-11.264-16.538-24.37-32.194-39.516-46.632 0 0-21.032-18.882-32.328-26.552-30.648-20.694-67.984-37.13-112.26-49.284-36.24-9.85-77.516-15.676-123.198-17.778h-7.876v78.622c0 19.006-16.67 17.604-29.174 8.172l-174.212-140.092c-11.448-9.544-11.448-28.652 0-38.134zM-17920-5317.12c-209.254 0-378.88-169.668-378.88-378.88s169.626-378.88 378.88-378.88c209.212 0 378.88 169.668 378.88 378.88s-169.668 378.88-378.88 378.88zM-18087.044-5748.634c-3.79 0-7.034 17.582-7.444 23.44-1.71 23.828 4.086 47.042 12.38 68.382 1.73 4.444 3.758 8.704 5.856 12.912 7.968 16.036 18.576 30.484 32.030 43.15 17.008 15.964 38.46 28.662 64.46 38.012 22.99 8.294 49.92 12.79 80.352 13.906v41.38c0 9.86 8.672 10.598 15.218 4.914l90.574-72.818c5.95-4.966 5.95-14.858 0-19.804l-90.574-72.846c-6.512-4.904-15.154-5.622-15.154 4.26v40.908h-4.116c-23.758-1.116-45.22-4.136-64.072-9.288-23.008-6.278-42.436-14.858-58.358-25.64-5.878-3.962-16.846-13.792-16.846-13.792-7.864-7.516-14.684-15.658-20.53-24.27-19.046-28.17-23.776-52.808-23.776-52.808zM-17757.912-5735.188c-1.742-4.444-3.79-8.704-5.856-12.912-7.936-16.068-18.556-30.484-32.030-43.15-17.020-15.994-38.482-28.712-64.46-38.072-22.998-8.294-49.91-12.79-80.384-13.906v-41.318c0-9.892-8.664-10.598-15.154-4.914l-90.594 72.818c-5.98 4.966-5.98 14.858 0 19.804l90.594 72.846c6.492 4.904 15.154 5.622 15.154-4.26v-40.878h4.096c23.758 1.064 45.2 4.106 64.020 9.256 23.030 6.338 42.414 14.828 58.368 25.64 5.856 3.962 16.814 13.792 16.814 13.792 7.876 7.516 14.684 15.658 20.542 24.238 19.118 28.18 23.798 52.778 23.798 52.778 3.79 0 7.044-17.582 7.456-23.408 1.73-23.828-4.128-47.042-12.36-68.352zM-16383.58-5325.354l-10.23 4.966c-13.65 6.626-23.788 3.132-30.422-10.528l-322.55-664.064-218.89 196.68c-11.294 10.138-22.006 9.564-32.144-1.73l-7.588-8.458c-10.138-11.306-9.574-22.006 1.73-32.154l252.836-227.194c6.338-5.694 12.504-7.876 18.484-6.798 0.584 0.042 1.136 0.194 1.7 0.296 0.114 0.042 0.236 0.042 0.368 0.082 6.022 1.22 10.948 5.582 14.716 13.322l342.528 705.158c6.626 13.67 3.112 23.808-10.538 30.422zM-15422.484-5696l330.958 330.966c10.65 10.64 10.65 21.288 0 31.94l-7.968 7.966c-10.65 10.65-21.29 10.65-31.95 0l-330.958-330.966-330.978 330.976c-10.638 10.65-21.29 10.65-31.94 0.010l-7.968-7.976c-10.65-10.65-10.65-21.298 0-31.948l330.978-330.966-330.988-330.976c-10.63-10.64-10.638-21.288 0-31.94l7.986-7.976c10.638-10.64 21.29-10.628 31.928 0l330.978 330.976 330.968-330.966c10.65-10.64 21.3-10.65 31.95 0l7.968 7.966c10.65 10.65 10.638 21.298 0 31.948l-330.968 330.966zM-14346.096-5850.358c58.788 0 113.12 19.098 157.154 51.414l267.786-268.012c10.516-10.556 21.032-10.556 31.55-0.020l27.628 27.638c10.506 10.496 9.184 19.744-1.32 30.28l-267.776 268.002c32.226 44.114 51.324 98.436 51.324 157.306 0.010 147.22-119.214 266.588-266.332 266.628-147.108-0.042-266.372-119.408-266.394-266.628 0.020-147.23 119.276-266.64 266.382-266.61zM-14346.096-5391.738c105.964 0 191.868-85.984 191.836-192.010 0.010-106.016-85.904-191.99-191.836-192.052-105.952-0.020-191.856 85.976-191.856 192.072-0.020 106.016 85.914 192.010 191.856 191.99zM-13259.53-5748.346l-62.044-285.010c0-29.052 17.284-41.524 57.64-41.524h518.278c40.356 0 57.63 12.472 57.63 41.524l-62.044 285.010c-6.442 27.74-17.284 41.524-57.63 41.524h-118.22l-49.9-124.068c-15.472-35.84-44.462-35.84-57.978-0.010l-49.888 124.078h-118.21c-40.346-0.010-51.466-13.312-57.63-41.524zM-12820.142-5501.768c0 102.002-82.738 184.648-184.658 184.648-101.99 0-184.596-82.646-184.596-184.648 0-101.918 82.606-184.618 184.596-184.618 101.918-0.010 184.658 82.72 184.658 184.618zM-11602.012 760.37l-248.822-312.044 248.822-312.034c11.878-11.878 10.568-21.116 0-31.662l-27.762-27.76c-10.558-10.568-18.484-10.538-30.352 1.342l-291.082 354.252c-9.924 12.164-10.568 18.986-1.332 30.392l292.414 355.594c11.898 11.89 21.136 10.568 31.684 0l27.762-27.73c10.548-10.556 10.548-18.482-1.332-30.35zM-10721.188 760.37l248.822-312.044-248.822-312.034c-11.878-11.878-10.568-21.116 0-31.662l27.762-27.76c10.558-10.568 18.484-10.538 30.352 1.342l291.082 354.252c9.924 12.164 10.568 18.986 1.332 30.392l-292.414 355.594c-11.898 11.89-21.136 10.568-31.684 0l-27.762-27.73c-10.548-10.556-10.548-18.482 1.332-30.35zM-9252.668 135.608l-248.812 312.084 248.812 311.992c11.868 11.878 10.61 21.126 0 31.662l-27.74 27.782c-10.506 10.556-18.494 10.556-30.332-1.342l-291.164-354.264c-9.8-12.154-10.516-18.914-1.28-30.372l292.382-355.584c11.898-11.9 21.094-10.578 31.784 0l27.71 27.72c10.486 10.558 10.486 18.452-1.362 30.322zM-9036.174 135.608l-248.782 312.084 248.782 311.992c11.898 11.878 10.638 21.126 0 31.662l-27.72 27.782c-10.506 10.556-18.494 10.556-30.342-1.342l-291.144-354.264c-9.82-12.154-10.538-18.914-1.28-30.372l292.382-355.584c11.888-11.9 21.084-10.578 31.764 0l27.72 27.72c10.496 10.558 10.496 18.452-1.382 30.322zM-8156.692 105.288l27.708-27.72c10.69-10.578 19.876-11.9 31.784 0l292.382 355.584c9.236 11.458 8.52 18.216-1.28 30.372l-291.164 354.262c-11.838 11.9-19.824 11.9-30.332 1.342l-27.74-27.782c-10.61-10.536-11.868-19.784 0-31.662l248.812-311.992-248.812-312.084c-11.848-11.868-11.848-19.764-1.362-30.322zM-8373.198 105.288l27.72-27.72c10.68-10.578 19.866-11.9 31.764 0l292.382 355.584c9.256 11.458 8.54 18.216-1.28 30.372l-291.144 354.262c-11.848 11.9-19.834 11.9-30.342 1.342l-27.72-27.782c-10.638-10.536-11.898-19.784 0-31.662l248.78-311.992-248.78-312.084c-11.888-11.868-11.888-19.764-1.382-30.322zM-6768.19 310.98c-54.948-23.164-84.726 5.018-118.692 45.168l-65.772 77.682c-35.378 41.76-65.73 69.878-26.052 125.634l-166.626 196.69c-98.868-106.526-61.216-163.164-2.93-231.916l320.306-378.122c58.204-68.73 107.89-115.18 229.262-35.206l-169.502 200.068zM-6951.198 591.392c8.818 8.888 19.006 18.36 30.832 28.61l7.712 6.514c10.302 8.714 11.644 17.5 4.096 26.408l-141.394 166.912c-8.51 10.024-16.444 9.032-26.716 0.338l-7.712-6.554c-11.418-9.636-21.81-18.944-31.448-27.946l164.628-194.284zM-6697.922 357.5c-11.98-10.158-23.020-18.648-33.382-25.712l166.604-196.64c10.444 8.008 21.28 16.764 32.716 26.45l7.67 6.492c10.302 8.746 12.596 16.456 4.096 26.49l-143.31 169.176c-7.526 8.878-16.426 9.020-26.696 0.328l-7.7-6.584zM-5253.222 653.292l-0.144 136.49c-0.318 27.432-17.89 39.936-34.078 39.936-7.608 0-19.088-2.62-30.74-15.278l-92.232-101.938h-354.396c-34.774 0-63.068-28.294-63.068-63.088v-88.924h-142.060c-22.588 0-40.94-18.32-40.94-40.928v-295.148c0-1.004 0.082-2.006 0.174-2.99l0.132-137.082c0.216-19.026 13.372-24.084 26.256-10.106l98.816 109.25h364.238c22.61 0 40.908 18.33 40.908 40.94v66.754h164.23c34.774 0 63.068 28.314 63.068 63.11v295.136c0 1.332-0.060 2.592-0.164 3.872zM-5316.136 335.514h-164.22v184.074c0 22.61-18.298 40.93-40.908 40.93h-262.308v88.924c0 10.384 8.418 18.79 18.77 18.79h374.068l93.122 102.932 0.256-416.85c0-10.384-8.438-18.802-18.78-18.802zM-4038.062 762.992l-48.978 49.020c-18.646 18.648-34.97 20.962-55.992 0l-261.346-261.386-260.168 260.188c-20.992 21.002-35 21.002-53.646 2.314l-48.978-48.956c-18.668-18.668-20.992-35 0-55.972l260.188-260.188-261.048-261.028c-18.646-18.668-18.646-37.304 0-55.952l48.978-49.020c18.646-18.688 34.98-16.332 53.628 2.356l261.028 261.028 262.186-262.268c18.708-18.648 37.304-18.648 55.992 0l49.018 49.020c18.646 18.688 16.334 34.98-2.324 53.668l-262.216 262.186 261.356 261.334c20.972 21.034 20.972 35 2.324 53.658zM-2001.582 624.66c-66.58 0.010-120.576-53.986-120.576-120.576 0-66.61 53.986-120.616 120.576-120.606 66.58 0.030 120.586 54.036 120.576 120.586 0.030 66.592-53.974 120.596-120.576 120.596zM-1925.12 495.238c0-5.242-0.942-6.276-6.164-6.276h-55.276v-55.684c0-4.966-1.772-5.754-7.004-5.754h-17.212c-4.966 0-6.512 0.788-6.512 5.754v55.686h-55.194c-4.956 0-6.246 1.034-6.246 6.276v17.224c0 5.244 1.29 7.23 6.246 7.23h55.194v54.742c0 5.244 1.536 6.698 6.512 6.698h17.212c5.232 0 7.004-1.454 7.004-6.698v-54.752h55.276c5.222 0 6.164-1.988 6.164-7.23v-17.212zM-1945.6 826.88c-209.214 0-378.88-169.626-378.88-378.88 0-209.212 169.666-378.88 378.88-378.88s378.88 169.668 378.88 378.88c0 209.254-169.666 378.88-378.88 378.88zM-1724.426 245.126l-17.356-17.366c-6.616-6.616-13.22-6.616-19.836 0.010l-141.18 141.178c-27.69-20.264-61.818-32.276-98.776-32.276-92.456-0.010-167.424 74.956-167.434 167.424 0.010 92.448 74.968 167.414 167.434 167.434 92.468-0.020 167.414-74.988 167.404-167.444 0-36.946-11.99-71.066-32.256-98.774l141.18-141.168c6.596-6.636 7.414-12.41 0.818-19.016zM-716.8 826.88c-209.274 0-378.88-169.678-378.88-378.88s169.606-378.88 378.88-378.88 378.88 169.678 378.88 378.88-169.606 378.88-378.88 378.88zM-716.8 277.504c-94.126 0-170.496 76.298-170.496 170.496s76.37 170.496 170.496 170.496 170.496-76.298 170.496-170.496-76.37-170.496-170.496-170.496zM512.020 826.88c-209.244 0-378.9-169.646-378.9-378.88 0-209.212 169.656-378.88 378.9-378.88 209.234 0 378.86 169.668 378.86 378.88 0 209.234-169.626 378.88-378.86 378.88zM688.916 316.928c9.072-9.092 10.198-17.020 1.126-26.112l-23.85-23.85c-9.092-9.072-18.134-9.072-27.238 0l-127.56 127.59-126.976-126.986c-9.084-9.092-17.020-10.24-26.092-1.148l-23.828 23.838c-9.084 9.082-9.084 18.144 0 27.228l126.986 126.986-126.566 126.576c-10.21 10.2-9.094 18.144 0 27.228l23.828 23.818c9.062 9.092 15.882 9.092 26.102-1.126l126.556-126.578 127.15 127.17c10.23 10.198 18.166 9.072 27.238 0l23.828-23.85c9.072-9.072 9.072-15.872-1.126-26.102l-127.15-127.13 127.57-127.56z" />
<glyph unicode="&#xe611;" glyph-name="ikone_povleci-circle" d="M512 826.88c-209.224 0-378.88-169.656-378.88-378.88s169.656-378.88 378.88-378.88 378.88 169.656 378.88 378.88c0 209.224-169.656 378.88-378.88 378.88zM685.414 369.438c0-17.050-5.448-27.054-17.346-31.264-3.41-28.97-18.884-41.728-49.664-41.728l-213.7 0.062c-10.424 0.348-19.652 5.386-25.6 13.076v0l-0.204 0.236c-0.594 0.736-1.126 1.628-1.658 2.418l-33.004 62.496c-3.286 4.292-5.356 9.442-5.56 15.104h-0.092v79.474c0 6.052 2.13 11.55 5.592 15.974v0.308l35.788 48.794c0.472 0.696 1.25 1.218 2.13 1.218 1.424 0 2.55-1.156 2.55-2.55 0-0.092 0.060-0.308 0.092-0.37v-113.092h3.788v-0.736l0.032 0.736h3.164v146.258c0 23.51 10.128 33.7 33.71 33.7h0.86c23.594 0 33.678-10.18 33.678-33.7v-77.998h6.84v62.956c0 23.572 10.118 33.72 33.772 33.72h0.86c23.562 0 33.74-10.158 33.74-33.72v-62.936h6.86v47.912c0 23.552 10.126 33.71 33.69 33.71h0.798c23.562 0 33.74-10.158 33.74-33.71v-47.944h2.1c1.69 0 3.144 0.032 4.558 0.050v32.708c0 23.52 10.178 33.7 33.74 33.7h0.768c23.592 0 33.71-10.178 33.71-33.668v-151.214h0.266z" />
<glyph unicode="&#xe612;" glyph-name="ikone_pomoc" d="M512 826.88c-209.212 0-378.88-169.626-378.88-378.88 0-209.212 169.668-378.88 378.88-378.88s378.88 169.668 378.88 378.88c0 209.254-169.668 378.88-378.88 378.88zM532.9 201.432c0-9.738-3.472-13.198-12.554-13.198h-43.224c-9 0-12.492 3.43-12.492 13.198v55.768c0 9.020 3.462 13.26 12.492 13.26h43.224c9.082 0 12.554-4.24 12.554-13.26v-55.768zM663.91 516.28c0-59.924-36.23-86.404-60.62-98.182l-38.338-18.144c-17.398-8.326-32.052-18.77-32.052-44.554v-34.836c0-9.738-3.472-13.23-12.554-13.23h-43.224c-9 0-12.492 3.43-12.492 13.23v51.568c0 40.408 26.46 55.686 44.584 64.736l55.726 28.57c11.162 6.276 31.356 19.508 31.356 48.762v35.524c0 38.318-23.706 60.59-85.012 60.59-61.984 0-85.012-22.272-85.012-60.59v-29.942c0-9.77-3.492-13.906-12.554-13.906h-40.346c-9.738 0-13.23 4.168-13.23 13.906v40.406c0 57.13 34.806 107.274 151.142 107.274s151.848-50.144 152.618-107.274v-43.908z" />
<glyph unicode="&#xe613;" glyph-name="ikone_plus" d="M560.004 69.12c30.792 0 42.884 13.702 42.884 42.866v241.766h243.516c30.76 0 44.462 11.98 44.462 42.802v101.212c0 30.802-13.702 41.042-44.462 41.042h-243.508v243.456c0 30.822-12.104 44.616-42.884 44.616h-101.080c-29.246 0-39.578-13.794-39.578-44.616v-243.446h-243.406c-29.152 0-42.834-10.27-42.834-41.042v-101.212c0-30.842 13.682-42.802 42.834-42.802h243.456v-241.778c0-29.154 10.272-42.866 39.546-42.866h101.048z" />
<glyph unicode="&#xe614;" glyph-name="ikone_pdf" d="M512.020 826.88c-209.244-0.042-378.88-169.678-378.9-378.92 0.010-209.244 169.656-378.86 378.9-378.838 209.274-0.020 378.86 169.606 378.86 378.838 0.030 209.244-169.586 378.88-378.86 378.922zM512.020 153.19c-162.806-0.020-294.81 131.994-294.81 294.81 0 162.776 132.024 294.798 294.81 294.778 162.774-0.020 294.758-132.024 294.738-294.81 0.030-162.744-131.982-294.758-294.738-294.778zM363.55 540.396h-57.058c-4.904 0-6.524-2.16-6.524-7.054v-170.68c0-4.894 1.618-7.076 6.524-7.076h23.624c4.904 0 6.524 2.192 6.524 7.076v58.428h26.912c49.202 0 65.792 21.462 65.792 44.308v30.71c0 22.844-16.58 44.288-65.792 44.288zM392.918 471.644c0-13.332-11.142-20.1-29.358-20.1h-26.912v58.408h26.912c18.226 0 29.358-6.788 29.358-20.388v-17.92zM516.618 540.396h-59.26c-4.874 0-6.492-2.16-6.492-7.054v-170.68c0-4.628 1.352-7.076 5.704-7.076h60.068c49.192 0 66.314 21.472 66.314 44.298v96.216c-0.010 22.856-17.132 44.298-66.336 44.298zM546.244 406.394c0-13.578-11.14-20.398-29.634-20.398h-29.082v123.954h29.072c18.494 0 29.634-6.788 29.634-20.388v-83.168zM617.748 540.396c-4.904 0-6.514-2.16-6.514-7.054v-170.68c0-4.894 1.608-7.076 6.514-7.076h23.644c4.904 0 6.534 2.192 6.534 7.076v72.582h64.676c4.904 0 6.81 1.894 6.81 6.788v17.378c0 4.904-1.914 6.512-6.81 6.512h-64.676v44.032h69.314c4.628 0 6.82 1.916 6.82 6.81v17.12c0 4.884-2.192 6.512-6.82 6.512h-99.492z" />
<glyph unicode="&#xe615;" glyph-name="ikone_open-circle" d="M512.010 826.88c-209.234 0-378.89-169.646-378.89-378.88 0-209.212 169.656-378.88 378.89-378.88s378.87 169.668 378.87 378.88c0 209.234-169.626 378.88-378.87 378.88zM708.73 433.336c0-8.776-3.942-12.174-12.668-12.174h-158.444v-157.912c0-8.294-3.43-12.196-12.318-12.196h-28.774c-8.324 0-11.254 3.9-11.254 12.196v157.902h-157.808c-8.284 0-12.196 3.41-12.196 12.174v28.846c0 8.754 3.912 11.704 12.196 11.704h157.85v158.412c0 8.796 2.96 12.74 11.284 12.74h28.774c8.818 0 12.256-3.932 12.256-12.74v-158.432h158.484c8.674 0 12.668-2.95 12.668-11.704l-0.052-28.816z" />
<glyph unicode="&#xe616;" glyph-name="ikone_napolni-mobi-racun" d="M512.532 592.672c-69.622 0-89.518-29.154-89.518-62.352v-40.068h-16.22c-5.262 0-7.69-2.028-7.69-7.282v-10.118c0-5.674 2.428-7.67 7.69-7.67h16.22v-27.126h-16.22c-5.262 0-7.69-2.028-7.69-7.28v-10.126c0-5.682 2.428-7.722 7.69-7.722h16.22v-39.67c0-33.24 19.834-62.362 89.456-62.362 69.674 0 89.476 29.124 89.476 62.362v25.518c0 5.274-1.986 7.69-7.25 7.69h-23.5c-5.682 0-7.67-2.428-7.67-7.69v-19.036c0-21.904-14.182-35.216-50.648-35.216-36.414 0-50.206 13.322-50.206 35.216v33.188h53.462c5.274 0 7.69 2.038 7.69 7.722v10.066c0 5.284-2.428 7.312-7.69 7.312h-53.464v27.126h53.464c5.274 0 7.69 2.028 7.69 7.67v10.128c0 5.252-2.428 7.282-7.69 7.282h-53.464v33.608c0 21.894 13.794 35.256 50.208 35.256 36.466 0 50.648-13.364 50.648-35.256v-13.332c0-5.674 2.038-8.1 7.67-8.1h23.5c5.274 0 7.25 2.428 7.25 8.1v19.826c0.042 33.188-19.794 62.34-89.416 62.34zM512 826.88c-209.212 0-378.88-169.646-378.88-378.88 0-209.212 169.668-378.88 378.88-378.88s378.88 169.668 378.88 378.88c0 209.234-169.606 378.88-378.88 378.88zM671.192 255.538c0-19.302-15.626-34.866-34.866-34.866h-251.372c-19.24 0-32.142 18.298-32.142 37.56v384.942c0 19.25 12.902 32.164 32.144 32.164h251.36c19.24 0 34.836-15.616 34.836-34.856v-384.932h0.042z" />
<glyph unicode="&#xe617;" glyph-name="ikone_moj-telekom" d="M257.27 395.654l-62.044-285.010c0-29.052 17.284-41.524 57.64-41.524h518.278c40.356 0 57.63 12.472 57.63 41.524l-62.044 285.010c-6.442 27.74-17.284 41.524-57.63 41.524h-118.212l-49.9-124.068c-15.472-35.84-44.462-35.84-57.978-0.010l-49.89 124.078h-118.212c-40.346-0.010-51.476-13.312-57.642-41.524zM696.658 642.232c0 102.002-82.74 184.648-184.658 184.648-101.99 0-184.596-82.648-184.596-184.648 0-101.918 82.606-184.616 184.596-184.616 101.918-0.010 184.658 82.72 184.658 184.616z" />
<glyph unicode="&#xe618;" glyph-name="ikone_mobilno" d="M637.226 826.88h-250.388c-69.592 0-106.382-36.792-106.382-106.414v-544.972c0-69.582 36.792-106.374 106.382-106.374h250.388c69.56 0 106.322 36.792 106.322 106.384v544.972c0 69.612-36.762 106.404-106.322 106.404zM512.010 144.004c-19.21 0-34.806 15.576-34.806 34.774 0 19.24 15.596 34.774 34.806 34.774 19.24 0 34.806-15.576 34.806-34.774s-15.596-34.774-34.806-34.774zM680.14 269.332h-336.23v451.132c0 34.908 8.028 42.948 42.948 42.948h250.388c34.866 0 42.894-8.038 42.894-42.948v-451.132z" />
<glyph unicode="&#xe619;" glyph-name="ikone_mega-menu" d="M171.038 639.816h681.912c25.284 0 37.928 12.636 37.928 37.918v66.376c0.010 25.262-12.606 34.754-37.908 34.754h-681.932c-28.426 0-37.918-9.482-37.918-34.776v-66.376c0-25.262 9.492-37.898 37.918-37.898zM171.038 378.48h681.912c25.284 0 37.928 12.626 37.928 37.908v66.386c0 25.262-12.646 34.764-37.928 34.764h-681.912c-28.426-0.010-37.918-9.512-37.918-34.774v-66.406c0-25.212 9.492-37.878 37.918-37.878zM171.038 117.134h681.912c25.284 0 37.928 12.606 37.928 37.898v66.396c0 25.252-12.646 34.774-37.928 34.774h-681.912c-28.426-0.020-37.918-9.492-37.918-34.744v-66.396c0-25.252 9.492-37.928 37.918-37.928z" />
<glyph unicode="&#xe61a;" glyph-name="ikone_menu-arrow-down" d="M169.266 656.682l-27.772-27.946c-10.496-10.61-11.836-19.908 0-31.888l354.294-356.7c0.040 0 0.112-0.030 0.112-0.072l1.228-1.27c10.568-10.61 19.846-9.298 30.414 1.342l25.65 25.898 2.048 2.006 326.534 328.786c11.878 11.98 11.908 19.958 1.342 30.566l-27.802 27.924c-10.496 10.608-19.804 11.98-31.642 0l-312.012-314.112-312.054 314.132c-11.878 11.98-19.804 11.98-30.342 1.33z" />
<glyph unicode="&#xe61b;" glyph-name="ikone_kljukica" d="M811.448 819.2c-32.174 15.626-56.054 7.414-71.68-24.832l-258.202-535.808-215.030 196.21c-26.664 23.88-51.918 22.548-75.858-4.076l-17.838-19.968c-23.942-26.644-22.58-51.938 4.056-75.796l295.014-269.148c14.972-13.434 29.48-18.596 43.612-16.014 1.28 0.092 2.5 0.462 3.726 0.644 0.4 0.134 0.726 0.134 1.116 0.256 14.162 2.856 25.804 13.128 34.662 31.366l305.428 633.744c15.668 32.204 7.364 56.096-24.812 71.712l-24.198 11.716z" />
<glyph unicode="&#xe61c;" glyph-name="ikone_isci" d="M399.502 293.642c58.788 0 113.122 19.098 157.152 51.414l267.786-268.012c10.516-10.558 21.034-10.558 31.548-0.020l27.628 27.638c10.506 10.496 9.184 19.744-1.322 30.28l-267.776 268c32.226 44.114 51.322 98.438 51.322 157.308 0 147.22-119.214 266.588-266.332 266.63-147.118-0.040-266.372-119.408-266.394-266.63 0.020-147.23 119.276-266.64 266.382-266.61zM399.502 752.26c105.964 0 191.868-85.984 191.836-192.010 0.010-106.014-85.904-191.99-191.836-192.050-105.952-0.020-191.856 85.976-191.856 192.072-0.020 106.014 85.914 192.010 191.856 191.99z" />
<glyph unicode="&#xe61d;" glyph-name="ikone_internet" d="M638.29 700.59h-252.58c-139.294 0-252.59-113.306-252.59-252.59 0-139.294 113.294-252.59 252.59-252.59h252.59c139.294 0 252.58 113.294 252.58 252.59 0 139.284-113.284 252.59-252.59 252.59zM385.71 637.522h31.692v-157.992h-218.378c15.124 89.538 92.948 157.992 186.686 157.992zM199.026 416.48h218.368v-158.014h-31.692c-93.726 0.010-171.55 68.496-186.676 158.014zM638.29 258.478h-157.86v379.044h157.87c104.53 0 189.532-85.012 189.532-189.522-0.010-104.53-85.012-189.522-189.542-189.522z" />
<glyph unicode="&#xe61e;" glyph-name="ikone_alarm" d="M469.106 553.174v-37.406c0-15.584 7.802-23.368 23.378-23.368h40.97c15.566 0 21.442 7.782 21.442 23.368v37.406c0 17.592-5.878 23.44-21.442 23.44h-40.97c-15.574 0-23.378-5.856-23.378-23.44zM533.452 459.756h-40.97c-15.574 0-23.378-5.868-23.378-23.45v-168.908c0-15.576 7.802-23.378 23.378-23.378h40.97c15.566 0 21.442 7.802 21.442 23.378v168.908c0 17.582-5.878 23.45-21.442 23.45zM512.030 770.336c-29.020 0-56.3-15.534-73.196-41.994l-285.42-462.9c-22.222-33.69-26.594-74.014-11.11-102.942 12.524-23.438 36.004-36.844 64.472-36.844h613.326c26.614 0 48.886 12.104 61.030 33.29 18.924 32.942 7.466 75.868-10.086 105.902l-286.136 463.986c-16.578 25.968-43.776 41.504-72.878 41.504zM809 206.346l-594.576 0.020c0.84 4.034 2.734 9.278 6.472 14.908l286.322 464.21c3.698 5.826 6.268 5.244 9.298 0.462l285.298-462.572c3.676-6.256 5.908-12.236 7.188-17.028z" />
<glyph unicode="&#xe61f;" glyph-name="ikone_arrow-down-menu" d="M497.45 258.56l-364.33 378.88h757.76z" />
<glyph unicode="&#xe620;" glyph-name="ikone_arrow-down" d="M169.288 623.34l-27.73-27.75c-10.578-10.608-11.878-19.856 0-31.724l355.616-292.384c11.418-9.236 18.186-8.582 30.372 1.322l354.254 291.072c11.9 11.868 11.9 19.856 1.342 30.35l-27.76 27.74c-10.538 10.62-19.794 11.89-31.662 0l-312.054-248.77-312.024 248.77c-11.868 11.878-19.814 11.878-30.35 1.372z" />
<glyph unicode="&#xe621;" glyph-name="ikone_arrow-up-menu" d="M890.88 258.56h-757.76l364.33 378.88z" />
<glyph unicode="&#xe622;" glyph-name="ikone_big-check" d="M819.62 818.646l-10.23 4.966c-13.65 6.626-23.788 3.132-30.424-10.528l-322.55-664.064-218.89 196.69c-11.294 10.138-22.006 9.564-32.144-1.73l-7.588-8.458c-10.138-11.304-9.574-22.006 1.73-32.154l252.836-227.196c6.338-5.692 12.502-7.876 18.484-6.798 0.584 0.042 1.138 0.196 1.7 0.298 0.112 0.042 0.236 0.042 0.37 0.082 6.022 1.22 10.948 5.582 14.714 13.322l342.528 705.158c6.626 13.66 3.114 23.798-10.538 30.414z" />
<glyph unicode="&#xe623;" glyph-name="ikone_close_circle" d="M512.020 826.87c-209.234 0-378.9-169.646-378.9-378.87 0-209.202 169.668-378.87 378.9-378.87s378.86 169.668 378.86 378.87c0 209.224-169.626 378.87-378.86 378.87zM708.73 433.336c0-8.776-3.9-12.174-12.658-12.174h-368.608c-8.294 0-12.186 3.41-12.186 12.174v28.846c0 8.754 3.902 11.704 12.186 11.704h368.598c8.754 0 12.658-2.95 12.658-11.704v-28.846z" />
<glyph unicode="&#xe624;" glyph-name="ikone_close" d="M551.916 448l330.956 330.966c10.65 10.64 10.65 21.288 0 31.938l-7.966 7.968c-10.65 10.65-21.288 10.65-31.948 0l-330.956-330.968-330.976 330.988c-10.64 10.65-21.288 10.65-31.938 0.010l-7.968-7.976c-10.65-10.65-10.65-21.3 0-31.95l330.976-330.976-330.998-330.976c-10.628-10.64-10.64-21.288 0-31.938l7.986-7.976c10.64-10.64 21.29-10.63 31.928 0l330.988 330.976 330.966-330.976c10.65-10.64 21.298-10.65 31.948 0l7.966 7.966c10.65 10.65 10.64 21.298 0 31.948l-330.966 330.976z" />
<glyph unicode="&#xe625;" glyph-name="ikone_delovanje_omrezja" d="M511.968 531.424c-46.090 0-83.384-37.344-83.384-83.414 0-24.484 10.712-46.386 27.576-61.604l52.93 56.484-14.766-76.308c5.714-1.25 11.572-1.924 17.674-1.924 46.060 0 83.436 37.274 83.436 83.354 0 46.070-37.438 83.416-83.466 83.416zM512 686.47c-131.452 0-238.46-106.998-238.46-238.49 0-68.966 29.656-131.072 76.728-174.612l50.37 53.73c-32.696 30.126-53.33 73.052-53.33 120.884 0 90.82 73.912 164.68 164.72 164.68 90.778 0 164.658-73.86 164.658-164.68 0-90.696-73.882-164.576-164.658-164.576-11.366 0-22.404 1.126-33.146 3.318l-13.998-72.398c15.268-3.082 30.986-4.74 47.144-4.74 131.482 0 238.428 106.976 238.428 238.396-0.030 131.492-106.976 238.49-238.46 238.49zM512.030 826.89c-208.948 0-378.912-170.004-378.912-378.994 0-109.312 46.858-207.698 121.242-276.962l50.38 53.78c-60.026 55.736-97.864 135.044-97.864 223.15 0 168.284 136.898 305.192 305.152 305.192 168.222 0 305.028-136.918 305.028-305.192 0-168.12-136.836-304.938-305.028-304.938-20.48 0-40.458 2.1-59.884 6l-13.966-72.458c23.91-4.7 48.568-7.374 73.85-7.374 208.886 0.010 378.848 169.974 378.848 378.798 0 208.988-169.964 378.994-378.848 378.994z" />
<glyph unicode="&#xe626;" glyph-name="ikone_dodaj-racun" d="M547.524 572.662v54.138h-144.804c-6.81 0-12.308-5.55-12.308-12.328v-332.77c0-6.83 5.54-12.37 12.308-12.37h218.922c6.81 0 12.37 5.56 12.37 12.37v0 260.588h-56.146c-16.764 0-30.342 13.62-30.342 30.372zM587.776 442.48c6.984 0 10.096-2.294 10.096-9.34v-22.938c0-6.952-3.114-9.678-10.096-9.678h-55.174v-54.826c0-6.544-2.724-9.646-9.708-9.646h-22.918c-6.626 0-8.94 3.072-8.94 9.646v54.826h-55.174c-6.626 0-9.708 2.724-9.708 9.678v22.938c0 7.014 3.082 9.34 9.708 9.34h55.174v55.204c0 6.942 2.304 10.086 8.94 10.086h22.918c6.984 0 9.708-3.122 9.708-10.086v-55.204h55.174zM512.030 826.88c-209.244 0-378.912-169.646-378.912-378.88 0-209.212 169.666-378.88 378.912-378.88s378.848 169.668 378.848 378.88c0 209.234-169.606 378.88-378.848 378.88zM669.706 278.212c-1.832-25.038-22.558-44.902-48.036-44.902h-218.952c-26.696 0-48.394 21.698-48.394 48.394v332.8c0 26.092 20.808 47.288 46.684 48.22h164.516l104.222-104.152v-280.35h-0.042z" />
<glyph unicode="&#xe627;" glyph-name="ikone_dodaj-uporabnika" d="M512 826.87c-209.274 0-378.88-169.626-378.88-378.88 0-209.212 169.606-378.848 378.88-378.848 209.212 0 378.88 169.636 378.88 378.848 0 209.254-169.668 378.88-378.88 378.88zM478.668 629.852c48.956 0 88.648-39.68 88.648-88.628 0-48.926-39.69-88.636-88.648-88.636-48.928 0-88.618 39.7-88.618 88.636 0.050 48.978 39.722 88.628 88.618 88.628zM603.136 266.126h-248.812c-19.364 0-27.678 6-27.678 19.948l29.778 136.806c2.96 13.528 8.294 19.918 27.648 19.918h56.772l23.92-59.556c6.512-17.202 20.418-17.202 27.822 0l23.982 59.556h56.77c19.332 0 24.596-6.616 27.648-19.918l29.778-136.806c0.020-13.948-8.244-19.948-27.628-19.948zM697.354 533.514c0-4.64-2.038-6.42-6.688-6.42h-36.526v-36.22c0-4.392-1.832-6.42-6.452-6.42v0h-15.094c-4.444 0-5.948 2.028-5.948 6.42v36.25h-36.496c-4.444 0-6.452 1.792-6.452 6.4v15.154c0 4.65 2.018 6.186 6.452 6.186h36.496v36.526c0 4.576 1.504 6.676 5.948 6.676h15.094c4.618 0 6.452-2.068 6.452-6.676v-36.526h36.526c4.618 0 6.688-1.536 6.688-6.186v-15.166z" />
<glyph unicode="&#xe628;" glyph-name="ikone_form-check" d="M802.61 770.58l-407.346-473.394-194.714 171.224-67.43-94.422 288.102-248.566 469.658 569.898z" />
<glyph unicode="&#xe629;" glyph-name="ikone_arrow-up" d="M199.628 274.012l312.044 248.822 312.034-248.822c11.878-11.89 21.116-10.568 31.662 0l27.76 27.76c10.568 10.558 10.538 18.482-1.342 30.35l-354.252 291.072c-12.164 9.924-18.986 10.578-30.392 1.332l-355.594-292.404c-11.89-11.9-10.568-21.134 0-31.682l27.73-27.76c10.556-10.548 18.484-10.548 30.35 1.332z" />
<glyph unicode="&#xe62a;" glyph-name="ikone-2014_preklici" d="M877.138 762.992l-48.978 49.020c-18.648 18.648-34.97 20.962-55.992 0l-261.346-261.386-260.168 260.188c-20.992 21.002-35 21.002-53.646 2.314l-48.978-48.956c-18.668-18.668-20.992-35 0-55.972l260.188-260.188-261.060-261.028c-18.646-18.668-18.646-37.304 0-55.952l48.978-49.020c18.646-18.688 34.98-16.332 53.628 2.356l261.038 261.028 262.186-262.268c18.708-18.648 37.304-18.648 55.992 0l49.020 49.020c18.648 18.688 16.332 34.98-2.324 53.668l-262.216 262.194 261.356 261.334c20.972 21.024 20.972 34.99 2.324 53.648z" />
<glyph unicode="&#xe62b;" glyph-name="ikone-2014_pogovor" d="M890.778 653.292l-0.144 136.49c-0.318 27.432-17.89 39.936-34.078 39.936-7.608 0-19.086-2.62-30.74-15.278l-92.232-101.938h-354.396c-34.774 0-63.068-28.294-63.068-63.088v-88.924h-142.060c-22.588 0-40.94-18.32-40.94-40.928v-295.148c0-1.004 0.082-2.006 0.174-2.99l0.134-137.082c0.216-19.026 13.372-24.084 26.254-10.106l98.816 109.25h364.238c22.61 0 40.908 18.33 40.908 40.94v66.754h164.23c34.774 0 63.068 28.314 63.068 63.11v295.136c0 1.332-0.062 2.592-0.164 3.872zM827.864 335.514h-164.22v184.074c0 22.61-18.298 40.93-40.908 40.93h-262.318v88.924c0 10.384 8.416 18.79 18.77 18.79h374.068l93.124 102.932 0.256-416.85c0.010-10.384-8.428-18.802-18.77-18.802z" />
<glyph unicode="&#xe62c;" glyph-name="ikone-2014_kontakt" d="M604.61 310.98c-54.948-23.164-84.726 5.018-118.692 45.168l-65.772 77.682c-35.38 41.76-65.73 69.878-26.050 125.634l-166.626 196.7c-98.868-106.526-61.216-163.164-2.93-231.916l320.308-378.122c58.204-68.73 107.89-115.18 229.264-35.206l-169.502 200.058zM421.6 591.392c8.818 8.888 19.004 18.36 30.832 28.61l7.712 6.514c10.3 8.714 11.644 17.5 4.096 26.408l-141.394 166.912c-8.51 10.024-16.444 9.032-26.716 0.338l-7.712-6.554c-11.418-9.636-21.81-18.944-31.448-27.946l164.628-194.284zM674.876 357.5c-11.98-10.158-23.020-18.648-33.382-25.712l166.606-196.64c10.446 8.008 21.278 16.764 32.716 26.45l7.67 6.492c10.302 8.746 12.596 16.456 4.096 26.49l-143.298 169.176c-7.526 8.878-16.424 9.020-26.696 0.328l-7.712-6.584z" />
<glyph unicode="&#xe62d;" glyph-name="ikone-2014_arrow-prev-page" d="M685.988 760.37l-248.822-312.044 248.822-312.034c11.878-11.878 10.568-21.116 0-31.662l-27.76-27.76c-10.558-10.568-18.482-10.538-30.35 1.342l-291.072 354.252c-9.924 12.164-10.568 18.986-1.332 30.392l292.414 355.594c11.9 11.89 21.134 10.568 31.682 0l27.76-27.73c10.538-10.556 10.538-18.482-1.342-30.35z" />
<glyph unicode="&#xe62e;" glyph-name="ikone-2014_arrow-next-page" d="M338.012 760.37l248.822-312.044-248.822-312.024c-11.878-11.878-10.568-21.116 0-31.662l27.762-27.76c10.558-10.568 18.484-10.538 30.35 1.342l291.082 354.252c9.924 12.164 10.568 18.986 1.332 30.392l-292.414 355.584c-11.9 11.89-21.134 10.568-31.682 0l-27.762-27.73c-10.548-10.556-10.548-18.482 1.332-30.35z" />
<glyph unicode="&#xe62f;" glyph-name="ikone-2014_arrow-last-page" d="M444.908 105.288l27.71-27.72c10.69-10.578 19.876-11.9 31.786 0l292.384 355.584c9.236 11.458 8.52 18.216-1.28 30.372l-291.164 354.252c-11.836 11.9-19.824 11.9-30.332 1.342l-27.74-27.782c-10.608-10.536-11.868-19.784 0-31.662l248.812-311.992-248.812-312.074c-11.848-11.868-11.848-19.764-1.362-30.322zM228.402 105.288l27.72-27.72c10.68-10.578 19.866-11.9 31.764 0l292.382 355.584c9.256 11.458 8.54 18.216-1.28 30.372l-291.154 354.252c-11.848 11.9-19.834 11.9-30.342 1.342l-27.72-27.782c-10.64-10.536-11.9-19.784 0-31.662l248.782-311.992-248.782-312.074c-11.878-11.868-11.878-19.764-1.372-30.322z" />
<glyph unicode="&#xe631;" glyph-name="ikone_barva-grafa" d="M512 826.88c-209.274 0-378.88-169.678-378.88-378.88s169.606-378.88 378.88-378.88 378.88 169.678 378.88 378.88-169.606 378.88-378.88 378.88zM512 277.504c-94.126 0-170.496 76.298-170.496 170.496s76.37 170.496 170.496 170.496 170.496-76.298 170.496-170.496-76.37-170.496-170.496-170.496z" />
<glyph unicode="&#xe632;" glyph-name="swap" d="M755.206 701.818l-186.132 153.284c-13.274 11.946-31.188 10.616-31.188-10.284v-86.932c-62.71-2.324-118.118-11.946-165.234-29.198-53.746-19.908-97.878-46.452-132.718-80.296-27.544-26.546-49.442-57.068-65.694-90.576-4.312-8.956-8.622-17.916-12.278-27.212-16.92-45.12-28.866-93.898-25.546-143.994 0.996-12.278 7.628-49.442 15.592-49.442 0 0 9.624 51.754 48.77 111.144 12.278 18.248 26.212 35.17 42.138 51.096 0 0 22.564 20.574 34.844 29.198 32.514 22.566 72.66 40.474 119.78 53.746 38.82 10.946 82.952 17.254 131.716 19.578h8.622v-85.932c0-20.904 17.914-19.578 31.188-8.954l186.132 153.284c12.278 10.284 12.278 31.19 0 41.472zM235.628 194.182l186.132-153.284c13.274-11.948 31.19-10.616 31.19 10.284v86.932c62.71 2.324 118.118 11.948 165.234 29.198 53.746 19.908 97.876 46.452 132.718 80.296 27.544 26.544 49.442 57.068 65.694 90.576 4.312 8.956 8.622 17.914 12.278 27.212 16.918 45.12 28.866 93.896 25.546 143.994-0.996 12.278-7.63 49.442-15.592 49.442 0 0-9.624-51.754-48.77-111.144-12.278-18.246-26.212-35.17-42.136-51.096 0 0-22.566-20.574-34.842-29.198-32.514-22.566-72.66-40.474-119.78-53.746-38.818-10.948-82.952-17.254-131.716-19.578h-8.622v85.932c0 20.904-17.916 19.578-31.19 8.956l-186.132-153.284c-12.278-10.284-12.278-31.188 0-41.472z" />
<glyph unicode="&#xe633;" glyph-name="insert" d="M732.302 293.39c12.938 17.914 14.932 41.808-11.278 41.808h-416.726c-26.546 0-28.536-23.89-13.274-41.808l194.094-247.846c13.274-16.26 39.814-16.26 52.756 0l194.428 247.846zM537.876 850.462c-12.938 16.26-39.482 16.26-52.756 0l-194.094-247.846c-15.262-17.914-13.274-41.808 13.274-41.808h416.726c26.212 0 24.22 23.89 11.278 41.808l-194.428 247.846zM152.672 472.556h718.646v-49.098h-718.646v49.098z" />
<glyph unicode="&#xe634;" glyph-name="grab" d="M788.712 658.020l-1.656 0.332c-46.452 2.65-66.688-16.586-66.688-64.032v-65.694l-9.288 0.332-4.312 0.332v96.216c0 47.442-20.242 69.342-67.684 72.324h-1.99c-47.778 2.986-68.676-16.586-68.676-64.37v-97.878l-13.938 0.664v128.404c0 48.11-20.904 70.006-69.676 73.33h-1.656c-49.442 3.314-70.668-16.262-70.668-65.028v-130.060l-14.268 0.664v161.248c0 48.772-21.57 71.004-71.666 74.652h-1.988c-50.432 3.316-72.324-16.586-72.324-65.694v-306.24l-6.968 0.332-8.294 0.332v237.894c0 2.986-2.65 5.31-5.636 5.636-1.99 0-3.646-0.994-4.646-2.324l-78.3-98.87v-0.332c-7.628-8.956-12.278-20.574-12.278-33.178v-168.216c0.664-11.948 4.98-22.89 12.278-32.182l72.324-133.048 3.646-5.31 0.33-0.332c12.938-16.586 32.846-27.212 55.404-28.198l442.6-5.972c61.048-0.664 91.572 24.554 98.208 81.956 23.554 7.966 33.842 27.544 33.842 61.378v300.266c0 46.776-19.578 68.014-66.028 70.67z" />
<glyph unicode="&#xe900;" glyph-name="ikone-2014_arrow-first-page" d="M577.73 135.608l-248.812 312.074 248.812 311.992c11.868 11.878 10.61 21.126 0 31.662l-27.74 27.782c-10.506 10.556-18.494 10.556-30.332-1.342l-291.164-354.254c-9.8-12.154-10.516-18.914-1.28-30.372l292.382-355.584c11.9-11.9 21.094-10.578 31.784 0l27.708 27.72c10.486 10.558 10.486 18.452-1.362 30.322zM794.226 135.608l-248.782 312.074 248.78 311.992c11.9 11.878 10.64 21.126 0 31.662l-27.72 27.782c-10.506 10.556-18.494 10.556-30.342-1.342l-291.144-354.254c-9.82-12.154-10.536-18.914-1.28-30.372l292.382-355.584c11.89-11.9 21.084-10.578 31.764 0l27.72 27.72c10.496 10.558 10.496 18.452-1.382 30.322z" />
<glyph unicode="&#xe901;" glyph-name="bell" d="M512 832c-211.2 0-384-172.8-384-384s172.8-384 384-384c211.2 0 384 172.8 384 384s-172.8 384-384 384zM492.8 649.6v28.8c0 4.8 4.8 9.6 9.6 9.6h28.8c4.8 0 9.6-4.8 9.6-9.6v-31.2c48-12 84-57.6 84-110.4v-69.6c0-45.6 16.8-88.8 48-120 2.4-2.4 2.4-4.8 2.4-7.2 0 0 0 0 0 0v-36c0-4.8-4.8-9.6-9.6-9.6h-105.6c-2.4-24-21.6-45.6-48-45.6s-48 19.2-48 45.6h-105.6c-4.8 0-9.6 4.8-9.6 9.6v36c0 0 0 0 0 0 0 2.4 0 4.8 2.4 7.2 31.2 31.2 48 74.4 48 120v69.6c0 55.2 40.8 103.2 93.6 112.8z" />
<glyph unicode="&#xe902;" glyph-name="messenger" d="M512 960c-282.752 0-512-212.267-512-474.069 0-149.205 74.453-282.283 190.805-369.152v-180.779l174.336 95.659c46.507-12.843 95.829-19.797 146.859-19.797 282.752 0 512 212.224 512 474.069 0 261.803-229.248 474.069-512 474.069zM562.901 321.579l-130.389 139.051-254.421-139.051 279.851 297.088 133.547-139.051 251.264 139.051-279.851-297.088z" />
<glyph unicode="&#xe903;" glyph-name="linkedin" horiz-adv-x="1057" d="M18.225-40.261h218.696v674.314h-218.696zM967.444 573.301c-46.832 51.559-108.772 77.344-185.783 77.344-28.374 0-54.165-3.52-77.366-10.565-23.192-7.040-42.78-16.918-58.774-29.639-15.984-12.72-28.715-24.529-38.166-35.426-8.987-10.351-17.776-22.407-26.351-36.047v96.016h-222.279l0.681-32.71c0.457-21.811 0.681-89.036 0.681-201.684 0-112.658-0.45-259.604-1.354-440.851h222.269v376.808c0 23.162 2.463 41.555 7.428 55.194 9.465 23.178 23.751 42.584 42.903 58.251 19.151 15.682 42.901 23.517 71.285 23.517 38.722 0 67.22-13.513 85.464-40.541 18.237-27.025 27.359-64.39 27.359-112.088v-361.121h222.267v386.996c-0.017 99.491-23.419 175.002-70.265 226.545zM125.658 960c-37.378 0-67.664-11.024-90.866-33.049-23.199-22.030-34.792-49.843-34.792-83.465 0-33.152 11.259-60.869 33.779-83.122 22.513-22.255 52.243-33.388 89.174-33.388h1.351c37.837 0 68.355 11.124 91.548 33.388 23.192 22.252 34.562 49.96 34.115 83.122-0.45 33.62-11.943 61.435-34.456 83.465-22.511 22.035-52.473 33.049-89.853 33.049z" />
<glyph unicode="&#xe904;" glyph-name="pinterest" d="M512.114 960c-282.806 0-512.114-229.206-512.114-511.886 0-209.553 126.2-389.627 306.583-468.924-1.372 35.649-0.229 78.611 8.916 117.459 9.831 41.591 65.843 279.023 65.843 279.023s-16.461 32.678-16.461 80.896c0 75.869 43.896 132.542 98.765 132.542 46.639 0 69.044-34.964 69.044-76.783 0-46.847-29.95-116.774-45.267-181.674-12.803-54.388 27.206-98.492 80.932-98.492 96.936 0 162.322 124.544 162.322 272.168 0 112.204-75.674 196.071-213.076 196.071-155.235 0-252.171-115.86-252.171-245.202 0-44.561 13.26-76.097 33.836-100.32 9.374-11.198 10.745-15.768 7.316-28.565-2.515-9.369-8.002-31.993-10.517-41.134-3.429-13.026-13.946-17.596-25.606-12.797-71.559 29.251-104.938 107.405-104.938 195.613 0 145.339 122.77 319.7 366.024 319.7 195.472 0 324.187-141.454 324.187-293.192 0-200.869-111.796-350.779-276.405-350.779-55.327 0-107.224 29.936-125.056 63.757 0 0-29.721-117.917-36.122-140.769-10.745-39.534-32.007-78.84-51.44-109.69 45.953-13.483 94.65-21.024 145.175-21.024 282.806 0 512.114 229.206 512.114 511.886 0.228 282.908-229.080 512.114-511.886 512.114z" />
<glyph unicode="&#xe905;" glyph-name="viber" horiz-adv-x="958" d="M405.776 133.4c0 0-100.273-125.030-131.455-157.491-10.21-10.551-21.399-9.57-21.228 11.361 0 13.74 0.764 170.848 0.764 170.848-196.246 56.241-184.676 267.761-182.548 378.413 2.128 110.696 22.379 201.351 82.108 262.4 137.793 129.2 526.502 100.314 625.54 7.233 121.074-107.334 77.98-410.575 78.235-420.912-24.887-207.351-171.572-220.497-198.545-229.473-11.528-3.829-118.521-31.354-252.87-22.379zM926.365 366.405c30.461 256.402-14.635 418.274-95.975 491.49l0.042 0.042c-131.284 125.032-574.661 143.538-731.725-5.616-70.536-72.959-95.379-180.039-98.103-312.599-2.722-132.604-5.957-381.009 225.516-448.396h0.213l-0.213-102.909c0 0-1.573-41.69 25.059-50.071 30.459-9.871 44.243 9.486 138.983 122.647 158.428-13.74 280.098 17.742 293.926 22.337 31.99 10.721 213.007 34.671 242.277 283.076zM461.252 774.639c-16.38 0-16.38-25.525 0-25.739 127.074-0.977 231.726-89.55 232.875-252.019 0-17.146 25.101-16.932 24.891 0.211h-0.045c-1.36 175.062-115.63 276.567-257.72 277.546zM628.399 523.811c-0.383-16.932 24.674-17.74 24.885-0.596 2.086 96.528-57.43 176.041-169.273 184.42-16.38 1.191-18.081-24.546-1.745-25.739 96.996-7.358 148.089-73.555 146.132-158.085zM601.597 414.009c-21.015 12.168-42.414 4.595-51.262-7.358l-18.506-23.952c-9.402-12.168-26.973-10.551-26.973-10.551-128.221 33.907-162.511 168.084-162.511 168.084s-1.573 18.165 10.168 27.908l23.142 19.144c11.572 9.189 18.889 31.31 7.105 53.049-31.482 56.88-52.624 76.492-63.389 91.552-11.317 14.167-28.333 17.357-46.029 7.785h-0.385c-36.798-21.527-77.086-61.813-64.196-103.294 21.996-43.732 62.409-183.144 191.228-288.478 60.537-49.816 156.343-100.867 197.012-112.652l0.385-0.594c40.073-13.359 79.041 28.503 99.846 66.408v0.299c9.231 18.334 6.168 35.692-7.319 47.050-23.908 23.314-59.984 49.050-88.318 65.6zM501.538 612.682c40.884-2.383 60.706-23.739 62.836-67.6 0.766-17.144 25.651-15.953 24.885 1.191-2.722 57.262-32.587 89.169-86.359 92.146-16.378 0.979-17.912-24.76-1.362-25.737z" />
<glyph unicode="&#xea8b;" glyph-name="google-plus" d="M325.8 502.6v-111.8h184.8c-7.4-48-55.8-140.6-184.8-140.6-111.2 0-202 92.2-202 205.8s90.8 205.8 202 205.8c63.4 0 105.6-27 129.8-50.2l88.4 85.2c-56.8 53-130.4 85.2-218.2 85.2-180.2-0.2-325.8-145.8-325.8-326s145.6-325.8 325.8-325.8c188 0 312.8 132.2 312.8 318.4 0 21.4-2.4 37.8-5.2 54h-307.6zM1024 512h-96v96h-96v-96h-96v-96h96v-96h96v96h96z" />
<glyph unicode="&#xea90;" glyph-name="facebook" d="M590 708h130v156h-130c-100.356 0-182-81.648-182-182v-78h-104v-156h104v-416h156v416h130l26 156h-156v78c0 14.094 11.906 26 26 26z" />
<glyph unicode="&#xea96;" glyph-name="twitter" d="M945.23 689.662c-31.816-14.216-66.168-23.692-102.046-27.922 36.722 22 64.816 56.862 78.184 98.322-34.354-20.308-72.428-35.2-112.876-43.154-32.492 34.522-78.692 56.016-129.8 56.016-98.154 0-177.692-79.538-177.692-177.692 0-13.876 1.522-27.416 4.57-40.446-147.738 7.446-278.724 78.184-366.384 185.818-15.228-26.228-24.028-56.862-24.028-89.354 0-61.6 31.308-116.092 79.028-147.908-29.108 0.846-56.522 8.968-80.554 22.168 0-0.674 0-1.522 0-2.2 0-86.138 61.262-158.062 142.662-174.308-14.892-4.062-30.628-6.262-46.876-6.262-11.508 0-22.508 1.184-33.508 3.216 22.676-70.568 88.338-122.016 166.016-123.538-60.922-47.722-137.416-76.154-220.846-76.154-14.384 0-28.428 0.846-42.474 2.538 78.862-50.6 172.276-79.876 272.63-79.876 326.954 0 505.83 270.938 505.83 505.83 0 7.784-0.168 15.4-0.508 23.016 34.692 24.876 64.816 56.184 88.674 91.892z" />
</font>
</defs>
</svg>
