<?xml version="1.0" standalone="no"?> <!DOCTYPE svg PUBLIC "-//W3C//DTD SVG 1.0//EN" "http://www.w3.org/TR/2001/REC-SVG-20010904/DTD/svg10.dtd" > <svg xmlns="http://www.w3.org/2000/svg" width="100%" height="100%">	<metadata>	Copyright (c) 2009 by Eduardo Manso. All rights reserved.	</metadata><defs><font id="TSMd" horiz-adv-x="237" >  <font-face     font-family="TS Md"    font-weight="500"    font-stretch="normal"    units-per-em="1000"    panose-1="2 0 0 0 0 0 0 0 0 0"    ascent="750"    descent="-250"    x-height="496"    cap-height="680"    bbox="-59 -238.992 1081 964"    underline-thickness="50"    underline-position="-50"    stemh="81"    stemv="98"    unicode-range="U+0020-FB04"  /><missing-glyph horiz-adv-x="854" d="M674 94c-68 -67 -157 -102 -249 -102c-89 0 -179 35 -246 102c-68 67 -103 157 -103 247c0 89 35 179 103 247c67 67 157 102 246 102c90 0 182 -35 249 -102s103 -158 103 -247c0 -91 -36 -180 -103 -247zM662 106c65 65 99 150 99 235s-34 170 -99 235s-151 98 -237 98c-85 0 -169 -33 -234 -98c-66 -66 -99 -150 -99 -235s33 -170 99 -235c65 -65 149 -98 234 -98c87 0 172 33 237 98zM537 177l-110 110l-110 -110c-10 -10 -17 -9 -27 1l-29 29c-10 10 -9 17 0 26l110 110l-110 110c-10 10 -10 18 -1 27l29 29c10 10 18 10 28 0l110 -111l111 111c10 10 17 10 26 1l29 -29c10 -10 10 -18 0 -28l-111 -110l111 -111c9 -9 10 -16 -1 -27l-29 -29c-9 -9 -17 -8 -26 1z" />    <glyph glyph-name="ff" unicode="ff" horiz-adv-x="639" d="M102 494h6v72c0 82 58 137 199 137h7c13 0 19 -5 19 -19v-42c0 -14 -6 -20 -19 -20h-7c-76 0 -103 -24 -103 -66v-62h203v77c0 82 57 137 199 137h7c13 0 19 -5 19 -19v-42c0 -14 -6 -20 -19 -20h-7c-76 0 -103 -24 -103 -66v-67h98c13 0 19 -5 19 -18v-40c0 -14 -6 -20 -19 -20h-98v-396c0 -14 -5 -20 -19 -20h-58c-13 0 -19 6 -19 20v396h-203v-396c0 -14 -5 -20 -18 -20h-59c-13 0 -19 6 -19 20v396h-59c-13 0 -18 6 -18 20v35c0 13 5 18 18 19z" />    <glyph glyph-name="fi" unicode="fi" horiz-adv-x="567" d="M496 475v-455c0 -14 -4 -20 -18 -20h-58c-14 0 -19 6 -19 20v396h-204v-396c0 -14 -5 -20 -18 -20h-59c-13 0 -18 6 -18 20v396h-59c-14 0 -19 6 -19 20v35c0 13 5 18 19 19l52 4h7v68c0 82 57 137 198 137h163c14 0 19 -5 19 -19v-42c0 -14 -5 -20 -19 -20h-163c-75 0 -103 -24 -103 -66v-58h280c14 0 19 -5 19 -19z" />    <glyph glyph-name="ffi" unicode="ffi" horiz-adv-x="873" d="M102 494h6v72c0 82 58 137 199 137h7c13 0 19 -5 19 -19v-42c0 -14 -6 -20 -19 -20h-7c-76 0 -103 -24 -103 -66v-62h204v68c0 82 57 137 198 137h163c14 0 20 -5 20 -19v-42c0 -14 -6 -20 -20 -20h-163c-75 0 -103 -24 -103 -66v-58h280c14 0 20 -5 20 -19v-455c0 -14 -5 -20 -18 -20h-59c-13 0 -19 6 -19 20v396h-204v-396c0 -14 -5 -20 -18 -20h-58c-14 0 -19 6 -19 20v396h-204v-396c0 -14 -5 -20 -18 -20h-59c-13 0 -19 6 -19 20v396h-59c-13 0 -18 6 -18 20v35c0 13 5 18 18 19z" />    <glyph glyph-name="fl" unicode="fl" horiz-adv-x="567" d="M496 680v-660c0 -14 -4 -20 -18 -20h-58c-14 0 -19 6 -19 20v598h-101c-75 0 -103 -24 -103 -66v-58h98c13 0 19 -5 19 -18v-40c0 -14 -6 -20 -19 -20h-98v-396c0 -14 -5 -20 -18 -20h-59c-13 0 -18 6 -18 20v396h-59c-14 0 -19 6 -19 20v35c0 13 5 18 19 19l52 4h7v68c0 82 57 137 198 137h177c14 0 19 -5 19 -19z" />    <glyph glyph-name="ffl" unicode="ffl" horiz-adv-x="873" d="M102 494h7v72c0 82 57 137 198 137h7c14 0 20 -5 20 -19v-42c0 -14 -6 -20 -20 -20h-7c-75 0 -103 -24 -103 -66v-62h204v68c0 82 57 137 199 137h176c14 0 20 -5 20 -19v-660c0 -14 -5 -20 -18 -20h-58c-14 0 -19 6 -19 20v598h-101c-76 0 -103 -24 -103 -66v-58h98c13 0 19 -5 19 -18v-40c0 -14 -6 -20 -19 -20h-98v-396c0 -14 -5 -20 -19 -20h-58c-13 0 -19 6 -19 20v396h-204v-396c0 -14 -5 -20 -18 -20h-58c-14 0 -19 6 -19 20v396h-59c-13 0 -19 6 -19 20v35c0 13 6 18 19 19z" />    <glyph glyph-name=".notdef" horiz-adv-x="854" d="M674 94c-68 -67 -157 -102 -249 -102c-89 0 -179 35 -246 102c-68 67 -103 157 -103 247c0 89 35 179 103 247c67 67 157 102 246 102c90 0 182 -35 249 -102s103 -158 103 -247c0 -91 -36 -180 -103 -247zM662 106c65 65 99 150 99 235s-34 170 -99 235s-151 98 -237 98c-85 0 -169 -33 -234 -98c-66 -66 -99 -150 -99 -235s33 -170 99 -235c65 -65 149 -98 234 -98c87 0 172 33 237 98zM537 177l-110 110l-110 -110c-10 -10 -17 -9 -27 1l-29 29c-10 10 -9 17 0 26l110 110l-110 110c-10 10 -10 18 -1 27l29 29c10 10 18 10 28 0l110 -111l111 111c10 10 17 10 26 1l29 -29c10 -10 10 -18 0 -28l-111 -110l111 -111c9 -9 10 -16 -1 -27l-29 -29c-9 -9 -17 -8 -26 1z" />    <glyph glyph-name=".null" horiz-adv-x="0"  />    <glyph glyph-name="CR" horiz-adv-x="0"  />    <glyph glyph-name="space" unicode=" " horiz-adv-x="211"  />    <glyph glyph-name="A" unicode="A" horiz-adv-x="538" d="M238 680h62c13 0 20 -6 24 -19l194 -642c4 -12 -1 -19 -15 -19h-63c-13 0 -19 7 -22 19l-47 155h-211l-46 -155c-3 -12 -9 -19 -22 -19h-58c-13 0 -18 7 -14 19l194 642c4 13 11 19 24 19zM350 252l-56 182c-12 37 -26 135 -27 146c-2 -9 -15 -101 -28 -144l-57 -184h168z" />    <glyph glyph-name="B" unicode="B" horiz-adv-x="587" d="M306 0h-206c-13 0 -18 6 -18 20v640c0 14 5 20 18 20h177c172 0 227 -64 227 -145v-63c0 -52 -24 -92 -84 -115c76 -21 113 -64 113 -122v-85c0 -82 -55 -150 -227 -150zM306 311h-127v-230h127c90 0 130 31 130 86v61c0 50 -40 83 -130 83zM277 599h-98v-212h105c83 0 123 32 123 87v46c0 55 -40 79 -130 79z" />    <glyph glyph-name="C" unicode="C" horiz-adv-x="559" d="M513 209v-63c0 -82 -49 -154 -221 -154s-221 72 -221 154v388c0 82 49 154 221 154s221 -72 221 -154v-49c0 -14 -5 -20 -18 -20h-58c-14 0 -19 6 -19 20v33c0 54 -35 87 -125 87s-124 -33 -124 -87v-356c0 -54 34 -87 124 -87s125 33 125 87v47c0 13 5 19 19 19h58c13 0 18 -6 18 -19z" />    <glyph glyph-name="D" unicode="D" horiz-adv-x="608" d="M309 0h-211c-12 0 -16 7 -16 20v640c0 14 5 20 18 20h209c171 0 228 -72 228 -154v-372c0 -82 -57 -154 -228 -154zM309 597h-130v-514h130c90 0 130 33 130 87v340c0 54 -40 87 -130 87z" />    <glyph glyph-name="E" unicode="E" horiz-adv-x="519" d="M453 0h-353c-13 0 -18 6 -18 20v640c0 14 5 20 18 20h342c13 0 19 -5 19 -19v-45c0 -14 -6 -19 -19 -19h-263v-202h245c14 0 20 -5 20 -19v-43c0 -13 -6 -19 -20 -19h-245v-231h274c13 0 19 -4 19 -18v-46c0 -14 -6 -19 -19 -19z" />    <glyph glyph-name="F" unicode="F" horiz-adv-x="524" d="M100 680h367c13 0 19 -5 19 -19v-45c0 -14 -6 -19 -19 -19h-288v-203h270c14 0 19 -5 19 -19v-46c0 -13 -5 -19 -19 -19h-270v-290c0 -14 -4 -20 -18 -20h-61c-13 0 -18 6 -18 20v640c0 14 5 20 18 20z" />    <glyph glyph-name="G" unicode="G" horiz-adv-x="573" d="M299 340h195c13 0 19 -5 19 -18v-176c0 -82 -49 -154 -221 -154s-221 72 -221 154v388c0 82 49 154 221 154s221 -72 221 -154v-44c0 -13 -5 -19 -18 -19h-58c-14 0 -19 6 -19 19v28c0 54 -35 87 -125 87s-124 -33 -124 -87v-356c0 -54 34 -87 124 -87c89 0 125 32 125 86v96h-119c-13 0 -19 5 -19 19v46c0 13 6 18 19 18z" />    <glyph glyph-name="H" unicode="H" horiz-adv-x="619" d="M179 660v-263h260v263c0 14 5 20 18 20h62c13 0 18 -6 18 -20v-640c0 -14 -5 -20 -18 -20h-62c-13 0 -18 6 -18 20v294h-260v-294c0 -14 -4 -20 -18 -20h-61c-13 0 -18 6 -18 20v640c0 14 5 20 18 20h61c14 0 18 -6 18 -20z" />    <glyph glyph-name="I" unicode="I" horiz-adv-x="261" d="M179 660v-640c0 -14 -4 -20 -18 -20h-61c-13 0 -18 6 -18 20v640c0 14 5 20 18 20h61c14 0 18 -6 18 -20z" />    <glyph glyph-name="J" unicode="J" horiz-adv-x="504" d="M120 197v-35c0 -54 27 -87 107 -87s103 33 103 87v498c0 14 5 20 18 20h61c14 0 19 -6 19 -20v-514c0 -82 -42 -154 -201 -154c-158 0 -203 72 -203 154v51c0 14 5 20 19 20h59c14 0 18 -6 18 -20z" />    <glyph glyph-name="K" unicode="K" horiz-adv-x="564" d="M287 345l259 -326c7 -9 4 -19 -9 -19h-79c-14 0 -22 9 -29 19l-224 283h-25v-283c0 -13 -5 -19 -19 -19h-61c-13 0 -18 6 -18 19v642c0 13 5 19 18 19h61c14 0 19 -6 19 -19v-286h24l209 286c8 10 18 19 31 19h66c13 0 16 -9 9 -19z" />    <glyph glyph-name="L" unicode="L" horiz-adv-x="485" d="M180 660v-577h256c13 0 19 -4 19 -18v-46c0 -14 -6 -19 -19 -19h-338c-11 0 -16 7 -16 20v640c0 14 5 20 19 20h61c13 0 18 -6 18 -20z" />    <glyph glyph-name="M" unicode="M" horiz-adv-x="734" d="M653 661v-642c0 -13 -5 -19 -18 -19h-59c-13 0 -18 6 -18 19v459c-2 -5 -15 -51 -24 -74l-116 -281c-5 -13 -13 -20 -25 -20h-52c-13 0 -19 8 -24 20l-124 293c-10 22 -18 57 -19 60v-457c0 -13 -5 -19 -18 -19h-56c-13 0 -18 6 -18 19v642c0 13 5 19 18 19h56c9 0 14 -4 17 -11l173 -402c7 -17 20 -56 21 -60c1 4 15 42 22 59l170 405c3 7 8 9 17 9h59c13 0 18 -6 18 -19z" />    <glyph glyph-name="N" unicode="N" horiz-adv-x="618" d="M536 661v-642c0 -13 -4 -19 -18 -19h-55c-10 0 -14 3 -18 9l-235 412c-22 37 -34 68 -36 72v-474c0 -13 -5 -19 -18 -19h-56c-13 0 -18 6 -18 19v642c0 13 5 19 18 19h56c8 0 13 -3 16 -8l241 -421c14 -24 31 -64 31 -64v474c0 13 6 19 19 19h55c14 0 18 -6 18 -19z" />    <glyph glyph-name="O" unicode="O" horiz-adv-x="597" d="M71 146v388c0 82 56 154 227 154c172 0 228 -72 228 -154v-388c0 -82 -56 -154 -228 -154c-171 0 -227 72 -227 154zM428 162v356c0 54 -40 87 -130 87c-89 0 -129 -33 -129 -87v-356c0 -54 40 -87 129 -87c90 0 130 33 130 87z" />    <glyph glyph-name="P" unicode="P" horiz-adv-x="572" d="M303 253h-124v-233c0 -14 -4 -20 -18 -20h-61c-13 0 -18 6 -18 20v640c0 14 5 20 18 20h203c172 0 227 -72 227 -154v-119c0 -82 -55 -154 -227 -154zM303 597h-124v-261h124c90 0 130 33 130 87v87c0 54 -40 87 -130 87z" />    <glyph glyph-name="Q" unicode="Q" horiz-adv-x="596" d="M526 534v-388c0 -67 -38 -127 -145 -147l123 -110c10 -9 11 -18 2 -27l-31 -34c-7 -8 -17 -9 -26 -1l-179 166c-150 7 -199 75 -199 153v388c0 82 56 154 227 154c172 0 228 -72 228 -154zM169 520v-360c0 -55 40 -87 129 -87c90 0 130 32 130 87v360c0 55 -40 87 -130 87c-89 0 -129 -32 -129 -87z" />    <glyph glyph-name="R" unicode="R" horiz-adv-x="594" d="M303 269h-124v-249c0 -14 -4 -20 -18 -20h-61c-13 0 -18 6 -18 20v640c0 14 5 20 18 20h203c172 0 227 -72 227 -154v-104c0 -61 -31 -116 -117 -140l120 -262c5 -12 -4 -20 -18 -20h-60c-14 0 -16 8 -22 20l-113 249h-17zM303 597h-124v-245h124c90 0 130 32 130 87v71c0 54 -40 87 -130 87z" />    <glyph glyph-name="S" unicode="S" horiz-adv-x="568" d="M410 490v31c0 54 -33 85 -121 85s-121 -31 -121 -85v-20c0 -46 30 -59 51 -67l182 -69c60 -23 110 -62 110 -136v-83c0 -82 -57 -154 -224 -154s-225 72 -225 154v58c0 14 6 20 19 20h59c13 0 18 -6 18 -20v-45c0 -54 38 -85 128 -85s129 31 129 85v47c0 50 -45 67 -84 82l-169 65c-44 17 -89 62 -89 124v57c0 82 52 154 215 154s217 -72 217 -154v-44c0 -13 -5 -19 -18 -19h-59c-14 0 -18 6 -18 19z" />    <glyph glyph-name="T" unicode="T" horiz-adv-x="487" d="M34 680h418c13 0 19 -5 19 -19v-45c0 -14 -6 -19 -19 -19h-160v-577c0 -14 -5 -20 -18 -20h-62c-13 0 -18 6 -18 20v577h-160c-14 0 -19 5 -19 19v45c0 14 5 19 19 19z" />    <glyph glyph-name="U" unicode="U" horiz-adv-x="607" d="M174 660v-498c0 -54 40 -87 129 -87c90 0 131 33 131 87v498c0 14 5 20 18 20h61c14 0 18 -6 18 -20v-514c0 -82 -56 -154 -228 -154c-171 0 -227 72 -227 154v514c0 14 6 20 19 20h61c13 0 18 -6 18 -20z" />    <glyph glyph-name="V" unicode="V" horiz-adv-x="538" d="M300 0h-62c-13 0 -20 6 -24 19l-194 642c-4 13 1 19 14 19h67c13 0 18 -7 22 -19l124 -415c13 -42 23 -122 23 -122s14 84 25 120l125 417c4 12 9 19 22 19h61c14 0 19 -6 15 -19l-194 -642c-4 -13 -11 -19 -24 -19z" />    <glyph glyph-name="W" unicode="W" horiz-adv-x="817" d="M464 661l104 -416c10 -41 15 -82 16 -87c1 5 9 58 17 87l106 416c3 12 9 19 22 19h54c13 0 17 -6 14 -19l-162 -642c-3 -13 -11 -19 -24 -19h-60c-12 0 -19 7 -22 19l-107 424c-8 29 -12 71 -13 78c-1 -7 -8 -54 -14 -79l-108 -423c-3 -13 -10 -19 -23 -19h-60c-12 0 -19 7 -22 19l-163 642c-3 13 1 19 15 19h62c13 0 20 -7 23 -19l104 -416c7 -29 16 -78 16 -78s5 32 17 78l106 416c3 12 9 19 22 19h57c14 0 20 -7 23 -19z" />    <glyph glyph-name="X" unicode="X" horiz-adv-x="561" d="M333 347l192 -328c5 -9 4 -19 -10 -19h-71c-14 0 -22 9 -28 19l-143 242l-135 -242c-5 -9 -13 -19 -27 -19h-66c-13 0 -15 11 -9 22l187 327l-181 310c-7 11 -6 21 8 21h71c13 0 21 -8 28 -19l136 -231l129 231c6 11 14 19 27 19h66c13 0 15 -8 9 -19z" />    <glyph glyph-name="Y" unicode="Y" horiz-adv-x="529" d="M124 661l125 -264c6 -14 15 -41 16 -45c0 2 9 32 16 45l133 264c5 10 10 19 22 19h61c13 0 20 -6 13 -19l-196 -391v-251c0 -13 -5 -19 -18 -19h-61c-14 0 -19 6 -19 19v240l-198 402c-6 12 0 19 14 19h69c13 0 17 -7 23 -19z" />    <glyph glyph-name="Z" unicode="Z" horiz-adv-x="500" d="M79 680h352c14 0 20 -5 20 -19v-43c0 -7 -2 -13 -4 -17l-287 -518h288c13 0 19 -4 19 -18v-46c0 -14 -6 -19 -19 -19h-386c-14 0 -19 5 -19 19v46c0 7 2 11 5 17l284 515h-253c-13 0 -19 5 -19 19v45c0 14 6 19 19 19z" />    <glyph glyph-name="Agrave" unicode="&#xc0;" horiz-adv-x="538" d="M238 680h62c13 0 20 -6 24 -19l194 -642c4 -12 -1 -19 -15 -19h-63c-13 0 -19 7 -22 19l-47 155h-211l-46 -155c-3 -12 -9 -19 -22 -19h-58c-13 0 -18 7 -14 19l194 642c4 13 11 19 24 19zM350 252l-56 182c-12 37 -26 135 -27 146c-2 -9 -15 -101 -28 -144l-57 -184h168zM217 747l-76 111c-8 11 -5 20 9 20h62c14 0 20 -8 26 -19l59 -106c7 -13 2 -19 -9 -19h-47c-13 0 -20 7 -24 13z" />    <glyph glyph-name="Aacute" unicode="&#xc1;" horiz-adv-x="538" d="M238 680h62c13 0 20 -6 24 -19l194 -642c4 -12 -1 -19 -15 -19h-63c-13 0 -19 7 -22 19l-47 155h-211l-46 -155c-3 -12 -9 -19 -22 -19h-58c-13 0 -18 7 -14 19l194 642c4 13 11 19 24 19zM350 252l-56 182c-12 37 -26 135 -27 146c-2 -9 -15 -101 -28 -144l-57 -184h168zM393 859l-77 -112c-3 -5 -10 -12 -24 -12h-46c-12 0 -17 5 -10 18l59 107c6 11 13 18 26 18h62c14 0 17 -8 10 -19z" />    <glyph glyph-name="Acircumflex" unicode="&#xc2;" horiz-adv-x="538" d="M238 680h62c13 0 20 -6 24 -19l194 -642c4 -12 -1 -19 -15 -19h-63c-13 0 -19 7 -22 19l-47 155h-211l-46 -155c-3 -12 -9 -19 -22 -19h-58c-13 0 -18 7 -14 19l194 642c4 13 11 19 24 19zM350 252l-56 182c-12 37 -26 135 -27 146c-2 -9 -15 -101 -28 -144l-57 -184h168zM269 820l-41 -67c-5 -9 -14 -18 -27 -18h-45c-13 0 -17 8 -10 18l75 106c8 11 17 19 30 19h35c13 0 22 -8 30 -19l75 -106c7 -10 4 -18 -10 -18h-45c-12 0 -20 8 -26 18z" />    <glyph glyph-name="Atilde" unicode="&#xc3;" horiz-adv-x="538" d="M238 680h62c13 0 20 -6 24 -19l194 -642c4 -12 -1 -19 -15 -19h-63c-13 0 -19 7 -22 19l-47 155h-211l-46 -155c-3 -12 -9 -19 -22 -19h-58c-13 0 -18 7 -14 19l194 642c4 13 11 19 24 19zM350 252l-56 182c-12 37 -26 135 -27 146c-2 -9 -15 -101 -28 -144l-57 -184h168zM200 805c-18 0 -19 -10 -19 -38v-7c0 -14 -7 -17 -20 -17h-32c-13 0 -17 8 -16 22l2 32c3 56 39 80 79 80c20 0 43 -6 59 -16l43 -26c14 -8 30 -19 40 -19c17 0 19 10 19 38v7c0 13 9 17 21 17h31c13 0 17 -9 16 -22l-2 -32c-3 -56 -40 -80 -80 -80c-15 0 -40 5 -58 16l-43 26c-14 8 -30 19 -40 19z" />    <glyph glyph-name="Adieresis" unicode="&#xc4;" horiz-adv-x="538" d="M238 680h62c13 0 20 -6 24 -19l194 -642c4 -12 -1 -19 -15 -19h-63c-13 0 -19 7 -22 19l-47 155h-211l-46 -155c-3 -12 -9 -19 -22 -19h-58c-13 0 -18 7 -14 19l194 642c4 13 11 19 24 19zM350 252l-56 182c-12 37 -26 135 -27 146c-2 -9 -15 -101 -28 -144l-57 -184h168zM244 853v-95c0 -14 -4 -19 -18 -19h-35c-13 0 -18 5 -18 19v95c0 14 5 20 18 20h35c14 0 18 -6 18 -20zM365 853v-95c0 -14 -5 -19 -18 -19h-35c-13 0 -18 5 -18 19v95c0 14 5 20 18 20h35c13 0 18 -6 18 -20z" />    <glyph glyph-name="Amacron" unicode="&#x100;" horiz-adv-x="538" d="M238 680h62c13 0 20 -6 24 -19l194 -642c4 -12 -1 -19 -15 -19h-63c-13 0 -19 7 -22 19l-47 155h-211l-46 -155c-3 -12 -9 -19 -22 -19h-58c-13 0 -18 7 -14 19l194 642c4 13 11 19 24 19zM350 252l-56 182c-12 37 -26 135 -27 146c-2 -9 -15 -101 -28 -144l-57 -184h168zM147 836h243c13 0 19 -5 19 -18v-36c0 -13 -6 -19 -19 -19h-243c-13 0 -19 6 -19 19v36c0 13 6 18 19 18z" />    <glyph glyph-name="Abreve" unicode="&#x102;" horiz-adv-x="538" d="M238 680h62c13 0 20 -6 24 -19l194 -642c4 -12 -1 -19 -15 -19h-63c-13 0 -19 7 -22 19l-47 155h-211l-46 -155c-3 -12 -9 -19 -22 -19h-58c-13 0 -18 7 -14 19l194 642c4 13 11 19 24 19zM350 252l-56 182c-12 37 -26 135 -27 146c-2 -9 -15 -101 -28 -144l-57 -184h168zM211 864v-18c0 -33 10 -57 58 -57c47 0 58 24 58 57v18c0 11 4 16 17 16h35c12 0 17 -5 17 -16v-15c0 -73 -39 -118 -129 -118c-91 0 -126 45 -126 118v15c0 11 5 16 17 16h36c12 0 17 -5 17 -16z" />    <glyph glyph-name="Aring" unicode="&#xc5;" horiz-adv-x="538" d="M238 680h62c13 0 20 -6 24 -19l194 -642c4 -12 -1 -19 -15 -19h-63c-13 0 -19 7 -22 19l-47 155h-211l-46 -155c-3 -12 -9 -19 -22 -19h-58c-13 0 -18 7 -14 19l194 642c4 13 11 19 24 19zM350 252l-56 182c-12 37 -26 135 -27 146c-2 -9 -15 -101 -28 -144l-57 -184h168zM369 815v-23c0 -41 -32 -76 -100 -76c-69 0 -100 35 -100 76v23c0 41 31 76 100 76c68 0 100 -35 100 -76zM312 800v7c0 21 -13 34 -43 34c-31 0 -43 -13 -43 -34v-7c0 -21 12 -34 43 -34c30 0 43 13 43 34z" />    <glyph glyph-name="Aringacute" unicode="&#x1fa;" horiz-adv-x="538" d="M238 680h62c13 0 20 -6 24 -19l194 -642c4 -12 -1 -19 -15 -19h-63c-13 0 -19 7 -22 19l-47 155h-211l-46 -155c-3 -12 -9 -19 -22 -19h-58c-13 0 -18 7 -14 19l194 642c4 13 11 19 24 19zM367 815v-23c0 -41 -32 -76 -100 -76c-69 0 -100 35 -100 76v23c0 36 24 67 77 74l31 57c6 11 13 18 26 18h62c14 0 18 -8 10 -19l-48 -66c28 -13 42 -38 42 -64zM350 252l-56 182c-12 37 -26 135 -27 146c-2 -9 -15 -101 -28 -144l-57 -184h168zM310 800v7c0 21 -13 34 -43 34c-31 0 -43 -13 -43 -34v-7c0 -21 12 -34 43 -34c30 0 43 13 43 34z" />    <glyph glyph-name="Aogonek" unicode="&#x104;" horiz-adv-x="538" d="M238 680h62c13 0 20 -6 24 -19l194 -642c4 -12 -1 -19 -15 -19h-19c-43 0 -57 -26 -57 -55c0 -24 12 -41 49 -41h28c13 0 19 -5 19 -18v-28c0 -14 -11 -19 -25 -19h-46c-44 0 -99 22 -99 89c0 23 14 76 60 107l-42 139h-211l-46 -155c-3 -12 -9 -19 -22 -19h-58c-13 0 -18 7 -14 19l194 642c4 13 11 19 24 19zM350 252l-56 182c-14 45 -26 133 -27 146c-2 -9 -16 -103 -28 -144l-57 -184h168z" />    <glyph glyph-name="AE" unicode="&#xc6;" horiz-adv-x="837" d="M426 680h334c14 0 19 -5 19 -18v-43c0 -14 -5 -19 -19 -19h-262v-207h245c13 0 19 -4 19 -18v-40c0 -14 -6 -19 -19 -19h-245v-236h274c13 0 19 -5 19 -18v-43c0 -14 -6 -19 -19 -19h-346c-14 0 -21 5 -21 19v155h-200l-89 -155c-5 -9 -11 -19 -23 -19h-57c-13 0 -21 7 -14 19l377 642c4 7 12 19 27 19zM371 459l-120 -207h154v270c-12 -24 -24 -45 -34 -63z" />    <glyph glyph-name="AEacute" unicode="&#x1fc;" horiz-adv-x="837" d="M426 680h334c14 0 19 -5 19 -18v-43c0 -14 -5 -19 -19 -19h-262v-207h245c13 0 19 -4 19 -18v-40c0 -14 -6 -19 -19 -19h-245v-236h274c13 0 19 -5 19 -18v-43c0 -14 -6 -19 -19 -19h-346c-14 0 -21 5 -21 19v155h-200l-89 -155c-5 -9 -11 -19 -23 -19h-57c-13 0 -21 7 -14 19l377 642c4 7 12 19 27 19zM371 459l-120 -207h154v270c-12 -24 -24 -45 -34 -63zM597 859l-77 -112c-3 -5 -10 -12 -24 -12h-46c-12 0 -17 5 -10 18l59 107c6 11 13 18 26 18h62c14 0 17 -8 10 -19z" />    <glyph glyph-name="Cacute" unicode="&#x106;" horiz-adv-x="559" d="M513 209v-63c0 -82 -49 -154 -221 -154s-221 72 -221 154v388c0 82 49 154 221 154s221 -72 221 -154v-49c0 -14 -5 -20 -18 -20h-58c-14 0 -19 6 -19 20v33c0 54 -35 87 -125 87s-124 -33 -124 -87v-356c0 -54 34 -87 124 -87s125 33 125 87v47c0 13 5 19 19 19h58c13 0 18 -6 18 -19zM403 859l-77 -112c-3 -5 -10 -12 -24 -12h-46c-12 0 -17 5 -10 18l59 107c6 11 13 18 26 18h62c14 0 17 -8 10 -19z" />    <glyph glyph-name="Ccircumflex" unicode="&#x108;" horiz-adv-x="559" d="M513 209v-63c0 -82 -49 -154 -221 -154s-221 72 -221 154v388c0 82 49 154 221 154s221 -72 221 -154v-49c0 -14 -5 -20 -18 -20h-58c-14 0 -19 6 -19 20v33c0 54 -35 87 -125 87s-124 -33 -124 -87v-356c0 -54 34 -87 124 -87s125 33 125 87v47c0 13 5 19 19 19h58c13 0 18 -6 18 -19zM283 820l-41 -67c-5 -9 -14 -18 -27 -18h-45c-13 0 -17 8 -10 18l75 106c8 11 17 19 30 19h35c13 0 22 -8 30 -19l75 -106c7 -10 4 -18 -10 -18h-45c-12 0 -20 8 -26 18z" />    <glyph glyph-name="Ccaron" unicode="&#x10c;" horiz-adv-x="559" d="M513 209v-63c0 -82 -49 -154 -221 -154s-221 72 -221 154v388c0 82 49 154 221 154s221 -72 221 -154v-49c0 -14 -5 -20 -18 -20h-58c-14 0 -19 6 -19 20v33c0 54 -35 87 -125 87s-124 -33 -124 -87v-356c0 -54 34 -87 124 -87s125 33 125 87v47c0 13 5 19 19 19h58c13 0 18 -6 18 -19zM238 859l41 -66l41 66c6 9 14 19 26 19h45c14 0 18 -8 10 -19l-75 -106c-7 -10 -17 -18 -30 -18h-35c-13 0 -22 8 -30 19l-75 105c-8 11 -3 19 10 19h45c13 0 21 -10 27 -19z" />    <glyph glyph-name="Cdotaccent" unicode="&#x10a;" horiz-adv-x="559" d="M327 839v-80c0 -14 -4 -19 -18 -19h-60c-13 0 -18 5 -18 19v80c0 13 5 19 18 19h60c14 0 18 -6 18 -19zM513 209v-63c0 -82 -49 -154 -221 -154s-221 72 -221 154v388c0 82 49 154 221 154s221 -72 221 -154v-49c0 -14 -5 -20 -18 -20h-58c-14 0 -19 6 -19 20v33c0 54 -35 87 -125 87s-124 -33 -124 -87v-356c0 -54 34 -87 124 -87s125 33 125 87v47c0 13 5 19 19 19h58c13 0 18 -6 18 -19z" />    <glyph glyph-name="Ccedilla" unicode="&#xc7;" horiz-adv-x="559" d="M278 -52h34c46 0 85 -24 85 -79c0 -56 -39 -80 -85 -80h-113c-13 0 -19 5 -19 19v20c0 13 6 18 19 18h99c15 0 32 2 32 23s-17 22 -32 22h-66c-24 0 -30 8 -26 24l21 81c-120 16 -156 79 -156 150v388c0 82 49 154 221 154s221 -72 221 -154v-49c0 -14 -5 -20 -18 -20h-58c-14 0 -19 6 -19 20v33c0 54 -35 87 -125 87s-124 -33 -124 -87v-356c0 -54 34 -87 124 -87s125 33 125 87v47c0 13 5 19 19 19h58c13 0 18 -6 18 -19v-63c0 -82 -49 -154 -221 -154h-2z" />    <glyph glyph-name="Dcaron" unicode="&#x10e;" horiz-adv-x="608" d="M309 0h-211c-12 0 -16 7 -16 20v640c0 14 5 20 18 20h209c171 0 228 -72 228 -154v-372c0 -82 -57 -154 -228 -154zM309 597h-130v-514h130c90 0 130 33 130 87v340c0 54 -40 87 -130 87zM260 859l41 -66l41 66c6 9 14 19 26 19h45c14 0 18 -8 10 -19l-75 -106c-7 -10 -17 -18 -30 -18h-35c-13 0 -22 8 -30 19l-75 105c-8 11 -3 19 10 19h45c13 0 21 -10 27 -19z" />    <glyph glyph-name="Dcroat" unicode="&#x110;" horiz-adv-x="608" d="M309 0h-211c-12 0 -16 7 -16 20v287h-56c-13 0 -19 5 -19 18v36c0 14 6 18 19 18h56v281c0 14 5 20 18 20h209c171 0 228 -72 228 -154v-372c0 -82 -57 -154 -228 -154zM309 597h-130v-218h115c13 0 19 -4 19 -18v-36c0 -13 -6 -18 -19 -18h-115v-224h130c90 0 130 33 130 87v340c0 54 -40 87 -130 87z" />    <glyph glyph-name="Egrave" unicode="&#xc8;" horiz-adv-x="519" d="M236 747l-76 111c-8 11 -5 20 9 20h62c14 0 20 -8 26 -19l59 -106c7 -13 2 -19 -9 -19h-47c-13 0 -20 7 -24 13zM453 0h-353c-13 0 -18 6 -18 20v640c0 14 5 20 18 20h342c13 0 19 -5 19 -19v-45c0 -14 -6 -19 -19 -19h-263v-202h245c14 0 20 -5 20 -19v-43c0 -13 -6 -19 -20 -19h-245v-231h274c13 0 19 -4 19 -18v-46c0 -14 -6 -19 -19 -19z" />    <glyph glyph-name="Eacute" unicode="&#xc9;" horiz-adv-x="519" d="M453 0h-353c-13 0 -18 6 -18 20v640c0 14 5 20 18 20h342c13 0 19 -5 19 -19v-45c0 -14 -6 -19 -19 -19h-263v-202h245c14 0 20 -5 20 -19v-43c0 -13 -6 -19 -20 -19h-245v-231h274c13 0 19 -4 19 -18v-46c0 -14 -6 -19 -19 -19zM383 859l-77 -112c-3 -5 -10 -12 -24 -12h-46c-12 0 -17 5 -10 18l59 107c6 11 13 18 26 18h62c14 0 17 -8 10 -19z" />    <glyph glyph-name="Ecircumflex" unicode="&#xca;" horiz-adv-x="519" d="M260 820l-41 -67c-5 -9 -14 -18 -27 -18h-45c-13 0 -17 8 -10 18l75 106c8 11 17 19 30 19h35c13 0 22 -8 30 -19l75 -106c7 -10 4 -18 -10 -18h-45c-12 0 -20 8 -26 18zM453 0h-353c-13 0 -18 6 -18 20v640c0 14 5 20 18 20h342c13 0 19 -5 19 -19v-45c0 -14 -6 -19 -19 -19h-263v-202h245c14 0 20 -5 20 -19v-43c0 -13 -6 -19 -20 -19h-245v-231h274c13 0 19 -4 19 -18v-46c0 -14 -6 -19 -19 -19z" />    <glyph glyph-name="Ecaron" unicode="&#x11a;" horiz-adv-x="519" d="M453 0h-353c-13 0 -18 6 -18 20v640c0 14 5 20 18 20h342c13 0 19 -5 19 -19v-45c0 -14 -6 -19 -19 -19h-263v-202h245c14 0 20 -5 20 -19v-43c0 -13 -6 -19 -20 -19h-245v-231h274c13 0 19 -4 19 -18v-46c0 -14 -6 -19 -19 -19zM219 859l41 -66l41 66c6 9 14 19 26 19h45c14 0 18 -8 10 -19l-75 -106c-7 -10 -17 -18 -30 -18h-35c-13 0 -22 8 -30 19l-75 105c-8 11 -3 19 10 19h45c13 0 21 -10 27 -19z" />    <glyph glyph-name="Edieresis" unicode="&#xcb;" horiz-adv-x="519" d="M453 0h-353c-13 0 -18 6 -18 20v640c0 14 5 20 18 20h342c13 0 19 -5 19 -19v-45c0 -14 -6 -19 -19 -19h-263v-202h245c14 0 20 -5 20 -19v-43c0 -13 -6 -19 -20 -19h-245v-231h274c13 0 19 -4 19 -18v-46c0 -14 -6 -19 -19 -19zM246 853v-95c0 -14 -4 -19 -18 -19h-35c-13 0 -18 5 -18 19v95c0 14 5 20 18 20h35c14 0 18 -6 18 -20zM367 853v-95c0 -14 -5 -19 -18 -19h-35c-13 0 -18 5 -18 19v95c0 14 5 20 18 20h35c13 0 18 -6 18 -20z" />    <glyph glyph-name="Emacron" unicode="&#x112;" horiz-adv-x="519" d="M453 0h-353c-13 0 -18 6 -18 20v640c0 14 5 20 18 20h342c13 0 19 -5 19 -19v-45c0 -14 -6 -19 -19 -19h-263v-202h245c14 0 20 -5 20 -19v-43c0 -13 -6 -19 -20 -19h-245v-231h274c13 0 19 -4 19 -18v-46c0 -14 -6 -19 -19 -19zM143 836h243c13 0 19 -5 19 -18v-36c0 -13 -6 -19 -19 -19h-243c-13 0 -19 6 -19 19v36c0 13 6 18 19 18z" />    <glyph glyph-name="Ebreve" unicode="&#x114;" horiz-adv-x="519" d="M453 0h-353c-13 0 -18 6 -18 20v640c0 14 5 20 18 20h342c13 0 19 -5 19 -19v-45c0 -14 -6 -19 -19 -19h-263v-202h245c14 0 20 -5 20 -19v-43c0 -13 -6 -19 -20 -19h-245v-231h274c13 0 19 -4 19 -18v-46c0 -14 -6 -19 -19 -19zM207 864v-18c0 -33 10 -57 58 -57c47 0 58 24 58 57v18c0 11 4 16 17 16h35c12 0 17 -5 17 -16v-15c0 -73 -39 -118 -129 -118c-91 0 -126 45 -126 118v15c0 11 5 16 17 16h36c12 0 17 -5 17 -16z" />    <glyph glyph-name="Edotaccent" unicode="&#x116;" horiz-adv-x="519" d="M317 839v-80c0 -14 -4 -19 -18 -19h-60c-13 0 -18 5 -18 19v80c0 13 5 19 18 19h60c14 0 18 -6 18 -19zM453 0h-353c-13 0 -18 6 -18 20v640c0 14 5 20 18 20h342c13 0 19 -5 19 -19v-45c0 -14 -6 -19 -19 -19h-263v-202h245c14 0 20 -5 20 -19v-43c0 -13 -6 -19 -20 -19h-245v-231h274c13 0 19 -4 19 -18v-46c0 -14 -6 -19 -19 -19z" />    <glyph glyph-name="Eogonek" unicode="&#x118;" horiz-adv-x="519" d="M453 0h-33c-38 0 -53 -27 -53 -55c0 -24 12 -41 49 -41h28c13 0 19 -5 19 -18v-28c0 -14 -11 -19 -25 -19h-46c-44 0 -99 22 -99 89c0 17 4 46 24 72h-217c-13 0 -18 6 -18 20v640c0 14 5 20 18 20h342c13 0 19 -5 19 -19v-45c0 -14 -6 -19 -19 -19h-263v-202h245c14 0 20 -5 20 -19v-43c0 -13 -6 -19 -20 -19h-245v-231h274c13 0 19 -4 19 -18v-46c0 -14 -6 -19 -19 -19z" />    <glyph glyph-name="Gcircumflex" unicode="&#x11c;" horiz-adv-x="573" d="M286 820l-41 -67c-5 -9 -14 -18 -27 -18h-45c-13 0 -17 8 -10 18l75 106c8 11 17 19 30 19h35c13 0 22 -8 30 -19l75 -106c7 -10 4 -18 -10 -18h-45c-12 0 -20 8 -26 18zM299 340h195c13 0 19 -5 19 -18v-176c0 -82 -49 -154 -221 -154s-221 72 -221 154v388c0 82 49 154 221 154s221 -72 221 -154v-44c0 -13 -5 -19 -18 -19h-58c-14 0 -19 6 -19 19v28c0 54 -35 87 -125 87s-124 -33 -124 -87v-356c0 -54 34 -87 124 -87c89 0 125 32 125 86v96h-119c-13 0 -19 5 -19 19v46c0 13 6 18 19 18z" />    <glyph glyph-name="Gbreve" unicode="&#x11e;" horiz-adv-x="573" d="M299 340h195c13 0 19 -5 19 -18v-176c0 -82 -49 -154 -221 -154s-221 72 -221 154v388c0 82 49 154 221 154s221 -72 221 -154v-44c0 -13 -5 -19 -18 -19h-58c-14 0 -19 6 -19 19v28c0 54 -35 87 -125 87s-124 -33 -124 -87v-356c0 -54 34 -87 124 -87c89 0 125 32 125 86v96h-119c-13 0 -19 5 -19 19v46c0 13 6 18 19 18zM228 864v-18c0 -33 10 -57 58 -57c47 0 58 24 58 57v18c0 11 4 16 17 16h35c12 0 17 -5 17 -16v-15c0 -73 -39 -118 -129 -118c-91 0 -126 45 -126 118v15c0 11 5 16 17 16h36c12 0 17 -5 17 -16z" />    <glyph glyph-name="Gdotaccent" unicode="&#x120;" horiz-adv-x="573" d="M334 836v-80c0 -14 -4 -19 -18 -19h-60c-13 0 -18 5 -18 19v80c0 13 5 19 18 19h60c14 0 18 -6 18 -19zM299 337h195c13 0 19 -5 19 -18v-176c0 -82 -49 -154 -221 -154s-221 72 -221 154v388c0 82 49 154 221 154s221 -72 221 -154v-44c0 -13 -5 -19 -18 -19h-58c-14 0 -19 6 -19 19v28c0 54 -35 87 -125 87s-124 -33 -124 -87v-356c0 -54 34 -87 124 -87c89 0 125 32 125 86v96h-119c-13 0 -19 5 -19 19v46c0 13 6 18 19 18z" />    <glyph glyph-name="Gcommaaccent" unicode="&#x122;" horiz-adv-x="573" d="M253 -97v29c0 13 5 19 19 19h43c14 0 19 -6 19 -19v-34c0 -44 -18 -86 -42 -125c-7 -12 -15 -12 -25 -10l-33 8c-12 3 -15 13 -9 26c18 41 28 53 28 106zM299 340h195c13 0 19 -5 19 -18v-176c0 -82 -49 -154 -221 -154s-221 72 -221 154v388c0 82 49 154 221 154s221 -72 221 -154v-44c0 -13 -5 -19 -18 -19h-58c-14 0 -19 6 -19 19v28c0 54 -35 87 -125 87s-124 -33 -124 -87v-356c0 -54 34 -87 124 -87c89 0 125 32 125 86v96h-119c-13 0 -19 5 -19 19v46c0 13 6 18 19 18z" />    <glyph glyph-name="Hcircumflex" unicode="&#x124;" horiz-adv-x="618" d="M179 660v-263h260v263c0 14 5 20 18 20h62c13 0 18 -6 18 -20v-640c0 -14 -5 -20 -18 -20h-62c-13 0 -18 6 -18 20v294h-260v-294c0 -14 -4 -20 -18 -20h-61c-13 0 -18 6 -18 20v640c0 14 5 20 18 20h61c14 0 18 -6 18 -20zM309 820l-41 -67c-5 -9 -14 -18 -27 -18h-45c-13 0 -17 8 -10 18l75 106c8 11 17 19 30 19h35c13 0 22 -8 30 -19l75 -106c7 -10 4 -18 -10 -18h-45c-12 0 -20 8 -26 18z" />    <glyph glyph-name="Hbar" unicode="&#x126;" horiz-adv-x="618" d="M179 660v-106h260v106c0 14 5 20 18 20h62c13 0 18 -6 18 -20v-106h34c14 0 19 -5 19 -18v-31c0 -13 -5 -18 -19 -18h-34v-467c0 -14 -5 -20 -18 -20h-62c-13 0 -18 6 -18 20v294h-260v-294c0 -14 -4 -20 -18 -20h-61c-13 0 -18 6 -18 20v467h-35c-13 0 -19 5 -19 18v31c0 13 6 18 19 18h35v106c0 14 5 20 18 20h61c14 0 18 -6 18 -20zM179 397h260v90h-260v-90z" />    <glyph glyph-name="Igrave" unicode="&#xcc;" horiz-adv-x="261" d="M179 660v-640c0 -14 -4 -20 -18 -20h-61c-13 0 -18 6 -18 20v640c0 14 5 20 18 20h61c14 0 18 -6 18 -20zM83 747l-76 111c-8 11 -5 20 9 20h62c14 0 20 -8 26 -19l59 -106c7 -13 2 -19 -9 -19h-47c-13 0 -20 7 -24 13z" />    <glyph glyph-name="Iacute" unicode="&#xcd;" horiz-adv-x="261" d="M179 660v-640c0 -14 -4 -20 -18 -20h-61c-13 0 -18 6 -18 20v640c0 14 5 20 18 20h61c14 0 18 -6 18 -20zM251 859l-77 -112c-3 -5 -10 -12 -24 -12h-46c-12 0 -17 5 -10 18l59 107c6 11 13 18 26 18h62c14 0 17 -8 10 -19z" />    <glyph glyph-name="Icircumflex" unicode="&#xce;" horiz-adv-x="261" d="M179 660v-640c0 -14 -4 -20 -18 -20h-61c-13 0 -18 6 -18 20v640c0 14 5 20 18 20h61c14 0 18 -6 18 -20zM131 820l-41 -67c-5 -9 -14 -18 -27 -18h-45c-13 0 -17 8 -10 18l75 106c8 11 17 19 30 19h35c13 0 22 -8 30 -19l75 -106c7 -10 4 -18 -10 -18h-45c-12 0 -20 8 -26 18z" />    <glyph glyph-name="Itilde" unicode="&#x128;" horiz-adv-x="261" d="M179 660v-640c0 -14 -4 -20 -18 -20h-61c-13 0 -18 6 -18 20v640c0 14 5 20 18 20h61c14 0 18 -6 18 -20zM63 805c-18 0 -19 -10 -19 -38v-7c0 -14 -7 -17 -20 -17h-32c-13 0 -17 8 -16 22l2 32c3 56 39 80 79 80c20 0 43 -6 59 -16l43 -26c14 -8 30 -19 40 -19c17 0 19 10 19 38v7c0 13 9 17 21 17h31c13 0 17 -9 16 -22l-2 -32c-3 -56 -40 -80 -80 -80c-15 0 -40 5 -58 16l-43 26c-14 8 -30 19 -40 19z" />    <glyph glyph-name="Idieresis" unicode="&#xcf;" horiz-adv-x="261" d="M179 660v-640c0 -14 -4 -20 -18 -20h-61c-13 0 -18 6 -18 20v640c0 14 5 20 18 20h61c14 0 18 -6 18 -20zM106 853v-95c0 -14 -4 -19 -18 -19h-35c-13 0 -18 5 -18 19v95c0 14 5 20 18 20h35c14 0 18 -6 18 -20zM227 853v-95c0 -14 -5 -19 -18 -19h-35c-13 0 -18 5 -18 19v95c0 14 5 20 18 20h35c13 0 18 -6 18 -20z" />    <glyph glyph-name="Imacron" unicode="&#x12a;" horiz-adv-x="261" d="M179 660v-640c0 -14 -4 -20 -18 -20h-61c-13 0 -18 6 -18 20v640c0 14 5 20 18 20h61c14 0 18 -6 18 -20zM10 836h243c13 0 19 -5 19 -18v-36c0 -13 -6 -19 -19 -19h-243c-13 0 -19 6 -19 19v36c0 13 6 18 19 18z" />    <glyph glyph-name="Ibreve" unicode="&#x12c;" horiz-adv-x="261" d="M179 660v-640c0 -14 -4 -20 -18 -20h-61c-13 0 -18 6 -18 20v640c0 14 5 20 18 20h61c14 0 18 -6 18 -20zM73 864v-18c0 -33 10 -57 58 -57c47 0 58 24 58 57v18c0 11 4 16 17 16h35c12 0 17 -5 17 -16v-15c0 -73 -39 -118 -129 -118c-91 0 -126 45 -126 118v15c0 11 5 16 17 16h36c12 0 17 -5 17 -16z" />    <glyph glyph-name="Idotaccent" unicode="&#x130;" horiz-adv-x="261" d="M179 660v-640c0 -14 -4 -20 -18 -20h-61c-13 0 -18 6 -18 20v640c0 14 5 20 18 20h61c14 0 18 -6 18 -20zM179 839v-80c0 -14 -4 -19 -18 -19h-60c-13 0 -18 5 -18 19v80c0 13 5 19 18 19h60c14 0 18 -6 18 -19z" />    <glyph glyph-name="Iogonek" unicode="&#x12e;" horiz-adv-x="261" d="M179 660v-640c0 -14 -4 -20 -18 -20h-20c-34 0 -51 -27 -51 -55c0 -24 12 -41 49 -41h28c13 0 19 -5 19 -18v-28c0 -14 -11 -19 -25 -19h-46c-44 0 -99 22 -99 89c0 25 13 78 66 108v624c0 14 5 20 18 20h61c14 0 18 -6 18 -20z" />    <glyph glyph-name="IJ" unicode="&#x132;" horiz-adv-x="765" d="M179 660v-640c0 -14 -4 -20 -18 -20h-61c-13 0 -18 6 -18 20v640c0 14 5 20 18 20h61c14 0 18 -6 18 -20zM381 197v-35c0 -54 27 -87 107 -87s103 33 103 87v498c0 14 5 20 18 20h61c14 0 19 -6 19 -20v-514c0 -82 -42 -154 -201 -154c-158 0 -203 72 -203 154v51c0 14 5 20 19 20h59c14 0 18 -6 18 -20z" />    <glyph glyph-name="Jcircumflex" unicode="&#x134;" horiz-adv-x="504" d="M120 197v-35c0 -54 27 -87 107 -87s103 33 103 87v498c0 14 5 20 18 20h61c14 0 19 -6 19 -20v-514c0 -82 -42 -154 -201 -154c-158 0 -203 72 -203 154v51c0 14 5 20 19 20h59c14 0 18 -6 18 -20zM375 820l-41 -67c-5 -9 -14 -18 -27 -18h-45c-13 0 -17 8 -10 18l75 106c8 11 17 19 30 19h35c13 0 22 -8 30 -19l75 -106c7 -10 4 -18 -10 -18h-45c-12 0 -20 8 -26 18z" />    <glyph glyph-name="Kcommaaccent" unicode="&#x136;" horiz-adv-x="564" d="M242 -97v29c0 13 5 19 19 19h43c14 0 19 -6 19 -19v-34c0 -44 -18 -86 -42 -125c-7 -12 -15 -12 -25 -10l-33 8c-12 3 -15 13 -9 26c18 41 28 53 28 106zM287 345l259 -326c7 -9 4 -19 -9 -19h-79c-14 0 -22 9 -29 19l-224 283h-25v-283c0 -13 -5 -19 -19 -19h-61c-13 0 -18 6 -18 19v642c0 13 5 19 18 19h61c14 0 19 -6 19 -19v-286h24l209 286c8 10 18 19 31 19h66c13 0 16 -9 9 -19z" />    <glyph glyph-name="Lacute" unicode="&#x139;" horiz-adv-x="485" d="M251 859l-77 -112c-3 -5 -10 -12 -24 -12h-46c-12 0 -17 5 -10 18l59 107c6 11 13 18 26 18h62c14 0 17 -8 10 -19zM180 660v-577h256c13 0 19 -4 19 -18v-46c0 -14 -6 -19 -19 -19h-338c-11 0 -16 7 -16 20v640c0 14 5 20 19 20h61c13 0 18 -6 18 -20z" />    <glyph glyph-name="Lcaron" unicode="&#x13d;" horiz-adv-x="485" d="M324 672v29c0 13 5 19 19 19h43c14 0 19 -6 19 -19v-34c0 -44 -18 -86 -42 -125c-7 -12 -15 -12 -25 -10l-33 8c-12 3 -15 13 -9 26c18 41 28 53 28 106zM180 660v-577h256c13 0 19 -4 19 -18v-46c0 -14 -6 -19 -19 -19h-338c-11 0 -16 7 -16 20v640c0 14 5 20 19 20h61c13 0 18 -6 18 -20z" />    <glyph glyph-name="Lcommaaccent" unicode="&#x13b;" horiz-adv-x="485" d="M216 -97v29c0 13 5 19 19 19h43c14 0 19 -6 19 -19v-34c0 -44 -18 -86 -42 -125c-7 -12 -15 -12 -25 -10l-33 8c-12 3 -15 13 -9 26c18 41 28 53 28 106zM180 660v-577h256c13 0 19 -4 19 -18v-46c0 -14 -6 -19 -19 -19h-338c-11 0 -16 7 -16 20v640c0 14 5 20 19 20h61c13 0 18 -6 18 -20z" />    <glyph glyph-name="Ldot" unicode="&#x13f;" horiz-adv-x="485" d="M180 660v-577h256c13 0 19 -4 19 -18v-46c0 -14 -6 -19 -19 -19h-338c-11 0 -16 7 -16 20v640c0 14 5 20 19 20h61c13 0 18 -6 18 -20zM419 394v-80c0 -14 -5 -19 -18 -19h-60c-14 0 -19 5 -19 19v80c0 13 5 19 19 19h60c13 0 18 -6 18 -19z" />    <glyph glyph-name="Lslash" unicode="&#x141;" horiz-adv-x="485" d="M180 660v-268l53 22c10 4 20 2 25 -10l9 -21c4 -10 0 -18 -11 -23l-76 -31v-246h256c13 0 19 -4 19 -18v-46c0 -14 -6 -19 -19 -19h-338c-11 0 -16 7 -16 20v269l-41 -17c-11 -4 -18 -2 -24 11l-9 20c-4 10 -1 19 11 24l63 25v308c0 14 5 20 19 20h61c13 0 18 -6 18 -20z" />    <glyph glyph-name="Nacute" unicode="&#x143;" horiz-adv-x="618" d="M536 661v-642c0 -13 -4 -19 -18 -19h-55c-10 0 -14 3 -18 9l-235 412c-22 37 -34 68 -36 72v-474c0 -13 -5 -19 -18 -19h-56c-13 0 -18 6 -18 19v642c0 13 5 19 18 19h56c8 0 13 -3 16 -8l241 -421c13 -23 29 -60 31 -64v474c0 13 6 19 19 19h55c14 0 18 -6 18 -19zM431 859l-77 -112c-3 -5 -10 -12 -24 -12h-46c-12 0 -17 5 -10 18l59 107c6 11 13 18 26 18h62c14 0 17 -8 10 -19z" />    <glyph glyph-name="Ncaron" unicode="&#x147;" horiz-adv-x="618" d="M536 661v-642c0 -13 -4 -19 -18 -19h-55c-10 0 -14 3 -18 9l-235 412c-22 37 -34 68 -36 72v-474c0 -13 -5 -19 -18 -19h-56c-13 0 -18 6 -18 19v642c0 13 5 19 18 19h56c8 0 13 -3 16 -8l241 -421c13 -23 29 -60 31 -64v474c0 13 6 19 19 19h55c14 0 18 -6 18 -19zM268 859l41 -66l41 66c6 9 14 19 26 19h45c14 0 18 -8 10 -19l-75 -106c-7 -10 -17 -18 -30 -18h-35c-13 0 -22 8 -30 19l-75 105c-8 11 -3 19 10 19h45c13 0 21 -10 27 -19z" />    <glyph glyph-name="Ntilde" unicode="&#xd1;" horiz-adv-x="618" d="M536 661v-642c0 -13 -4 -19 -18 -19h-55c-10 0 -14 3 -18 9l-235 412c-22 37 -34 68 -36 72v-474c0 -13 -5 -19 -18 -19h-56c-13 0 -18 6 -18 19v642c0 13 5 19 18 19h56c8 0 13 -3 16 -8l241 -421c13 -23 29 -60 31 -64v474c0 13 6 19 19 19h55c14 0 18 -6 18 -19zM241 805c-18 0 -19 -10 -19 -38v-7c0 -14 -7 -17 -20 -17h-32c-13 0 -17 8 -16 22l2 32c3 56 39 80 79 80c20 0 43 -6 59 -16l43 -26c14 -8 30 -19 40 -19c17 0 19 10 19 38v7c0 13 9 17 21 17h31c13 0 17 -9 16 -22l-2 -32c-3 -56 -40 -80 -80 -80c-15 0 -40 5 -58 16l-43 26c-14 8 -30 19 -40 19z" />    <glyph glyph-name="Ncommaaccent" unicode="&#x145;" horiz-adv-x="618" d="M274 -98v29c0 13 5 19 19 19h43c14 0 19 -6 19 -19v-34c0 -44 -18 -86 -42 -125c-7 -12 -15 -12 -25 -10l-33 8c-12 3 -15 13 -9 26c18 41 28 53 28 106zM536 661v-642c0 -13 -4 -19 -18 -19h-55c-10 0 -14 3 -18 9l-235 412c-22 37 -34 68 -36 72v-474c0 -13 -5 -19 -18 -19h-56c-13 0 -18 6 -18 19v642c0 13 5 19 18 19h56c8 0 13 -3 16 -8l241 -421c14 -24 31 -64 31 -64v474c0 13 6 19 19 19h55c14 0 18 -6 18 -19z" />    <glyph glyph-name="Ograve" unicode="&#xd2;" horiz-adv-x="597" d="M250 747l-76 111c-8 11 -5 20 9 20h62c14 0 20 -8 26 -19l59 -106c7 -13 2 -19 -9 -19h-47c-13 0 -20 7 -24 13zM71 146v388c0 82 56 154 227 154c172 0 228 -72 228 -154v-388c0 -82 -56 -154 -228 -154c-171 0 -227 72 -227 154zM428 162v356c0 54 -40 87 -130 87c-89 0 -129 -33 -129 -87v-356c0 -54 40 -87 129 -87c90 0 130 33 130 87z" />    <glyph glyph-name="Oacute" unicode="&#xd3;" horiz-adv-x="597" d="M410 859l-77 -112c-3 -5 -10 -12 -24 -12h-46c-12 0 -17 5 -10 18l59 107c6 11 13 18 26 18h62c14 0 17 -8 10 -19zM71 146v388c0 82 56 154 227 154c172 0 228 -72 228 -154v-388c0 -82 -56 -154 -228 -154c-171 0 -227 72 -227 154zM428 162v356c0 54 -40 87 -130 87c-89 0 -129 -33 -129 -87v-356c0 -54 40 -87 129 -87c90 0 130 33 130 87z" />    <glyph glyph-name="Ocircumflex" unicode="&#xd4;" horiz-adv-x="597" d="M298 820l-41 -67c-5 -9 -14 -18 -27 -18h-45c-13 0 -17 8 -10 18l75 106c8 11 17 19 30 19h35c13 0 22 -8 30 -19l75 -106c7 -10 4 -18 -10 -18h-45c-12 0 -20 8 -26 18zM71 146v388c0 82 56 154 227 154c172 0 228 -72 228 -154v-388c0 -82 -56 -154 -228 -154c-171 0 -227 72 -227 154zM428 162v356c0 54 -40 87 -130 87c-89 0 -129 -33 -129 -87v-356c0 -54 40 -87 129 -87c90 0 130 33 130 87z" />    <glyph glyph-name="Otilde" unicode="&#xd5;" horiz-adv-x="597" d="M71 146v388c0 82 56 154 227 154c172 0 228 -72 228 -154v-388c0 -82 -56 -154 -228 -154c-171 0 -227 72 -227 154zM428 162v356c0 54 -40 87 -130 87c-89 0 -129 -33 -129 -87v-356c0 -54 40 -87 129 -87c90 0 130 33 130 87zM230 805c-18 0 -19 -10 -19 -38v-7c0 -14 -7 -17 -20 -17h-32c-13 0 -17 8 -16 22l2 32c3 56 39 80 79 80c20 0 43 -6 59 -16l43 -26c14 -8 30 -19 40 -19c17 0 19 10 19 38v7c0 13 9 17 21 17h31c13 0 17 -9 16 -22l-2 -32c-3 -56 -40 -80 -80 -80c-15 0 -40 5 -58 16l-43 26c-14 8 -30 19 -40 19z" />    <glyph glyph-name="Odieresis" unicode="&#xd6;" horiz-adv-x="597" d="M71 146v388c0 82 56 154 227 154c172 0 228 -72 228 -154v-388c0 -82 -56 -154 -228 -154c-171 0 -227 72 -227 154zM428 162v356c0 54 -40 87 -130 87c-89 0 -129 -33 -129 -87v-356c0 -54 40 -87 129 -87c90 0 130 33 130 87zM273 853v-95c0 -14 -4 -19 -18 -19h-35c-13 0 -18 5 -18 19v95c0 14 5 20 18 20h35c14 0 18 -6 18 -20zM394 853v-95c0 -14 -5 -19 -18 -19h-35c-13 0 -18 5 -18 19v95c0 14 5 20 18 20h35c13 0 18 -6 18 -20z" />    <glyph glyph-name="Omacron" unicode="&#x14c;" horiz-adv-x="597" d="M71 146v388c0 82 56 154 227 154c172 0 228 -72 228 -154v-388c0 -82 -56 -154 -228 -154c-171 0 -227 72 -227 154zM428 162v356c0 54 -40 87 -130 87c-89 0 -129 -33 -129 -87v-356c0 -54 40 -87 129 -87c90 0 130 33 130 87zM177 836h243c13 0 19 -5 19 -18v-36c0 -13 -6 -19 -19 -19h-243c-13 0 -19 6 -19 19v36c0 13 6 18 19 18z" />    <glyph glyph-name="Obreve" unicode="&#x14e;" horiz-adv-x="597" d="M71 146v388c0 82 56 154 227 154c172 0 228 -72 228 -154v-388c0 -82 -56 -154 -228 -154c-171 0 -227 72 -227 154zM428 162v356c0 54 -40 87 -130 87c-89 0 -129 -33 -129 -87v-356c0 -54 40 -87 129 -87c90 0 130 33 130 87zM240 864v-18c0 -33 10 -57 58 -57c47 0 58 24 58 57v18c0 11 4 16 17 16h35c12 0 17 -5 17 -16v-15c0 -73 -39 -118 -129 -118c-91 0 -126 45 -126 118v15c0 11 5 16 17 16h36c12 0 17 -5 17 -16z" />    <glyph glyph-name="Ohungarumlaut" unicode="&#x150;" horiz-adv-x="597" d="M467 859l-74 -107c-6 -9 -14 -17 -27 -17h-44c-13 0 -16 7 -9 18l64 106c7 12 16 19 29 19h52c14 0 16 -8 9 -19zM333 859l-59 -106c-6 -11 -12 -18 -25 -18h-44c-13 0 -17 8 -12 18l49 106c5 12 13 19 27 19h51c14 0 19 -9 13 -19zM71 146v388c0 82 56 154 227 154c172 0 228 -72 228 -154v-388c0 -82 -56 -154 -228 -154c-171 0 -227 72 -227 154zM428 162v356c0 54 -40 87 -130 87c-89 0 -129 -33 -129 -87v-356c0 -54 40 -87 129 -87c90 0 130 33 130 87z" />    <glyph glyph-name="Oslash" unicode="&#xd8;" horiz-adv-x="597" d="M71 145v388c0 82 56 154 227 154c61 0 107 -9 142 -25l10 19c6 11 12 30 32 30h18c18 0 11 -16 4 -30l-23 -44c32 -28 45 -65 45 -104v-388c0 -82 -56 -154 -228 -154c-64 0 -111 10 -146 26l-9 -18c-8 -15 -16 -30 -33 -30h-16c-15 0 -13 14 -5 30l23 45c-29 27 -41 63 -41 101zM428 161v356c0 6 -1 12 -2 17l-230 -434c21 -17 55 -26 102 -26c90 0 130 33 130 87zM169 161v-10l228 430c-22 15 -54 23 -99 23c-89 0 -129 -33 -129 -87v-356z" />    <glyph glyph-name="Oslashacute" unicode="&#x1fe;" horiz-adv-x="597" d="M71 145v388c0 82 56 154 227 154c61 0 107 -9 142 -25l10 19c6 11 12 30 32 30h18c18 0 11 -16 4 -30l-23 -44c32 -28 45 -65 45 -104v-388c0 -82 -56 -154 -228 -154c-64 0 -111 10 -146 26l-9 -18c-8 -15 -16 -30 -33 -30h-16c-15 0 -13 14 -5 30l23 45c-29 27 -41 63 -41 101zM428 161v356c0 6 -1 12 -2 17l-230 -434c21 -17 55 -26 102 -26c90 0 130 33 130 87zM169 151l228 430c-22 15 -54 23 -99 23c-89 0 -129 -33 -129 -87v-366zM412 859l-77 -112c-3 -5 -10 -12 -24 -12h-46c-12 0 -17 5 -10 18l59 107c6 11 13 18 26 18h62c14 0 17 -8 10 -19z" />    <glyph glyph-name="OE" unicode="&#x152;" horiz-adv-x="865" d="M71 145v390c0 82 55 153 227 153c56 0 98 -13 130 -31v4c0 13 5 19 19 19h341c14 0 19 -5 19 -18v-44c0 -14 -5 -19 -19 -19h-262v-205h245c13 0 19 -5 19 -18v-42c0 -13 -6 -18 -19 -18h-245v-235h274c13 0 19 -5 19 -18v-44c0 -14 -6 -19 -19 -19h-354c-13 0 -18 6 -18 19v4c-32 -19 -74 -31 -130 -31c-172 0 -227 72 -227 153zM428 157v362c0 55 -40 88 -130 88s-129 -33 -129 -88v-358c0 -55 39 -88 129 -88c87 0 128 31 130 84z" />    <glyph glyph-name="Racute" unicode="&#x154;" horiz-adv-x="594" d="M179 269v-249c0 -14 -4 -20 -18 -20h-61c-13 0 -18 6 -18 20v640c0 14 5 20 18 20h203c172 0 227 -72 227 -154v-104c0 -61 -31 -116 -117 -140l120 -262c5 -12 -4 -20 -18 -20h-60c-14 0 -16 8 -22 20l-113 249h-141zM303 597h-124v-245h124c90 0 130 32 130 87v71c0 54 -40 87 -130 87zM386 859l-77 -112c-3 -5 -10 -12 -24 -12h-46c-12 0 -17 5 -10 18l59 107c6 11 13 18 26 18h62c14 0 17 -8 10 -19z" />    <glyph glyph-name="Rcaron" unicode="&#x158;" horiz-adv-x="594" d="M179 269v-249c0 -14 -4 -20 -18 -20h-61c-13 0 -18 6 -18 20v640c0 14 5 20 18 20h203c172 0 227 -72 227 -154v-104c0 -61 -31 -116 -117 -140l120 -262c5 -12 -4 -20 -18 -20h-60c-14 0 -16 8 -22 20l-113 249h-141zM303 597h-124v-245h124c90 0 130 32 130 87v71c0 54 -40 87 -130 87zM246 859l41 -66l41 66c6 9 14 19 26 19h45c14 0 18 -8 10 -19l-75 -106c-7 -10 -17 -18 -30 -18h-35c-13 0 -22 8 -30 19l-75 105c-8 11 -3 19 10 19h45c13 0 21 -10 27 -19z" />    <glyph glyph-name="Rcommaaccent" unicode="&#x156;" horiz-adv-x="594" d="M179 269v-249c0 -14 -4 -20 -18 -20h-61c-13 0 -18 6 -18 20v640c0 14 5 20 18 20h203c172 0 227 -72 227 -154v-104c0 -61 -31 -116 -117 -140l120 -262c5 -12 -4 -20 -18 -20h-60c-14 0 -16 8 -22 20l-113 249h-141zM303 597h-124v-245h124c90 0 130 32 130 87v71c0 54 -40 87 -130 87zM256 -97v29c0 13 5 19 19 19h43c14 0 19 -6 19 -19v-34c0 -44 -18 -86 -42 -125c-7 -12 -15 -12 -25 -10l-33 8c-12 3 -15 13 -9 26c18 41 28 53 28 106z" />    <glyph glyph-name="Sacute" unicode="&#x15a;" horiz-adv-x="568" d="M410 490v31c0 54 -33 85 -121 85s-121 -31 -121 -85v-20c0 -46 30 -59 51 -67l182 -69c60 -23 110 -62 110 -136v-83c0 -82 -57 -154 -224 -154s-225 72 -225 154v58c0 14 6 20 19 20h59c13 0 18 -6 18 -20v-45c0 -54 38 -85 128 -85s129 31 129 85v47c0 50 -45 67 -84 82l-169 65c-44 17 -89 62 -89 124v57c0 82 52 154 215 154s217 -72 217 -154v-44c0 -13 -5 -19 -18 -19h-59c-14 0 -18 6 -18 19zM405 859l-77 -112c-3 -5 -10 -12 -24 -12h-46c-12 0 -17 5 -10 18l59 107c6 11 13 18 26 18h62c14 0 17 -8 10 -19z" />    <glyph glyph-name="Scircumflex" unicode="&#x15c;" horiz-adv-x="568" d="M410 490v31c0 54 -33 85 -121 85s-121 -31 -121 -85v-20c0 -46 30 -59 51 -67l182 -69c60 -23 110 -62 110 -136v-83c0 -82 -57 -154 -224 -154s-225 72 -225 154v58c0 14 6 20 19 20h59c13 0 18 -6 18 -20v-45c0 -54 38 -85 128 -85s129 31 129 85v47c0 50 -45 67 -84 82l-169 65c-44 17 -89 62 -89 124v57c0 82 52 154 215 154s217 -72 217 -154v-44c0 -13 -5 -19 -18 -19h-59c-14 0 -18 6 -18 19zM284 820l-41 -67c-5 -9 -14 -18 -27 -18h-45c-13 0 -17 8 -10 18l75 106c8 11 17 19 30 19h35c13 0 22 -8 30 -19l75 -106c7 -10 4 -18 -10 -18h-45c-12 0 -20 8 -26 18z" />    <glyph glyph-name="Scaron" unicode="&#x160;" horiz-adv-x="568" d="M410 490v31c0 54 -33 85 -121 85s-121 -31 -121 -85v-20c0 -46 30 -59 51 -67l182 -69c60 -23 110 -62 110 -136v-83c0 -82 -57 -154 -224 -154s-225 72 -225 154v58c0 14 6 20 19 20h59c13 0 18 -6 18 -20v-45c0 -54 38 -85 128 -85s129 31 129 85v47c0 50 -45 67 -84 82l-169 65c-44 17 -89 62 -89 124v57c0 82 52 154 215 154s217 -72 217 -154v-44c0 -13 -5 -19 -18 -19h-59c-14 0 -18 6 -18 19zM245 859l41 -66l41 66c6 9 14 19 26 19h45c14 0 18 -8 10 -19l-75 -106c-7 -10 -17 -18 -30 -18h-35c-13 0 -22 8 -30 19l-75 105c-8 11 -3 19 10 19h45c13 0 21 -10 27 -19z" />    <glyph glyph-name="Scedilla" unicode="&#x15e;" horiz-adv-x="568" d="M293 -52h34c46 0 85 -24 85 -79c0 -56 -39 -80 -85 -80h-113c-13 0 -19 5 -19 19v20c0 13 6 18 19 18h99c15 0 32 2 32 23s-17 22 -32 22h-66c-24 0 -30 8 -26 24l20 79c-132 12 -179 78 -179 152v58c0 14 6 20 19 20h59c13 0 18 -6 18 -20v-45c0 -54 38 -85 128 -85s129 31 129 85v47c0 50 -45 67 -84 82l-169 65c-44 17 -89 62 -89 124v57c0 82 52 154 215 154s217 -72 217 -154v-44c0 -13 -5 -19 -18 -19h-59c-14 0 -18 6 -18 19v31c0 54 -33 85 -121 85s-121 -31 -121 -85v-20c0 -46 30 -59 51 -67l182 -69c60 -23 110 -62 110 -136v-83c0 -79 -53 -148 -206 -153z" />    <glyph glyph-name="Scommaaccent" unicode="&#x218;" horiz-adv-x="568" d="M250 -97v29c0 13 5 19 19 19h43c14 0 19 -6 19 -19v-34c0 -44 -18 -86 -42 -125c-7 -12 -15 -12 -25 -10l-33 8c-12 3 -15 13 -9 26c18 41 28 53 28 106zM410 490v31c0 54 -33 85 -121 85s-121 -31 -121 -85v-20c0 -46 30 -59 51 -67l182 -69c60 -23 110 -62 110 -136v-83c0 -82 -57 -154 -224 -154s-225 72 -225 154v58c0 14 6 20 19 20h59c13 0 18 -6 18 -20v-45c0 -54 38 -85 128 -85s129 31 129 85v47c0 50 -45 67 -84 82l-169 65c-44 17 -89 62 -89 124v57c0 82 52 154 215 154s217 -72 217 -154v-44c0 -13 -5 -19 -18 -19h-59c-14 0 -18 6 -18 19z" />    <glyph glyph-name="Tcaron" unicode="&#x164;" horiz-adv-x="487" d="M34 680h418c13 0 19 -5 19 -19v-45c0 -14 -6 -19 -19 -19h-160v-577c0 -14 -5 -20 -18 -20h-62c-13 0 -18 6 -18 20v577h-160c-14 0 -19 5 -19 19v45c0 14 5 19 19 19zM202 859l41 -66l41 66c6 9 14 19 26 19h45c14 0 18 -8 10 -19l-75 -106c-7 -10 -17 -18 -30 -18h-35c-13 0 -22 8 -30 19l-75 105c-8 11 -3 19 10 19h45c13 0 21 -10 27 -19z" />    <glyph glyph-name="Tcommaaccent" unicode="&#x162;" horiz-adv-x="487" d="M203 -97v29c0 13 5 19 19 19h43c14 0 19 -6 19 -19v-34c0 -44 -18 -86 -42 -125c-7 -12 -15 -12 -25 -10l-33 8c-12 3 -15 13 -9 26c18 41 28 53 28 106zM34 680h418c13 0 19 -5 19 -19v-45c0 -14 -6 -19 -19 -19h-160v-577c0 -14 -5 -20 -18 -20h-62c-13 0 -18 6 -18 20v577h-160c-14 0 -19 5 -19 19v45c0 14 5 19 19 19z" />    <glyph glyph-name="Tbar" unicode="&#x166;" horiz-adv-x="487" d="M34 680h418c13 0 19 -5 19 -19v-45c0 -14 -6 -19 -19 -19h-160v-160h129c13 0 19 -5 19 -18v-30c0 -14 -6 -19 -19 -19h-129v-350c0 -14 -5 -20 -18 -20h-62c-13 0 -18 6 -18 20v350h-126c-13 0 -19 5 -19 19v30c0 13 6 18 19 18h126v160h-160c-14 0 -19 5 -19 19v45c0 14 5 19 19 19z" />    <glyph glyph-name="Ugrave" unicode="&#xd9;" horiz-adv-x="608" d="M262 747l-76 111c-8 11 -5 20 9 20h62c14 0 20 -8 26 -19l59 -106c7 -13 2 -19 -9 -19h-47c-13 0 -20 7 -24 13zM174 660v-498c0 -54 40 -87 129 -87c90 0 131 33 131 87v498c0 14 5 20 18 20h61c14 0 18 -6 18 -20v-514c0 -82 -56 -154 -228 -154c-171 0 -227 72 -227 154v514c0 14 6 20 19 20h61c13 0 18 -6 18 -20z" />    <glyph glyph-name="Uacute" unicode="&#xda;" horiz-adv-x="608" d="M174 660v-498c0 -54 40 -87 129 -87c90 0 131 33 131 87v498c0 14 5 20 18 20h61c14 0 18 -6 18 -20v-514c0 -82 -56 -154 -228 -154c-171 0 -227 72 -227 154v514c0 14 6 20 19 20h61c13 0 18 -6 18 -20zM423 859l-77 -112c-3 -5 -10 -12 -24 -12h-46c-12 0 -17 5 -10 18l59 107c6 11 13 18 26 18h62c14 0 17 -8 10 -19z" />    <glyph glyph-name="Ucircumflex" unicode="&#xdb;" horiz-adv-x="608" d="M304 820l-41 -67c-5 -9 -14 -18 -27 -18h-45c-13 0 -17 8 -10 18l75 106c8 11 17 19 30 19h35c13 0 22 -8 30 -19l75 -106c7 -10 4 -18 -10 -18h-45c-12 0 -20 8 -26 18zM174 660v-498c0 -54 40 -87 129 -87c90 0 131 33 131 87v498c0 14 5 20 18 20h61c14 0 18 -6 18 -20v-514c0 -82 -56 -154 -228 -154c-171 0 -227 72 -227 154v514c0 14 6 20 19 20h61c13 0 18 -6 18 -20z" />    <glyph glyph-name="Utilde" unicode="&#x168;" horiz-adv-x="608" d="M174 660v-498c0 -54 40 -87 129 -87c90 0 131 33 131 87v498c0 14 5 20 18 20h61c14 0 18 -6 18 -20v-514c0 -82 -56 -154 -228 -154c-171 0 -227 72 -227 154v514c0 14 6 20 19 20h61c13 0 18 -6 18 -20zM236 805c-18 0 -19 -10 -19 -38v-7c0 -14 -7 -17 -20 -17h-32c-13 0 -17 8 -16 22l2 32c3 56 39 80 79 80c20 0 43 -6 59 -16l43 -26c14 -8 30 -19 40 -19c17 0 19 10 19 38v7c0 13 9 17 21 17h31c13 0 17 -9 16 -22l-2 -32c-3 -56 -40 -80 -80 -80c-15 0 -40 5 -58 16l-43 26c-14 8 -30 19 -40 19z" />    <glyph glyph-name="Udieresis" unicode="&#xdc;" horiz-adv-x="608" d="M174 660v-498c0 -54 40 -87 129 -87c90 0 131 33 131 87v498c0 14 5 20 18 20h61c14 0 18 -6 18 -20v-514c0 -82 -56 -154 -228 -154c-171 0 -227 72 -227 154v514c0 14 6 20 19 20h61c13 0 18 -6 18 -20zM279 853v-95c0 -14 -4 -19 -18 -19h-35c-13 0 -18 5 -18 19v95c0 14 5 20 18 20h35c14 0 18 -6 18 -20zM400 853v-95c0 -14 -5 -19 -18 -19h-35c-13 0 -18 5 -18 19v95c0 14 5 20 18 20h35c13 0 18 -6 18 -20z" />    <glyph glyph-name="Umacron" unicode="&#x16a;" horiz-adv-x="608" d="M174 660v-498c0 -54 40 -87 129 -87c90 0 131 33 131 87v498c0 14 5 20 18 20h61c14 0 18 -6 18 -20v-514c0 -82 -56 -154 -228 -154c-171 0 -227 72 -227 154v514c0 14 6 20 19 20h61c13 0 18 -6 18 -20zM183 836h243c13 0 19 -5 19 -18v-36c0 -13 -6 -19 -19 -19h-243c-13 0 -19 6 -19 19v36c0 13 6 18 19 18z" />    <glyph glyph-name="Ubreve" unicode="&#x16c;" horiz-adv-x="608" d="M174 660v-498c0 -54 40 -87 129 -87c90 0 131 33 131 87v498c0 14 5 20 18 20h61c14 0 18 -6 18 -20v-514c0 -82 -56 -154 -228 -154c-171 0 -227 72 -227 154v514c0 14 6 20 19 20h61c13 0 18 -6 18 -20zM246 864v-18c0 -33 10 -57 58 -57c47 0 58 24 58 57v18c0 11 4 16 17 16h35c12 0 17 -5 17 -16v-15c0 -73 -39 -118 -129 -118c-91 0 -126 45 -126 118v15c0 11 5 16 17 16h36c12 0 17 -5 17 -16z" />    <glyph glyph-name="Uring" unicode="&#x16e;" horiz-adv-x="608" d="M404 815v-23c0 -41 -32 -76 -100 -76c-69 0 -100 35 -100 76v23c0 41 31 76 100 76c68 0 100 -35 100 -76zM347 800v7c0 21 -13 34 -43 34c-31 0 -43 -13 -43 -34v-7c0 -21 12 -34 43 -34c30 0 43 13 43 34zM174 660v-498c0 -54 40 -87 129 -87c90 0 131 33 131 87v498c0 14 5 20 18 20h61c14 0 18 -6 18 -20v-514c0 -82 -56 -154 -228 -154c-171 0 -227 72 -227 154v514c0 14 6 20 19 20h61c13 0 18 -6 18 -20z" />    <glyph glyph-name="Uhungarumlaut" unicode="&#x170;" horiz-adv-x="608" d="M481 859l-74 -107c-6 -9 -14 -17 -27 -17h-44c-13 0 -16 7 -9 18l64 106c7 12 16 19 29 19h52c14 0 16 -8 9 -19zM347 859l-59 -106c-6 -11 -12 -18 -25 -18h-44c-13 0 -17 8 -12 18l49 106c5 12 13 19 27 19h51c14 0 19 -9 13 -19zM174 660v-498c0 -54 40 -87 129 -87c90 0 131 33 131 87v498c0 14 5 20 18 20h61c14 0 18 -6 18 -20v-514c0 -82 -56 -154 -228 -154c-171 0 -227 72 -227 154v514c0 14 6 20 19 20h61c13 0 18 -6 18 -20z" />    <glyph glyph-name="Uogonek" unicode="&#x172;" horiz-adv-x="608" d="M174 660v-498c0 -54 40 -87 129 -87c90 0 131 33 131 87v498c0 14 5 20 18 20h61c14 0 18 -6 18 -20v-514c0 -34 -10 -70 -36 -96c-32 -31 -75 -54 -75 -108c0 -24 14 -38 48 -38h29c14 0 20 -5 20 -18v-28c0 -14 -12 -19 -25 -19h-52c-43 0 -92 24 -92 85c0 22 5 47 22 72c-20 -3 -42 -4 -67 -4c-171 0 -227 72 -227 154v514c0 14 6 20 19 20h61c13 0 18 -6 18 -20z" />    <glyph glyph-name="Wgrave" unicode="&#x1e80;" horiz-adv-x="817" d="M464 661l104 -416c10 -41 15 -82 16 -87c1 5 9 58 17 87l106 416c3 12 9 19 22 19h54c13 0 17 -6 14 -19l-162 -642c-3 -13 -11 -19 -24 -19h-60c-12 0 -19 7 -22 19l-107 424c-8 29 -12 71 -13 78c-1 -7 -8 -54 -14 -79l-108 -423c-3 -13 -10 -19 -23 -19h-60c-12 0 -19 7 -22 19l-163 642c-3 13 1 19 15 19h62c13 0 20 -7 23 -19l104 -416l16 -77c0 3 5 33 17 77l106 416c3 12 9 19 22 19h57c14 0 20 -7 23 -19zM359 747l-76 111c-8 11 -5 20 9 20h62c14 0 20 -8 26 -19l59 -106c7 -13 2 -19 -9 -19h-47c-13 0 -20 7 -24 13z" />    <glyph glyph-name="Wacute" unicode="&#x1e82;" horiz-adv-x="817" d="M464 661l104 -416c10 -41 15 -82 16 -87c1 5 9 58 17 87l106 416c3 12 9 19 22 19h54c13 0 17 -6 14 -19l-162 -642c-3 -13 -11 -19 -24 -19h-60c-12 0 -19 7 -22 19l-107 424c-8 29 -12 71 -13 78c-1 -7 -8 -54 -14 -79l-108 -423c-3 -13 -10 -19 -23 -19h-60c-12 0 -19 7 -22 19l-163 642c-3 13 1 19 15 19h62c13 0 20 -7 23 -19l104 -416l16 -77c0 3 5 33 17 77l106 416c3 12 9 19 22 19h57c14 0 20 -7 23 -19zM535 859l-77 -112c-3 -5 -10 -12 -24 -12h-46c-12 0 -17 5 -10 18l59 107c6 11 13 18 26 18h62c14 0 17 -8 10 -19z" />    <glyph glyph-name="Wcircumflex" unicode="&#x174;" horiz-adv-x="817" d="M464 661l104 -416c10 -41 15 -82 16 -87c1 5 9 58 17 87l106 416c3 12 9 19 22 19h54c13 0 17 -6 14 -19l-162 -642c-3 -13 -11 -19 -24 -19h-60c-12 0 -19 7 -22 19l-107 424c-8 29 -12 71 -13 78c-1 -7 -8 -54 -14 -79l-108 -423c-3 -13 -10 -19 -23 -19h-60c-12 0 -19 7 -22 19l-163 642c-3 13 1 19 15 19h62c13 0 20 -7 23 -19l104 -416l16 -77c0 3 5 33 17 77l106 416c3 12 9 19 22 19h57c14 0 20 -7 23 -19zM410 820l-41 -67c-5 -9 -14 -18 -27 -18h-45c-13 0 -17 8 -10 18l75 106c8 11 17 19 30 19h35c13 0 22 -8 30 -19l75 -106c7 -10 4 -18 -10 -18h-45c-12 0 -20 8 -26 18z" />    <glyph glyph-name="Wdieresis" unicode="&#x1e84;" horiz-adv-x="817" d="M464 661l104 -416c10 -41 15 -82 16 -87c1 5 9 58 17 87l106 416c3 12 9 19 22 19h54c13 0 17 -6 14 -19l-162 -642c-3 -13 -11 -19 -24 -19h-60c-12 0 -19 7 -22 19l-107 424c-8 29 -12 71 -13 78c-1 -7 -8 -54 -14 -79l-108 -423c-3 -13 -10 -19 -23 -19h-60c-12 0 -19 7 -22 19l-163 642c-3 13 1 19 15 19h62c13 0 20 -7 23 -19l104 -416l16 -77c0 3 5 33 17 77l106 416c3 12 9 19 22 19h57c14 0 20 -7 23 -19zM383 853v-95c0 -14 -4 -19 -18 -19h-35c-13 0 -18 5 -18 19v95c0 14 5 20 18 20h35c14 0 18 -6 18 -20zM504 853v-95c0 -14 -5 -19 -18 -19h-35c-13 0 -18 5 -18 19v95c0 14 5 20 18 20h35c13 0 18 -6 18 -20z" />    <glyph glyph-name="Ygrave" unicode="&#x1ef2;" horiz-adv-x="529" d="M124 661l125 -264l16 -44c1 4 9 31 16 44l133 264c5 10 10 19 22 19h61c13 0 20 -6 13 -19l-196 -391v-251c0 -13 -5 -19 -18 -19h-61c-14 0 -19 6 -19 19v240l-198 402c-6 12 0 19 14 19h69c13 0 17 -7 23 -19zM222 747l-76 111c-8 11 -5 20 9 20h62c14 0 20 -8 26 -19l59 -106c7 -13 2 -19 -9 -19h-47c-13 0 -20 7 -24 13z" />    <glyph glyph-name="Yacute" unicode="&#xdd;" horiz-adv-x="529" d="M124 661l125 -264l16 -44c1 4 9 31 16 44l133 264c5 10 10 19 22 19h61c13 0 20 -6 13 -19l-196 -391v-251c0 -13 -5 -19 -18 -19h-61c-14 0 -19 6 -19 19v240l-198 402c-6 12 0 19 14 19h69c13 0 17 -7 23 -19zM392 859l-77 -112c-3 -5 -10 -12 -24 -12h-46c-12 0 -17 5 -10 18l59 107c6 11 13 18 26 18h62c14 0 17 -8 10 -19z" />    <glyph glyph-name="Ycircumflex" unicode="&#x176;" horiz-adv-x="529" d="M124 661l125 -264c6 -14 15 -41 16 -45c0 2 9 32 16 45l133 264c5 10 10 19 22 19h61c13 0 20 -6 13 -19l-196 -391v-251c0 -13 -5 -19 -18 -19h-61c-14 0 -19 6 -19 19v240l-198 402c-6 12 0 19 14 19h69c13 0 17 -7 23 -19zM264 820l-41 -67c-5 -9 -14 -18 -27 -18h-45c-13 0 -17 8 -10 18l75 106c8 11 17 19 30 19h35c13 0 22 -8 30 -19l75 -106c7 -10 4 -18 -10 -18h-45c-12 0 -20 8 -26 18z" />    <glyph glyph-name="Ydieresis" unicode="&#x178;" horiz-adv-x="529" d="M124 661l125 -264c6 -14 15 -41 16 -45c0 2 9 32 16 45l133 264c5 10 10 19 22 19h61c13 0 20 -6 13 -19l-196 -391v-251c0 -13 -5 -19 -18 -19h-61c-14 0 -19 6 -19 19v240l-198 402c-6 12 0 19 14 19h69c13 0 17 -7 23 -19zM239 853v-95c0 -14 -4 -19 -18 -19h-35c-13 0 -18 5 -18 19v95c0 14 5 20 18 20h35c14 0 18 -6 18 -20zM360 853v-95c0 -14 -5 -19 -18 -19h-35c-13 0 -18 5 -18 19v95c0 14 5 20 18 20h35c13 0 18 -6 18 -20z" />    <glyph glyph-name="Zacute" unicode="&#x179;" horiz-adv-x="500" d="M79 680h352c14 0 20 -5 20 -19v-43c0 -7 -2 -13 -4 -17l-287 -518h288c13 0 19 -4 19 -18v-46c0 -14 -6 -19 -19 -19h-386c-14 0 -19 5 -19 19v46c0 7 2 11 5 17l284 515h-253c-13 0 -19 5 -19 19v45c0 14 6 19 19 19zM378 859l-77 -112c-3 -5 -10 -12 -24 -12h-46c-12 0 -17 5 -10 18l59 107c6 11 13 18 26 18h62c14 0 17 -8 10 -19z" />    <glyph glyph-name="Zcaron" unicode="&#x17d;" horiz-adv-x="500" d="M211 868l42 -66l41 66c6 9 13 19 26 19h45c13 0 18 -8 10 -19l-75 -106c-7 -10 -17 -18 -30 -18h-35c-14 0 -22 8 -30 19l-75 105c-8 11 -3 19 10 19h45c13 0 20 -10 26 -19zM79 680h352c14 0 20 -5 20 -19v-43c0 -7 -2 -13 -4 -17l-287 -518h288c13 0 19 -4 19 -18v-46c0 -14 -6 -19 -19 -19h-386c-14 0 -19 5 -19 19v46c0 7 2 11 5 17l284 515h-253c-13 0 -19 5 -19 19v45c0 14 6 19 19 19z" />    <glyph glyph-name="Zdotaccent" unicode="&#x17b;" horiz-adv-x="500" d="M298 839v-80c0 -14 -4 -19 -18 -19h-60c-13 0 -18 5 -18 19v80c0 13 5 19 18 19h60c14 0 18 -6 18 -19zM79 680h352c14 0 20 -5 20 -19v-43c0 -7 -2 -13 -4 -17l-287 -518h288c13 0 19 -4 19 -18v-46c0 -14 -6 -19 -19 -19h-386c-14 0 -19 5 -19 19v46c0 7 2 11 5 17l284 515h-253c-13 0 -19 5 -19 19v45c0 14 6 19 19 19z" />    <glyph glyph-name="Eng" unicode="&#x14a;" horiz-adv-x="618" d="M536 661v-729c0 -82 -54 -136 -195 -136h-7c-14 0 -20 5 -20 18v41c0 13 6 19 20 19h7c75 0 103 25 103 68v69l-234 410c-19 33 -35 69 -36 72v-474c0 -13 -5 -19 -18 -19h-56c-13 0 -18 6 -18 19v642c0 13 5 19 18 19h56c8 0 13 -3 16 -8l241 -421c10 -18 29 -60 31 -64v474c0 13 6 19 19 19h55c14 0 18 -6 18 -19z" />    <glyph glyph-name="Eth" unicode="&#xd0;" horiz-adv-x="608" d="M309 0h-211c-12 0 -16 7 -16 20v287h-56c-13 0 -19 5 -19 18v36c0 14 6 18 19 18h56v281c0 14 5 20 18 20h209c171 0 228 -72 228 -154v-372c0 -82 -57 -154 -228 -154zM309 597h-130v-218h115c13 0 19 -4 19 -18v-36c0 -13 -6 -18 -19 -18h-115v-224h130c90 0 130 33 130 87v340c0 54 -40 87 -130 87z" />    <glyph glyph-name="Thorn" unicode="&#xde;" horiz-adv-x="572" d="M180 661v-165h123c172 0 227 -72 227 -153v-95c0 -82 -55 -153 -227 -153h-123v-76c0 -13 -5 -19 -19 -19h-61c-13 0 -18 6 -18 19v642c0 13 5 19 18 19h61c14 0 19 -6 19 -19zM303 415h-123v-239h123c90 0 130 33 130 88v63c0 55 -40 88 -130 88z" />    <glyph glyph-name="a" unicode="a" horiz-adv-x="510" d="M67 354v15c0 80 52 135 189 135c141 0 189 -55 189 -135v-349c0 -14 -5 -20 -18 -20h-52c-14 0 -18 6 -19 20l-2 29c-29 -23 -82 -57 -158 -57c-93 0 -141 56 -141 121v48c0 65 46 121 139 121h158v77c0 41 -21 68 -97 68s-99 -24 -99 -65v-8c0 -14 -5 -20 -19 -20h-52c-13 0 -18 6 -18 20zM220 71c61 0 109 33 132 51v86h-138c-50 0 -66 -22 -66 -61v-20c0 -39 22 -56 72 -56z" />    <glyph glyph-name="b" unicode="b" horiz-adv-x="531" d="M143 0h-53c-14 0 -19 6 -19 20v659c0 14 5 20 19 20h58c13 0 18 -6 18 -20v-232c29 22 82 57 164 57c97 0 141 -54 141 -136v-240c0 -82 -44 -136 -141 -136c-84 0 -138 36 -166 58l-2 -30c-1 -14 -5 -20 -19 -20zM376 143v210c0 35 -17 65 -74 65c-65 0 -114 -35 -136 -52v-237c22 -16 71 -51 136 -51c57 0 74 30 74 65z" />    <glyph glyph-name="c" unicode="c" horiz-adv-x="484" d="M252 504c141 0 191 -55 191 -137v-18c0 -14 -5 -19 -18 -19h-54c-14 0 -19 5 -19 19v11c0 42 -23 66 -99 66c-75 0 -98 -24 -98 -66v-224c0 -42 23 -66 98 -66c76 0 99 24 99 66v20c0 13 5 19 19 19h54c13 0 18 -6 18 -19v-27c0 -82 -51 -137 -192 -137s-191 55 -191 137v238c0 82 51 137 192 137z" />    <glyph glyph-name="d" unicode="d" horiz-adv-x="531" d="M369 20l-2 30c-29 -22 -83 -58 -166 -58c-97 0 -141 54 -141 136v240c0 82 44 136 141 136c81 0 134 -35 164 -57v232c0 14 4 20 18 20h58c14 0 19 -6 19 -20v-659c0 -14 -5 -20 -19 -20h-53c-14 0 -18 6 -19 20zM155 353v-210c0 -35 17 -65 74 -65c63 0 114 35 136 51v237c-22 17 -73 52 -136 52c-57 0 -74 -30 -74 -65z" />    <glyph glyph-name="e" unicode="e" horiz-adv-x="495" d="M442 367v-122c0 -12 -5 -18 -17 -18h-272v-92c0 -41 20 -67 100 -67s100 26 100 67v11c0 13 5 19 19 19h51c13 0 19 -6 19 -19v-17c0 -82 -49 -137 -191 -137s-191 55 -191 137v238c0 82 51 137 193 137c141 0 189 -55 189 -137zM153 361v-63h200v63c0 40 -25 67 -100 67c-76 0 -100 -27 -100 -67z" />    <glyph glyph-name="f" unicode="f" horiz-adv-x="333" d="M95 494h6v77c0 82 57 137 199 137h7c13 0 19 -5 19 -19v-42c0 -14 -6 -20 -19 -20h-7c-76 0 -103 -24 -103 -66v-67h98c13 0 19 -5 19 -18v-40c0 -14 -6 -20 -19 -20h-98v-396c0 -14 -5 -20 -19 -20h-58c-13 0 -19 6 -19 20v396h-59c-13 0 -18 6 -18 20v35c0 13 5 18 18 19z" />    <glyph glyph-name="g" unicode="g" horiz-adv-x="531" d="M201 -8c-97 0 -141 54 -141 136v240c0 82 44 136 141 136c83 0 138 -37 166 -60l2 32c1 14 5 20 19 20h53c14 0 19 -6 19 -20v-543c0 -82 -57 -137 -198 -137h-138c-14 0 -20 5 -20 19v42c0 13 6 19 20 19h138c75 0 103 25 103 67v105c-30 -22 -83 -56 -164 -56zM155 353v-210c0 -35 17 -65 74 -65c63 0 114 35 136 51v237c-22 17 -73 52 -136 52c-57 0 -74 -30 -74 -65z" />    <glyph glyph-name="h" unicode="h" horiz-adv-x="536" d="M166 679v-231c29 23 83 56 164 56c93 0 141 -54 141 -128v-356c0 -14 -5 -20 -18 -20h-58c-13 0 -19 6 -19 20v333c0 41 -19 66 -74 66c-64 0 -114 -34 -136 -51v-348c0 -14 -5 -20 -18 -20h-58c-14 0 -19 6 -19 20v659c0 14 5 20 19 20h58c13 0 18 -6 18 -20z" />    <glyph glyph-name="i" unicode="i" d="M166 476v-456c0 -14 -5 -20 -18 -20h-58c-14 0 -19 6 -19 20v456c0 14 5 20 19 20h58c13 0 18 -6 18 -20zM166 679v-90c0 -13 -5 -19 -18 -19h-58c-14 0 -19 6 -19 19v90c0 14 5 20 19 20h58c13 0 18 -6 18 -20z" />    <glyph glyph-name="j" unicode="j" horiz-adv-x="236" d="M166 679v-90c0 -13 -5 -19 -18 -19h-59c-13 0 -18 6 -18 19v90c0 14 5 20 18 20h59c13 0 18 -6 18 -20zM166 476v-543c0 -82 -57 -137 -198 -137h-8c-13 0 -19 5 -19 19v42c0 13 6 19 19 19h8c75 0 103 25 103 67v533c0 14 4 20 18 20h58c13 0 19 -6 19 -20z" />    <glyph glyph-name="k" unicode="k" horiz-adv-x="474" d="M271 281l196 -262c7 -9 4 -19 -9 -19h-64c-14 0 -21 9 -29 19l-170 223h-29v-223c0 -13 -5 -19 -18 -19h-59c-13 0 -18 6 -18 19v661c0 13 5 19 18 19h59c13 0 18 -6 18 -19v-366h28l151 163c8 9 17 19 31 19h63c14 0 18 -11 9 -20z" />    <glyph glyph-name="l" unicode="l" d="M166 679v-659c0 -14 -5 -20 -18 -20h-58c-14 0 -19 6 -19 20v659c0 14 5 20 19 20h58c13 0 18 -6 18 -20z" />    <glyph glyph-name="m" unicode="m" horiz-adv-x="830" d="M90 496h53c14 0 18 -6 19 -19l2 -32c27 23 77 59 160 59c65 0 108 -27 128 -68c24 21 76 68 171 68c93 0 142 -54 142 -128v-356c0 -14 -6 -20 -19 -20h-57c-14 0 -20 6 -20 20v333c0 41 -19 66 -74 66c-66 0 -112 -35 -131 -52c1 -4 1 -9 1 -13v-334c0 -14 -5 -20 -18 -20h-58c-13 0 -19 6 -19 20v333c0 41 -19 66 -74 66c-64 0 -110 -34 -130 -51v-348c0 -14 -5 -20 -18 -20h-58c-14 0 -19 6 -19 20v457c0 13 5 19 19 19z" />    <glyph glyph-name="n" unicode="n" horiz-adv-x="536" d="M90 496h53c14 0 18 -6 19 -19l2 -32c28 24 83 59 166 59c93 0 141 -54 141 -128v-356c0 -14 -5 -20 -18 -20h-58c-13 0 -19 6 -19 20v333c0 41 -19 66 -74 66c-64 0 -114 -34 -136 -51v-348c0 -14 -5 -20 -18 -20h-58c-14 0 -19 6 -19 20v457c0 13 5 19 19 19z" />    <glyph glyph-name="o" unicode="o" horiz-adv-x="520" d="M60 129v238c0 82 59 137 200 137s200 -55 200 -137v-238c0 -82 -59 -137 -200 -137s-200 55 -200 137zM365 137v222c0 43 -30 67 -105 67s-105 -24 -105 -67v-222c0 -43 30 -67 105 -67s105 24 105 67z" />    <glyph glyph-name="p" unicode="p" horiz-adv-x="531" d="M90 496h53c14 0 18 -6 19 -20l2 -31c28 22 82 59 166 59c97 0 141 -54 141 -136v-240c0 -82 -44 -136 -141 -136c-81 0 -135 34 -164 56v-233c0 -13 -5 -19 -18 -19h-58c-14 0 -19 6 -19 19v661c0 14 5 20 19 20zM376 143v210c0 35 -17 65 -74 65c-65 0 -114 -35 -136 -52v-237c22 -16 71 -51 136 -51c57 0 74 30 74 65z" />    <glyph glyph-name="q" unicode="q" horiz-adv-x="531" d="M367 445l2 31c1 14 5 20 19 20h53c14 0 19 -6 19 -20v-661c0 -13 -5 -19 -19 -19h-58c-14 0 -18 6 -18 19v233c-30 -22 -83 -56 -164 -56c-97 0 -141 54 -141 136v240c0 82 44 136 141 136c83 0 137 -37 166 -59zM155 353v-210c0 -35 17 -65 74 -65c63 0 114 35 136 51v237c-22 17 -73 52 -136 52c-57 0 -74 -30 -74 -65z" />    <glyph glyph-name="r" unicode="r" horiz-adv-x="356" d="M321 504c13 0 20 -6 20 -19v-46c0 -14 -7 -19 -20 -20c-75 -5 -132 -44 -155 -64v-335c0 -14 -5 -20 -18 -20h-58c-14 0 -19 6 -19 20v457c0 13 5 19 19 19h53c14 0 18 -6 19 -19l3 -43c27 27 83 70 156 70z" />    <glyph glyph-name="s" unicode="s" horiz-adv-x="468" d="M333 357v24c0 36 -33 53 -95 53c-61 0 -93 -17 -93 -53v-17c0 -26 24 -40 42 -46l150 -52c55 -19 90 -51 90 -98v-56c0 -62 -55 -120 -190 -120c-136 0 -189 58 -189 120v25c0 12 5 18 17 18h53c13 0 17 -6 17 -18v-21c0 -36 38 -53 102 -53c63 0 102 17 102 53v27c0 24 -20 37 -53 48l-150 52c-37 13 -78 51 -78 101v37c0 62 46 123 181 123c134 0 181 -61 181 -123v-24c0 -13 -4 -18 -18 -18h-52c-12 0 -17 5 -17 18z" />    <glyph glyph-name="t" unicode="t" horiz-adv-x="354" d="M191 494h103c13 0 19 -5 19 -18v-40c0 -14 -6 -20 -19 -20h-103v-269c0 -42 26 -66 101 -66h19c13 0 19 -6 19 -20v-42c0 -14 -6 -19 -19 -19h-33c-141 0 -183 49 -183 137v279h-55c-14 0 -19 6 -19 20v35c0 13 5 18 19 19l49 4h6v101c0 14 6 20 19 20h59c13 0 18 -6 18 -20v-101z" />    <glyph glyph-name="u" unicode="u" horiz-adv-x="530" d="M368 19l-2 30c-27 -23 -78 -57 -160 -57c-92 0 -141 53 -141 127v357c0 14 5 20 18 20h58c13 0 19 -6 19 -20v-333c0 -42 19 -66 74 -66c63 0 109 33 130 50v349c0 14 5 20 18 20h59c13 0 18 -6 18 -20v-457c0 -14 -5 -19 -18 -19h-54c-14 0 -18 5 -19 19z" />    <glyph glyph-name="v" unicode="v" horiz-adv-x="450" d="M256 0h-67c-13 0 -16 5 -20 18l-154 458c-4 13 4 20 17 20h61c13 0 18 -8 22 -20l95 -287c9 -28 14 -67 15 -74c1 7 8 49 17 73l100 288c4 12 8 20 21 20h55c13 0 21 -7 17 -20l-160 -458c-4 -13 -7 -18 -19 -18z" />    <glyph glyph-name="w" unicode="w" horiz-adv-x="681" d="M666 476l-129 -458c-4 -13 -7 -18 -20 -18h-69c-13 0 -17 6 -20 18l-75 295c-5 16 -10 45 -10 50l-12 -50l-85 -295c-3 -12 -6 -18 -19 -18h-68c-13 0 -17 5 -20 18l-124 458c-4 13 5 20 18 20h56c13 0 19 -8 22 -20l83 -311c4 -17 7 -42 8 -45l11 45l86 311c3 12 9 20 22 20h58c13 0 18 -8 21 -20l78 -311c6 -25 8 -40 9 -43c0 3 6 29 10 43l83 311c3 12 8 20 21 20h48c13 0 21 -7 17 -20z" />    <glyph glyph-name="x" unicode="x" horiz-adv-x="468" d="M284 249l156 -230c6 -9 4 -19 -10 -19h-64c-13 0 -21 10 -27 19l-113 165l-110 -165c-6 -9 -13 -19 -27 -19h-56c-14 0 -16 10 -10 19l157 233l-152 224c-7 11 -4 20 10 20h64c14 0 21 -9 28 -20l109 -158l103 158c7 11 15 20 28 20h57c13 0 16 -9 9 -20z" />    <glyph glyph-name="y" unicode="y" horiz-adv-x="450" d="M113 476l97 -289c9 -28 14 -65 15 -69c1 5 9 40 18 67l99 291c4 13 9 20 22 20h54c13 0 21 -7 17 -20l-226 -661c-3 -10 -8 -19 -21 -19h-43c-14 0 -22 6 -18 19l56 177l-168 484c-4 13 4 20 17 20h59c13 0 18 -8 22 -20z" />    <glyph glyph-name="z" unicode="z" horiz-adv-x="451" d="M74 496h302c14 0 19 -5 19 -19v-40c0 -5 -1 -11 -4 -15l-234 -344h235c13 0 19 -4 19 -18v-41c0 -14 -6 -19 -19 -19h-332c-13 0 -19 5 -19 19v41c0 7 2 11 4 14l232 343h-203c-13 0 -19 6 -19 19v41c0 14 6 19 19 19z" />    <glyph glyph-name="agrave" unicode="&#xe0;" horiz-adv-x="510" d="M67 354v15c0 80 52 135 189 135c141 0 189 -55 189 -135v-349c0 -14 -5 -20 -18 -20h-52c-14 0 -18 6 -19 20l-2 29c-29 -23 -82 -57 -158 -57c-93 0 -141 56 -141 121v48c0 65 46 121 139 121h158v77c0 41 -21 68 -97 68s-99 -24 -99 -65v-8c0 -14 -5 -20 -19 -20h-52c-13 0 -18 6 -18 20zM220 71c61 0 109 33 132 51v86h-138c-50 0 -66 -22 -66 -61v-20c0 -39 22 -56 72 -56zM229 577l-76 112c-8 11 -5 19 9 19h62c14 0 20 -7 26 -18l59 -107c7 -13 2 -18 -9 -18h-47c-13 0 -20 7 -24 12z" />    <glyph glyph-name="aacute" unicode="&#xe1;" horiz-adv-x="510" d="M67 354v15c0 80 52 135 189 135c141 0 189 -55 189 -135v-349c0 -14 -5 -20 -18 -20h-52c-14 0 -18 6 -19 20l-2 29c-29 -23 -82 -57 -158 -57c-93 0 -141 56 -141 121v48c0 65 46 121 139 121h158v77c0 41 -21 68 -97 68s-99 -24 -99 -65v-8c0 -14 -5 -20 -19 -20h-52c-13 0 -18 6 -18 20zM220 71c61 0 109 33 132 51v86h-138c-50 0 -66 -22 -66 -61v-20c0 -39 22 -56 72 -56zM357 689l-76 -112c-3 -5 -11 -12 -24 -12h-46c-12 0 -17 5 -10 18l59 107c6 11 13 18 26 18h62c14 0 17 -8 9 -19z" />    <glyph glyph-name="acircumflex" unicode="&#xe2;" horiz-adv-x="510" d="M67 354v15c0 80 52 135 189 135c141 0 189 -55 189 -135v-349c0 -14 -5 -20 -18 -20h-52c-14 0 -18 6 -19 20l-2 29c-29 -23 -82 -57 -158 -57c-93 0 -141 56 -141 121v48c0 65 46 121 139 121h158v77c0 41 -21 68 -97 68s-99 -24 -99 -65v-8c0 -14 -5 -20 -19 -20h-52c-13 0 -18 6 -18 20zM220 71c61 0 109 33 132 51v86h-138c-50 0 -66 -22 -66 -61v-20c0 -39 22 -56 72 -56zM257 650l-42 -67c-5 -8 -13 -18 -26 -18h-45c-13 0 -17 8 -10 18l75 106c8 11 16 19 30 19h35c13 0 22 -8 30 -19l75 -106c7 -10 3 -18 -10 -18h-45c-13 0 -20 8 -26 18z" />    <glyph glyph-name="atilde" unicode="&#xe3;" horiz-adv-x="510" d="M67 354v15c0 80 52 135 189 135c141 0 189 -55 189 -135v-349c0 -14 -5 -20 -18 -20h-52c-14 0 -18 6 -19 20l-2 29c-29 -23 -82 -57 -158 -57c-93 0 -141 56 -141 121v48c0 65 46 121 139 121h158v77c0 41 -21 68 -97 68s-99 -24 -99 -65v-8c0 -14 -5 -20 -19 -20h-52c-13 0 -18 6 -18 20zM220 71c61 0 109 33 132 51v86h-138c-50 0 -66 -22 -66 -61v-20c0 -39 22 -56 72 -56zM190 628c-18 0 -19 -10 -19 -38v-7c0 -14 -7 -17 -20 -17h-32c-13 0 -17 8 -16 22l2 32c3 56 39 80 79 80c20 0 43 -6 59 -16l43 -26c14 -8 30 -19 40 -19c17 0 19 10 19 38v7c0 13 9 17 21 17h31c13 0 17 -9 16 -22l-2 -32c-3 -56 -40 -80 -80 -80c-15 0 -40 5 -58 16l-43 26c-14 8 -30 19 -40 19z" />    <glyph glyph-name="adieresis" unicode="&#xe4;" horiz-adv-x="510" d="M67 354v15c0 80 52 135 189 135c141 0 189 -55 189 -135v-349c0 -14 -5 -20 -18 -20h-52c-14 0 -18 6 -19 20l-2 29c-29 -23 -82 -57 -158 -57c-93 0 -141 56 -141 121v48c0 65 46 121 139 121h158v77c0 41 -21 68 -97 68s-99 -24 -99 -65v-8c0 -14 -5 -20 -19 -20h-52c-13 0 -18 6 -18 20zM220 71c61 0 109 33 132 51v86h-138c-50 0 -66 -22 -66 -61v-20c0 -39 22 -56 72 -56zM231 685v-95c0 -14 -5 -19 -18 -19h-35c-13 0 -19 5 -19 19v95c0 14 6 19 19 19h35c13 0 18 -5 18 -19zM352 685v-95c0 -14 -5 -19 -18 -19h-35c-14 0 -19 5 -19 19v95c0 14 5 19 19 19h35c13 0 18 -5 18 -19z" />    <glyph glyph-name="amacron" unicode="&#x101;" horiz-adv-x="510" d="M67 354v15c0 80 52 135 189 135c141 0 189 -55 189 -135v-349c0 -14 -5 -20 -18 -20h-52c-14 0 -18 6 -19 20l-2 29c-29 -23 -82 -57 -158 -57c-93 0 -141 56 -141 121v48c0 65 46 121 139 121h158v77c0 41 -21 68 -97 68s-99 -24 -99 -65v-8c0 -14 -5 -20 -19 -20h-52c-13 0 -18 6 -18 20zM220 71c61 0 109 33 132 51v86h-138c-50 0 -66 -22 -66 -61v-20c0 -39 22 -56 72 -56zM134 659h242c14 0 19 -4 19 -18v-36c0 -13 -5 -18 -19 -18h-242c-14 0 -20 5 -20 18v36c0 14 6 18 20 18z" />    <glyph glyph-name="abreve" unicode="&#x103;" horiz-adv-x="510" d="M67 354v15c0 80 52 135 189 135c141 0 189 -55 189 -135v-349c0 -14 -5 -20 -18 -20h-52c-14 0 -18 6 -19 20l-2 29c-29 -23 -82 -57 -158 -57c-93 0 -141 56 -141 121v48c0 65 46 121 139 121h158v77c0 41 -21 68 -97 68s-99 -24 -99 -65v-8c0 -14 -5 -20 -19 -20h-52c-13 0 -18 6 -18 20zM220 71c61 0 109 33 132 51v86h-138c-50 0 -66 -22 -66 -61v-20c0 -39 22 -56 72 -56zM206 684v-17c0 -33 11 -58 58 -58c48 0 58 25 58 58v17c0 12 4 16 17 16h35c13 0 17 -4 17 -16v-15c0 -73 -39 -117 -129 -117s-125 44 -125 117v15c0 12 5 16 17 16h35c12 0 17 -4 17 -16z" />    <glyph glyph-name="aring" unicode="&#xe5;" horiz-adv-x="510" d="M67 354v15c0 80 52 135 189 135c141 0 189 -55 189 -135v-349c0 -14 -5 -20 -18 -20h-52c-14 0 -18 6 -19 20l-2 29c-29 -23 -82 -57 -158 -57c-93 0 -141 56 -141 121v48c0 65 46 121 139 121h158v77c0 41 -21 68 -97 68s-99 -24 -99 -65v-8c0 -14 -5 -20 -19 -20h-52c-13 0 -18 6 -18 20zM220 71c61 0 109 33 132 51v86h-138c-50 0 -66 -22 -66 -61v-20c0 -39 22 -56 72 -56zM354 653v-33c0 -41 -31 -70 -96 -70s-96 29 -96 70v33c0 41 31 71 96 71s96 -30 96 -71zM302 630v13c0 21 -14 33 -44 33c-31 0 -44 -12 -44 -33v-13c0 -21 13 -33 44 -33c30 0 44 12 44 33z" />    <glyph glyph-name="aringacute" unicode="&#x1fb;" horiz-adv-x="510" d="M67 354v15c0 80 52 135 189 135c141 0 189 -55 189 -135v-349c0 -14 -5 -20 -18 -20h-52c-14 0 -18 6 -19 20l-2 29c-29 -23 -82 -57 -158 -57c-93 0 -141 56 -141 121v48c0 65 46 121 139 121h158v77c0 41 -21 68 -97 68s-99 -24 -99 -65v-8c0 -14 -5 -20 -19 -20h-52c-13 0 -18 6 -18 20zM351 653v-33c0 -41 -31 -70 -96 -70s-96 29 -96 70v33c0 35 22 62 70 69l44 80c6 11 13 18 26 18h62c14 0 17 -8 9 -19l-59 -87c27 -12 40 -35 40 -61zM220 71c61 0 109 33 132 51v86h-138c-50 0 -66 -22 -66 -61v-20c0 -39 22 -56 72 -56zM299 630v13c0 21 -14 33 -44 33c-31 0 -44 -12 -44 -33v-13c0 -21 13 -33 44 -33c30 0 44 12 44 33z" />    <glyph glyph-name="aogonek" unicode="&#x105;" horiz-adv-x="510" d="M67 354v15c0 80 52 135 189 135c141 0 189 -55 189 -135v-349c0 -14 -5 -20 -18 -20h-8c-36 -2 -52 -28 -52 -56c0 -24 14 -40 48 -40h14c13 0 19 -5 19 -18v-28c0 -14 -11 -19 -24 -19h-37c-44 0 -94 28 -94 89c0 25 8 66 62 101l-1 20c-29 -23 -82 -57 -158 -57c-93 0 -141 56 -141 121v48c0 65 46 121 139 121h158v77c0 41 -21 68 -97 68s-99 -24 -99 -65v-8c0 -14 -5 -20 -19 -20h-52c-13 0 -18 6 -18 20zM220 71c61 0 109 33 132 51v86h-138c-50 0 -66 -22 -66 -61v-20c0 -39 22 -56 72 -56z" />    <glyph glyph-name="ae" unicode="&#xe6;" horiz-adv-x="787" d="M734 367v-117c0 -13 -5 -18 -18 -18h-272v-102c0 -42 24 -66 100 -66s101 26 101 68v13c0 13 5 19 18 19h49c14 0 19 -6 19 -19v-17c0 -81 -46 -136 -187 -136c-98 0 -149 25 -173 66c-31 -25 -93 -66 -175 -66c-98 0 -141 55 -141 121v42c0 67 48 121 139 121h157v94c0 38 -25 64 -97 64c-76 0 -99 -25 -99 -67v-13c0 -13 -5 -19 -18 -19h-52c-14 0 -19 6 -19 19v16c0 82 51 134 190 134c78 0 119 -21 140 -53c25 31 69 53 148 53c141 0 190 -55 190 -137zM219 67c61 0 109 38 132 56v88h-141c-45 0 -62 -27 -62 -60v-26c0 -37 26 -58 71 -58zM444 363v-66h201v66c0 42 -25 69 -101 69s-100 -27 -100 -69z" />    <glyph glyph-name="aeacute" unicode="&#x1fd;" horiz-adv-x="787" d="M518 689l-76 -112c-3 -5 -11 -12 -24 -12h-46c-12 0 -17 5 -10 18l59 107c6 11 13 18 26 18h62c14 0 17 -8 9 -19zM734 367v-117c0 -13 -5 -18 -18 -18h-272v-102c0 -42 24 -66 100 -66s101 26 101 68v13c0 13 5 19 18 19h49c14 0 19 -6 19 -19v-17c0 -81 -46 -136 -187 -136c-98 0 -149 25 -173 66c-31 -25 -93 -66 -175 -66c-98 0 -141 55 -141 121v42c0 67 48 121 139 121h157v94c0 38 -25 64 -97 64c-76 0 -99 -25 -99 -67v-13c0 -13 -5 -19 -18 -19h-52c-14 0 -19 6 -19 19v16c0 82 51 134 190 134c78 0 119 -21 140 -53c25 31 69 53 148 53c141 0 190 -55 190 -137zM219 67c61 0 109 38 132 56v88h-141c-45 0 -62 -27 -62 -60v-26c0 -37 26 -58 71 -58zM444 363v-66h201v66c0 42 -25 69 -101 69s-100 -27 -100 -69z" />    <glyph glyph-name="cacute" unicode="&#x107;" horiz-adv-x="485" d="M366 689l-76 -112c-3 -5 -11 -12 -24 -12h-46c-12 0 -17 5 -10 18l59 107c6 11 13 18 26 18h62c14 0 17 -8 9 -19zM252 504c141 0 191 -55 191 -137v-18c0 -14 -5 -19 -18 -19h-54c-14 0 -19 5 -19 19v11c0 42 -23 66 -99 66c-75 0 -98 -24 -98 -66v-224c0 -42 23 -66 98 -66c76 0 99 24 99 66v20c0 13 5 19 19 19h54c13 0 18 -6 18 -19v-27c0 -82 -51 -137 -192 -137s-191 55 -191 137v238c0 82 51 137 192 137z" />    <glyph glyph-name="ccircumflex" unicode="&#x109;" horiz-adv-x="485" d="M243 650l-42 -67c-5 -8 -13 -18 -26 -18h-45c-13 0 -17 8 -10 18l75 106c8 11 16 19 30 19h35c13 0 22 -8 30 -19l75 -106c7 -10 3 -18 -10 -18h-45c-13 0 -20 8 -26 18zM252 504c141 0 191 -55 191 -137v-18c0 -14 -5 -19 -18 -19h-54c-14 0 -19 5 -19 19v11c0 42 -23 66 -99 66c-75 0 -98 -24 -98 -66v-224c0 -42 23 -66 98 -66c76 0 99 24 99 66v20c0 13 5 19 19 19h54c13 0 18 -6 18 -19v-27c0 -82 -51 -137 -192 -137s-191 55 -191 137v238c0 82 51 137 192 137z" />    <glyph glyph-name="ccaron" unicode="&#x10d;" horiz-adv-x="485" d="M201 689l42 -66l41 66c6 9 13 19 26 19h45c13 0 18 -8 10 -19l-75 -106c-7 -10 -17 -18 -30 -18h-35c-14 0 -22 8 -30 19l-75 105c-8 11 -3 19 10 19h45c13 0 20 -10 26 -19zM252 504c141 0 191 -55 191 -137v-18c0 -14 -5 -19 -18 -19h-54c-14 0 -19 5 -19 19v11c0 42 -23 66 -99 66c-75 0 -98 -24 -98 -66v-224c0 -42 23 -66 98 -66c76 0 99 24 99 66v20c0 13 5 19 19 19h54c13 0 18 -6 18 -19v-27c0 -82 -51 -137 -192 -137s-191 55 -191 137v238c0 82 51 137 192 137z" />    <glyph glyph-name="cdotaccent" unicode="&#x10b;" horiz-adv-x="485" d="M252 504c141 0 191 -55 191 -137v-18c0 -14 -5 -19 -18 -19h-54c-14 0 -19 5 -19 19v11c0 42 -23 66 -99 66c-75 0 -98 -24 -98 -66v-224c0 -42 23 -66 98 -66c76 0 99 24 99 66v20c0 13 5 19 19 19h54c13 0 18 -6 18 -19v-27c0 -82 -51 -137 -192 -137s-191 55 -191 137v238c0 82 51 137 192 137zM290 676v-79c0 -14 -5 -19 -18 -19h-60c-13 0 -19 5 -19 19v79c0 14 6 19 19 19h60c13 0 18 -5 18 -19z" />    <glyph glyph-name="ccedilla" unicode="&#xe7;" horiz-adv-x="485" d="M236 -52h34c46 0 85 -24 85 -79c0 -56 -39 -80 -85 -80h-113c-13 0 -19 5 -19 19v20c0 13 6 18 19 18h99c15 0 32 2 32 23s-17 22 -32 22h-66c-24 0 -30 8 -26 24l21 82c-91 15 -125 64 -125 132v238c0 82 51 137 192 137s191 -55 191 -137v-18c0 -14 -5 -19 -18 -19h-54c-14 0 -19 5 -19 19v11c0 42 -23 66 -99 66c-75 0 -98 -24 -98 -66v-224c0 -42 23 -66 98 -66c76 0 99 24 99 66v20c0 13 5 19 19 19h54c13 0 18 -6 18 -19v-27c0 -82 -51 -137 -192 -137h-3z" />    <glyph glyph-name="dcaron" unicode="&#x10f;" horiz-adv-x="605" d="M534 681v29c0 13 5 19 19 19h43c14 0 19 -6 19 -19v-34c0 -44 -18 -86 -42 -125c-7 -12 -15 -12 -25 -10l-33 8c-12 3 -15 13 -9 26c18 41 28 53 28 106zM369 20l-2 30c-29 -22 -83 -58 -166 -58c-97 0 -141 54 -141 136v240c0 82 44 136 141 136c81 0 134 -35 164 -57v232c0 14 4 20 18 20h58c14 0 19 -6 19 -20v-659c0 -14 -5 -20 -19 -20h-53c-14 0 -18 6 -19 20zM155 353v-210c0 -35 17 -65 74 -65c63 0 114 35 136 51v237c-22 17 -73 52 -136 52c-57 0 -74 -30 -74 -65z" />    <glyph glyph-name="dcroat" unicode="&#x111;" horiz-adv-x="531" d="M369 20l-2 30c-29 -22 -83 -58 -166 -58c-97 0 -141 54 -141 136v240c0 82 44 136 141 136c81 0 134 -35 164 -57v105h-127c-14 0 -19 5 -19 18v31c0 13 5 18 19 18h127v60c0 14 4 20 18 20h58c14 0 19 -6 19 -20v-60h35c13 0 19 -5 19 -18v-31c0 -13 -6 -18 -19 -18h-35v-532c0 -14 -5 -20 -19 -20h-53c-14 0 -18 6 -19 20zM155 353v-210c0 -35 17 -65 74 -65c63 0 114 35 136 51v237c-22 17 -73 52 -136 52c-57 0 -74 -30 -74 -65z" />    <glyph glyph-name="egrave" unicode="&#xe8;" horiz-adv-x="495" d="M442 367v-122c0 -12 -5 -18 -17 -18h-272v-92c0 -41 20 -67 100 -67s100 26 100 67v11c0 13 5 19 19 19h51c13 0 19 -6 19 -19v-17c0 -82 -49 -137 -191 -137s-191 55 -191 137v238c0 82 51 137 193 137c141 0 189 -55 189 -137zM153 361v-63h200v63c0 40 -25 67 -100 67c-76 0 -100 -27 -100 -67zM212 577l-76 112c-8 11 -5 19 9 19h62c14 0 20 -7 26 -18l59 -107c7 -13 2 -18 -9 -18h-47c-13 0 -20 7 -24 12z" />    <glyph glyph-name="eacute" unicode="&#xe9;" horiz-adv-x="495" d="M361 689l-76 -112c-3 -5 -11 -12 -24 -12h-46c-12 0 -17 5 -10 18l59 107c6 11 13 18 26 18h62c14 0 17 -8 9 -19zM442 367v-122c0 -12 -5 -18 -17 -18h-272v-92c0 -41 20 -67 100 -67s100 26 100 67v11c0 13 5 19 19 19h51c13 0 19 -6 19 -19v-17c0 -82 -49 -137 -191 -137s-191 55 -191 137v238c0 82 51 137 193 137c141 0 189 -55 189 -137zM153 361v-63h200v63c0 40 -25 67 -100 67c-76 0 -100 -27 -100 -67z" />    <glyph glyph-name="ecircumflex" unicode="&#xea;" horiz-adv-x="495" d="M253 650l-42 -67c-5 -8 -13 -18 -26 -18h-45c-13 0 -17 8 -10 18l75 106c8 11 16 19 30 19h35c13 0 22 -8 30 -19l75 -106c7 -10 3 -18 -10 -18h-45c-13 0 -20 8 -26 18zM442 367v-122c0 -12 -5 -18 -17 -18h-272v-92c0 -41 20 -67 100 -67s100 26 100 67v11c0 13 5 19 19 19h51c13 0 19 -6 19 -19v-17c0 -82 -49 -137 -191 -137s-191 55 -191 137v238c0 82 51 137 193 137c141 0 189 -55 189 -137zM153 361v-63h200v63c0 40 -25 67 -100 67c-76 0 -100 -27 -100 -67z" />    <glyph glyph-name="ecaron" unicode="&#x11b;" horiz-adv-x="495" d="M206 689l42 -66l41 66c6 9 13 19 26 19h45c13 0 18 -8 10 -19l-75 -106c-7 -10 -17 -18 -30 -18h-35c-14 0 -22 8 -30 19l-75 105c-8 11 -3 19 10 19h45c13 0 20 -10 26 -19zM442 367v-122c0 -12 -5 -18 -17 -18h-272v-92c0 -41 20 -67 100 -67s100 26 100 67v11c0 13 5 19 19 19h51c13 0 19 -6 19 -19v-17c0 -82 -49 -137 -191 -137s-191 55 -191 137v238c0 82 51 137 193 137c141 0 189 -55 189 -137zM153 361v-63h200v63c0 40 -25 67 -100 67c-76 0 -100 -27 -100 -67z" />    <glyph glyph-name="edieresis" unicode="&#xeb;" horiz-adv-x="495" d="M227 685v-95c0 -14 -5 -19 -18 -19h-35c-13 0 -19 5 -19 19v95c0 14 6 19 19 19h35c13 0 18 -5 18 -19zM348 685v-95c0 -14 -5 -19 -18 -19h-35c-14 0 -19 5 -19 19v95c0 14 5 19 19 19h35c13 0 18 -5 18 -19zM442 367v-122c0 -12 -5 -18 -17 -18h-272v-92c0 -41 20 -67 100 -67s100 26 100 67v11c0 13 5 19 19 19h51c13 0 19 -6 19 -19v-17c0 -82 -49 -137 -191 -137s-191 55 -191 137v238c0 82 51 137 193 137c141 0 189 -55 189 -137zM153 361v-63h200v63c0 40 -25 67 -100 67c-76 0 -100 -27 -100 -67z" />    <glyph glyph-name="emacron" unicode="&#x113;" horiz-adv-x="495" d="M442 367v-122c0 -12 -5 -18 -17 -18h-272v-92c0 -41 20 -67 100 -67s100 26 100 67v11c0 13 5 19 19 19h51c13 0 19 -6 19 -19v-17c0 -82 -49 -137 -191 -137s-191 55 -191 137v238c0 82 51 137 193 137c141 0 189 -55 189 -137zM153 361v-63h200v63c0 40 -25 67 -100 67c-76 0 -100 -27 -100 -67zM127 659h242c14 0 19 -4 19 -18v-36c0 -13 -5 -18 -19 -18h-242c-14 0 -20 5 -20 18v36c0 14 6 18 20 18z" />    <glyph glyph-name="ebreve" unicode="&#x115;" horiz-adv-x="495" d="M442 367v-122c0 -12 -5 -18 -17 -18h-272v-92c0 -41 20 -67 100 -67s100 26 100 67v11c0 13 5 19 19 19h51c13 0 19 -6 19 -19v-17c0 -82 -49 -137 -191 -137s-191 55 -191 137v238c0 82 51 137 193 137c141 0 189 -55 189 -137zM153 361v-63h200v63c0 40 -25 67 -100 67c-76 0 -100 -27 -100 -67zM189 684v-17c0 -33 11 -58 58 -58c48 0 58 25 58 58v17c0 12 4 16 17 16h35c13 0 17 -4 17 -16v-15c0 -73 -39 -117 -129 -117s-125 44 -125 117v15c0 12 5 16 17 16h35c12 0 17 -4 17 -16z" />    <glyph glyph-name="edotaccent" unicode="&#x117;" horiz-adv-x="495" d="M442 367v-122c0 -12 -5 -18 -17 -18h-272v-92c0 -41 20 -67 100 -67s100 26 100 67v11c0 13 5 19 19 19h51c13 0 19 -6 19 -19v-17c0 -82 -49 -137 -191 -137s-191 55 -191 137v238c0 82 51 137 193 137c141 0 189 -55 189 -137zM153 361v-63h200v63c0 40 -25 67 -100 67c-76 0 -100 -27 -100 -67z" />    <glyph glyph-name="eogonek" unicode="&#x119;" horiz-adv-x="495" d="M442 367v-122c0 -12 -5 -18 -17 -18h-272v-92c0 -41 20 -67 100 -67s100 26 100 67v11c0 13 5 19 19 19h51c13 0 19 -6 19 -19v-17c0 -39 -12 -74 -37 -95c-32 -27 -62 -45 -62 -90c0 -24 15 -40 48 -40h30c14 0 19 -5 19 -18v-28c0 -14 -11 -19 -24 -19h-52c-43 0 -92 22 -92 83c0 22 3 46 20 72c-13 -1 -27 -2 -41 -2c-142 0 -191 55 -191 137v238c0 82 51 137 193 137c141 0 189 -55 189 -137zM153 361v-63h200v63c0 40 -25 67 -100 67c-76 0 -100 -27 -100 -67z" />    <glyph glyph-name="gcircumflex" unicode="&#x11d;" horiz-adv-x="531" d="M266 650l-42 -67c-5 -8 -13 -18 -26 -18h-45c-13 0 -17 8 -10 18l75 106c8 11 16 19 30 19h35c13 0 22 -8 30 -19l75 -106c7 -10 3 -18 -10 -18h-45c-13 0 -20 8 -26 18zM201 -8c-97 0 -141 54 -141 136v240c0 82 44 136 141 136c83 0 138 -37 166 -60l2 32c1 14 5 20 19 20h53c14 0 19 -6 19 -20v-543c0 -82 -57 -137 -198 -137h-138c-14 0 -20 5 -20 19v42c0 13 6 19 20 19h138c75 0 103 25 103 67v105c-30 -22 -83 -56 -164 -56zM155 353v-210c0 -35 17 -65 74 -65c63 0 114 35 136 51v237c-22 17 -73 52 -136 52c-57 0 -74 -30 -74 -65z" />    <glyph glyph-name="gbreve" unicode="&#x11f;" horiz-adv-x="531" d="M201 -8c-97 0 -141 54 -141 136v240c0 82 44 136 141 136c83 0 138 -37 166 -60l2 32c1 14 5 20 19 20h53c14 0 19 -6 19 -20v-543c0 -82 -57 -137 -198 -137h-138c-14 0 -20 5 -20 19v42c0 13 6 19 20 19h138c75 0 103 25 103 67v105c-30 -22 -83 -56 -164 -56zM155 353v-210c0 -35 17 -65 74 -65c63 0 114 35 136 51v237c-22 17 -73 52 -136 52c-57 0 -74 -30 -74 -65zM205 684v-17c0 -33 11 -58 58 -58c48 0 58 25 58 58v17c0 12 4 16 17 16h35c13 0 17 -4 17 -16v-15c0 -73 -39 -117 -129 -117s-125 44 -125 117v15c0 12 5 16 17 16h35c12 0 17 -4 17 -16z" />    <glyph glyph-name="gdotaccent" unicode="&#x121;" horiz-adv-x="531" d="M201 -8c-97 0 -141 54 -141 136v240c0 82 44 136 141 136c83 0 138 -37 166 -60l2 32c1 14 5 20 19 20h53c14 0 19 -6 19 -20v-543c0 -82 -57 -137 -198 -137h-138c-14 0 -20 5 -20 19v42c0 13 6 19 20 19h138c75 0 103 25 103 67v105c-30 -22 -83 -56 -164 -56zM155 353v-210c0 -35 17 -65 74 -65c63 0 114 35 136 51v237c-22 17 -73 52 -136 52c-57 0 -74 -30 -74 -65zM308 676v-79c0 -14 -5 -19 -18 -19h-60c-13 0 -19 5 -19 19v79c0 14 6 19 19 19h60c13 0 18 -5 18 -19z" />    <glyph glyph-name="gcommaaccent" unicode="&#x123;" horiz-adv-x="531" d="M289 618v-29c0 -13 -5 -19 -19 -19h-43c-14 0 -19 6 -19 19v34c0 44 18 86 42 125c7 12 15 12 25 10l33 -8c12 -3 15 -13 9 -26c-18 -41 -28 -53 -28 -106zM201 -8c-97 0 -141 54 -141 136v240c0 82 44 136 141 136c83 0 138 -37 166 -60l2 32c1 14 5 20 19 20h53c14 0 19 -6 19 -20v-543c0 -82 -57 -137 -198 -137h-138c-14 0 -20 5 -20 19v42c0 13 6 19 20 19h138c75 0 103 25 103 67v105c-30 -22 -83 -56 -164 -56zM155 353v-210c0 -35 17 -65 74 -65c63 0 114 35 136 51v237c-22 17 -73 52 -136 52c-57 0 -74 -30 -74 -65z" />    <glyph glyph-name="hcircumflex" unicode="&#x125;" horiz-adv-x="536" d="M166 679v-231c29 23 83 56 164 56c93 0 141 -54 141 -128v-356c0 -14 -5 -20 -18 -20h-58c-13 0 -19 6 -19 20v333c0 41 -19 66 -74 66c-64 0 -114 -34 -136 -51v-348c0 -14 -5 -20 -18 -20h-58c-14 0 -19 6 -19 20v659c0 14 5 20 19 20h58c13 0 18 -6 18 -20zM119 820l-41 -67c-5 -9 -14 -18 -27 -18h-45c-13 0 -17 8 -10 18l75 106c8 11 17 19 30 19h35c13 0 22 -8 30 -19l75 -106c7 -10 4 -18 -10 -18h-45c-12 0 -20 8 -26 18z" />    <glyph glyph-name="hbar" unicode="&#x127;" horiz-adv-x="536" d="M166 679v-60h120c14 0 20 -5 20 -18v-31c0 -13 -6 -19 -20 -19h-120v-103c29 23 83 56 164 56c93 0 141 -54 141 -128v-356c0 -14 -5 -20 -18 -20h-58c-13 0 -19 6 -19 20v333c0 41 -19 66 -74 66c-64 0 -114 -34 -136 -51v-348c0 -14 -5 -20 -18 -20h-58c-14 0 -19 6 -19 20v531h-41c-14 0 -20 6 -20 19v31c0 13 6 18 20 18h41v60c0 14 5 20 19 20h58c13 0 18 -6 18 -20z" />    <glyph glyph-name="igrave" unicode="&#xec;" d="M166 476v-457c0 -13 -5 -19 -18 -19h-59c-13 0 -18 6 -18 19v457c0 14 5 20 18 20h59c13 0 18 -6 18 -20zM72 577l-76 112c-8 11 -5 19 9 19h62c14 0 20 -7 26 -18l59 -107c7 -13 2 -18 -9 -18h-47c-13 0 -20 7 -24 12z" />    <glyph glyph-name="iacute" unicode="&#xed;" d="M237 689l-76 -112c-3 -5 -11 -12 -24 -12h-46c-12 0 -17 5 -10 18l59 107c6 11 13 18 26 18h62c14 0 17 -8 9 -19zM166 476v-457c0 -13 -5 -19 -18 -19h-59c-13 0 -18 6 -18 19v457c0 14 5 20 18 20h59c13 0 18 -6 18 -20z" />    <glyph glyph-name="icircumflex" unicode="&#xee;" d="M121 650l-42 -67c-5 -8 -13 -18 -26 -18h-45c-13 0 -17 8 -10 18l75 106c8 11 16 19 30 19h35c13 0 22 -8 30 -19l75 -106c7 -10 3 -18 -10 -18h-45c-13 0 -20 8 -26 18zM166 476v-457c0 -13 -5 -19 -18 -19h-59c-13 0 -18 6 -18 19v457c0 14 5 20 18 20h59c13 0 18 -6 18 -20z" />    <glyph glyph-name="itilde" unicode="&#x129;" d="M166 476v-457c0 -13 -5 -19 -18 -19h-59c-13 0 -18 6 -18 19v457c0 14 5 20 18 20h59c13 0 18 -6 18 -20zM50 628c-18 0 -19 -10 -19 -38v-7c0 -14 -7 -17 -20 -17h-32c-13 0 -17 8 -16 22l2 32c3 56 39 80 79 80c20 0 43 -6 59 -16l43 -26c14 -8 30 -19 40 -19c17 0 19 10 19 38v7c0 13 9 17 21 17h31c13 0 17 -9 16 -22l-2 -32c-3 -56 -40 -80 -80 -80c-15 0 -40 5 -58 16l-43 26c-14 8 -30 19 -40 19z" />    <glyph glyph-name="idieresis" unicode="&#xef;" d="M95 685v-95c0 -14 -5 -19 -18 -19h-35c-13 0 -19 5 -19 19v95c0 14 6 19 19 19h35c13 0 18 -5 18 -19zM216 685v-95c0 -14 -5 -19 -18 -19h-35c-14 0 -19 5 -19 19v95c0 14 5 19 19 19h35c13 0 18 -5 18 -19zM166 476v-457c0 -13 -5 -19 -18 -19h-59c-13 0 -18 6 -18 19v457c0 14 5 20 18 20h59c13 0 18 -6 18 -20z" />    <glyph glyph-name="imacron" unicode="&#x12b;" d="M166 476v-457c0 -13 -5 -19 -18 -19h-59c-13 0 -18 6 -18 19v457c0 14 5 20 18 20h59c13 0 18 -6 18 -20zM-2 659h242c14 0 19 -4 19 -18v-36c0 -13 -5 -18 -19 -18h-242c-14 0 -20 5 -20 18v36c0 14 6 18 20 18z" />    <glyph glyph-name="ibreve" unicode="&#x12d;" d="M166 476v-457c0 -13 -5 -19 -18 -19h-59c-13 0 -18 6 -18 19v457c0 14 5 20 18 20h59c13 0 18 -6 18 -20zM60 684v-17c0 -33 11 -58 58 -58c48 0 58 25 58 58v17c0 12 4 16 17 16h35c13 0 17 -4 17 -16v-15c0 -73 -39 -117 -129 -117s-125 44 -125 117v15c0 12 5 16 17 16h35c12 0 17 -4 17 -16z" />    <glyph glyph-name="iogonek" unicode="&#x12f;" d="M150 -161h-46c-44 0 -99 22 -99 89c0 25 11 79 66 108v440c0 14 5 20 19 20h58c13 0 18 -6 18 -20v-456c0 -14 -5 -20 -18 -20h-18c-38 -2 -51 -27 -51 -55c0 -24 12 -41 49 -41h28c13 0 19 -5 19 -18v-28c0 -14 -11 -19 -25 -19zM166 679v-90c0 -13 -5 -19 -18 -19h-58c-14 0 -19 6 -19 19v90c0 14 5 20 19 20h58c13 0 18 -6 18 -20z" />    <glyph glyph-name="ij" unicode="&#x133;" horiz-adv-x="473" d="M166 476v-456c0 -14 -5 -20 -18 -20h-58c-14 0 -19 6 -19 20v456c0 14 5 20 19 20h58c13 0 18 -6 18 -20zM166 679v-90c0 -13 -5 -19 -18 -19h-58c-14 0 -19 6 -19 19v90c0 14 5 20 19 20h58c13 0 18 -6 18 -20zM402 679v-90c0 -13 -5 -19 -18 -19h-59c-13 0 -18 6 -18 19v90c0 14 5 20 18 20h59c13 0 18 -6 18 -20zM402 476v-543c0 -82 -57 -137 -198 -137h-8c-13 0 -19 5 -19 19v42c0 13 6 19 19 19h8c75 0 103 25 103 67v533c0 14 4 20 18 20h58c13 0 19 -6 19 -20z" />    <glyph glyph-name="dotlessi" unicode="&#x131;" d="M166 476v-457c0 -13 -5 -19 -18 -19h-59c-13 0 -18 6 -18 19v457c0 14 5 20 18 20h59c13 0 18 -6 18 -20z" />    <glyph glyph-name="dotlessj" unicode="&#x237;" d="M166 476v-544c0 -82 -57 -136 -198 -136h-8c-13 0 -19 5 -19 18v41c0 13 6 19 19 19h8c75 0 103 25 103 68v534c0 14 4 20 18 20h58c14 0 19 -6 19 -20z" />    <glyph glyph-name="jcircumflex" unicode="&#x135;" d="M166 476v-544c0 -82 -57 -136 -198 -136h-8c-13 0 -19 5 -19 18v41c0 13 6 19 19 19h8c75 0 103 25 103 68v534c0 14 4 20 18 20h58c14 0 19 -6 19 -20zM119 650l-42 -67c-5 -8 -13 -18 -26 -18h-45c-13 0 -17 8 -10 18l75 106c8 11 16 19 30 19h35c13 0 22 -8 30 -19l75 -106c7 -10 3 -18 -10 -18h-45c-13 0 -20 8 -26 18z" />    <glyph glyph-name="kcommaaccent" unicode="&#x137;" horiz-adv-x="474" d="M207 -97v29c0 13 5 19 19 19h43c14 0 19 -6 19 -19v-34c0 -44 -18 -86 -42 -125c-7 -12 -15 -12 -25 -10l-33 8c-12 3 -15 13 -9 26c18 41 28 53 28 106zM271 281l196 -262c7 -9 4 -19 -9 -19h-64c-14 0 -21 9 -29 19l-170 223h-29v-223c0 -13 -5 -19 -18 -19h-59c-13 0 -18 6 -18 19v661c0 13 5 19 18 19h59c13 0 18 -6 18 -19v-366h28l151 163c8 9 17 19 31 19h63c14 0 18 -11 9 -20z" />    <glyph glyph-name="kgreenlandic" unicode="&#x138;" horiz-adv-x="474" d="M271 279l196 -260c7 -9 4 -19 -9 -19h-64c-14 0 -21 9 -29 19l-170 220h-29v-220c0 -13 -5 -19 -18 -19h-59c-13 0 -18 6 -18 19v457c0 14 5 20 18 20h59c13 0 18 -6 18 -20v-164h28l151 165c8 9 17 19 31 19h63c14 0 18 -10 9 -20z" />    <glyph glyph-name="lacute" unicode="&#x13a;" d="M240 859l-77 -112c-3 -5 -10 -12 -24 -12h-46c-12 0 -17 5 -10 18l59 107c6 11 13 18 26 18h62c14 0 17 -8 10 -19zM166 679v-659c0 -14 -5 -20 -18 -20h-58c-14 0 -19 6 -19 20v659c0 14 5 20 19 20h58c13 0 18 -6 18 -20z" />    <glyph glyph-name="lcaron" unicode="&#x13e;" horiz-adv-x="311" d="M241 681v29c0 13 5 19 19 19h43c14 0 19 -6 19 -19v-34c0 -44 -18 -86 -42 -125c-7 -12 -15 -12 -25 -10l-33 8c-12 3 -15 13 -9 26c18 41 28 53 28 106zM166 679v-659c0 -14 -5 -20 -18 -20h-58c-14 0 -19 6 -19 20v659c0 14 5 20 19 20h58c13 0 18 -6 18 -20z" />    <glyph glyph-name="lcommaaccent" unicode="&#x13c;" d="M78 -98v29c0 13 5 19 19 19h43c14 0 19 -6 19 -19v-34c0 -44 -18 -86 -42 -125c-7 -12 -15 -12 -25 -10l-33 8c-12 3 -15 13 -9 26c18 41 28 53 28 106zM166 679v-659c0 -14 -5 -20 -18 -20h-58c-14 0 -19 6 -19 20v659c0 14 5 20 19 20h58c13 0 18 -6 18 -20z" />    <glyph glyph-name="ldot" unicode="&#x140;" horiz-adv-x="339" d="M166 679v-659c0 -14 -5 -20 -18 -20h-58c-14 0 -19 6 -19 20v659c0 14 5 20 19 20h58c13 0 18 -6 18 -20zM328 394v-80c0 -14 -5 -19 -18 -19h-60c-14 0 -19 5 -19 19v80c0 13 5 19 19 19h60c13 0 18 -6 18 -19z" />    <glyph glyph-name="lslash" unicode="&#x142;" horiz-adv-x="260" d="M177 679v-285l49 20c10 4 19 2 24 -10l9 -21c4 -10 1 -18 -11 -23l-71 -30v-310c0 -14 -5 -20 -18 -20h-58c-14 0 -19 6 -19 20v271l-48 -19c-12 -5 -20 -2 -25 11l-8 20c-4 10 -1 20 10 24l71 28v324c0 14 5 20 19 20h58c13 0 18 -6 18 -20z" />    <glyph glyph-name="nacute" unicode="&#x144;" horiz-adv-x="536" d="M390 689l-76 -112c-3 -5 -11 -12 -24 -12h-46c-12 0 -17 5 -10 18l59 107c6 11 13 18 26 18h62c14 0 17 -8 9 -19zM90 496h53c14 0 18 -6 19 -19l2 -32c28 24 83 59 166 59c93 0 141 -54 141 -128v-356c0 -14 -5 -20 -18 -20h-58c-13 0 -19 6 -19 20v333c0 41 -19 66 -74 66c-64 0 -114 -34 -136 -51v-348c0 -14 -5 -20 -18 -20h-58c-14 0 -19 6 -19 20v457c0 13 5 19 19 19z" />    <glyph glyph-name="ncaron" unicode="&#x148;" horiz-adv-x="536" d="M226 689l42 -66l41 66c6 9 13 19 26 19h45c13 0 18 -8 10 -19l-75 -106c-7 -10 -17 -18 -30 -18h-35c-14 0 -22 8 -30 19l-75 105c-8 11 -3 19 10 19h45c13 0 20 -10 26 -19zM90 496h53c14 0 18 -6 19 -19l2 -32c28 24 83 59 166 59c93 0 141 -54 141 -128v-356c0 -14 -5 -20 -18 -20h-58c-13 0 -19 6 -19 20v333c0 41 -19 66 -74 66c-64 0 -114 -34 -136 -51v-348c0 -14 -5 -20 -18 -20h-58c-14 0 -19 6 -19 20v457c0 13 5 19 19 19z" />    <glyph glyph-name="ntilde" unicode="&#xf1;" horiz-adv-x="536" d="M90 496h53c14 0 18 -6 19 -19l2 -32c28 24 83 59 166 59c93 0 141 -54 141 -128v-356c0 -14 -5 -20 -18 -20h-58c-13 0 -19 6 -19 20v333c0 41 -19 66 -74 66c-64 0 -114 -34 -136 -51v-348c0 -14 -5 -20 -18 -20h-58c-14 0 -19 6 -19 20v457c0 13 5 19 19 19zM197 634c-18 0 -19 -10 -19 -38v-7c0 -14 -7 -17 -20 -17h-32c-13 0 -17 8 -16 22l2 32c3 56 39 80 79 80c20 0 43 -6 59 -16l43 -26c14 -8 30 -19 40 -19c17 0 19 10 19 38v7c0 13 9 17 21 17h31c13 0 17 -9 16 -22l-2 -32c-3 -56 -40 -80 -80 -80c-15 0 -40 5 -58 16l-43 26c-14 8 -30 19 -40 19z" />    <glyph glyph-name="ncommaaccent" unicode="&#x146;" horiz-adv-x="536" d="M230 -97v29c0 13 5 19 19 19h43c14 0 19 -6 19 -19v-34c0 -44 -18 -86 -42 -125c-7 -12 -15 -12 -25 -10l-33 8c-12 3 -15 13 -9 26c18 41 28 53 28 106zM90 496h53c14 0 18 -6 19 -19l2 -32c28 24 83 59 166 59c93 0 141 -54 141 -128v-356c0 -14 -5 -20 -18 -20h-58c-13 0 -19 6 -19 20v333c0 41 -19 66 -74 66c-64 0 -114 -34 -136 -51v-348c0 -14 -5 -20 -18 -20h-58c-14 0 -19 6 -19 20v457c0 13 5 19 19 19z" />    <glyph glyph-name="napostrophe" unicode="&#x149;" horiz-adv-x="536" d="M66 681v29c0 13 5 19 19 19h43c14 0 19 -6 19 -19v-34c0 -44 -18 -86 -42 -125c-7 -12 -15 -12 -25 -10l-33 8c-12 3 -15 13 -9 26c18 41 28 53 28 106zM90 496h53c14 0 18 -6 19 -19l2 -32c28 24 83 59 166 59c93 0 141 -54 141 -128v-356c0 -14 -5 -20 -18 -20h-58c-13 0 -19 6 -19 20v333c0 41 -19 66 -74 66c-64 0 -114 -34 -136 -51v-348c0 -14 -5 -20 -18 -20h-58c-14 0 -19 6 -19 20v457c0 13 5 19 19 19z" />    <glyph glyph-name="ograve" unicode="&#xf2;" horiz-adv-x="520" d="M60 129v238c0 82 59 137 200 137s200 -55 200 -137v-238c0 -82 -59 -137 -200 -137s-200 55 -200 137zM365 137v222c0 43 -30 67 -105 67s-105 -24 -105 -67v-222c0 -43 30 -67 105 -67s105 24 105 67zM219 577l-76 112c-8 11 -5 19 9 19h62c14 0 20 -7 26 -18l59 -107c7 -13 2 -18 -9 -18h-47c-13 0 -20 7 -24 12z" />    <glyph glyph-name="oacute" unicode="&#xf3;" horiz-adv-x="520" d="M376 689l-76 -112c-3 -5 -11 -12 -24 -12h-46c-12 0 -17 5 -10 18l59 107c6 11 13 18 26 18h62c14 0 17 -8 9 -19zM60 129v238c0 82 59 137 200 137s200 -55 200 -137v-238c0 -82 -59 -137 -200 -137s-200 55 -200 137zM365 137v222c0 43 -30 67 -105 67s-105 -24 -105 -67v-222c0 -43 30 -67 105 -67s105 24 105 67z" />    <glyph glyph-name="ocircumflex" unicode="&#xf4;" horiz-adv-x="520" d="M262 650l-42 -67c-5 -8 -13 -18 -26 -18h-45c-13 0 -17 8 -10 18l75 106c8 11 16 19 30 19h35c13 0 22 -8 30 -19l75 -106c7 -10 3 -18 -10 -18h-45c-13 0 -20 8 -26 18zM60 129v238c0 82 59 137 200 137s200 -55 200 -137v-238c0 -82 -59 -137 -200 -137s-200 55 -200 137zM365 137v222c0 43 -30 67 -105 67s-105 -24 -105 -67v-222c0 -43 30 -67 105 -67s105 24 105 67z" />    <glyph glyph-name="otilde" unicode="&#xf5;" horiz-adv-x="520" d="M60 129v238c0 82 59 137 200 137s200 -55 200 -137v-238c0 -82 -59 -137 -200 -137s-200 55 -200 137zM365 137v222c0 43 -30 67 -105 67s-105 -24 -105 -67v-222c0 -43 30 -67 105 -67s105 24 105 67zM193 628c-18 0 -19 -10 -19 -38v-7c0 -14 -7 -17 -20 -17h-32c-13 0 -17 8 -16 22l2 32c3 56 39 80 79 80c20 0 43 -6 59 -16l43 -26c14 -8 30 -19 40 -19c17 0 19 10 19 38v7c0 13 9 17 21 17h31c13 0 17 -9 16 -22l-2 -32c-3 -56 -40 -80 -80 -80c-15 0 -40 5 -58 16l-43 26c-14 8 -30 19 -40 19z" />    <glyph glyph-name="odieresis" unicode="&#xf6;" horiz-adv-x="520" d="M236 685v-95c0 -14 -5 -19 -18 -19h-35c-13 0 -19 5 -19 19v95c0 14 6 19 19 19h35c13 0 18 -5 18 -19zM357 685v-95c0 -14 -5 -19 -18 -19h-35c-14 0 -19 5 -19 19v95c0 14 5 19 19 19h35c13 0 18 -5 18 -19zM60 129v238c0 82 59 137 200 137s200 -55 200 -137v-238c0 -82 -59 -137 -200 -137s-200 55 -200 137zM365 137v222c0 43 -30 67 -105 67s-105 -24 -105 -67v-222c0 -43 30 -67 105 -67s105 24 105 67z" />    <glyph glyph-name="omacron" unicode="&#x14d;" horiz-adv-x="520" d="M139 659h242c14 0 19 -4 19 -18v-36c0 -13 -5 -18 -19 -18h-242c-14 0 -20 5 -20 18v36c0 14 6 18 20 18zM60 129v238c0 82 59 137 200 137s200 -55 200 -137v-238c0 -82 -59 -137 -200 -137s-200 55 -200 137zM365 137v222c0 43 -30 67 -105 67s-105 -24 -105 -67v-222c0 -43 30 -67 105 -67s105 24 105 67z" />    <glyph glyph-name="obreve" unicode="&#x14f;" horiz-adv-x="520" d="M60 129v238c0 82 59 137 200 137s200 -55 200 -137v-238c0 -82 -59 -137 -200 -137s-200 55 -200 137zM365 137v222c0 43 -30 67 -105 67s-105 -24 -105 -67v-222c0 -43 30 -67 105 -67s105 24 105 67zM199 684v-17c0 -33 11 -58 58 -58c48 0 58 25 58 58v17c0 12 4 16 17 16h35c13 0 17 -4 17 -16v-15c0 -73 -39 -117 -129 -117s-125 44 -125 117v15c0 12 5 16 17 16h35c12 0 17 -4 17 -16z" />    <glyph glyph-name="ohungarumlaut" unicode="&#x151;" horiz-adv-x="520" d="M436 689l-74 -107c-6 -9 -15 -17 -28 -17h-43c-13 0 -17 7 -10 18l64 106c7 12 16 19 30 19h51c14 0 17 -9 10 -19zM302 689l-60 -106c-6 -11 -11 -18 -25 -18h-43c-13 0 -18 8 -13 18l50 106c6 12 13 19 26 19h52c14 0 19 -9 13 -19zM60 129v238c0 82 59 137 200 137s200 -55 200 -137v-238c0 -82 -59 -137 -200 -137s-200 55 -200 137zM365 137v222c0 43 -30 67 -105 67s-105 -24 -105 -67v-222c0 -43 30 -67 105 -67s105 24 105 67z" />    <glyph glyph-name="oslash" unicode="&#xf8;" horiz-adv-x="520" d="M60 129v238c0 82 59 137 200 137c42 0 78 -5 106 -14l5 9c8 15 13 30 32 30h20c18 0 11 -14 2 -30l-17 -30c36 -24 52 -59 52 -102v-238c0 -82 -59 -137 -200 -137c-44 0 -79 6 -108 15l-4 -8c-11 -21 -13 -30 -34 -30h-17c-17 0 -10 18 -3 30l16 28c-35 24 -50 60 -50 102zM365 137v222c0 9 -1 17 -4 24l-168 -303c16 -7 38 -10 67 -10c75 0 105 24 105 67zM155 137c0 -8 0 -16 3 -23l167 302c-16 7 -38 10 -65 10c-75 0 -105 -24 -105 -67v-222z" />    <glyph glyph-name="oslashacute" unicode="&#x1ff;" horiz-adv-x="520" d="M60 129v238c0 82 59 137 200 137c42 0 78 -5 106 -14l5 9c8 15 13 30 32 30h20c18 0 11 -14 2 -30l-17 -30c36 -24 52 -59 52 -102v-238c0 -82 -59 -137 -200 -137c-44 0 -79 6 -108 15l-4 -8c-11 -21 -13 -30 -34 -30h-17c-17 0 -10 18 -3 30l16 28c-35 24 -50 60 -50 102zM365 137v222c0 9 -1 17 -4 24l-168 -303c16 -7 38 -10 67 -10c75 0 105 24 105 67zM155 137c0 -8 0 -16 3 -23l167 302c-16 7 -38 10 -65 10c-75 0 -105 -24 -105 -67v-222zM380 689l-76 -112c-3 -5 -11 -12 -24 -12h-46c-12 0 -17 5 -10 18l59 107c6 11 13 18 26 18h62c14 0 17 -8 9 -19z" />    <glyph glyph-name="oe" unicode="&#x153;" horiz-adv-x="801" d="M60 128v239c0 82 59 137 200 137c73 0 119 -15 146 -40c30 25 79 40 152 40c141 0 190 -55 190 -137v-117c0 -13 -5 -18 -18 -18h-272v-100c0 -42 24 -68 100 -68s101 26 101 68v13c0 13 5 19 18 19h49c14 0 19 -6 19 -19v-17c0 -81 -46 -136 -187 -136c-73 0 -122 14 -152 40c-27 -26 -73 -40 -146 -40c-141 0 -200 55 -200 136zM365 136v224c0 43 -30 68 -105 68s-105 -25 -105 -68v-224c0 -44 30 -68 105 -68s105 24 105 68zM458 363v-66h201v66c0 42 -25 69 -101 69s-100 -27 -100 -69z" />    <glyph glyph-name="racute" unicode="&#x155;" horiz-adv-x="356" d="M266 689l-76 -112c-3 -5 -11 -12 -24 -12h-46c-12 0 -17 5 -10 18l59 107c6 11 13 18 26 18h62c14 0 17 -8 9 -19zM321 504c13 0 20 -6 20 -19v-46c0 -14 -7 -19 -20 -20c-75 -5 -132 -44 -155 -64v-335c0 -14 -5 -20 -18 -20h-58c-14 0 -19 6 -19 20v457c0 13 5 19 19 19h53c14 0 18 -6 19 -19l3 -43c27 27 83 70 156 70z" />    <glyph glyph-name="rcommaaccent" unicode="&#x157;" horiz-adv-x="356" d="M79 -97v29c0 13 5 19 19 19h43c14 0 19 -6 19 -19v-34c0 -44 -18 -86 -42 -125c-7 -12 -15 -12 -25 -10l-33 8c-12 3 -15 13 -9 26c18 41 28 53 28 106zM321 504c13 0 20 -6 20 -19v-46c0 -14 -7 -19 -20 -20c-75 -5 -132 -44 -155 -64v-335c0 -14 -5 -20 -18 -20h-58c-14 0 -19 6 -19 20v457c0 13 5 19 19 19h53c14 0 18 -6 19 -19l3 -43c27 27 83 70 156 70z" />    <glyph glyph-name="rcaron" unicode="&#x159;" horiz-adv-x="356" d="M136 689l42 -66l41 66c6 9 13 19 26 19h45c13 0 18 -8 10 -19l-75 -106c-7 -10 -17 -18 -30 -18h-35c-14 0 -22 8 -30 19l-75 105c-8 11 -3 19 10 19h45c13 0 20 -10 26 -19zM321 504c13 0 20 -6 20 -19v-46c0 -14 -7 -19 -20 -20c-75 -5 -132 -44 -155 -64v-335c0 -14 -5 -20 -18 -20h-58c-14 0 -19 6 -19 20v457c0 13 5 19 19 19h53c14 0 18 -6 19 -19l3 -43c27 27 83 70 156 70z" />    <glyph glyph-name="sacute" unicode="&#x15b;" horiz-adv-x="468" d="M358 689l-76 -112c-3 -5 -11 -12 -24 -12h-46c-12 0 -17 5 -10 18l59 107c6 11 13 18 26 18h62c14 0 17 -8 9 -19zM333 357v24c0 36 -33 53 -95 53c-61 0 -93 -17 -93 -53v-17c0 -26 24 -40 42 -46l150 -52c55 -19 90 -51 90 -98v-56c0 -62 -55 -120 -190 -120c-136 0 -189 58 -189 120v25c0 12 5 18 17 18h53c13 0 17 -6 17 -18v-21c0 -36 38 -53 102 -53c63 0 102 17 102 53v27c0 24 -20 37 -53 48l-150 52c-37 13 -78 51 -78 101v37c0 62 46 123 181 123c134 0 181 -61 181 -123v-24c0 -13 -4 -18 -18 -18h-52c-12 0 -17 5 -17 18z" />    <glyph glyph-name="scircumflex" unicode="&#x15d;" horiz-adv-x="468" d="M234 650l-42 -67c-5 -8 -13 -18 -26 -18h-45c-13 0 -17 8 -10 18l75 106c8 11 16 19 30 19h35c13 0 22 -8 30 -19l75 -106c7 -10 3 -18 -10 -18h-45c-13 0 -20 8 -26 18zM333 357v24c0 36 -33 53 -95 53c-61 0 -93 -17 -93 -53v-17c0 -26 24 -40 42 -46l150 -52c55 -19 90 -51 90 -98v-56c0 -62 -55 -120 -190 -120c-136 0 -189 58 -189 120v25c0 12 5 18 17 18h53c13 0 17 -6 17 -18v-21c0 -36 38 -53 102 -53c63 0 102 17 102 53v27c0 24 -20 37 -53 48l-150 52c-37 13 -78 51 -78 101v37c0 62 46 123 181 123c134 0 181 -61 181 -123v-24c0 -13 -4 -18 -18 -18h-52c-12 0 -17 5 -17 18z" />    <glyph glyph-name="scaron" unicode="&#x161;" horiz-adv-x="468" d="M197 689l42 -66l41 66c6 9 13 19 26 19h45c13 0 18 -8 10 -19l-75 -106c-7 -10 -17 -18 -30 -18h-35c-14 0 -22 8 -30 19l-75 105c-8 11 -3 19 10 19h45c13 0 20 -10 26 -19zM333 357v24c0 36 -33 53 -95 53c-61 0 -93 -17 -93 -53v-17c0 -26 24 -40 42 -46l150 -52c55 -19 90 -51 90 -98v-56c0 -62 -55 -120 -190 -120c-136 0 -189 58 -189 120v25c0 12 5 18 17 18h53c13 0 17 -6 17 -18v-21c0 -36 38 -53 102 -53c63 0 102 17 102 53v27c0 24 -20 37 -53 48l-150 52c-37 13 -78 51 -78 101v37c0 62 46 123 181 123c134 0 181 -61 181 -123v-24c0 -13 -4 -18 -18 -18h-52c-12 0 -17 5 -17 18z" />    <glyph glyph-name="scedilla" unicode="&#x15f;" horiz-adv-x="468" d="M231 -52h34c46 0 85 -24 85 -79c0 -56 -39 -80 -85 -80h-113c-13 0 -19 5 -19 19v20c0 13 6 18 19 18h99c15 0 32 2 32 23s-17 22 -32 22h-66c-24 0 -30 8 -26 24l21 81c-94 14 -132 63 -132 116v25c0 12 5 18 17 18h53c13 0 17 -6 17 -18v-21c0 -36 38 -53 102 -53c63 0 102 17 102 53v27c0 24 -20 37 -53 48l-150 52c-37 13 -78 51 -78 101v37c0 62 46 123 181 123c134 0 181 -61 181 -123v-24c0 -13 -4 -18 -18 -18h-52c-12 0 -17 5 -17 18v24c0 36 -33 53 -95 53c-61 0 -93 -17 -93 -53v-17c0 -26 24 -40 42 -46l150 -52c55 -19 90 -51 90 -98v-56c0 -61 -53 -118 -184 -120z" />    <glyph glyph-name="scommaaccent" unicode="&#x219;" horiz-adv-x="468" d="M210 -98v29c0 13 5 19 19 19h43c14 0 19 -6 19 -19v-34c0 -44 -18 -86 -42 -125c-7 -12 -15 -12 -25 -10l-33 8c-12 3 -15 13 -9 26c18 41 28 53 28 106zM333 357v24c0 36 -33 53 -95 53c-61 0 -93 -17 -93 -53v-17c0 -26 24 -40 42 -46l150 -52c55 -19 90 -51 90 -98v-56c0 -62 -55 -120 -190 -120c-136 0 -189 58 -189 120v25c0 12 5 18 17 18h53c13 0 17 -6 17 -18v-21c0 -36 38 -53 102 -53c63 0 102 17 102 53v27c0 24 -20 37 -53 48l-150 52c-37 13 -78 51 -78 101v37c0 62 46 123 181 123c134 0 181 -61 181 -123v-24c0 -13 -4 -18 -18 -18h-52c-12 0 -17 5 -17 18z" />    <glyph glyph-name="germandbls" unicode="&#xdf;" horiz-adv-x="619" d="M197 564v-544c0 -14 -5 -20 -19 -20h-58c-13 0 -19 6 -19 20v396h-59c-13 0 -18 6 -18 20v35c0 13 6 18 18 19l53 4h6v77c0 79 57 137 207 137s207 -55 207 -137v-37c0 -50 -40 -77 -73 -89l-65 -24c-14 -5 -41 -15 -41 -36v-5c0 -24 31 -38 45 -44l117 -49c33 -14 91 -47 91 -105v-55c0 -79 -40 -135 -173 -135c-132 0 -163 50 -163 131v8c0 14 5 20 19 20h40c13 0 19 -6 19 -20v-11c0 -40 18 -64 85 -64s86 25 86 64v44c0 30 -32 43 -52 51l-111 47c-38 16 -84 41 -84 106v20c0 49 41 76 71 87l52 19c23 8 49 23 49 54v16c0 43 -30 70 -115 70s-115 -27 -115 -70z" />    <glyph glyph-name="longs" unicode="&#x17f;" horiz-adv-x="333" d="M95 494h7v73c0 81 57 136 198 136h7c14 0 19 -5 19 -19v-40c0 -13 -5 -19 -19 -19h-7c-75 0 -103 -25 -103 -68v-538c0 -13 -5 -19 -18 -19h-59c-13 0 -18 6 -18 19v399h-59c-14 0 -19 6 -19 19v34c0 13 5 18 19 19z" />    <glyph glyph-name="tcaron" unicode="&#x165;" horiz-adv-x="381" d="M266 676v29c0 13 5 19 19 19h43c14 0 19 -6 19 -19v-34c0 -44 -18 -86 -42 -125c-7 -12 -15 -12 -25 -10l-33 8c-12 3 -15 13 -9 26c18 41 28 53 28 106zM191 494h103c13 0 19 -5 19 -18v-40c0 -14 -6 -20 -19 -20h-103v-269c0 -42 26 -66 101 -66h19c13 0 19 -6 19 -20v-42c0 -14 -6 -19 -19 -19h-33c-141 0 -183 49 -183 137v279h-55c-14 0 -19 6 -19 20v35c0 13 5 18 19 19l49 4h6v101c0 14 6 20 19 20h59c13 0 18 -6 18 -20v-101z" />    <glyph glyph-name="tcommaaccent" unicode="&#x163;" horiz-adv-x="354" d="M110 -98v29c0 13 5 19 19 19h43c14 0 19 -6 19 -19v-34c0 -44 -18 -86 -42 -125c-7 -12 -15 -12 -25 -10l-33 8c-12 3 -15 13 -9 26c18 41 28 53 28 106zM191 494h103c13 0 19 -5 19 -18v-40c0 -14 -6 -20 -19 -20h-103v-269c0 -42 26 -66 101 -66h19c13 0 19 -6 19 -20v-42c0 -14 -6 -19 -19 -19h-33c-141 0 -183 49 -183 137v279h-55c-14 0 -19 6 -19 20v35c0 13 5 18 19 19l49 4h6v101c0 14 6 20 19 20h59c13 0 18 -6 18 -20v-101z" />    <glyph glyph-name="tbar" unicode="&#x167;" horiz-adv-x="354" d="M191 494h103c13 0 19 -5 19 -18v-40c0 -14 -6 -20 -19 -20h-103v-87h103c14 0 20 -5 20 -18v-30c0 -14 -6 -19 -20 -19h-103v-115c0 -42 26 -66 101 -66h19c13 0 19 -6 19 -20v-42c0 -14 -6 -19 -19 -19h-33c-141 0 -183 49 -183 137v125h-55c-13 0 -19 5 -19 19v30c0 13 6 18 19 18h55v87h-55c-14 0 -19 6 -19 20v35c0 13 5 18 19 19l49 4h6v101c0 14 6 20 19 20h59c13 0 18 -6 18 -20v-101z" />    <glyph glyph-name="ugrave" unicode="&#xf9;" horiz-adv-x="530" d="M368 19l-2 30c-27 -23 -78 -57 -160 -57c-92 0 -141 53 -141 127v357c0 14 5 20 18 20h58c13 0 19 -6 19 -20v-333c0 -42 19 -66 74 -66c63 0 109 33 130 50v349c0 14 5 20 18 20h59c13 0 18 -6 18 -20v-457c0 -14 -5 -19 -18 -19h-54c-14 0 -18 5 -19 19zM225 577l-76 112c-8 11 -5 19 9 19h62c14 0 20 -7 26 -18l59 -107c7 -13 2 -18 -9 -18h-47c-13 0 -20 7 -24 12z" />    <glyph glyph-name="uacute" unicode="&#xfa;" horiz-adv-x="530" d="M377 689l-76 -112c-3 -5 -11 -12 -24 -12h-46c-12 0 -17 5 -10 18l59 107c6 11 13 18 26 18h62c14 0 17 -8 9 -19zM368 19l-2 30c-27 -23 -78 -57 -160 -57c-92 0 -141 53 -141 127v357c0 14 5 20 18 20h58c13 0 19 -6 19 -20v-333c0 -42 19 -66 74 -66c63 0 109 33 130 50v349c0 14 5 20 18 20h59c13 0 18 -6 18 -20v-457c0 -14 -5 -19 -18 -19h-54c-14 0 -18 5 -19 19z" />    <glyph glyph-name="ucircumflex" unicode="&#xfb;" horiz-adv-x="530" d="M258 650l-42 -67c-5 -8 -13 -18 -26 -18h-45c-13 0 -17 8 -10 18l75 106c8 11 16 19 30 19h35c13 0 22 -8 30 -19l75 -106c7 -10 3 -18 -10 -18h-45c-13 0 -20 8 -26 18zM368 19l-2 30c-27 -23 -78 -57 -160 -57c-92 0 -141 53 -141 127v357c0 14 5 20 18 20h58c13 0 19 -6 19 -20v-333c0 -42 19 -66 74 -66c63 0 109 33 130 50v349c0 14 5 20 18 20h59c13 0 18 -6 18 -20v-457c0 -14 -5 -19 -18 -19h-54c-14 0 -18 5 -19 19z" />    <glyph glyph-name="utilde" unicode="&#x169;" horiz-adv-x="530" d="M368 19l-2 30c-27 -23 -78 -57 -160 -57c-92 0 -141 53 -141 127v357c0 14 5 20 18 20h58c13 0 19 -6 19 -20v-333c0 -42 19 -66 74 -66c63 0 109 33 130 50v349c0 14 5 20 18 20h59c13 0 18 -6 18 -20v-457c0 -14 -5 -19 -18 -19h-54c-14 0 -18 5 -19 19zM197 628c-18 0 -19 -10 -19 -38v-7c0 -14 -7 -17 -20 -17h-32c-13 0 -17 8 -16 22l2 32c3 56 39 80 79 80c20 0 43 -6 59 -16l43 -26c14 -8 30 -19 40 -19c17 0 19 10 19 38v7c0 13 9 17 21 17h31c13 0 17 -9 16 -22l-2 -32c-3 -56 -40 -80 -80 -80c-15 0 -40 5 -58 16l-43 26c-14 8 -30 19 -40 19z" />    <glyph glyph-name="udieresis" unicode="&#xfc;" horiz-adv-x="530" d="M238 685v-95c0 -14 -5 -19 -18 -19h-35c-13 0 -19 5 -19 19v95c0 14 6 19 19 19h35c13 0 18 -5 18 -19zM359 685v-95c0 -14 -5 -19 -18 -19h-35c-14 0 -19 5 -19 19v95c0 14 5 19 19 19h35c13 0 18 -5 18 -19zM368 19l-2 30c-27 -23 -78 -57 -160 -57c-92 0 -141 53 -141 127v357c0 14 5 20 18 20h58c13 0 19 -6 19 -20v-333c0 -42 19 -66 74 -66c63 0 109 33 130 50v349c0 14 5 20 18 20h59c13 0 18 -6 18 -20v-457c0 -14 -5 -19 -18 -19h-54c-14 0 -18 5 -19 19z" />    <glyph glyph-name="umacron" unicode="&#x16b;" horiz-adv-x="530" d="M368 19l-2 30c-27 -23 -78 -57 -160 -57c-92 0 -141 53 -141 127v357c0 14 5 20 18 20h58c13 0 19 -6 19 -20v-333c0 -42 19 -66 74 -66c63 0 109 33 130 50v349c0 14 5 20 18 20h59c13 0 18 -6 18 -20v-457c0 -14 -5 -19 -18 -19h-54c-14 0 -18 5 -19 19zM144 659h242c14 0 19 -4 19 -18v-36c0 -13 -5 -18 -19 -18h-242c-14 0 -20 5 -20 18v36c0 14 6 18 20 18z" />    <glyph glyph-name="ubreve" unicode="&#x16d;" horiz-adv-x="530" d="M368 19l-2 30c-27 -23 -78 -57 -160 -57c-92 0 -141 53 -141 127v357c0 14 5 20 18 20h58c13 0 19 -6 19 -20v-333c0 -42 19 -66 74 -66c63 0 109 33 130 50v349c0 14 5 20 18 20h59c13 0 18 -6 18 -20v-457c0 -14 -5 -19 -18 -19h-54c-14 0 -18 5 -19 19zM201 684v-17c0 -33 11 -58 58 -58c48 0 58 25 58 58v17c0 12 4 16 17 16h35c13 0 17 -4 17 -16v-15c0 -73 -39 -117 -129 -117s-125 44 -125 117v15c0 12 5 16 17 16h35c12 0 17 -4 17 -16z" />    <glyph glyph-name="uring" unicode="&#x16f;" horiz-adv-x="530" d="M359 653v-33c0 -41 -31 -70 -96 -70s-96 29 -96 70v33c0 41 31 71 96 71s96 -30 96 -71zM307 630v13c0 21 -14 33 -44 33c-31 0 -44 -12 -44 -33v-13c0 -21 13 -33 44 -33c30 0 44 12 44 33zM368 19l-2 30c-27 -23 -78 -57 -160 -57c-92 0 -141 53 -141 127v357c0 14 5 20 18 20h58c13 0 19 -6 19 -20v-333c0 -42 19 -66 74 -66c63 0 109 33 130 50v349c0 14 5 20 18 20h59c13 0 18 -6 18 -20v-457c0 -14 -5 -19 -18 -19h-54c-14 0 -18 5 -19 19z" />    <glyph glyph-name="uhungarumlaut" unicode="&#x171;" horiz-adv-x="530" d="M368 19l-2 30c-27 -23 -78 -57 -160 -57c-92 0 -141 53 -141 127v357c0 14 5 20 18 20h58c13 0 19 -6 19 -20v-333c0 -42 19 -66 74 -66c63 0 109 33 130 50v349c0 14 5 20 18 20h59c13 0 18 -6 18 -20v-457c0 -14 -5 -19 -18 -19h-54c-14 0 -18 5 -19 19zM439 689l-74 -107c-6 -9 -15 -17 -28 -17h-43c-13 0 -17 7 -10 18l64 106c7 12 16 19 30 19h51c14 0 17 -9 10 -19zM305 689l-60 -106c-6 -11 -11 -18 -25 -18h-43c-13 0 -18 8 -13 18l50 106c6 12 13 19 26 19h52c14 0 19 -9 13 -19z" />    <glyph glyph-name="uogonek" unicode="&#x173;" horiz-adv-x="530" d="M439 -161h-37c-44 0 -94 28 -94 89c0 24 7 65 59 99l-1 22c-27 -23 -78 -57 -160 -57c-92 0 -141 53 -141 127v357c0 14 5 20 18 20h58c13 0 19 -6 19 -20v-333c0 -42 19 -66 74 -66c63 0 109 33 130 50v349c0 14 5 20 18 20h59c13 0 18 -6 18 -20v-457c0 -14 -5 -19 -18 -19h-6c-36 -1 -53 -36 -53 -58c0 -24 14 -38 48 -38h14c13 0 19 -5 19 -18v-28c0 -14 -11 -19 -24 -19z" />    <glyph glyph-name="wgrave" unicode="&#x1e81;" horiz-adv-x="681" d="M666 476l-129 -458c-4 -13 -7 -18 -20 -18h-69c-13 0 -17 6 -20 18l-75 295c-5 16 -10 45 -10 50l-12 -50l-85 -295c-3 -12 -6 -18 -19 -18h-68c-13 0 -17 5 -20 18l-124 458c-4 13 5 20 18 20h56c13 0 19 -8 22 -20l83 -311c4 -17 7 -42 8 -45l11 45l86 311c3 12 9 20 22 20h58c13 0 18 -8 21 -20l78 -311c6 -25 8 -40 9 -43c0 3 6 29 10 43l83 311c3 12 8 20 21 20h48c13 0 21 -7 17 -20zM300 577l-76 112c-8 11 -5 19 9 19h62c14 0 20 -7 26 -18l59 -107c7 -13 2 -18 -9 -18h-47c-13 0 -20 7 -24 12z" />    <glyph glyph-name="wacute" unicode="&#x1e83;" horiz-adv-x="681" d="M471 689l-76 -112c-3 -5 -11 -12 -24 -12h-46c-12 0 -17 5 -10 18l59 107c6 11 13 18 26 18h62c14 0 17 -8 9 -19zM666 476l-129 -458c-4 -13 -7 -18 -20 -18h-69c-13 0 -17 6 -20 18l-75 295c-5 16 -10 45 -10 50l-12 -50l-85 -295c-3 -12 -6 -18 -19 -18h-68c-13 0 -17 5 -20 18l-124 458c-4 13 5 20 18 20h56c13 0 19 -8 22 -20l83 -311c4 -17 7 -42 8 -45l11 45l86 311c3 12 9 20 22 20h58c13 0 18 -8 21 -20l78 -311c6 -25 8 -40 9 -43c0 3 6 29 10 43l83 311c3 12 8 20 21 20h48c13 0 21 -7 17 -20z" />    <glyph glyph-name="wcircumflex" unicode="&#x175;" horiz-adv-x="681" d="M342 650l-42 -67c-5 -8 -13 -18 -26 -18h-45c-13 0 -17 8 -10 18l75 106c8 11 16 19 30 19h35c13 0 22 -8 30 -19l75 -106c7 -10 3 -18 -10 -18h-45c-13 0 -20 8 -26 18zM666 476l-129 -458c-4 -13 -7 -18 -20 -18h-69c-13 0 -17 6 -20 18l-75 295c-5 16 -10 45 -10 50l-12 -50l-85 -295c-3 -12 -6 -18 -19 -18h-68c-13 0 -17 5 -20 18l-124 458c-4 13 5 20 18 20h56c13 0 19 -8 22 -20l83 -311c4 -17 7 -42 8 -45l11 45l86 311c3 12 9 20 22 20h58c13 0 18 -8 21 -20l78 -311c6 -25 8 -40 9 -43c0 3 6 29 10 43l83 311c3 12 8 20 21 20h48c13 0 21 -7 17 -20z" />    <glyph glyph-name="wdieresis" unicode="&#x1e85;" horiz-adv-x="681" d="M316 685v-95c0 -14 -5 -19 -18 -19h-35c-13 0 -19 5 -19 19v95c0 14 6 19 19 19h35c13 0 18 -5 18 -19zM437 685v-95c0 -14 -5 -19 -18 -19h-35c-14 0 -19 5 -19 19v95c0 14 5 19 19 19h35c13 0 18 -5 18 -19zM666 476l-129 -458c-4 -13 -7 -18 -20 -18h-69c-13 0 -17 6 -20 18l-75 295c-5 16 -10 45 -10 50l-12 -50l-85 -295c-3 -12 -6 -18 -19 -18h-68c-13 0 -17 5 -20 18l-124 458c-4 13 5 20 18 20h56c13 0 19 -8 22 -20l83 -311c4 -17 7 -42 8 -45l11 45l86 311c3 12 9 20 22 20h58c13 0 18 -8 21 -20l78 -311c6 -25 8 -40 9 -43c0 3 6 29 10 43l83 311c3 12 8 20 21 20h48c13 0 21 -7 17 -20z" />    <glyph glyph-name="ygrave" unicode="&#x1ef3;" horiz-adv-x="450" d="M113 476l97 -289c9 -28 14 -65 15 -69c1 5 9 40 18 67l99 291c4 13 9 20 22 20h54c13 0 21 -7 17 -20l-226 -661c-3 -10 -8 -19 -21 -19h-43c-14 0 -22 6 -18 19l56 177l-168 484c-4 13 4 20 17 20h59c13 0 18 -8 22 -20zM182 577l-76 112c-8 11 -5 19 9 19h62c14 0 20 -7 26 -18l59 -107c7 -13 2 -18 -9 -18h-47c-13 0 -20 7 -24 12z" />    <glyph glyph-name="yacute" unicode="&#xfd;" horiz-adv-x="450" d="M113 476l97 -289c9 -28 14 -65 15 -69c1 5 9 40 18 67l99 291c4 13 9 20 22 20h54c13 0 21 -7 17 -20l-226 -661c-3 -10 -8 -19 -21 -19h-43c-14 0 -22 6 -18 19l56 177l-168 484c-4 13 4 20 17 20h59c13 0 18 -8 22 -20zM347 689l-76 -112c-3 -5 -11 -12 -24 -12h-46c-12 0 -17 5 -10 18l59 107c6 11 13 18 26 18h62c14 0 17 -8 9 -19z" />    <glyph glyph-name="ycircumflex" unicode="&#x177;" horiz-adv-x="450" d="M113 476l97 -289c9 -28 14 -65 15 -69c1 5 9 40 18 67l99 291c4 13 9 20 22 20h54c13 0 21 -7 17 -20l-226 -661c-3 -10 -8 -19 -21 -19h-43c-14 0 -22 6 -18 19l56 177l-168 484c-4 13 4 20 17 20h59c13 0 18 -8 22 -20zM225 650l-42 -67c-5 -8 -13 -18 -26 -18h-45c-13 0 -17 8 -10 18l75 106c8 11 16 19 30 19h35c13 0 22 -8 30 -19l75 -106c7 -10 3 -18 -10 -18h-45c-13 0 -20 8 -26 18z" />    <glyph glyph-name="ydieresis" unicode="&#xff;" horiz-adv-x="450" d="M113 476l97 -289c9 -28 14 -65 15 -69c1 5 9 40 18 67l99 291c4 13 9 20 22 20h54c13 0 21 -7 17 -20l-226 -661c-3 -10 -8 -19 -21 -19h-43c-14 0 -22 6 -18 19l56 177l-168 484c-4 13 4 20 17 20h59c13 0 18 -8 22 -20zM204 685v-95c0 -14 -5 -19 -18 -19h-35c-13 0 -19 5 -19 19v95c0 14 6 19 19 19h35c13 0 18 -5 18 -19zM325 685v-95c0 -14 -5 -19 -18 -19h-35c-14 0 -19 5 -19 19v95c0 14 5 19 19 19h35c13 0 18 -5 18 -19z" />    <glyph glyph-name="zacute" unicode="&#x17a;" horiz-adv-x="451" d="M338 689l-76 -112c-3 -5 -11 -12 -24 -12h-46c-12 0 -17 5 -10 18l59 107c6 11 13 18 26 18h62c14 0 17 -8 9 -19zM74 496h302c14 0 19 -5 19 -19v-40c0 -5 -1 -11 -4 -15l-234 -344h235c13 0 19 -4 19 -18v-41c0 -14 -6 -19 -19 -19h-332c-13 0 -19 5 -19 19v41c0 7 2 11 4 14l232 343h-203c-13 0 -19 6 -19 19v41c0 14 6 19 19 19z" />    <glyph glyph-name="zcaron" unicode="&#x17e;" horiz-adv-x="451" d="M187 689l42 -66l41 66c6 9 13 19 26 19h45c13 0 18 -8 10 -19l-75 -106c-7 -10 -17 -18 -30 -18h-35c-14 0 -22 8 -30 19l-75 105c-8 11 -3 19 10 19h45c13 0 20 -10 26 -19zM74 496h302c14 0 19 -5 19 -19v-40c0 -5 -1 -11 -4 -15l-234 -344h235c13 0 19 -4 19 -18v-41c0 -14 -6 -19 -19 -19h-332c-13 0 -19 5 -19 19v41c0 7 2 11 4 14l232 343h-203c-13 0 -19 6 -19 19v41c0 14 6 19 19 19z" />    <glyph glyph-name="zdotaccent" unicode="&#x17c;" horiz-adv-x="451" d="M74 496h302c14 0 19 -5 19 -19v-40c0 -5 -1 -11 -4 -15l-234 -344h235c13 0 19 -4 19 -18v-41c0 -14 -6 -19 -19 -19h-332c-13 0 -19 5 -19 19v41c0 7 2 11 4 14l232 343h-203c-13 0 -19 6 -19 19v41c0 14 6 19 19 19zM274 676v-79c0 -14 -5 -19 -18 -19h-60c-13 0 -19 5 -19 19v79c0 14 6 19 19 19h60c13 0 18 -5 18 -19z" />    <glyph glyph-name="eng" unicode="&#x14b;" horiz-adv-x="536" d="M89 496h54c13 0 19 -6 19 -19l1 -32c29 23 83 59 167 59c92 0 141 -54 141 -127v-445c0 -82 -57 -136 -198 -136h-7c-14 0 -20 5 -20 18v41c0 13 6 19 20 19h7c75 0 103 25 103 68v412c0 42 -20 67 -74 67c-64 0 -115 -34 -136 -52v-350c0 -13 -5 -19 -18 -19h-59c-13 0 -18 6 -18 19v458c0 13 5 19 18 19z" />    <glyph glyph-name="eth" unicode="&#xf0;" horiz-adv-x="561" d="M278 594l62 28c-15 12 -40 19 -78 19h-93c-13 0 -19 6 -19 19v29c0 14 6 19 19 19h93c75 0 125 -16 154 -43l48 24c10 5 20 4 26 -7l7 -12c5 -9 3 -18 -8 -24l-44 -22c7 -15 10 -33 10 -52v-444c0 -81 -54 -136 -195 -136s-200 55 -200 136v240c0 82 44 136 142 136c80 0 134 -35 163 -58v107c0 8 -2 16 -6 23l-57 -25c-11 -5 -18 -5 -25 7l-7 11c-6 9 -3 20 8 25zM365 136v233c-22 17 -72 52 -135 52c-58 0 -75 -31 -75 -66v-219c0 -44 30 -68 105 -68s105 24 105 68z" />    <glyph glyph-name="thorn" unicode="&#xfe;" horiz-adv-x="531" d="M166 680v-234c28 23 82 58 163 58c98 0 142 -54 142 -136v-241c0 -81 -44 -135 -142 -135c-80 0 -135 34 -163 56v-233c0 -14 -5 -19 -18 -19h-59c-13 0 -18 5 -18 19v865c0 13 5 19 18 19h58c14 0 19 -6 19 -19zM376 141v214c0 35 -17 66 -75 66c-64 0 -114 -35 -135 -52v-243c21 -16 71 -52 135 -52c58 0 75 31 75 67z" />    <glyph glyph-name="ampersand" unicode="&#x26;" horiz-adv-x="682" d="M297 396h328c13 0 19 -5 19 -19v-43c0 -14 -6 -19 -19 -19h-68v-170c0 -82 -57 -153 -241 -153c-185 0 -240 69 -240 150v101c0 54 19 95 89 115c-63 18 -81 54 -81 108v72c0 81 42 150 208 150c167 0 210 -71 210 -153v-26c0 -13 -5 -19 -18 -19h-59c-13 0 -18 6 -18 19v13c0 54 -28 85 -114 85s-113 -31 -113 -85v-42c0 -55 27 -84 117 -84zM317 73c100 0 145 31 145 85v157h-173c-89 0 -117 -29 -117 -84v-73c0 -54 44 -85 145 -85z" />    <glyph glyph-name="grave" unicode="`" horiz-adv-x="324" d="M156 577l-76 112c-8 11 -5 19 9 19h62c14 0 20 -7 26 -18l59 -107c7 -13 2 -18 -9 -18h-47c-13 0 -20 7 -24 12z" />    <glyph glyph-name="acute" unicode="&#xb4;" horiz-adv-x="324" d="M243 689l-76 -112c-3 -5 -11 -12 -24 -12h-46c-12 0 -17 5 -10 18l59 107c6 11 13 18 26 18h62c14 0 17 -8 9 -19z" />    <glyph glyph-name="circumflex" unicode="&#x2c6;" horiz-adv-x="350" d="M175 650l-42 -67c-5 -8 -13 -18 -26 -18h-45c-13 0 -17 8 -10 18l75 106c8 11 16 19 30 19h35c13 0 22 -8 30 -19l75 -106c7 -10 3 -18 -10 -18h-45c-13 0 -20 8 -26 18z" />    <glyph glyph-name="caron" unicode="&#x2c7;" horiz-adv-x="350" d="M133 689l42 -66l41 66c6 9 13 19 26 19h45c13 0 18 -8 10 -19l-75 -106c-7 -10 -17 -18 -30 -18h-35c-14 0 -22 8 -30 19l-75 105c-8 11 -3 19 10 19h45c13 0 20 -10 26 -19z" />    <glyph glyph-name="tilde" unicode="&#x2dc;" horiz-adv-x="416" d="M139 628c-18 0 -19 -10 -19 -38v-7c0 -14 -7 -17 -20 -17h-32c-13 0 -17 8 -16 22l2 32c3 56 39 80 79 80c20 0 43 -6 59 -16l43 -26c14 -8 30 -19 40 -19c17 0 19 10 19 38v7c0 13 9 17 21 17h31c13 0 17 -9 16 -22l-2 -32c-3 -56 -40 -80 -80 -80c-15 0 -40 5 -58 16l-43 26c-14 8 -30 19 -40 19z" />    <glyph glyph-name="dieresis" unicode="&#xa8;" horiz-adv-x="348" d="M149 685v-95c0 -14 -5 -19 -18 -19h-35c-13 0 -19 5 -19 19v95c0 14 6 19 19 19h35c13 0 18 -5 18 -19zM270 685v-95c0 -14 -5 -19 -18 -19h-35c-14 0 -19 5 -19 19v95c0 14 5 19 19 19h35c13 0 18 -5 18 -19z" />    <glyph glyph-name="macron" unicode="&#xaf;" horiz-adv-x="412" d="M85 659h242c14 0 19 -4 19 -18v-36c0 -13 -5 -18 -19 -18h-242c-14 0 -20 5 -20 18v36c0 14 6 18 20 18z" />    <glyph glyph-name="breve" unicode="&#x2d8;" horiz-adv-x="407" d="M145 684v-17c0 -33 11 -58 58 -58c48 0 58 25 58 58v17c0 12 4 16 17 16h35c13 0 17 -4 17 -16v-15c0 -73 -39 -117 -129 -117s-125 44 -125 117v15c0 12 5 16 17 16h35c12 0 17 -4 17 -16z" />    <glyph glyph-name="ring" unicode="&#x2da;" horiz-adv-x="366" d="M279 653v-33c0 -41 -31 -70 -96 -70s-96 29 -96 70v33c0 41 31 71 96 71s96 -30 96 -71zM227 630v13c0 21 -14 33 -44 33c-31 0 -44 -12 -44 -33v-13c0 -21 13 -33 44 -33c30 0 44 12 44 33z" />    <glyph glyph-name="hungarumlaut" unicode="&#x2dd;" horiz-adv-x="382" d="M328 689l-74 -107c-6 -9 -15 -17 -28 -17h-43c-13 0 -17 7 -10 18l64 106c7 12 16 19 30 19h51c14 0 17 -9 10 -19zM194 689l-60 -106c-6 -11 -11 -18 -25 -18h-43c-13 0 -18 8 -13 18l50 106c6 12 13 19 26 19h52c14 0 19 -9 13 -19z" />    <glyph glyph-name="dotaccent" unicode="&#x2d9;" horiz-adv-x="244" d="M170 676v-79c0 -14 -5 -19 -18 -19h-60c-13 0 -19 5 -19 19v79c0 14 6 19 19 19h60c13 0 18 -5 18 -19z" />    <glyph glyph-name="commaaccent" horiz-adv-x="278" d="M104 70v29c0 13 5 19 19 19h43c14 0 19 -6 19 -19v-34c0 -44 -18 -86 -42 -125c-7 -12 -15 -12 -25 -10l-33 8c-12 3 -15 13 -9 26c18 41 28 53 28 106z" />    <glyph glyph-name="cedilla" unicode="&#xb8;" horiz-adv-x="217" d="M103 -52h34c46 0 85 -24 85 -79c0 -56 -39 -80 -85 -80h-113c-13 0 -19 5 -19 19v20c0 13 6 18 19 18h99c15 0 32 2 32 23s-17 22 -32 22h-66c-24 0 -30 8 -26 24l24 92c3 11 10 18 22 17l27 -3c12 -1 17 -10 13 -23z" />    <glyph glyph-name="ogonek" unicode="&#x2db;" horiz-adv-x="229" d="M173 -161h-47c-58 0 -105 31 -105 87c0 37 17 71 57 101c9 7 22 14 39 9l25 -7c10 -3 17 -13 4 -21c-41 -25 -52 -47 -52 -65c0 -33 27 -39 59 -39h20c14 0 19 -5 19 -18v-28c0 -14 -5 -19 -19 -19z" />    <glyph glyph-name="acute.case" horiz-adv-x="212" d="M203 859l-77 -112c-3 -5 -10 -12 -24 -12h-46c-12 0 -17 5 -10 18l59 107c6 11 13 18 26 18h62c14 0 17 -8 10 -19z" />    <glyph glyph-name="macron.case" horiz-adv-x="212" d="M-15 836h243c13 0 19 -5 19 -18v-36c0 -13 -6 -19 -19 -19h-243c-13 0 -19 6 -19 19v36c0 13 6 18 19 18z" />    <glyph glyph-name="breve.case" horiz-adv-x="212" d="M48 864v-18c0 -33 10 -57 58 -57c47 0 58 24 58 57v18c0 11 4 16 17 16h35c12 0 17 -5 17 -16v-15c0 -73 -39 -118 -129 -118c-91 0 -126 45 -126 118v15c0 11 5 16 17 16h36c12 0 17 -5 17 -16z" />    <glyph glyph-name="caron.case" horiz-adv-x="212" d="M65 859l41 -66l41 66c6 9 14 19 26 19h45c14 0 18 -8 10 -19l-75 -106c-7 -10 -17 -18 -30 -18h-35c-13 0 -22 8 -30 19l-75 105c-8 11 -3 19 10 19h45c13 0 21 -10 27 -19z" />    <glyph glyph-name="ring.case" horiz-adv-x="212" d="M206 815v-23c0 -41 -32 -76 -100 -76c-69 0 -100 35 -100 76v23c0 41 31 76 100 76c68 0 100 -35 100 -76zM149 800v7c0 21 -13 34 -43 34c-31 0 -43 -13 -43 -34v-7c0 -21 12 -34 43 -34c30 0 43 13 43 34z" />    <glyph glyph-name="circumflex.case" horiz-adv-x="212" d="M106 820l-41 -67c-5 -9 -14 -18 -27 -18h-45c-13 0 -17 8 -10 18l75 106c8 11 17 19 30 19h35c13 0 22 -8 30 -19l75 -106c7 -10 4 -18 -10 -18h-45c-12 0 -20 8 -26 18z" />    <glyph glyph-name="tilde.case" horiz-adv-x="212" d="M38 805c-18 0 -19 -10 -19 -38v-7c0 -14 -7 -17 -20 -17h-32c-13 0 -17 8 -16 22l2 32c3 56 39 80 79 80c20 0 43 -6 59 -16l43 -26c14 -8 30 -19 40 -19c17 0 19 10 19 38v7c0 13 9 17 21 17h31c13 0 17 -9 16 -22l-2 -32c-3 -56 -40 -80 -80 -80c-15 0 -40 5 -58 16l-43 26c-14 8 -30 19 -40 19z" />    <glyph glyph-name="dieresis.case" horiz-adv-x="212" d="M81 853v-95c0 -14 -4 -19 -18 -19h-35c-13 0 -18 5 -18 19v95c0 14 5 20 18 20h35c14 0 18 -6 18 -20zM202 853v-95c0 -14 -5 -19 -18 -19h-35c-13 0 -18 5 -18 19v95c0 14 5 20 18 20h35c13 0 18 -6 18 -20z" />    <glyph glyph-name="dotaccent.case" horiz-adv-x="212" d="M154 839v-80c0 -14 -4 -19 -18 -19h-60c-13 0 -18 5 -18 19v80c0 13 5 19 18 19h60c14 0 18 -6 18 -19z" />    <glyph glyph-name="grave.case" horiz-adv-x="212" d="M105 747l-76 111c-8 11 -5 20 9 20h62c14 0 20 -8 26 -19l59 -106c7 -13 2 -19 -9 -19h-47c-13 0 -20 7 -24 13z" />    <glyph glyph-name="hungarumlaut.case" horiz-adv-x="212" d="M242 859l-74 -107c-6 -9 -14 -17 -27 -17h-44c-13 0 -16 7 -9 18l64 106c7 12 16 19 29 19h52c14 0 16 -8 9 -19zM108 859l-59 -106c-6 -11 -12 -18 -25 -18h-44c-13 0 -17 8 -12 18l49 106c5 12 13 19 27 19h51c14 0 19 -9 13 -19z" />    <glyph glyph-name="comma" unicode="," horiz-adv-x="232" d="M68 35v64c0 13 5 19 18 19h61c13 0 18 -6 18 -19v-69c0 -66 -39 -111 -119 -133c-12 -3 -19 -1 -24 12l-14 41c-5 13 0 20 12 24c37 15 48 33 48 61z" />    <glyph glyph-name="semicolon" unicode=";" horiz-adv-x="278" d="M211 476v-80c0 -13 -5 -19 -18 -19h-60c-14 0 -19 6 -19 19v80c0 14 5 20 19 20h60c13 0 18 -6 18 -20zM114 35v64c0 13 5 19 19 19h60c13 0 18 -6 18 -19v-69c0 -66 -39 -111 -119 -133c-12 -3 -19 -1 -24 12l-14 41c-5 13 0 20 12 24c38 15 48 33 48 61z" />    <glyph glyph-name="colon" unicode=":" horiz-adv-x="233" d="M165 99v-80c0 -14 -5 -19 -18 -19h-60c-13 0 -19 5 -19 19v80c0 13 6 19 19 19h60c13 0 18 -6 18 -19zM165 476v-80c0 -13 -5 -19 -18 -19h-60c-13 0 -19 6 -19 19v80c0 14 6 20 19 20h60c13 0 18 -6 18 -20z" />    <glyph glyph-name="period" unicode="." horiz-adv-x="233" d="M165 99v-80c0 -14 -5 -19 -18 -19h-60c-14 0 -19 5 -19 19v80c0 13 5 19 19 19h60c13 0 18 -6 18 -19z" />    <glyph glyph-name="ellipsis" unicode="&#x2026;" horiz-adv-x="728" d="M165 99v-80c0 -14 -5 -19 -18 -19h-60c-14 0 -19 5 -19 19v80c0 13 5 19 19 19h60c13 0 18 -6 18 -19zM660 99v-80c0 -14 -5 -19 -18 -19h-60c-14 0 -19 5 -19 19v80c0 13 5 19 19 19h60c13 0 18 -6 18 -19zM413 99v-80c0 -14 -5 -19 -18 -19h-60c-14 0 -19 5 -19 19v80c0 13 5 19 19 19h60c13 0 18 -6 18 -19z" />    <glyph glyph-name="exclam" unicode="!" horiz-adv-x="264" d="M181 390l-9 -200c-1 -13 -5 -19 -18 -19h-44c-13 0 -17 6 -18 19l-10 200v270c0 14 5 20 19 20h62c14 0 18 -6 18 -20v-270zM180 99v-80c0 -14 -5 -19 -18 -19h-61c-14 0 -19 5 -19 19v80c0 13 5 19 19 19h61c13 0 18 -6 18 -19z" />    <glyph glyph-name="exclamdown" unicode="&#xa1;" horiz-adv-x="264" d="M82 106l9 200c1 13 5 19 18 19h44c13 0 17 -6 18 -19l10 -200v-270c0 -14 -5 -20 -19 -20h-62c-14 0 -18 6 -18 20v270zM83 397v80c0 14 5 19 18 19h61c14 0 19 -5 19 -19v-80c0 -13 -5 -19 -19 -19h-61c-13 0 -18 6 -18 19z" />    <glyph glyph-name="question" unicode="?" horiz-adv-x="566" d="M215 190v74c0 58 38 80 64 93l80 41c16 9 45 28 45 70v51c0 55 -34 87 -122 87c-89 0 -122 -32 -122 -87v-43c0 -14 -5 -20 -18 -20h-58c-14 0 -19 6 -19 20v58c0 82 50 154 217 154s218 -72 219 -154v-63c0 -86 -52 -124 -87 -141l-55 -26c-25 -12 -46 -27 -46 -64v-50c0 -14 -5 -19 -18 -19h-62c-13 0 -18 5 -18 19zM313 99v-80c0 -14 -5 -19 -18 -19h-62c-13 0 -18 5 -18 19v80c0 13 5 19 18 19h62c13 0 18 -6 18 -19z" />    <glyph glyph-name="questiondown" unicode="&#xbf;" horiz-adv-x="566" d="M351 306v-74c0 -58 -38 -80 -64 -93l-80 -41c-16 -9 -45 -28 -45 -70v-51c0 -55 34 -87 122 -87c89 0 122 32 122 87v43c0 14 5 20 18 20h58c14 0 19 -6 19 -20v-58c0 -82 -50 -154 -217 -154s-218 72 -219 154v63c0 86 52 124 87 141l55 26c25 12 46 27 46 64v50c0 14 5 19 18 19h62c13 0 18 -5 18 -19zM253 397v80c0 14 5 19 18 19h62c13 0 18 -5 18 -19v-80c0 -13 -5 -19 -18 -19h-62c-13 0 -18 6 -18 19z" />    <glyph glyph-name="quotesingle" unicode="'" horiz-adv-x="236" d="M165 660l-8 -167c-1 -14 -5 -20 -18 -20h-41c-14 0 -18 6 -19 20l-8 167c-1 14 5 20 19 20h57c13 0 19 -6 18 -20z" />    <glyph glyph-name="quotedbl" unicode="&#x22;" horiz-adv-x="392" d="M157 493c0 -14 -5 -20 -18 -20h-41c-14 0 -18 6 -19 20l-8 167c-1 14 5 20 19 20h57c13 0 19 -6 18 -20zM313 493c0 -14 -5 -20 -19 -20h-41c-13 0 -17 6 -18 20l-8 167c-1 14 5 20 18 20h57c14 0 20 -6 19 -20z" />    <glyph glyph-name="quoteleft" unicode="&#x2018;" horiz-adv-x="232" d="M155 601v-64c0 -13 -5 -19 -18 -19h-61c-13 0 -18 6 -18 19v69c0 66 39 111 119 133c12 3 19 1 24 -12l14 -41c5 -13 0 -20 -12 -24c-37 -15 -48 -33 -48 -61z" />    <glyph glyph-name="quoteright" unicode="&#x2019;" horiz-adv-x="232" d="M77 656v64c0 13 5 19 18 19h61c13 0 18 -6 18 -19v-69c0 -66 -39 -111 -119 -133c-12 -3 -19 -1 -24 12l-14 41c-5 13 0 20 12 24c37 15 48 33 48 61z" />    <glyph glyph-name="quotedblleft" unicode="&#x201c;" horiz-adv-x="415" d="M338 601v-64c0 -13 -5 -19 -18 -19h-61c-13 0 -18 6 -18 19v69c0 66 39 111 119 133c12 3 19 1 24 -12l14 -41c5 -13 0 -20 -12 -24c-37 -15 -48 -33 -48 -61zM155 601v-64c0 -13 -5 -19 -18 -19h-61c-13 0 -18 6 -18 19v69c0 66 39 111 119 133c12 3 19 1 24 -12l14 -41c5 -13 0 -20 -12 -24c-37 -15 -48 -33 -48 -61z" />    <glyph glyph-name="quotedblright" unicode="&#x201d;" horiz-adv-x="415" d="M260 656v64c0 13 5 19 18 19h61c13 0 18 -6 18 -19v-69c0 -66 -39 -111 -119 -133c-12 -3 -19 -1 -24 12l-14 41c-5 13 0 20 12 24c37 15 48 33 48 61zM77 656v64c0 13 5 19 18 19h61c13 0 18 -6 18 -19v-69c0 -66 -39 -111 -119 -133c-12 -3 -19 -1 -24 12l-14 41c-5 13 0 20 12 24c37 15 48 33 48 61z" />    <glyph glyph-name="quotesinglbase" unicode="&#x201a;" horiz-adv-x="232" d="M77 35v64c0 13 5 19 18 19h61c13 0 18 -6 18 -19v-69c0 -66 -39 -111 -119 -133c-12 -3 -19 -1 -24 12l-14 41c-5 13 0 20 12 24c37 15 48 33 48 61z" />    <glyph glyph-name="quotedblbase" unicode="&#x201e;" horiz-adv-x="415" d="M260 35v64c0 13 5 19 18 19h61c13 0 18 -6 18 -19v-69c0 -66 -39 -111 -119 -133c-12 -3 -19 -1 -24 12l-14 41c-5 13 0 20 12 24c37 15 48 33 48 61zM77 35v64c0 13 5 19 18 19h61c13 0 18 -6 18 -19v-69c0 -66 -39 -111 -119 -133c-12 -3 -19 -1 -24 12l-14 41c-5 13 0 20 12 24c37 15 48 33 48 61z" />    <glyph glyph-name="guilsinglleft" unicode="&#x2039;" horiz-adv-x="360" d="M271 337l-126 -92l126 -91c10 -7 19 -16 19 -29v-60c0 -14 -10 -17 -19 -11l-184 136c-8 6 -17 13 -17 26v59c0 12 9 19 17 25l184 137c9 7 19 3 19 -11v-60c0 -14 -9 -21 -19 -29z" />    <glyph glyph-name="guilsinglright" unicode="&#x203a;" horiz-adv-x="360" d="M215 245l-126 92c-10 8 -19 15 -19 29v60c0 14 10 18 19 11l184 -137c8 -6 17 -13 17 -25v-59c0 -13 -9 -20 -17 -26l-184 -136c-9 -6 -19 -3 -19 11v60c0 13 9 22 19 29z" />    <glyph glyph-name="guillemotleft" unicode="&#xab;" horiz-adv-x="580" d="M491 337l-126 -92l126 -91c10 -7 19 -16 19 -29v-60c0 -14 -10 -17 -19 -11l-184 136c-8 6 -17 13 -17 26v59c0 12 9 19 17 25l184 137c9 7 19 3 19 -11v-60c0 -14 -9 -21 -19 -29zM271 337l-126 -92l126 -91c10 -7 19 -16 19 -29v-60c0 -14 -10 -17 -19 -11l-184 136c-8 6 -17 13 -17 26v59c0 12 9 19 17 25l184 137c9 7 19 3 19 -11v-60c0 -14 -9 -21 -19 -29z" />    <glyph glyph-name="guillemotright" unicode="&#xbb;" horiz-adv-x="580" d="M309 161l126 92l-126 91c-10 7 -19 16 -19 29v60c0 14 10 17 19 11l184 -136c8 -6 17 -13 17 -26v-59c0 -12 -9 -19 -17 -25l-184 -137c-9 -7 -19 -3 -19 11v60c0 14 9 21 19 29zM89 161l126 92l-126 91c-10 7 -19 16 -19 29v60c0 14 10 17 19 11l184 -136c8 -6 17 -13 17 -26v-59c0 -12 -9 -19 -17 -25l-184 -137c-9 -7 -19 -3 -19 11v60c0 14 9 21 19 29z" />    <glyph glyph-name="slash" unicode="/" horiz-adv-x="368" d="M339 679l-208 -807c-4 -14 -9 -20 -23 -20h-64c-12 0 -18 7 -15 20l209 807c3 13 9 20 22 20h65c13 0 17 -7 14 -20z" />    <glyph glyph-name="bar" unicode="|" horiz-adv-x="261" d="M180 679v-870c0 -14 -5 -20 -18 -20h-61c-14 0 -19 6 -19 20v870c0 14 5 20 19 20h61c13 0 18 -6 18 -20z" />    <glyph glyph-name="hyphen" unicode="-" horiz-adv-x="448" d="M90 328h268c13 0 19 -5 19 -18v-42c0 -13 -6 -18 -19 -18h-268c-13 0 -19 5 -19 18v42c0 13 6 18 19 18z" />    <glyph glyph-name="uni00AD" unicode="&#xad;" horiz-adv-x="448" d="M90 328h268c13 0 19 -5 19 -18v-42c0 -13 -6 -18 -19 -18h-268c-13 0 -19 5 -19 18v42c0 13 6 18 19 18z" />    <glyph glyph-name="endash" unicode="&#x2013;" horiz-adv-x="541" d="M90 328h361c13 0 19 -5 19 -18v-42c0 -13 -6 -18 -19 -18h-361c-13 0 -19 5 -19 18v42c0 13 6 18 19 18z" />    <glyph glyph-name="emdash" unicode="&#x2014;" horiz-adv-x="850" d="M90 328h670c14 0 19 -5 19 -18v-42c0 -13 -5 -18 -19 -18h-670c-13 0 -19 5 -19 18v42c0 13 6 18 19 18z" />    <glyph glyph-name="bullet" unicode="&#x2022;" horiz-adv-x="260" d="M179 335v-137c0 -14 -5 -19 -18 -19h-60c-13 0 -19 5 -19 19v137c0 13 6 19 19 19h60c13 0 18 -6 18 -19z" />    <glyph glyph-name="periodcentered" unicode="&#xb7;" horiz-adv-x="233" d="M165 310v-80c0 -14 -5 -19 -18 -19h-60c-14 0 -19 5 -19 19v80c0 13 5 19 19 19h60c13 0 18 -6 18 -19z" />    <glyph glyph-name="parenleft" unicode="(" horiz-adv-x="355" d="M76 -81v652c0 82 57 137 198 137h8c13 0 19 -5 19 -19v-42c0 -14 -6 -20 -19 -20h-8c-75 0 -100 -24 -100 -66v-632c0 -42 25 -66 100 -66h8c13 0 19 -6 19 -20v-42c0 -14 -6 -19 -19 -19h-8c-141 0 -198 55 -198 137z" />    <glyph glyph-name="parenright" unicode=")" horiz-adv-x="355" d="M278 571v-652c0 -82 -57 -137 -198 -137h-7c-14 0 -19 5 -19 19v42c0 14 5 20 19 20h7c75 0 100 24 100 66v632c0 42 -25 66 -100 66h-7c-14 0 -19 6 -19 20v42c0 14 5 19 19 19h7c141 0 198 -55 198 -137z" />    <glyph glyph-name="bracketleft" unicode="[" horiz-adv-x="378" d="M76 -191v870c0 14 6 20 19 20h204c13 0 19 -5 19 -19v-45c0 -14 -6 -19 -19 -19h-125v-744h125c13 0 19 -5 19 -19v-45c0 -14 -6 -19 -19 -19h-204c-13 0 -19 6 -19 20z" />    <glyph glyph-name="bracketright" unicode="]" horiz-adv-x="378" d="M301 679v-870c0 -14 -5 -20 -18 -20h-204c-14 0 -19 5 -19 19v45c0 14 5 19 19 19h124v744h-124c-14 0 -19 5 -19 19v45c0 14 5 19 19 19h204c13 0 18 -6 18 -20z" />    <glyph glyph-name="braceleft" unicode="{" horiz-adv-x="449" d="M169 356v215c0 82 57 137 198 137h8c13 0 19 -5 19 -19v-42c0 -14 -6 -20 -19 -20h-8c-75 0 -100 -24 -100 -66v-215c0 -51 -24 -83 -73 -97c49 -15 73 -47 73 -98v-222c0 -42 25 -66 100 -66h8c13 0 19 -6 19 -20v-42c0 -14 -6 -19 -19 -19h-8c-141 0 -198 55 -198 137v223c0 42 -25 67 -95 67h-1c-13 0 -19 5 -19 19v41c0 14 6 20 19 20h1c70 0 95 24 95 67z" />    <glyph glyph-name="braceright" unicode="}" horiz-adv-x="449" d="M279 571v-215c0 -43 25 -67 95 -67h1c13 0 19 -6 19 -20v-41c0 -14 -6 -19 -19 -19h-1c-70 0 -95 -25 -95 -67v-223c0 -82 -57 -137 -198 -137h-8c-13 0 -19 5 -19 19v42c0 14 6 20 19 20h8c75 0 100 24 100 66v222c0 51 24 83 73 98c-49 14 -73 46 -73 97v215c0 42 -25 66 -100 66h-8c-13 0 -19 6 -19 20v42c0 14 6 19 19 19h8c141 0 198 -55 198 -137z" />    <glyph glyph-name="asterisk" unicode="*" horiz-adv-x="523" d="M247 322c-13 0 -19 6 -18 20l6 125l-109 -71c-11 -7 -19 -5 -26 8l-14 27c-6 12 -5 20 8 26l109 55l-109 57c-13 7 -14 13 -8 25l14 28c6 12 15 14 26 7l110 -71l-7 132c-1 14 5 19 19 19h30c14 0 19 -6 18 -19l-7 -131l108 70c12 8 20 5 26 -7l14 -28c6 -11 5 -18 -8 -25l-109 -57l109 -55c13 -7 14 -14 8 -26l-14 -28c-6 -12 -14 -15 -26 -7l-107 69l6 -123c1 -15 -5 -20 -18 -20h-31z" />    <glyph glyph-name="dagger" unicode="&#x2020;" horiz-adv-x="621" d="M359 679v-659c0 -14 -5 -20 -18 -20h-59c-13 0 -18 6 -18 20v659c0 14 5 20 18 20h59c13 0 18 -6 18 -20zM101 507h120c13 0 19 -5 19 -18v-43c0 -14 -6 -19 -19 -19h-120c-13 0 -19 5 -19 19v43c0 13 6 18 19 18zM402 507h119c13 0 19 -5 19 -18v-43c0 -14 -6 -19 -19 -19h-119c-14 0 -20 5 -20 19v43c0 13 6 18 20 18z" />    <glyph glyph-name="daggerdbl" unicode="&#x2021;" horiz-adv-x="621" d="M359 679v-659c0 -14 -5 -20 -18 -20h-59c-13 0 -18 6 -18 20v659c0 14 5 20 18 20h59c13 0 18 -6 18 -20zM101 507h120c13 0 19 -5 19 -18v-43c0 -14 -6 -19 -19 -19h-120c-13 0 -19 5 -19 19v43c0 13 6 18 19 18zM402 507h119c13 0 19 -5 19 -18v-43c0 -14 -6 -19 -19 -19h-119c-14 0 -20 5 -20 19v43c0 13 6 18 20 18zM101 271h120c13 0 19 -5 19 -19v-42c0 -14 -6 -20 -19 -20h-120c-13 0 -19 6 -19 20v42c0 14 6 19 19 19zM402 271h119c13 0 19 -5 19 -19v-42c0 -14 -6 -20 -19 -20h-119c-14 0 -20 6 -20 20v42c0 14 6 19 20 19z" />    <glyph glyph-name="section" unicode="&#xa7;" horiz-adv-x="550" d="M457 277v-91c0 -13 -5 -19 -18 -19h-52c-13 0 -18 6 -18 19v82c0 33 -31 49 -49 54l-141 43c-40 12 -97 43 -97 114v71c0 79 53 138 194 138s193 -52 193 -134v-11c0 -14 -5 -19 -19 -19h-51c-13 0 -19 5 -19 19v15c0 43 -26 65 -101 65c-76 0 -103 -23 -103 -65v-74c0 -32 40 -45 59 -51l131 -39c41 -12 91 -52 91 -117zM94 204v90c0 14 5 19 18 19h52c13 0 18 -5 18 -19v-81c0 -33 31 -50 49 -55l141 -42c40 -12 97 -43 97 -114v-71c0 -79 -53 -138 -194 -138s-193 52 -193 134v11c0 14 6 19 19 19h51c14 0 19 -5 19 -19v-16c0 -42 26 -65 102 -65c75 0 102 24 102 66v74c0 32 -40 45 -59 51l-131 39c-41 12 -91 52 -91 117z" />    <glyph glyph-name="paragraph" unicode="&#xb6;" horiz-adv-x="665" d="M409 661v-845c0 -14 -5 -20 -18 -20h-61c-14 0 -19 6 -19 20v466h-36c-152 0 -193 55 -193 131v136c0 76 41 131 193 131h116c13 0 18 -6 18 -19zM584 660v-844c0 -14 -5 -20 -18 -20h-61c-14 0 -19 6 -19 20v844c0 14 5 20 19 20h61c13 0 18 -6 18 -20z" />    <glyph glyph-name="asciicircum" unicode="^" horiz-adv-x="565" d="M397 308l-116 276l-114 -276c-5 -12 -9 -20 -21 -20h-57c-13 0 -22 8 -17 20l156 354c5 10 9 18 21 18h65c13 0 17 -8 21 -18l157 -354c6 -13 -4 -20 -17 -20h-57c-13 0 -16 8 -21 20z" />    <glyph glyph-name="asciitilde" unicode="~" horiz-adv-x="494" d="M161 270c-18 0 -19 -9 -22 -35l-1 -9c-1 -13 -8 -17 -21 -17h-30c-13 0 -17 8 -16 22l3 36c5 63 43 87 78 87c18 0 37 -6 48 -11l90 -42c13 -6 32 -14 43 -14c19 0 17 11 21 38l1 7c2 14 8 17 20 17h31c14 0 17 -7 16 -22l-3 -36c-6 -66 -43 -88 -75 -88c-14 0 -36 4 -56 13l-92 43c-9 4 -25 11 -35 11z" />    <glyph glyph-name="brokenbar" unicode="&#xa6;" d="M166 660v-326c0 -14 -5 -20 -18 -20h-58c-14 0 -19 6 -19 20v326c0 14 5 20 19 20h58c13 0 18 -6 18 -20zM166 135v-326c0 -14 -5 -20 -18 -20h-58c-14 0 -19 6 -19 20v326c0 14 5 20 19 20h58c13 0 18 -6 18 -20z" />    <glyph glyph-name="backslash" unicode="\" horiz-adv-x="368" d="M238 -128l-209 807c-3 13 2 20 15 20h64c14 0 20 -7 23 -20l208 -807c3 -13 -3 -20 -14 -20h-65c-13 0 -18 6 -22 20z" />    <glyph glyph-name="underscore" unicode="_" horiz-adv-x="443" d="M41 -80h361c13 0 19 -5 19 -18v-43c0 -14 -6 -19 -19 -19h-361c-13 0 -19 5 -19 19v43c0 13 6 18 19 18z" />    <glyph glyph-name="at" unicode="@" horiz-adv-x="895" d="M628 -134h-180c-310 0 -366 97 -366 198v375c0 101 56 197 366 197c309 0 366 -96 366 -197v-262c0 -84 -41 -144 -154 -144c-71 0 -110 26 -127 63c-26 -22 -82 -63 -160 -63c-86 0 -120 44 -120 113c0 7 0 15 1 23l15 153c8 84 49 136 138 136c60 0 110 -31 139 -53l4 26c2 13 7 19 21 19h51c13 0 17 -6 16 -19l-24 -236c-5 -50 4 -91 52 -91c45 0 55 38 55 86v245c0 75 -52 123 -273 123s-274 -49 -274 -123v-367c0 -74 53 -123 274 -123h180c13 0 19 -6 19 -19v-41c0 -13 -6 -19 -19 -19zM360 304l-11 -111c-1 -9 -1 -13 -1 -20c0 -29 17 -51 64 -51c46 0 87 25 107 37v11l17 160c-19 15 -53 43 -101 43c-56 0 -72 -34 -75 -69z" />    <glyph glyph-name="copyright" unicode="&#xa9;" horiz-adv-x="749" d="M667 486v-291c0 -101 -38 -203 -293 -203c-254 0 -292 102 -292 203v291c0 100 38 202 292 202c255 0 293 -102 293 -202zM597 182v317c0 74 -55 128 -223 128c-167 0 -222 -54 -222 -129v-316c0 -74 55 -128 222 -128c168 0 223 53 223 128zM375 548c122 0 155 -49 155 -131v-12c0 -14 -5 -19 -19 -19h-47c-14 0 -19 5 -19 19v10c0 43 -14 67 -70 67s-69 -24 -69 -67v-150c0 -43 13 -67 69 -67s70 24 70 67v17c0 14 5 20 19 20h47c14 0 19 -6 19 -20v-20c0 -82 -33 -131 -155 -131c-121 0 -155 49 -155 131v155c0 82 34 131 155 131z" />    <glyph glyph-name="registered" unicode="&#xae;" horiz-adv-x="632" d="M551 538v-181c0 -63 -27 -150 -234 -150s-235 87 -235 150v181c0 63 28 150 235 150s234 -87 234 -150zM487 350v194c0 44 -31 86 -170 86s-171 -42 -171 -86v-193c0 -44 32 -87 171 -87s170 42 170 86zM433 482c0 -26 -9 -54 -43 -68l36 -89c3 -8 -2 -14 -13 -14h-39c-8 0 -9 5 -13 14l-33 79h-51v-79c0 -9 -3 -14 -13 -14h-39c-9 0 -13 5 -13 14v241c0 10 4 14 13 14h105c85 0 103 -41 103 -78v-20zM323 531h-46v-78h46c26 0 44 13 44 31v15c0 20 -17 32 -44 32z" />    <glyph glyph-name="trademark" unicode="&#x2122;" horiz-adv-x="905" d="M824 664v-376c0 -11 -4 -16 -16 -16h-47c-11 0 -16 5 -16 16v241c-1 -2 -5 -17 -9 -27l-69 -153c-4 -9 -10 -15 -21 -15h-35c-11 0 -17 6 -21 15l-72 155c-5 10 -8 24 -9 28v-244c0 -11 -5 -16 -15 -16h-45c-12 0 -16 5 -16 16v376c0 11 4 16 16 16h45c7 0 11 -2 13 -7l108 -220c6 -13 12 -28 13 -31c0 1 6 16 12 29l106 222c2 5 7 7 15 7h47c12 0 16 -5 16 -16zM98 680h272c12 0 16 -4 16 -15v-37c0 -12 -4 -15 -16 -15h-95v-325c0 -11 -4 -16 -15 -16h-51c-11 0 -16 5 -16 16v325h-95c-12 0 -16 3 -16 15v37c0 11 4 15 16 15z" />    <glyph glyph-name="currency" unicode="&#xa4;" horiz-adv-x="653" d="M95 306h40v67h-40c-13 0 -19 5 -19 19v25c0 13 6 18 19 18h40v99c0 82 49 154 221 154s221 -72 221 -154v-49c0 -14 -5 -20 -18 -20h-58c-14 0 -19 6 -19 20v33c0 54 -35 87 -125 87s-124 -33 -124 -87v-83h132c13 0 19 -5 19 -18v-25c0 -14 -6 -19 -19 -19h-132v-67h132c13 0 19 -5 19 -18v-25c0 -14 -6 -19 -19 -19h-132v-82c0 -54 34 -87 124 -87s125 33 125 87v47c0 13 5 19 19 19h58c13 0 18 -6 18 -19v-63c0 -82 -49 -154 -221 -154s-221 72 -221 154v98h-40c-13 0 -19 5 -19 19v25c0 13 6 18 19 18z" />    <glyph glyph-name="Euro" unicode="&#x20ac;" horiz-adv-x="653" d="M95 306h40v67h-40c-13 0 -19 5 -19 19v25c0 13 6 18 19 18h40v99c0 82 49 154 221 154s221 -72 221 -154v-49c0 -14 -5 -20 -18 -20h-58c-14 0 -19 6 -19 20v33c0 54 -35 87 -125 87s-124 -33 -124 -87v-83h132c13 0 19 -5 19 -18v-25c0 -14 -6 -19 -19 -19h-132v-67h132c13 0 19 -5 19 -18v-25c0 -14 -6 -19 -19 -19h-132v-82c0 -54 34 -87 124 -87s125 33 125 87v47c0 13 5 19 19 19h58c13 0 18 -6 18 -19v-63c0 -82 -49 -154 -221 -154s-221 72 -221 154v98h-40c-13 0 -19 5 -19 19v25c0 13 6 18 19 18z" />    <glyph glyph-name="dollar" unicode="$" horiz-adv-x="532" d="M361 449v24c0 36 -33 53 -95 53c-61 0 -93 -17 -93 -53v-17c0 -26 24 -40 42 -46l150 -52c55 -19 90 -51 90 -98v-56c0 -54 -41 -104 -138 -117v-67c0 -14 -5 -20 -18 -20h-59c-13 0 -19 6 -19 20v66c-104 11 -145 63 -145 118v25c0 12 5 18 17 18h53c13 0 17 -6 17 -18v-21c0 -36 38 -53 102 -53c63 0 102 17 102 53v27c0 24 -20 37 -53 48l-150 52c-37 13 -78 51 -78 101v37c0 54 35 108 135 120v67c0 14 6 20 19 20h59c13 0 18 -6 18 -20v-67c96 -14 131 -67 131 -120v-24c0 -13 -4 -18 -18 -18h-52c-12 0 -17 5 -17 18z" />    <glyph glyph-name="cent" unicode="&#xa2;" horiz-adv-x="536" d="M312 660v-66c107 -11 147 -62 147 -135v-18c0 -14 -5 -19 -18 -19h-54c-14 0 -19 5 -19 19v11c0 42 -23 66 -99 66c-75 0 -98 -24 -98 -66v-224c0 -42 23 -66 98 -66c76 0 99 24 99 66v20c0 13 5 19 19 19h54c13 0 18 -6 18 -19v-27c0 -73 -40 -124 -147 -135v-66c0 -14 -4 -20 -18 -20h-58c-14 0 -19 6 -19 20v66c-103 12 -141 63 -141 135v238c0 71 38 122 141 134v67c0 14 5 20 19 20h58c14 0 18 -6 18 -20z" />    <glyph glyph-name="sterling" unicode="&#xa3;" horiz-adv-x="672" d="M250 378h135c13 0 19 -5 19 -18v-43c0 -14 -6 -19 -19 -19h-135v-217h181c43 0 72 23 72 97v7c0 14 6 20 19 20h55c13 0 19 -6 19 -20v-7c0 -142 -59 -178 -141 -178h-360c-14 0 -19 5 -19 19v43c0 14 5 19 19 19h57v217h-57c-14 0 -19 5 -19 19v43c0 13 5 18 19 18h57v161c0 81 44 149 208 149c165 0 209 -68 209 -149v-31c0 -14 -5 -20 -18 -20h-57c-13 0 -19 6 -19 20v14c0 55 -27 83 -114 83c-86 0 -111 -28 -111 -83v-144z" />    <glyph glyph-name="florin" unicode="&#x192;" horiz-adv-x="562" d="M488 627h-15c-76 0 -106 -24 -111 -66l-17 -137h87c13 0 19 -5 19 -19v-40c0 -13 -6 -19 -19 -19h-94l-48 -422c-9 -82 -72 -137 -213 -137h-7c-13 0 -19 5 -19 19v41c0 14 6 20 19 20h15c75 0 105 24 110 67l47 412h-77c-14 0 -19 6 -19 19v40c0 14 5 19 19 19h85l17 147c9 82 72 137 213 137h8c13 0 19 -5 19 -19v-42c0 -14 -6 -20 -19 -20z" />    <glyph glyph-name="yen" unicode="&#xa5;" horiz-adv-x="651" d="M521 250h-146v-231c0 -13 -5 -19 -18 -19h-61c-14 0 -19 6 -19 19v231h-146c-13 0 -19 5 -19 18v25c0 14 6 19 19 19h120l-33 67h-87c-13 0 -19 5 -19 19v25c0 13 6 18 19 18h56l-108 220c-6 12 0 19 14 19h69c13 0 17 -7 23 -19l125 -264l16 -44c1 4 9 31 16 44l133 264c5 10 10 19 22 19h61c13 0 20 -6 13 -19l-111 -220h61c13 0 19 -5 19 -18v-25c0 -14 -6 -19 -19 -19h-92l-33 -67h125c13 0 19 -5 19 -19v-25c0 -13 -6 -18 -19 -18z" />    <glyph glyph-name="ordfeminine" unicode="&#xaa;" horiz-adv-x="355" d="M63 598v9c0 50 40 81 119 81c81 0 118 -32 118 -84v-206c0 -9 -3 -13 -13 -13h-40c-11 0 -13 3 -14 13l-2 15c-17 -14 -47 -33 -90 -33c-61 0 -86 34 -86 74v27c0 41 31 74 89 74h85v48c0 20 -11 33 -49 33c-37 0 -49 -13 -49 -32v-6c0 -9 -5 -13 -13 -13h-41c-11 0 -14 4 -14 13zM161 433c31 0 59 20 68 28v46h-71c-22 0 -32 -14 -32 -31v-12c0 -19 9 -31 35 -31z" />    <glyph glyph-name="ordmasculine" unicode="&#xba;" horiz-adv-x="364" d="M54 465v137c0 52 40 86 128 86c87 0 127 -34 127 -86v-137c0 -52 -40 -85 -127 -85c-88 0 -128 33 -128 85zM236 473v122c0 24 -17 36 -54 36s-55 -12 -55 -36v-122c0 -24 18 -36 55 -36s54 12 54 36z" />    <glyph glyph-name="degree" unicode="&#xb0;" horiz-adv-x="418" d="M60 489v96c0 62 35 102 149 102s149 -40 149 -102v-96c0 -62 -35 -102 -149 -102s-149 40 -149 102zM277 493v89c0 26 -22 41 -68 41s-68 -15 -68 -41v-89c0 -28 22 -42 68 -42s68 14 68 42z" />    <glyph glyph-name="numbersign" unicode="#" horiz-adv-x="663" d="M95 271h76l27 94h-59c-13 0 -19 6 -19 19v32c0 13 6 18 19 18h78l25 88c3 12 10 20 24 20h42c14 0 17 -9 14 -20l-25 -88h140l25 88c3 12 10 20 23 20h42c14 0 17 -9 14 -20l-25 -88h52c13 0 19 -5 19 -18v-32c0 -13 -6 -19 -19 -19h-72l-26 -94h54c13 0 19 -5 19 -18v-32c0 -13 -6 -19 -19 -19h-74l-24 -87c-4 -13 -10 -20 -23 -20h-43c-12 0 -18 7 -14 20l25 87h-140l-25 -87c-4 -13 -9 -20 -23 -20h-42c-12 0 -18 7 -14 20l25 87h-57c-13 0 -19 6 -19 19v32c0 13 6 18 19 18zM277 365l-27 -94h140l27 94h-140z" />    <glyph glyph-name="zero" unicode="0" horiz-adv-x="550" d="M58 146v388c0 82 50 154 217 154s218 -72 218 -154v-388c0 -82 -51 -154 -218 -154s-217 72 -217 154zM395 162v356c0 54 -31 87 -120 87s-119 -33 -119 -87v-356c0 -54 30 -87 119 -87s120 33 120 87z" />    <glyph glyph-name="one" unicode="1" horiz-adv-x="550" d="M90 636l229 49c8 2 18 -1 18 -18v-584h147c13 0 19 -4 19 -18v-46c0 -14 -6 -19 -19 -19h-395c-13 0 -19 5 -19 19v46c0 14 6 18 19 18h150v495l-149 -29c-12 -2 -19 3 -19 16v49c0 14 7 19 19 22z" />    <glyph glyph-name="two" unicode="2" horiz-adv-x="550" d="M173 83h304c13 0 19 -4 19 -18v-46c0 -14 -6 -19 -19 -19h-383c-13 0 -19 5 -19 19v190c0 59 47 79 76 90l194 72c19 7 51 23 51 65v83c0 55 -30 87 -119 87c-88 0 -118 -32 -118 -87v-43c0 -14 -5 -20 -18 -20h-58c-14 0 -19 6 -19 20v58c0 82 46 154 213 154s216 -72 216 -154v-96c0 -88 -57 -123 -92 -136l-170 -61c-26 -9 -58 -22 -58 -62v-96z" />    <glyph glyph-name="three" unicode="3" horiz-adv-x="550" d="M189 396h77c89 0 116 29 116 84v42c0 54 -26 85 -112 85c-87 0 -114 -31 -114 -85v-13c0 -13 -6 -19 -19 -19h-58c-14 0 -18 6 -18 19v26c0 82 42 153 210 153c166 0 208 -69 208 -150v-72c0 -54 -18 -90 -82 -108c70 -20 89 -61 89 -115v-101c0 -81 -47 -150 -214 -150c-168 0 -216 71 -216 153v26c0 13 5 19 18 19h59c13 0 18 -6 18 -19v-13c0 -54 33 -85 120 -85s119 31 119 85v73c0 55 -27 84 -117 84h-84c-14 0 -19 5 -19 19v43c0 14 5 19 19 19z" />    <glyph glyph-name="four" unicode="4" horiz-adv-x="550" d="M271 660l-129 -375h235v375c0 14 5 20 19 20h61c13 0 18 -6 18 -20v-640c0 -14 -5 -20 -18 -20h-61c-14 0 -19 6 -19 20v182h-317c-13 0 -19 5 -19 19v40c0 11 2 16 5 26l127 373c4 13 10 20 23 20h61c14 0 18 -8 14 -20z" />    <glyph glyph-name="five" unicode="5" horiz-adv-x="550" d="M103 680h347c14 0 20 -5 20 -19v-45c0 -14 -6 -19 -20 -19h-267v-172h91c151 0 214 -62 214 -145v-136c0 -82 -44 -153 -212 -153s-212 71 -212 153v26c0 14 5 20 19 20h58c13 0 19 -6 19 -20v-12c0 -55 27 -86 115 -86c89 0 115 31 115 86v108c0 44 -29 78 -117 78h-170c-13 0 -18 6 -18 20v296c0 14 5 20 18 20z" />    <glyph glyph-name="six" unicode="6" horiz-adv-x="550" d="M64 146v392c0 75 44 150 211 150s208 -76 208 -150v-22c0 -13 -6 -19 -19 -19h-58c-14 0 -18 6 -18 19v8c0 48 -25 83 -113 83s-114 -34 -114 -83v-156c23 25 64 42 128 42c153 0 201 -72 201 -154v-110c0 -82 -46 -154 -213 -154s-213 72 -213 154zM393 159v83c0 55 -27 87 -116 87c-84 0 -116 -29 -116 -79v-91c0 -54 27 -86 116 -86s116 32 116 86z" />    <glyph glyph-name="seven" unicode="7" horiz-adv-x="550" d="M68 680h420c13 0 19 -5 19 -19v-40c0 -7 -1 -13 -4 -20l-250 -581c-5 -11 -11 -20 -24 -20h-70c-14 0 -19 6 -13 20l250 577h-328c-14 0 -20 5 -20 19v45c0 14 6 19 20 19z" />    <glyph glyph-name="eight" unicode="8" horiz-adv-x="550" d="M72 469v65c0 82 36 154 203 154s203 -72 203 -154v-65c0 -53 -20 -92 -84 -111c68 -19 93 -59 93 -112v-100c0 -82 -45 -154 -212 -154s-212 72 -212 154v100c0 53 25 93 93 112c-63 19 -84 58 -84 111zM391 159v72c0 55 -27 86 -116 86s-115 -31 -115 -86v-72c0 -54 26 -86 115 -86s116 32 116 86zM383 484v37c0 54 -21 86 -108 86s-107 -32 -107 -86v-37c0 -55 20 -87 107 -87s108 32 108 87z" />    <glyph glyph-name="nine" unicode="9" horiz-adv-x="550" d="M486 534v-392c0 -75 -43 -150 -210 -150s-208 76 -208 150v22c0 13 5 19 19 19h58c13 0 18 -6 18 -19v-8c0 -48 24 -83 113 -83c88 0 113 34 113 83v155c-23 -25 -63 -41 -128 -41c-152 0 -201 72 -201 154v110c0 82 46 154 214 154c167 0 212 -72 212 -154zM389 434v87c0 54 -27 86 -115 86c-89 0 -117 -32 -117 -86v-83c0 -55 28 -87 117 -87c85 0 115 30 115 83z" />    <glyph glyph-name="onesuperior" unicode="&#xb9;" horiz-adv-x="375" d="M68 659l145 28c6 1 13 0 13 -13v-338h82c10 0 13 -2 13 -13v-33c0 -11 -3 -14 -13 -14h-240c-10 0 -14 3 -14 14v33c0 11 4 13 14 13h83v278l-83 -14c-9 -2 -14 1 -14 11v34c0 9 5 12 14 14z" />    <glyph glyph-name="twosuperior" unicode="&#xb2;" horiz-adv-x="380" d="M136 336h177c9 0 14 -3 14 -14v-33c0 -10 -5 -14 -14 -14h-238c-9 0 -13 4 -13 14v110c0 35 22 46 42 54l120 48c12 5 27 13 27 36v44c0 30 -20 47 -63 47s-62 -17 -62 -47v-24c0 -11 -3 -15 -13 -15h-46c-9 0 -13 4 -13 15v35c0 49 31 96 134 96s136 -47 136 -96v-51c0 -57 -33 -79 -56 -88l-107 -43c-6 -2 -25 -8 -25 -23v-51z" />    <glyph glyph-name="threesuperior" unicode="&#xb3;" horiz-adv-x="379" d="M143 517h41c45 0 62 15 62 46v20c0 31 -15 47 -58 47s-59 -16 -59 -47v-6c0 -8 -4 -13 -14 -13h-45c-11 0 -14 5 -14 13v17c0 49 27 95 133 95c104 0 131 -44 131 -94v-43c0 -31 -11 -52 -46 -62c39 -14 51 -38 51 -70v-56c0 -49 -30 -93 -135 -93s-136 46 -136 95v17c0 9 3 13 13 13h45c10 0 15 -4 15 -13v-6c0 -31 19 -47 62 -47s63 16 63 47v35c0 31 -18 46 -62 46h-47c-10 0 -15 4 -15 13v32c0 11 5 14 15 14z" />    <glyph glyph-name="fraction" unicode="&#x2044;" horiz-adv-x="444" d="M419 660l-310 -640c-7 -14 -14 -20 -27 -20h-50c-12 0 -13 12 -9 20l311 640c5 11 13 20 27 20h49c12 0 15 -9 9 -20z" />    <glyph glyph-name="onequarter" unicode="&#xbc;" horiz-adv-x="860" d="M681 394l-70 -219h121v219c0 10 4 14 14 14h47c11 0 14 -4 14 -14v-380c0 -10 -3 -14 -14 -14h-47c-10 0 -14 4 -14 14v101h-185c-9 0 -15 4 -15 14v30c0 4 1 8 2 11l72 224c3 9 7 14 17 14h48c10 0 13 -6 10 -14zM68 659l145 28c6 1 13 0 13 -13v-338h82c10 0 13 -2 13 -13v-33c0 -11 -3 -14 -13 -14h-240c-10 0 -14 3 -14 14v33c0 11 4 13 14 13h83v280l-83 -16c-9 -2 -14 1 -14 11v34c0 9 5 12 14 14zM579 715l-190 -750c-3 -10 -5 -14 -15 -14h-50c-9 0 -13 5 -11 14l189 750c2 10 7 14 17 14h49c9 0 13 -5 11 -14z" />    <glyph glyph-name="onehalf" unicode="&#xbd;" horiz-adv-x="871" d="M68 659l145 28c6 1 13 0 13 -13v-338h82c10 0 13 -2 13 -13v-33c0 -11 -3 -14 -13 -14h-240c-10 0 -14 3 -14 14v33c0 11 4 13 14 13h83v280l-83 -16c-9 -2 -14 1 -14 11v34c0 9 5 12 14 14zM571 715l-190 -750c-2 -10 -5 -14 -15 -14h-50c-9 0 -13 5 -11 14l190 750c3 10 6 14 16 14h50c9 0 12 -5 10 -14zM627 61h177c9 0 14 -3 14 -14v-33c0 -10 -5 -14 -14 -14h-238c-10 0 -13 4 -13 14v110c0 35 22 46 42 54l120 48c11 4 27 13 27 36v44c0 30 -20 47 -63 47c-44 0 -62 -17 -62 -47v-24c0 -11 -3 -15 -13 -15h-46c-9 0 -14 4 -14 15v35c0 49 32 96 135 96s136 -47 136 -96v-51c0 -57 -33 -79 -56 -88l-107 -43c-6 -2 -25 -8 -25 -23v-51z" />    <glyph glyph-name="threequarters" unicode="&#xbe;" horiz-adv-x="866" d="M143 516h41c45 0 62 15 62 46v20c0 31 -15 47 -58 47s-59 -16 -59 -47v-6c0 -8 -4 -13 -14 -13h-45c-11 0 -14 5 -14 13v17c0 49 27 95 133 95c104 0 131 -44 131 -94v-43c0 -31 -11 -52 -46 -62c39 -14 51 -38 51 -70v-56c0 -49 -30 -93 -135 -93s-136 46 -136 95v17c0 9 3 13 13 13h45c10 0 15 -4 15 -13v-6c0 -31 19 -47 62 -47s63 16 63 47v35c0 31 -18 46 -62 46h-47c-10 0 -15 4 -15 13v32c0 11 5 14 15 14zM686 394l-70 -219h121v219c0 10 4 14 14 14h47c11 0 14 -4 14 -14v-380c0 -10 -3 -14 -14 -14h-47c-10 0 -14 4 -14 14v101h-185c-9 0 -15 4 -15 14v30c0 4 1 8 2 11l72 224c3 9 7 14 17 14h48c10 0 13 -6 10 -14zM585 715l-190 -750c-2 -10 -5 -14 -15 -14h-50c-9 0 -13 5 -11 14l190 750c3 10 6 14 16 14h50c9 0 12 -5 10 -14z" />    <glyph glyph-name="percent" unicode="%" horiz-adv-x="815" d="M76 481v104c0 62 39 102 144 102s144 -40 144 -102v-104c0 -62 -39 -103 -144 -103s-144 41 -144 103zM285 484v98c0 26 -19 41 -65 41s-65 -15 -65 -41v-98c0 -27 19 -41 65 -41s65 14 65 41zM660 97v98c0 26 -19 40 -65 40s-65 -14 -65 -40v-98c0 -28 19 -42 65 -42s65 14 65 42zM451 93v104c0 62 39 103 144 103s144 -41 144 -103v-104c0 -62 -39 -102 -144 -102s-144 40 -144 102zM607 660l-310 -640c-7 -14 -14 -20 -27 -20h-50c-12 0 -13 12 -9 20l311 640c5 11 13 20 27 20h49c12 0 15 -9 9 -20z" />    <glyph glyph-name="perthousand" unicode="&#x2030;" horiz-adv-x="1157" d="M76 481v104c0 62 39 102 144 102s144 -40 144 -102v-104c0 -62 -39 -103 -144 -103s-144 41 -144 103zM285 484v98c0 26 -19 41 -65 41s-65 -15 -65 -41v-98c0 -27 19 -41 65 -41s65 14 65 41zM660 97v98c0 26 -19 40 -65 40s-65 -14 -65 -40v-98c0 -28 19 -42 65 -42s65 14 65 42zM451 93v104c0 62 39 103 144 103s144 -41 144 -103v-104c0 -62 -39 -102 -144 -102s-144 40 -144 102zM1002 97v98c0 26 -19 40 -65 40s-65 -14 -65 -40v-98c0 -28 19 -42 65 -42s65 14 65 42zM793 93v104c0 62 39 103 145 103c104 0 143 -41 143 -103v-104c0 -62 -39 -102 -143 -102c-106 0 -145 40 -145 102zM607 660l-310 -640c-7 -14 -14 -20 -27 -20h-50c-12 0 -13 12 -9 20l311 640c5 11 13 20 27 20h49c12 0 15 -9 9 -20z" />    <glyph glyph-name="plus" unicode="+" horiz-adv-x="571" d="M245 143v155h-155c-14 0 -19 6 -19 19v43c0 14 5 19 19 19h155v155c0 14 5 20 18 20h42c13 0 19 -6 19 -20v-155h157c13 0 19 -5 19 -19v-43c0 -13 -6 -19 -19 -19h-157v-155c0 -13 -6 -19 -19 -19h-42c-13 0 -18 6 -18 19z" />    <glyph glyph-name="minus" unicode="&#x2212;" horiz-adv-x="585" d="M90 371h405c13 0 19 -5 19 -19v-42c0 -14 -6 -20 -19 -20h-405c-13 0 -19 6 -19 20v42c0 14 6 19 19 19z" />    <glyph glyph-name="plusminus" unicode="&#xb1;" horiz-adv-x="571" d="M245 231v110h-155c-14 0 -19 5 -19 19v43c0 13 5 18 19 18h155v110c0 13 5 19 18 19h42c13 0 19 -6 19 -19v-110h157c13 0 19 -5 19 -18v-43c0 -14 -6 -19 -19 -19h-157v-110c0 -14 -6 -20 -19 -20h-42c-13 0 -18 6 -18 20zM90 153h391c13 0 19 -5 19 -19v-42c0 -14 -6 -20 -19 -20h-391c-14 0 -19 6 -19 20v42c0 14 5 19 19 19z" />    <glyph glyph-name="multiply" unicode="&#xd7;" horiz-adv-x="543" d="M334 149l-78 134l-135 -77c-12 -7 -20 -5 -26 7l-20 37c-7 12 -5 19 7 26l135 77l-78 135c-7 12 -5 19 6 26l36 22c11 7 19 5 26 -8l78 -135l136 78c12 7 18 6 25 -6l21 -37c7 -12 5 -20 -7 -27l-136 -78l78 -134c7 -12 5 -19 -7 -26l-36 -21c-11 -7 -18 -5 -25 7z" />    <glyph glyph-name="divide" unicode="&#xf7;" horiz-adv-x="585" d="M89 350h406c12 0 19 -4 19 -18v-43c0 -13 -5 -19 -19 -19h-405c-14 0 -19 5 -19 19v43c0 14 5 18 18 18zM341 180v-80c0 -14 -5 -19 -18 -19h-60c-14 0 -19 5 -19 19v80c0 13 5 19 19 19h60c13 0 18 -6 18 -19zM341 524v-80c0 -14 -5 -19 -18 -19h-60c-14 0 -19 5 -19 19v80c0 13 5 19 19 19h60c13 0 18 -6 18 -19z" />    <glyph glyph-name="equal" unicode="=" horiz-adv-x="585" d="M90 462h405c14 0 19 -5 19 -18v-43c0 -14 -5 -19 -19 -19h-405c-13 0 -19 5 -19 19v43c0 13 6 18 19 18zM90 272h405c14 0 19 -5 19 -18v-43c0 -14 -5 -19 -19 -19h-405c-13 0 -19 5 -19 19v43c0 13 6 18 19 18z" />    <glyph glyph-name="notequal" unicode="&#x2260;" horiz-adv-x="585" d="M90 462h207l24 63c5 13 11 20 24 20h55c13 0 18 -7 13 -20l-24 -63h106c14 0 19 -5 19 -18v-43c0 -14 -5 -19 -19 -19h-136l-42 -110h178c14 0 19 -5 19 -18v-43c0 -14 -5 -19 -19 -19h-208l-24 -63c-5 -13 -12 -19 -25 -19h-55c-11 0 -16 7 -12 19l24 63h-105c-13 0 -19 5 -19 19v43c0 13 6 18 19 18h135l42 110h-177c-13 0 -19 5 -19 19v43c0 13 6 18 19 18z" />    <glyph glyph-name="approxequal" unicode="&#x2248;" horiz-adv-x="494" d="M161 384c-18 0 -19 -9 -22 -35l-1 -9c-1 -13 -8 -17 -21 -17h-30c-13 0 -17 8 -16 22l3 36c5 63 43 87 78 87c18 0 37 -6 48 -11l90 -42c13 -6 32 -14 43 -14c19 0 17 11 21 38l1 7c2 14 8 17 20 17h31c14 0 17 -7 16 -22l-3 -36c-6 -66 -43 -88 -75 -88c-14 0 -36 4 -56 13l-92 43c-9 4 -25 11 -35 11zM161 212c-18 0 -19 -9 -22 -35l-1 -9c-1 -13 -8 -17 -21 -17h-30c-13 0 -17 8 -16 22l3 36c5 63 43 87 78 87c18 0 37 -6 48 -11l90 -42c13 -6 32 -14 43 -14c19 0 17 11 21 38l1 7c2 14 8 17 20 17h31c14 0 17 -7 16 -22l-3 -36c-6 -66 -43 -88 -75 -88c-14 0 -36 4 -56 13l-92 43c-9 4 -25 11 -35 11z" />    <glyph glyph-name="less" unicode="&#x3c;" horiz-adv-x="532" d="M442 455l-278 -116l278 -114c12 -5 19 -9 19 -22v-56c0 -14 -7 -22 -19 -17l-354 156c-10 5 -17 8 -17 21v65c0 13 7 17 17 21l354 157c13 6 19 -4 19 -18v-56c0 -13 -7 -16 -19 -21z" />    <glyph glyph-name="greater" unicode="&#x3e;" horiz-adv-x="532" d="M368 339l-278 114c-12 5 -19 9 -19 22v58c0 14 6 24 19 18l354 -157c10 -4 17 -8 17 -21v-67c0 -14 -7 -17 -17 -21l-354 -157c-12 -6 -19 4 -19 18v58c0 14 7 17 19 22z" />    <glyph glyph-name="lessequal" unicode="&#x2264;" horiz-adv-x="532" d="M442 509l-278 -95l278 -95c12 -4 19 -8 19 -21v-57c0 -13 -6 -22 -19 -17l-354 137c-10 4 -17 7 -17 20v65c0 13 7 17 17 21l354 137c13 5 19 -4 19 -17v-57c0 -13 -7 -17 -19 -21zM90 172h352c14 0 19 -4 19 -18v-41c0 -14 -5 -19 -19 -19h-352c-13 0 -19 5 -19 19v41c0 14 6 18 19 18z" />    <glyph glyph-name="greaterequal" unicode="&#x2265;" horiz-adv-x="532" d="M368 414l-278 94c-12 4 -19 9 -19 22v58c0 14 6 23 19 18l354 -136c10 -4 17 -8 17 -22v-67c0 -14 -7 -17 -17 -21l-354 -137c-13 -5 -19 4 -19 18v58c0 14 7 18 19 22zM90 173h352c13 0 19 -5 19 -19v-43c0 -13 -6 -19 -19 -19h-352c-14 0 -19 6 -19 19v43c0 14 5 19 19 19z" />    <glyph glyph-name="mu" unicode="&#x3bc;" horiz-adv-x="530" d="M368 19l-2 30c-27 -23 -78 -57 -160 -57c-19 0 -36 3 -51 7l5 -183c0 -14 -5 -20 -18 -20h-59c-13 0 -18 6 -18 20v660c0 14 5 20 18 20h58c13 0 19 -6 19 -20v-333c0 -42 19 -66 74 -66c63 0 109 33 130 50v349c0 14 5 20 18 20h59c13 0 18 -6 18 -20v-457c0 -14 -5 -19 -18 -19h-54c-14 0 -18 5 -19 19z" />    <glyph glyph-name="logicalnot" unicode="&#xac;" horiz-adv-x="388" d="M75 317c0 65 52 118 118 118c65 0 118 -53 118 -118c0 -66 -53 -118 -118 -118c-66 0 -118 52 -118 118z" />    <glyph glyph-name="Delta" unicode="&#x394;" horiz-adv-x="388" d="M109 426h170c16 0 23 -7 23 -23v-170c0 -17 -7 -24 -23 -24h-170c-17 0 -24 7 -24 24v170c0 16 7 23 24 23z" />    <glyph glyph-name="Omega" unicode="&#x3a9;" horiz-adv-x="388" d="M66 317c0 70 57 128 127 128s128 -58 128 -128s-58 -127 -128 -127s-127 57 -127 127zM84 317c0 -61 48 -109 109 -109c60 0 109 48 109 109c0 60 -49 109 -109 109c-61 0 -109 -49 -109 -109z" />    <glyph glyph-name="pi" unicode="&#x3c0;" horiz-adv-x="388" d="M64 440h257c17 0 18 -18 9 -33l-120 -194c-8 -13 -25 -13 -33 0l-120 194c-9 14 -10 33 7 33z" />    <glyph glyph-name="infinity" unicode="&#x221e;" horiz-adv-x="388" d="M50 340l121 121c8 8 15 12 23 12c7 0 15 -3 23 -12l120 -121c8 -8 12 -15 12 -22c0 -8 -4 -15 -12 -23l-120 -121c-8 -9 -16 -12 -23 -12c-8 0 -15 4 -23 12l-121 121c-8 8 -12 15 -12 23c0 7 4 14 12 22zM184 448l-120 -121c-4 -4 -5 -6 -5 -10c0 -3 1 -6 4 -9l121 -121c4 -4 6 -5 10 -5c3 0 5 1 9 5l121 121c3 3 5 6 5 9c0 4 -2 7 -5 10l-121 121c-3 3 -6 4 -9 4c-4 0 -7 -1 -10 -4z" />    <glyph glyph-name="partialdiff" unicode="&#x2202;" horiz-adv-x="388" d="M86 191v257c0 17 19 18 33 9l195 -121c12 -8 12 -24 0 -32l-195 -120c-14 -8 -33 -10 -33 7z" />    <glyph glyph-name="integral" unicode="&#x222b;" horiz-adv-x="388" d="M26 317c0 92 74 168 167 168c92 0 168 -76 168 -168c0 -93 -76 -167 -168 -167c-93 0 -167 74 -167 167z" />    <glyph glyph-name="radical" unicode="&#x221a;" horiz-adv-x="388" d="M109 435h170c23 0 32 -9 32 -32v-170c0 -24 -9 -33 -32 -33h-170c-24 0 -33 9 -33 33v170c0 23 9 32 33 32zM279 416h-170c-9 0 -15 -4 -15 -13v-170c0 -9 6 -15 15 -15h170c9 0 14 6 14 15v170c0 9 -5 13 -14 13z" />    <glyph glyph-name="summation" unicode="&#x2211;" horiz-adv-x="388" d="M301 448v-257c0 -17 -19 -15 -33 -7l-194 120c-13 8 -13 24 0 32l194 121c14 9 33 8 33 -9z" />    <glyph glyph-name="product" unicode="&#x220f;" horiz-adv-x="388" d="M323 200h-257c-17 0 -17 18 -8 33l120 194c8 13 24 13 32 0l120 -194c9 -14 10 -33 -7 -33z" />    <glyph glyph-name="lozenge" unicode="&#x25ca;" horiz-adv-x="388" d="M57 334l121 121c5 5 10 8 16 8c5 0 10 -3 16 -8l121 -121c5 -6 8 -11 8 -16c0 -6 -3 -11 -8 -16l-121 -121c-6 -6 -11 -9 -16 -9c-6 0 -11 3 -16 9l-121 121c-6 5 -9 10 -9 16c0 5 3 10 9 16z" />    <glyph glyph-name="afii61289" unicode="&#x2113;" horiz-adv-x="544" d="M124 135v71s-58 -27 -71 -31c-11 -3 -19 -3 -24 9l-19 44c-5 12 -2 20 10 25c2 1 66 27 104 47v231c0 82 47 153 179 153c127 0 172 -71 172 -153c0 -128 -132 -214 -256 -278v-96c0 -50 27 -79 99 -79h103c14 0 20 -4 20 -18v-41c0 -14 -6 -19 -19 -19h-105c-144 0 -193 59 -193 135zM219 519v-171c85 47 166 109 166 177c0 48 -22 81 -83 81s-83 -32 -83 -87z" />    <glyph glyph-name="estimated" unicode="&#x212e;" horiz-adv-x="833" d="M755 340c0 -12 -6 -16 -17 -16h-559v-199c55 -63 136 -104 230 -104c109 0 182 46 242 111c3 3 6 5 10 5c7 0 13 -6 13 -14c0 -6 -3 -11 -7 -16c-60 -70 -156 -115 -258 -115c-192 0 -348 147 -348 348c0 192 156 348 348 348c190 0 346 -156 346 -348zM409 659c-93 0 -175 -42 -230 -105v-204h460v202c-56 64 -138 107 -230 107z" />    <glyph glyph-name="uni2206" unicode="&#x2206;" horiz-adv-x="388" d="M109 426h170c16 0 23 -7 23 -23v-170c0 -17 -7 -24 -23 -24h-170c-17 0 -24 7 -24 24v170c0 16 7 23 24 23z" />    <glyph glyph-name="uni2126" unicode="&#x2126;" horiz-adv-x="388" d="M66 317c0 70 57 128 127 128s128 -58 128 -128s-58 -127 -128 -127s-127 57 -127 127zM84 317c0 -61 48 -109 109 -109c60 0 109 48 109 109c0 60 -49 109 -109 109c-61 0 -109 -49 -109 -109z" />    <glyph glyph-name="uni00B5" unicode="&#xb5;" horiz-adv-x="530" d="M368 19l-2 30c-27 -23 -78 -57 -160 -57c-19 0 -36 3 -51 7l5 -183c0 -14 -5 -20 -18 -20h-59c-13 0 -18 6 -18 20v660c0 14 5 20 18 20h58c13 0 19 -6 19 -20v-333c0 -42 19 -66 74 -66c63 0 109 33 130 50v349c0 14 5 20 18 20h59c13 0 18 -6 18 -20v-457c0 -14 -5 -19 -18 -19h-54c-14 0 -18 5 -19 19z" />    <glyph glyph-name="apple" unicode="&#xf8ff;" horiz-adv-x="745" d="M205 352h-127c-5 0 -8 3 -8 9v226c0 7 3 10 8 10h123c6 0 9 -3 9 -9v-22c0 -7 -3 -10 -9 -10h-83v-58h78c6 0 9 -3 9 -9v-21c0 -6 -3 -9 -9 -9h-78v-67h87c6 0 9 -3 9 -8v-24c0 -5 -3 -8 -9 -8zM479 588v-228c0 -5 -3 -8 -8 -8h-30c-6 0 -9 3 -9 8v138c0 -1 -7 -22 -11 -33l-27 -67c-3 -7 -7 -10 -11 -10h-27c-5 0 -8 3 -10 10l-31 72c-4 8 -8 24 -9 27v-137c0 -5 -3 -8 -9 -8h-28c-5 0 -8 3 -8 8v228c0 6 3 9 8 9h28c4 0 7 -2 9 -5l55 -126c3 -5 3 -11 6 -16l3 -9l3 8c3 5 3 10 6 17l54 126c1 3 3 5 8 5h30c5 0 8 -3 8 -9zM524 597h151c6 0 9 -3 9 -9v-22c0 -7 -3 -10 -9 -10h-51v-195c0 -6 -3 -9 -9 -9h-31c-7 0 -10 3 -10 9v195h-50c-7 0 -10 3 -10 10v22c0 6 3 9 10 9zM79 680h595c6 0 9 -3 9 -9v-21c0 -6 -3 -9 -9 -9h-595c-5 0 -8 3 -8 9v21c0 6 3 9 8 9zM75 20h604c4 0 6 -2 6 -5v-10c0 -3 -2 -5 -6 -5h-604c-3 0 -4 2 -4 5v10c0 3 1 5 4 5zM211 306l44 -169l6 -29c0 1 0 12 5 29l43 169c1 3 4 5 7 5h13c4 0 5 -2 4 -5l-60 -234c-1 -4 -3 -6 -6 -6h-15c-3 0 -5 2 -7 6l-44 172c-3 11 -3 21 -3 24l-6 -25l-44 -171c-1 -4 -4 -6 -7 -6h-14c-4 0 -6 2 -7 6l-59 234c-1 3 0 5 4 5h15c3 0 6 -2 7 -5l43 -169c1 -7 3 -11 4 -18l2 -10c0 3 0 5 1 8c1 5 1 12 4 20l44 169c1 3 3 5 6 5h14c3 0 5 -2 6 -5zM488 66h-114c-3 0 -5 2 -5 6v234c0 3 2 5 5 5h110c3 0 5 -2 5 -5v-12c0 -3 -2 -5 -5 -5h-90v-84h83c3 0 5 -2 5 -5v-11c0 -3 -2 -5 -5 -5h-83v-96h94c4 0 6 -2 6 -5v-11c0 -4 -2 -6 -6 -6zM604 66h-64c-3 0 -5 2 -5 6v234c0 3 2 5 5 5h55c60 0 77 -22 77 -50v-25c0 -21 -11 -34 -32 -41c29 -7 43 -22 43 -45v-32c0 -29 -19 -52 -79 -52zM595 290h-35v-88h39c35 0 48 14 48 35v20c0 21 -15 33 -52 33zM604 182h-44v-95h44c39 0 53 14 53 35v26c0 21 -14 34 -53 34z" />    <glyph glyph-name="uni00A0" unicode="&#xa0;" horiz-adv-x="211"  />   </font>
</defs>
</svg>
